<svg width="24" height="24" viewBox="0 0 24 24" fill="none" xmlns="http://www.w3.org/2000/svg">
  <circle cx="11.5" cy="11.5" r="10.5" fill="#202020"/>
  <path d="M16.9388 18.2743C16.2349 18.8742 15.4432 19.33 14.5554 19.666C13.5796 20.0179 12.5399 20.2018 11.437 20.2018C9.86059 20.2018 8.41376 19.8187 7.0933 19.0509C5.78163 18.2911 4.7339 17.2594 3.9501 15.9637C3.1823 14.66 2.7984 13.2364 2.7984 11.6688C2.7984 10.0852 3.1823 8.65358 3.9501 7.37391C4.7331 6.07825 5.78163 5.04651 7.0933 4.28671C8.41296 3.5189 9.86059 3.1358 11.437 3.1358C12.5407 3.1358 13.5804 3.32775 14.5554 3.69566C15.404 3.99958 16.163 4.43147 16.8428 4.98253C16.051 6.16622 15.4663 7.49468 15.1392 8.92631C14.8585 8.63039 14.5554 8.36646 14.2115 8.12652C13.4837 7.57466 12.6199 7.29473 11.6281 7.29473C10.7883 7.29473 10.0453 7.49468 9.38871 7.88578C8.73288 8.27768 8.21301 8.79835 7.83791 9.45418C7.4692 10.1172 7.27805 10.8538 7.27805 11.6696C7.27805 12.4694 7.4692 13.2052 7.83791 13.885C8.21381 14.5409 8.73288 15.0615 9.38871 15.4534C10.0445 15.8445 10.7883 16.0445 11.6281 16.0445C12.6199 16.0445 13.4837 15.7726 14.2115 15.2447C14.5714 14.9808 14.8985 14.6936 15.1872 14.3809C15.5303 15.7949 16.1302 17.1146 16.9388 18.2743Z" fill="#E4FF37"/>
</svg>