<svg width="24" height="24" viewBox="0 0 24 24" fill="none" xmlns="http://www.w3.org/2000/svg">
  <path d="M18.258 19.928C17.378 20.678 16.388 21.248 15.278 21.668C14.058 22.108 12.758 22.338 11.379 22.338C9.408 22.338 7.599 21.859 5.948 20.899C4.308 19.949 2.998 18.659 2.018 17.039C1.058 15.409 0.578003 13.629 0.578003 11.669C0.578003 9.689 1.058 7.899 2.018 6.299C2.997 4.679 4.308 3.389 5.948 2.439C7.598 1.479 9.408 1 11.379 1C12.759 1 14.059 1.24 15.278 1.7C16.339 2.08 17.288 2.62 18.138 3.309C17.148 4.789 16.417 6.45 16.008 8.24C15.657 7.87 15.278 7.54 14.848 7.24C13.938 6.55 12.858 6.2 11.618 6.2C10.568 6.2 9.639 6.45 8.818 6.939C7.998 7.429 7.348 8.08 6.879 8.9C6.418 9.729 6.179 10.65 6.179 11.67C6.179 12.67 6.418 13.59 6.879 14.44C7.349 15.26 7.998 15.911 8.818 16.401C9.638 16.89 10.568 17.14 11.618 17.14C12.858 17.14 13.938 16.8 14.848 16.14C15.298 15.81 15.707 15.451 16.068 15.06C16.497 16.828 17.247 18.478 18.258 19.928Z" fill="#E4FF37"/>
</svg>
