<svg width="157" height="37" viewBox="0 0 157 37" fill="none" xmlns="http://www.w3.org/2000/svg">
  <g>
    <path d="M2.46997 33.83V13.83H7.66897V16.03C8.38097 15.096 9.25897 14.385 10.304 13.896C11.37 13.408 12.482 13.164 13.636 13.164C14.814 13.164 15.925 13.408 16.97 13.896C18.015 14.385 18.892 15.096 19.603 16.03C20.381 15.096 21.348 14.385 22.503 13.896C23.659 13.408 24.914 13.164 26.27 13.164C27.693 13.164 29.026 13.496 30.27 14.164C31.515 14.809 32.526 15.764 33.304 17.03C34.081 18.274 34.47 19.797 34.47 21.596V33.83H28.669V22.43C28.669 21.364 28.358 20.419 27.736 19.597C27.114 18.775 26.214 18.364 25.036 18.364C24.414 18.364 23.813 18.52 23.236 18.831C22.68 19.12 22.225 19.564 21.87 20.165C21.536 20.742 21.37 21.476 21.37 22.364V33.83H15.569V22.43C15.569 21.719 15.424 21.053 15.135 20.43C14.869 19.809 14.457 19.309 13.903 18.93C13.37 18.553 12.714 18.364 11.936 18.364C11.313 18.364 10.713 18.52 10.135 18.831C9.57997 19.12 9.12397 19.564 8.76897 20.165C8.43597 20.742 8.26897 21.476 8.26897 22.364V33.83H2.46997ZM37.576 33.83V13.83H43.376V33.83H37.576ZM40.476 10.93C39.611 10.93 38.876 10.63 38.277 10.031C37.677 9.43 37.377 8.69799 37.377 7.83099C37.377 6.94199 37.678 6.20899 38.277 5.63099C38.877 5.03099 39.611 4.73199 40.476 4.73199C41.366 4.73199 42.099 5.03199 42.677 5.63099C43.277 6.20899 43.576 6.94299 43.576 7.83099C43.576 8.69799 43.276 9.43099 42.677 10.031C42.099 10.63 41.365 10.93 40.476 10.93ZM46.862 33.83V13.83H52.061V16.03C52.773 15.096 53.651 14.385 54.695 13.896C55.739 13.408 56.862 13.164 58.061 13.164C59.484 13.164 60.806 13.508 62.028 14.197C63.273 14.863 64.273 15.851 65.028 17.164C65.806 18.452 66.195 20.019 66.195 21.863V33.83H60.395V22.63C60.395 21.52 60.061 20.53 59.395 19.664C58.729 18.797 57.773 18.363 56.528 18.363C55.528 18.363 54.629 18.708 53.829 19.396C53.052 20.063 52.662 21.119 52.662 22.563V33.83H46.862Z" fill="white"/>
    <path d="M85.9219 32.09C85.0419 32.84 84.0519 33.41 82.9419 33.83C81.7219 34.27 80.4219 34.5 79.0429 34.5C77.0719 34.5 75.2629 34.021 73.6119 33.061C71.9719 32.111 70.6619 30.821 69.6819 29.201C68.7219 27.571 68.2419 25.791 68.2419 23.831C68.2419 21.851 68.7219 20.061 69.6819 18.461C70.6609 16.841 71.9719 15.551 73.6119 14.601C75.2619 13.641 77.0719 13.162 79.0429 13.162C80.4229 13.162 81.7229 13.402 82.9419 13.862C84.0029 14.242 84.9519 14.782 85.8019 15.471C84.8119 16.951 84.0809 18.612 83.6719 20.402C83.3209 20.032 82.9419 19.702 82.5119 19.402C81.6019 18.712 80.5219 18.362 79.2819 18.362C78.2319 18.362 77.3029 18.612 76.4819 19.101C75.6619 19.591 75.0119 20.242 74.5429 21.062C74.0819 21.891 73.8429 22.812 73.8429 23.832C73.8429 24.832 74.0819 25.752 74.5429 26.602C75.0129 27.422 75.6619 28.073 76.4819 28.563C77.3019 29.052 78.2319 29.302 79.2819 29.302C80.5219 29.302 81.6019 28.962 82.5119 28.302C82.9619 27.972 83.3709 27.613 83.7319 27.222C84.1609 28.99 84.9109 30.64 85.9219 32.09Z" fill="#E4FF37"/>
    <path d="M106.432 18.46C105.482 16.84 104.182 15.55 102.532 14.6C100.912 13.64 99.102 13.161 97.102 13.161C95.122 13.161 93.312 13.64 91.672 14.6C90.022 15.55 88.712 16.84 87.732 18.46C86.782 20.061 86.302 21.85 86.302 23.83C86.302 25.79 86.781 27.57 87.732 29.2C88.712 30.82 90.022 32.11 91.672 33.06C93.312 34.02 95.121 34.499 97.102 34.499C99.102 34.499 100.912 34.02 102.532 33.06C104.182 32.11 105.482 30.82 106.432 29.2C107.411 27.57 107.902 25.79 107.902 23.83C107.901 21.85 107.411 20.061 106.432 18.46ZM101.731 26.6C101.271 27.42 100.621 28.071 99.801 28.561C99.001 29.05 98.101 29.3 97.101 29.3C96.101 29.3 95.191 29.05 94.371 28.561C93.571 28.071 92.922 27.42 92.432 26.6C91.972 25.75 91.732 24.83 91.732 23.83C91.732 22.81 91.972 21.89 92.432 21.06C92.922 20.24 93.572 19.589 94.371 19.099C95.191 18.61 96.101 18.36 97.101 18.36C98.101 18.36 99.001 18.61 99.801 19.099C100.62 19.589 101.271 20.24 101.731 21.06C102.221 21.889 102.471 22.81 102.471 23.83C102.472 24.83 102.222 25.75 101.731 26.6Z" fill="#E4FF37"/>
    <path d="M124.812 1.83002V15.1C124.072 14.521 123.252 14.071 122.342 13.76C121.432 13.45 120.442 13.3 119.371 13.3C117.512 13.3 115.821 13.771 114.311 14.731C112.801 15.661 111.581 16.93 110.671 18.531C109.78 20.131 109.341 21.901 109.341 23.831C109.341 25.761 109.78 27.531 110.671 29.131C111.58 30.711 112.801 31.971 114.311 32.931C115.821 33.891 117.511 34.362 119.371 34.362C120.642 34.362 121.811 34.141 122.871 33.702C123.941 33.252 124.851 32.641 125.611 31.862V33.832H130.611V1.83202H124.812V1.83002ZM124.611 26.561C124.141 27.39 123.511 28.04 122.712 28.531C121.911 29.021 121.022 29.26 120.042 29.26C119.062 29.26 118.172 29.021 117.371 28.531C116.571 28.041 115.932 27.39 115.441 26.561C114.971 25.741 114.741 24.831 114.741 23.831C114.741 22.831 114.971 21.921 115.441 21.101C115.931 20.272 116.571 19.622 117.371 19.131C118.172 18.641 119.061 18.402 120.042 18.402C121.021 18.402 121.911 18.641 122.712 19.131C123.512 19.621 124.142 20.272 124.611 21.101C125.101 21.921 125.341 22.831 125.341 23.831C125.341 24.831 125.102 25.74 124.611 26.561Z" fill="#E4FF37"/>
    <path d="M141.642 25.53H153.842V23.5C153.842 21.521 153.382 19.75 152.472 18.2C151.581 16.639 150.362 15.42 148.802 14.53C147.252 13.62 145.482 13.16 143.502 13.16C141.571 13.16 139.802 13.62 138.201 14.53C136.621 15.44 135.371 16.69 134.441 18.259C133.502 19.82 133.042 21.61 133.042 23.629C133.042 25.739 133.512 27.619 134.472 29.259C135.432 30.889 136.762 32.159 138.472 33.099C140.182 34.03 142.161 34.499 144.402 34.499C145.762 34.499 147.062 34.31 148.302 33.929C149.572 33.549 150.701 32.99 151.701 32.23L150.441 27.03C149.792 27.79 148.962 28.42 147.941 28.929C146.941 29.44 145.801 29.7 144.542 29.7C142.892 29.7 141.542 29.29 140.472 28.46C139.432 27.62 138.772 26.53 138.502 25.2C139.012 25.29 139.522 25.36 140.042 25.429C140.552 25.5 141.081 25.53 141.642 25.53ZM138.371 21.7C138.731 20.47 139.351 19.52 140.241 18.83C141.151 18.12 142.212 17.76 143.441 17.76C144.731 17.76 145.801 18.111 146.671 18.8C147.561 19.49 148.171 20.43 148.501 21.63C148.011 21.521 147.49 21.441 146.94 21.401C146.38 21.35 145.791 21.331 145.17 21.331H141.64C140.571 21.33 139.481 21.45 138.371 21.7Z" fill="#E4FF37"/>
  </g>
</svg>
