<svg
          xmlns="http://www.w3.org/2000/svg"
          xmlns:xlink="http://www.w3.org/1999/xlink"
          x="0px"
          y="0px"
          width="400px"
          height="400px"
          viewBox="0 0 400 400"
          enable-background="new 0 0 400 400"
          xml:space="preserve"
          fill="none"
          stroke="#000000"
          stroke-miterlimit="10"
          stroke-width="1"
        >
          <g>
            <g>
              <path
                d="M200,151.072c26.979,0,48.928,21.949,48.928,48.928S226.979,248.928,200,248.928S151.072,226.979,151.072,200
                S173.021,151.072,200,151.072 M200,150.072c-27.575,0-49.928,22.354-49.928,49.928c0,27.575,22.353,49.928,49.928,49.928
                s49.928-22.353,49.928-49.928C249.928,172.426,227.575,150.072,200,150.072L200,150.072z"
              />
              <path
                d="M200,100.856c54.668,0,99.144,44.476,99.144,99.144S254.668,299.144,200,299.144S100.856,254.668,100.856,200
                S145.332,100.856,200,100.856 M200,99.856c-55.308,0-100.144,44.836-100.144,100.144c0,55.309,44.836,100.144,100.144,100.144
                S300.144,255.309,300.144,200C300.144,144.692,255.308,99.856,200,99.856L200,99.856z"
              />
              <path
                d="M200,50.928c39.819,0,77.255,15.506,105.411,43.662c28.156,28.156,43.662,65.591,43.662,105.41
                s-15.506,77.254-43.662,105.41S239.819,349.072,200,349.072c-39.819,0-77.254-15.506-105.41-43.662S50.928,239.819,50.928,200
                c0-39.818,15.506-77.254,43.662-105.41C122.746,66.434,160.181,50.928,200,50.928 M200,49.928
                c-82.883,0-150.072,67.19-150.072,150.072c0,82.883,67.189,150.072,150.072,150.072c82.884,0,150.072-67.189,150.072-150.072
                C350.072,117.118,282.884,49.928,200,49.928L200,49.928z"
              />
              <path
                d="M200,1c26.866,0,52.927,5.261,77.46,15.638c23.697,10.023,44.979,24.372,63.254,42.648
                c18.276,18.276,32.625,39.558,42.647,63.254C393.739,147.074,399,173.135,399,200c0,26.866-5.261,52.927-15.638,77.46
                c-10.023,23.697-24.371,44.979-42.647,63.255c-18.276,18.276-39.558,32.625-63.254,42.647C252.927,393.739,226.866,399,200,399
                c-26.865,0-52.927-5.261-77.46-15.638c-23.696-10.023-44.979-24.372-63.254-42.647c-18.276-18.276-32.625-39.558-42.648-63.255
                C6.261,252.927,1,226.866,1,200c0-26.865,5.261-52.926,15.638-77.459c10.023-23.696,24.372-44.979,42.648-63.254
                C77.562,41.01,98.844,26.661,122.54,16.638C147.073,6.261,173.135,1,200,1 M200,0C89.542,0,0,89.543,0,200
                c0,110.458,89.542,200,200,200c110.459,0,200-89.542,200-200C400,89.543,310.459,0,200,0L200,0z"
              />
            </g>
            <g stroke-width="2">
              <line x1="200" y1="0" x2="200" y2="400" />
              <line x1="58.579" y1="58.579" x2="341.421" y2="341.421" />
              <line x1="0" y1="200" x2="400" y2="200" />
              <line x1="58.579" y1="341.421" x2="341.421" y2="58.579" />
            </g>
          </g>
        </svg>