<svg xmlns="http://www.w3.org/2000/svg" xml:space="preserve" style="fill-rule:evenodd;clip-rule:evenodd;stroke-linejoin:round;stroke-miterlimit:2" viewBox="0 0 3508 2481"><path d="M3507.87 0v2480.32H0V0h3507.87Zm-345.05 302.543-.31.016c-14.48.805-35.74 6.582-49.13-1.459-.35-.21-.68-.493-.99-.834-4.08.105-8.17.169-12.27.181 3.61 4.272 6.72 8.975 8.82 14.646 8.88 23.878 6.97 51.225 5.05 77.804.73-.806 1.41-1.671 2.02-2.609 7.38-11.203 1.5-24.527 6.14-36.228 1.71-4.292 5.19-8.275 8.96-10.926 2.21-1.555 5.81-2.992 7.58-5.298 5.27-6.859 5.16-16.886 10.01-24.116 3.43-5.102 8.89-8.07 14.12-11.177ZM1160.2 915.391c5.3-23.568 11.58-46.344 11.23-71.353-.64-46.444-10.41-92.24-13.61-138.493a67.724 67.724 0 0 1-2.78-4.013c-5.04-7.868-7.35-17.402-10.43-26.166-12.18-34.655-14.49-71.894-27.29-106.237-5.4-14.47-10.89-29.571-17.67-43.536-2.57 7.132-4.92-.826-6.84-4.849-2.03-4.264-4.93-7.081-7.4-10.915-2.89-4.507-3.17-10.745-4.41-16.321-1.9-3.357-3.68-6.799-5.25-10.399-1.08-1.556-1.95-3.189-2.04-5.129-4.53-12.427-7.41-27.156-14.46-38.233-3.74-2.958-7.62-5.917-11.96-7.139-8.78-2.474-16.35-2.18-24.39-8.226-4.52-3.392-5.56-8.855-9.39-12.678-2.4-2.404-6.29-3.39-8.85-5.975-4.28-4.317-7.459-10.13-10.967-14.985-1.778-2.462-4.475-4.5-5.655-7.363-1.605-3.896-1.063-8.065-2.057-12.111-1.058-4.308-4.598-7.943-5.856-12.341-1.665-5.825-.041-11.528-.138-17.377-.053-3.235-.82-6.567-1.766-9.834-30.937-8.249-61.75-16.913-93.076-21.911-10.532 16.996-28.082 31.218-48.763 32.195-26.447 1.249-49.411-8.951-74.767-11.595 4.848 3.851 8.897 8.736 11.335 14.429 7.038 16.436-6.212 37.345-12.669 55.706 1.914 8.321 6.428 15.922 7.377 24.435.675 6.066-.494 12.031-.345 18.093.108 4.408 1.793 8.875 2.226 13.285.374 3.8-.416 7.617-.088 11.384.232 2.653 1.781 5.063 2.231 7.696.669 3.908.214 7.958 1.121 11.816.944 4.015 3.704 7.223 4.79 11.105.79 2.826.623 5.835 1.214 8.703.538 2.616 1.834 5.058 2.224 7.704.248 1.688-.052 3.598.431 5.238 2.008 6.82 3.364 12.476 4.305 19.642.391 2.975 1.558 6.372 1.401 9.453a11.653 11.653 0 0 1-.73 3.524c3.483 4.127 7.155 8.598 8.201 13.708.707 3.457-1.475 7.482-2.265 10.733-1.124 4.628-1.387 9.354-1.157 14.094.223 4.617.385 9.479 1.229 14.025.655 3.526 2.535 7.305 2.51 10.927-.022 3.06-1.174 6.213-1.706 9.192-.859 4.817-1.136 9.703-1.446 14.576-.125 1.961-.022 4.43-.015 6.997 1.739 2.228 4.19 4.38 4.736 7.168 2.133 10.883-1.071 28.643-5.481 42.309.515-.511 1.027-1.026 1.536-1.543l.15-.185c1.562-1.945 1.925-4.536 3.715-6.362 1.597-1.63 3.829-2.447 5.575-3.84.833-.991 1.662-1.986 2.486-2.984 2.077-3.239 3.579-7.065 5.916-10.036.772-.981 2.007-1.455 3.033-2.117 3.043-1.961 4.677-2.475 4.852 1.063.034.679.037 1.365.002 2.044a24.47 24.47 0 0 1-.346 2.955c4.658 10.168 4.588 24.331 5.723 34.416 1.448 12.866 7.444 28.923 5 42.019-.121.65-.262 1.297-.422 1.938.882 2.361 1.853 5.017 1.47 6.839-.762 3.62-4.677 5.194-5.21 9.207-.485 3.648 1.096 7.722-1.119 10.947-2.676 3.894-8.342 4.825-10.688 8.736-1.39 2.318-1.503 5.159-2.58 7.614-1.448 3.299-4.335 5.36-6.069 8.348-1.986 3.425-2.527 7.409-4.801 10.7-5.177 7.492-13.481 12.194-18.946 19.29-1.996 2.592-4.13 7.221-4.881 10.331-.427 1.765-.02 3.763-.624 5.464-.736 2.071-2.609 3.555-3.448 5.613-1.154 2.833-1.571 5.852-2.986 8.612a26.32 26.32 0 0 1-1.726 2.844 98.32 98.32 0 0 0 1.564 6.822c.82 3.074 2.541 6.38 2.614 9.626.076 3.413-1.117 6.849-1.505 10.23-.66 5.743-.03 11.585-1.005 17.289-1.484 8.684-4.736 17.356-5.566 26.154-.544 5.764-1.186 12.287-.777 18.025.27 3.788 1.605 7.73 1.191 11.557-.992 9.149-1.767 18.14-3.026 27.247-.313 2.265-1.676 4.331-1.876 6.608-.291 3.31 1.567 6.23 1.39 9.49-.218 4.04-2.637 7.63-2.846 11.65-.682 13.15-.095 26.42-.867 39.69-.529 9.1 1.826 17.49 2.608 26.45.244 2.78-.646 5.43-.851 8.18-.249 3.32.268 6.83.548 10.15.187 2.21 1.206 3.97 1.571 6.08.44 2.53.149 5.21.304 7.77.165 2.73.947 4.17-.61 6.86-.56.97-1.306 1.86-2.165 2.67.422 3.01.889 6.01 1.397 9 1.77.71 3.724 1.2 5.929 1.46 3.669.43 7.377.07 11.055-.02 2.233-.05 4.839-.45 6.146 1.85 4.355 7.67 1.886 17.4 5.544 25.51.769 1.7 1.767 3.22 2.909 4.62 2.619-.57 5.136-1.56 7.571-2.93 1.426-.8 4.422-3.69 6.453-3.22 2.206.5 3.821 2.89 4.938 4.66 2.055 3.24 3.821 7.34 3.913 11.25.056 2.37-1.167 4.32-.472 6.84.688 2.5 2.22 4.61 3.881 6.54.708.82 2.449 1.93 2.854 3.07 1.531 4.3.111 9.18.909 13.65.467 2.6 3.232 4.45 3.486 6.89.775 7.44-3.213 13.3.684 20.74 2.759 5.27 7.568 7.14 11.363 10.91.081 0 .163.01.244.01 1.21.08 5.929-1.33 6.777-.8 1.678 1.04 2.441 2.91 3.626 4.41 2.073 2.62 4.248 4.78 7.157 6.44 2.269 1.3 5.029.77 7.155 1.99 3.922 2.26 5.746 6.22 10.48 7.59 2.696.78 7.448.33 9.801 1.72 2.939 1.75 4.339 7.38 6.9 9.85 1.097 1.05 3.831 2.36 4.586 3.77 1.008 1.88-.185 4.7.42 6.77.445 1.52 1.654 2.68 2.073 4.17.297 1.06.389 2.25.371 3.49 3.602 1.23 6.97 3.25 7.539 7.43 4.333 1.9 8.667 3.78 13.001 5.65 10.693 4.62 21.241 9.53 31.777 14.44 7.075-2.12 14.314-3.83 21.676-2.72 6.292.95 9.528 5.35 15.301 7.08 4.682 1.41 9.762 3.27 14.489 4.37 2.445.57 5.085.42 7.465 1.09 4.12 1.16 7.53 3.95 11.85 4.99 4.3 1.03 8.87.61 13.15 1.63 1.61.38 3.19 1.77 4.65 2.48 2.66 1.29 5.47 1.84 8.38 2.22 4.69.61 9.34.23 14.03.4 3.85.15 6.81 1.18 10.87.23a48.92 48.92 0 0 0 8.75-2.94c.49-.22 1.54-1.09 2.19-.89 3.94 1.19 7.01 3.07 11.37 3.45 3.24.28 7.27-.66 10.39.07 2.86.68 5.08 3.65 8.26 4.44 2.56.64 6.25.43 8.63 1.6.46.23.82.56 1.12.96 1.69-6.33 1.51-13 3.19-19.49 1.52-5.86 5.81-9.68 6.31-15.89.49-6.21-2.84-12.71-1.48-18.91 1.11-5.09 4.29-9.52 6.23-14.32 1.15-2.82 1.53-5.87 2.45-8.76 2.13-6.63 4.57-14.29 4.85-21.29.2-5.03-1.73-9.48-2.99-14.25-1.5-5.76-2.73-11.62-3.56-17.52-.36-2.6-.74-5.21-.96-7.83-.06-.66-.58-2.37-.02-2.97 1.28-1.37 3.39-1.72 5.08-2.33 3.4-1.23 5.81-4.6 8.01-.12.36.73.38.99.67 1.97.2.7.54 2.11.66 2.6.33 1.44.49 2.98.71 4.44 1.04 6.99 2.93 13.57 4.29 20.42.52 2.59.92 5.37 1.46 8.11 2.07-3.35 4.19-7.17 4.67-10.63 1.04-7.43-2.4-15.07-1.46-22.56 1.49-11.73.63-23.47 2.19-35.2.25-1.84.74-3.66 1.31-5.48-.21-2.41-.44-4.81-.68-7.2-2.51-24.88-6.67-48.78-9.81-72.78-.31-.55-.63-1.1-.94-1.64-2.38-4.15-6.14-8.59-6.82-13.5-.44-3.22 2.93-6.65 4.51-9.09.16-.24.31-.49.46-.74-1.38-15.73-1.95-31.65-.96-48.05l.66-11.04c-.27-1.2-.51-2.41-.68-3.63-.79-5.7.24-11.15-.94-16.962-1.84-8.946-.4-11.172 1.67-20.135.92-3.996 1-8.246 2.17-12.178.72-2.406 1.87-4.641 2.88-6.94.72-5.601 1.53-11.174 2.46-16.709.19-1.156.39-2.308.6-3.457.26-3.848.78-7.62 1.47-11.424.5-2.77.71-5.046 2.15-6.144Zm587.29 492.369c4.29.66 8.56 1.18 12.83 1.4 9.46.48 20.74-1.67 30.44-1.62 7.83.05 14.15 4.93 22.34 4.67 13.91-.45 22.1 1.75 35.49 2.89 14.04 1.2 26.89.45 41.07 2.74 1.4.22 2.8.47 4.19.73.6-8.08 2.07-15.92 2.93-24.06.09-.79.17-1.76.19-2.81-1.72.78-3.4 1.41-4.96 1.89-2.63.8-5.33 1.42-8.01 2.03-3.51.8-7.09 1.38-10.68 1.74-17.82 1.77-35.37-.22-53.04-3.28-13.04-2.26-25.4-4.76-37.95-9.35-8.77-3.19-17.62-6.29-25.85-10.82.1 1.14.7 2.31.26 2.87-3.86 4.96-7.03 16.78-9.25 30.98Zm-863.803 31.91c19.194-3.83 38.321-8.13 57.514-11.09-14.028-3.96-27.769-8.84-41.094-15.04-12.429-5.78-24.006-12.58-34.888-20.18-2.669 8.81-7.832 16.55-13.809 24.53a12.37 12.37 0 0 0-1.301 2.18c3.538-.18 7.073-.43 10.604-.7.583-.05 3.718-.86 4.759-.08 5.617 4.27 7.914 12.08 13.495 16.76a72.199 72.199 0 0 0 4.72 3.62Zm1929.553-112.45c-.05-.44-.07-.87.09-1.23.94-2.15 1.55-4.37 2.44-6.49.41-.98 1.26-1.7 1.33-2.81.07-1.1-.39-2.12-.42-3.2-.1-3.1.03-6.28.28-9.36.1-1.2.01-2.24-.37-3.38-.27-.83-.96-1.66-1.01-2.57-.07-1.22.58-2.53 1.21-3.54.71-1.11 2.95-2.37 4.55-2.3.85-4 4.82-6.69 7.57-9.87a.23.23 0 0 1 .12-.17c.01 0 .02 0 .03-.01.17-.2.34-.4.5-.61 1-1.3 2.23-2.99 2.74-4.58.23-.73.1-1.64.5-2.33.57-.99 1.4-1.82 2.05-2.75.4-.57.7-1.37 1.2-1.86 1.01-1 2.11-1.8 2.99-2.94.85-1.12 1.47-2.96 2.71-3.77.04-1.99-.01-3.98-.15-5.96a6.54 6.54 0 0 0-.08-.7c-1.01-1.36-1.82-2.83-2.12-4.78-.31-1.97.38-3.97.32-5.95-.04-1.42-.53-3.09.06-4.44.86-2 3.02-3.28 3.96-5.28 1.15-2.45.88-5.06 1.81-7.49.8-2.05 2.97-3.5 3.97-5.51.94-1.88 1.49-3.93 2.02-5.96.31-1.2.44-2.87 1.21-3.91 1.06-1.45 3.47-2.36 4.86-3.44 1.62-1.26 3.49-3.48 5.57-4.9 1.36-2.11 2.62-4.28 3.69-6.54 1.44-11.1 2.42-22.2 4.82-33.3 1-4.63 2.31-9.15 3.78-13.62.81-3.04 1.68-6.02 2.63-8.89.94-2.86 2.1-5.84 3.68-8.5 2.63-6.97 5.19-13.97 7.14-21.17 1.24-4.56 2.08-9.21 2.76-13.9-1.86-2.78-4.1-6.16-3.65-8.92.7-4.25 3.77-8.12 6.26-11.82.52-3.7 1.15-7.38 1.98-11.01 2.3-10 6.25-19.44 9.96-28.95-.72-2.72-2.35-5.73-1.61-8.17 1.74-5.7 5.92-9.9 6.93-16.22.61-3.81.78-7.9.35-11.74-.22-1.96-1.52-5.184-.84-7.286 1.03-3.161 2.96-5.825 4.91-8.51.14-5.34.31-10.655.85-15.858.94-9.108 1.96-18.285 3.1-27.478-1.34-3.712-3.12-7.365-3.32-11.067-.19-3.556 1.39-7.461 1.87-10.979.33-2.505-.84-6.091.16-8.534 1.39-3.384 4.13-6.02 6.98-8.235l.03-.02c1.49-8.573 3.15-17.088 5.02-25.5 4.88-21.98 13.91-44.095 14.41-66.78.08-3.45-.18-6.817-.62-10.142 1.79-.917 3.33-2.657 4.64-4.792-1.24-3.654-1.97-7.05-1.85-10.076.34-9.116 6.71-16.273 12.98-23.464 3.48-14.306 5.83-28.84 8.16-43.402-.87-3.921-1.28-7.941-.34-12.216 1.07-4.891 2.67-9.566 4.57-14.117 8.35-53.939 14.21-107.583 17.55-161.485-2.11-12.025-2.4-25.077-3.06-37.051-.55-9.929 2.86-19.056 3.13-28.819.49-17.366-4.73-35.998-5.67-53.565-.97-18.192 2.82-35.28-.6-53.454-1.35-7.182-9.45-11.993-11.72-19.204-2.81-8.925 4.92-9.967 4.82-16.854-.13-8.409-3.78-17.244-7.29-25.548-7.44-.174-14.72-.443-21.27.179-10.57 1.002-20.78 5.941-31.33 7.521-7.67 1.149-15.92-1.519-23.18-.277-8.42 1.44-16.35 5.021-24.87 6.315-9.3 1.414-19.07.761-28.24 2.639-8.16 1.669-15.46 4.75-24 4.764-13.89.022-21.97-10.178-31.56-18-6.04 1.413-12.07 2.597-18.1 3.443-3.03.425-6.06.774-9.09 1.057-14.58 16.209-26.85 36.566-48.94 43.257-32.2 9.753-100.03-2.373-150.45-8.736a23.836 23.836 0 0 0-1.92 5.066c.12 5.926.28 11.851.49 17.775.94 4.589 2.18 9.238 2.98 13.924 1.36 8.041-.38 16.234.98 24.285 1.65 9.747 5.66 19.222 5.27 29.236-.24 6.078-1.12 12.158-1.66 18.247 3.32 26.313 7.07 52.511 9.89 78.88 1.19 1.616 2.35 3.209 3.36 4.803 4.43 6.98 6.66 14.984 7.36 23.168 1.11 12.985-3.94 25.373-6.4 38.074.09 7.576.03 15.184-.23 22.831l-.03.64c.66 3.968 1.58 7.897 2.62 11.813 1.25 4.766 3.22 9.842 2.68 14.855-.63 5.772-4.25 9.967-6.64 15.006-.5 1.068-.97 2.141-1.41 3.222-.63 9.636-1.14 19.277-1.28 28.971.17.673.34 1.346.5 2.02 16.35-25.803 38.48-52.626 52.16-64.446 5.64-4.876 31.91 15.778 31.76 26.347-.05 2.982-.51 6.089-1.32 9.288.4 5.317-1.11 9.384-2.15 15.394-1.59 9.172-2.05 18.518-7.4 26.487-7.05 10.518-17.44 18.847-23.66 29.995-4.68 8.361-5.28 18.355-8.81 27.272-4.2 10.612-11.01 19.853-14.97 30.506-2.87 7.684-2.17 16.66-3.91 24.643-1.16 5.269-5.4 10.571-7.06 15.885-.75 2.399-1.55 4.995-2.17 7.654.06 5.286.05 10.579-.01 15.873 1.13 3.816 2.71 7.234 2.88 11.728.74 19.482-.71 39.295-3.34 58.537-.85 6.217.44 11.787 1.99 17.858.48 1.864 2.37 6.364-.11 7.941-.96.615-1.97 1.118-3.01 1.514 1.57 14.821 3.24 30.265 2.68 45.032-.42 11.11-2.73 22.01-3.55 33.09.15 6.6.34 13.16.57 19.67 1.59 12.4 4.85 24.53 5.11 37.26.17 8.29.11 16.76-.61 25.01-.16 1.78-.36 3.57-.56 5.37.93 11.36 2.01 22.7 3.24 34.07 2.24 6.9 4.84 13.75 6.76 20.62 1.95 6.99 1.6 14.35 2.83 21.46.74 4.23 3.05 7.95 3.68 12.13.66 4.36-1.22 9.33-1.97 13.58-.55 3.05-.85 6.25-.78 9.42.19 1.14.38 2.28.57 3.43.87 2.39 1.76 4.81 2.67 7.25 1.47 3.94 2.79 7.92 4.14 11.88 2.59 4.79 5.32 9.53 7.22 14.59 1.2 3.19 3.7 6.16 3.06 9.6 1.16 1.92 2.49 3.73 4.14 5.35 2.72 2.67 6.61 5.4 8.06 9.11 1.98 5.05 1.24 11.2 2.12 16.5.92 5.51 4.36 9.92 5.44 15.23.94 4.64 1.9 9.78 2.04 14.51.07 2.52-.98 5.11-.6 7.58.17 1.06.41 2.09.72 3.1 6.1-3.72 11.75-8.7 18.26-10.35 18.27-4.64 39.49-3.38 58.39-4.81 20.25-1.53 39.29-4.49 59.61-4.56 10.38-.04 22.56-1.71 33.83-3.3ZM974.177 1579.14c-5.957 16.39-121.704 171.18-76.23 242.78 46.186 72.73 219.053 193.4 353.343 193.56 310.04.38 1557.71 15.77 1506.88-191.29-3.76-15.3-41.16-36.09-37.39-53.45 2.01-9.21 12.45-16.36 9.34-27.14-.3-1.03-41.89-76-48.05-78.75-18.77-8.4-43.1-5.16-63.12-9.32-30.96-6.44-58.55-18.8-91-23.06-14.75-1.94-31.68 1.33-46.5.84-19.87-.67-39.15-7.12-58.9-7.43-46.21-.74-92.64-1.74-138.78-1.8-16.04-.02-31.32 4.07-47.66 2.79-56.48-4.43-117.38-3.23-172.94-14.02-4.22.19-15.25-2.34-16.5-3.71-31.38-8.22-72.98-19.84-105.4-23.21-145.02-15.05-280.27-20.33-425.55-27.76-69.39-3.55-138.28-29.15-208.4-28.73-40.31.24-73.77 15.54-112.07 21.6-17.61 2.79-35.47.27-53.01 4.14-16.49 3.64-29.54 14.48-46.85 16.85-53.35 7.3-80.03-5.82-121.213 7.11Zm952.203-152.91c1.74.4 3.49.79 5.24 1.15 10.07 2.11 20.38.15 30.42 1.64 11.22 1.66 22.29 5.91 33.38 8.28 3.31.38 6.61.83 9.9 1.39 6.83.1 13.23-2.05 20.08-1.82 11.86.4 23.72 3.19 35.93 3.05 8.4-.09 15.78-3.53 23.91-4.51 11.97-1.45 24.73-1.64 36.95-2.94 10.64-1.13 20.74 3.05 31.28 2.66 11.35-.42 22.47-1.42 33.6-2.34.28-.04.56-.09.83-.13 14.99-2.38 29.62-2.42 44.11-1.53 7.97.23 14.04.75 21.84 1.85l9.14.93c23.45-9.26 49.03-12.55 73.39-18.63 28.2-7.03 54.66-19.35 82.61-26.82 7.9-2.12 15.92-1.66 23.96-4.06 5.72-1.72 11.45-3.16 17.17-4.54 1.04-.53 2.02-1.04 2.93-1.54 2.34-2.75 4.66-5.53 6.55-8.56 2.91-4.66 4.34-12.85 5.45-18.11 2.68-12.66-2.37-26.2-1.01-39.17.95-9.04 3.07-18.04 5.59-26.97.19-12.42.37-22.87.82-30.41.88-14.99 3.1-29.92 5.45-44.84-.12-2.39-.31-4.77-.63-7.14-.61-4.55-3.01-8.81-3.3-13.39-.22-3.41 2.09-6.7 3.05-9.83 1.83-6 3.83-13.61 4.32-19.77.37-4.67-1.48-9.75-2.24-14.31-1.21-7.32-2.3-15.14-2.97-22.51-.62-6.88 2.07-13.53 1.51-20.25-.32-3.96-3.4-6.6-2.71-11.07.22-1.42.54-2.82.93-4.21-16.79-11.29-10.59-29.78-8.97-47.03 1.04-11.1-3.37-22.12-3.63-33.16-.1-4.14.83-8.169 1.74-12.197.03-5.61.22-11.208.54-16.798-1.64-3.678-4.63-6.766-4.98-10.974-3.08-36.443 1.43-73.391.78-109.655-.35-19.716-6.1-38.673-6.33-58.295-.18-15.019 5.65-29.679 5.18-44.391-.31-9.613-6.16-18.352-7.75-27.784-2.19-13.084-1.31-27.628 2.2-41.616-.1-4.514-.07-9.025.09-13.535.46-12.103 2.14-23.877 4.59-35.444-10.39-21.98-6.87-27.169.09-57.497 5.7-24.796-3.4-53.437 2.23-77.876 6.31-27.39-.2-50.767 1.26-79.234-.78-22.278-12.75-43.869-12.16-66.262-7.42-6.04-16.92-11.714-25.85-11.772-7.47-.048-15.04 1.83-22.38 3.009-7.94 1.272-16.24 2.488-24.26 1.357-6.82-.962-13.32-3.768-20.21-4.316-7.3-.581-14.34 3.105-21.6 2.242-5.23-.622-10.33-2.441-15.57-3.192-6.69-.96-14.18-1.023-20.55-3.489-5.26-2.037-9.6-6.173-14.63-8.758-6.55-3.366-13.74-5.358-20.25-8.824-5.65-3.004-10.47-7.431-15.78-10.954-5.04-3.336-10.21-6.495-15.24-9.837-31.9 4.506-61.32-1.901-92.56-.38-32.93 1.604-64.85 14.663-99.39 14.518-45.71-.192-84.21-22.092-127.98-29.548-21.06-3.588-43.8 6.589-65.65 4.101-19.43-2.214-37.49-8.4-55.64-14.16-28.24 8.854-56.42 18.205-85.34 21.27-59.37 6.289-115.66-21.41-173.19-14.847-54.79 6.253-102.93 39.431-156.62 49.89-40.69 7.926-109.4 5.759-149.94 1.591-.72 5.53-.61 10.76-1.06 16.405-.31 3.821-1.24 7.5-1.82 11.252.25 4.951.43 9.922.56 14.911.23 1.563.44 3.131.54 4.72.69 11.483-.52 23.183.47 34.594 1.06 12.201 2.99 24.267 3.28 36.59.29 12.508-3.84 25.185-4.71 37.659-.89 12.749-2.86 25.589-3.19 38.338-.07 2.99.67 11.893-2.67 13.519-.69.334-1.34.537-1.95.627-.85 2.679-2.02 5.463-2.9 7.591-3.01 27.195-6.07 54.079-8.39 80.262-.45 5.06-.79 9.772-1.02 14.225 1.1 3.679 2.28 7.348 2.25 11.235-.02 4.12-1.42 8.255-2.25 12.338.27 4.401.71 8.683 1.31 12.985 1.07 2.637 2.32 5.251 3.04 7.68 1.92 6.476 1.52 13.071 3.14 19.441 1.42 5.625 5.29 10.139 6.35 16.142.56 3.231.38 6.21-.18 9.061 2.11 12.479 4.19 33.512 6.41 52.852 2.36 9.41 4.63 19.351 11.91 25.632 3.56 3.071 5.85-5.015 6.5-7.23 1.97-6.66 8.08-9.599 12.31-14.822 3.24-3.988 3.07-8.492 5.17-12.924 2.69-5.682 10.34-7.01 14.19-11.705 2.79-3.403 3.75-9.317 5.78-13.181 3.04-5.795 9.74-10.686 13.87-15.702 2.95-3.579 3.6-7.567 6.15-11.138 1.8-2.531 4.45-4.769 7.34-6.67.73-5.205 1.17-10.426 1.01-15.673-.99-2.646-1.5-5.492-1.88-8.303-2.22-4.46-5.81-8.19-7.02-13.339-3.05-13.118-3.21-26.684.52-38.683.02-11.235-.18-20.681 2.39-33.02 1.18-5.672.04-17.081 4.65-21.034.99-.853 3.32 2.39 3.9 3.239 1.77 2.593 3.43 5.089 4.09 8.21.33 1.585-1.62 3.071-1.57 4.791.05 1.824.55 3.568.93 5.339.13.019.26.034.4.044.4.031 1.12-.084 1.47.135.88.532 1.56 1.223 2.61 1.454.87.19 1.91-.211 2.71.074.39.137.76.552 1.08.786.95.685 2.73 1.093 2.61 2.607-.11 1.516-1.21 2.923-1.83 4.273-.09.208-.19.416-.29.624.32.895.51 1.816.53 2.739.06 2.057-.67 3.751-1.42 5.494-.18 5.87-1.2 11.53-2.1 17.229.1 1.87.21 3.739.15 5.627-.07 2.546-.57 5.067-.4 7.624.18 2.656 1.37 5.252 1.23 7.929-.1 1.731-.54 3.463-.9 5.202 1 4.595 2.47 9.204 4.24 13.742.74 1.13 1.71 1.995 3.39 2.422 1.34.34 2.18-.437 3.43-.784 1.1-.306 2.76.024 3.73-.766 2.13-1.735 2.25-4.633 2.73-7.158.53-2.761 1.45-5.598 3.19-7.852 2.89-3.751 5.04-7.967 8.01-11.615 1.46-1.798 3.32-3.209 4.86-4.941.81-.917 1.09-2.124 1.97-3.01 1.78-1.792 3.91-3.107 5.53-5.064 2.23-2.678 3.01-6.13 5.23-8.764 2.55-3.016 6.18-4.843 9-7.589a48.18 48.18 0 0 1 2.8-2.516c1.79-3.856 3.37-7.82 4.73-11.905.9-2.729 1.83-13.941 4.13-15.408.02-.634.11-1.232.29-1.762.3-.867 2.63-.996 3.3-1.307 5.97-2.759 12.08.703 17.94-1.903 3.74-1.661 14.97-7.931 18.05-5.071 4.03 3.734 2.24 11.503 1.87 16.197a55.042 55.042 0 0 1-.32 3.06c.47.215.81.436.96.665 2.32 3.436.4 9.453-1.47 14.127-.22 4.39-2.32 8.49-3.19 13.288-.99 5.46.43 11.402-1.73 16.637-4.36 10.613-13.21 18.625-21.35 26.954-4.36 8.847-8.73 17.768-13.4 26.508.36 6.736 1.6 13.5-2.27 19.223-4.36 6.456-12.05 10.016-18.78 14.239a165.575 165.575 0 0 1-4.75 5.889 85.91 85.91 0 0 1-5.2 5.565c-.44 2.856-.57 5.929-2.73 8.394-4.7 5.381-10.55 9.642-15.54 14.727-11.81 12.033-23.82 24.584-34.65 37.611-.03.046-.07.091-.11.138-.42.904-.84 1.811-1.25 2.721-.74 3.082-.08 6.863-.63 9.749-1.73 9.138-6.46 17.635-8.9 26.652-.4 1.481-1.07 6.934-2.32 10.241.7 12.055-25.16 39.322-41.38 60.792-2.52 10.768-4.67 21.609-7.33 32.356-1.34 5.45-5.41 13.201-4.85 18.785.89 8.864 7.1 15.94 8.4 24.775.76 5.12-.84 10.75-1.27 15.85-.71 8.44-1.52 17.42-1.69 26.08 9.2 74.19 26.42 146.45 33.48 230.23 15.26 7.41 13.97 20.45 22.99 40.79 5.21 11.76 11.19 23.1 16.06 34.88 9.63.86 19.3 1.28 29.05 1.15 8.58-.12 19.99-5.16 28-4.36 4.45.45 3.51 21.17 2.96 30.68 11.25 2.41 19.15 5.03 25.39 9.26 18.96.59 26.3-.89 33.94 18.39 19.45-2.73 20.33 3.93 42.99 8.82 18.55 4.01 37.4 5.71 55.93 8.69 9.06 1.46 18.41 4.68 27.51 4.98 18.04.6 32.23-7.72 49.22-12 24.94-6.27 53.39-10.93 79.88-11.27 2.1-7.24 4.35-14.44 3.61-22.05-.59-6.14-9.4-10.53-12.29-16.34-6.6-13.27-7.44-29.2-14.22-42.05-3.29-6.22-9.25-6.78-15.31-8.96-9.17-3.29-18.47-6.45-27.5-10.13-22.53-9.19-41.28-25.5-54.44-46.76-4.03-6.52-31.22-38.42-40.89-44.91-4.5-.95-9.13-1.32-13.81-1.28-3.52.31-6.98.83-10.23 1.5-2.12.44-11.22.23-11.22.23s3.92-3.6 5.8-4.29c5.72-2.12 11.93-2.86 17.99-3.83-4.54-3.05-9.06-6.13-13.51-9.28-.58-.41-1.23-.9-1.95-1.48-.99-.07-1.99-.1-2.99-.11-4.17.52-8.29 1.43-12.05 2.9-2.75 1.07-5.46 2.43-8.25 3.35-1.36.45-4.35.36-4.35.36s4.93-4.54 5.33-4.8c4.67-2.98 8.95-6.79 14.21-8.14.2-.11.4-.23.6-.34-6.85-6.65-16.11-19.03-21.82-26.98-3.14-4.38-2.2-7.42-2.2-7.42.75 2.38 3.28 6.7 6.73 9.66 4.44 3.81 8.53 7.61 16.89 13.19-.41-3.93-.81-7.94-.92-11.86-.02-.71.61-5.99.61-5.99s3.79 7.72 4.66 9.59c.13.28.26.55.4.82.07.15.15.3.22.45 2.11 4.13 4.83 7.71 7.58 11.47.48.65.94 1.3 1.41 1.95a45.16 45.16 0 0 0 3.79 3.49c2.24 1.06 4.51 2.08 6.78 3.07-.29-3.45-.08-6.97-.08-10.36 0-2.67-.01-5.34.06-8.01.07-2.81 0-6.12.99-8.79.2-.53 1.87-3.99 1.87-3.99s3.39 9.74 4.36 12.34c1.42 3.85 3 7.64 4.31 11.52 1.67 4.96 3.4 10.49 6.83 14.57 2.52.96 5.54 2.24 8.85 3.71.31-1.16.72-2.35 1.4-3.1.72-.78 2.25-1.01 3.24-1.34 2.83-.93 5.62-1.98 8.45-2.89 1.14-.36 2.72-1.22 3.96-.77.73.26 1.23.95 1.72 1.52 1.47 1.7 2.46 3.77 3.65 5.67.3.47.61.93.93 1.38 2.3-.9 4.76-1.6 6.84-2.32 1.75-.61 5.48-2.73 7.34-1.88 2.24 1.02 3.2 5.46 3.75 7.57.76 2.93 3.08 6.64 2.88 9.74-.11 1.71-.93 3.61-1.82 5.42 1.95.69 3.53 1.15 4.64 1.29.86.11 1.75.17 2.65.17-.54-3.49-.31-7.08 1.37-10.31 1.93-3.7 5.55-7.06 8.58-9.89.95-.89 1.95-1.73 2.94-2.58.6-.52 1.17-1.18 2.03-1.19.5 0 .98.16 1.44.36.07-.15.14-.3.21-.46 1.1-2.53 2.38-9.2 6.15-9.49 2.58-.2 4.39 3.87 5.7 5.5 1.57 1.98 2.93 4.14 4.64 6.01 1.14 1.25 2.81 2.26 3.36 3.92.34.98.56 2.01.71 3.05 2.65-1.85 5.28-3.73 7.94-5.56-.86-2.76-1.44-6.32-.98-8.37.78-3.42 2.8-6.47 4.45-9.54 2.98-5.54 6.35-10.95 9.7-16.28 1.66-2.65 3.1-5.42 4.81-8.04.68-1.03 1.61-2.63 2.95-2.87 4.04-.73 7.28 5.39 10.04 7.5 1.04.79 2.06 1.61 3.08 2.43.45-.66.92-1.34 1.38-2.09 2.16-3.52 3.98-7.26 5.85-10.94 3.08-6.08 6.09-12.19 9.58-18.05 1.45-2.44 3.17-5.95 6.03-7.11 3.05-1.23 6.1 1.34 8 3.41 3.71 4.04 6.43 8.76 9.94 12.93 1.58 1.87 3.43 3.55 5.14 5.33 4.9-5.32 9.9-10.55 14.56-16.09 3.6-4.27 6.86-8.79 10.73-12.83 2.37-2.46 4.83-4.93 8.4-5.19 5.47-.4 8.62 4.06 11.61 7.83 2.01 2.51 4.03 5.01 5.97 7.58 4.03 5.35 6.91 11.33 10.19 17.15 3.69 6.56 8.54 12.84 9.89 20.44.65 3.59.43 7.43.02 11.18.83.19 1.65.39 2.48.59.04-.86.12-1.71.3-2.57 1.64-7.77 9.69-9.71 15.98-12.53 6.63-2.97 13.24-5.98 19.84-9 3.86-1.76 7.59-3.69 11.56-5.16 1.32-.49 3.35-1.59 4.81-1.36 2.08.34 3.57 1.68 4.94 3.25.05.06.1.12.14.18 1.61-.61 3.23-1.14 4.9-1.54 1.97-.47 4.48-.84 6.34.19 1.57.87 1.95 3.28 2.41 4.82 1.2 4.08 1.63 8.36 2.17 12.57 1.09 8.56 2.31 16.89 2.3 25.55 0 3.67.19 7.42-.72 11-.71 2.8-2.14 5.32-3.61 7.81 2.39 2.1 4.72 4.25 7.01 6.44 1.18-2.57 2.73-5.2 4.71-6.76 1.59-1.26 3.81-1.72 5.72-2.2 3.84-.97 7.71-1.69 11.62-2.27 2.67-.39 6.82-1.87 9.52-1.24 2.78.64 2.63 3.19 2.86 5.52 1.03-.38 2.06-.74 3.1-1.09 3.05-1.01 6.43-2.71 9.63-1.15 1.86.91 1.53 2.81 1.42 4.54-.25 3.77-.12 7.59-.22 11.37-.27 9.89.07 20.76-1.69 30.48-.54 2.99-1.76 5.79-2.86 8.64.55.53 1.1 1.06 1.66 1.58.72.69 1.46 1.37 2.21 2.03 1.72-1.47 3.74-3 5.57-3.64 2.88-1.01 6.13-.86 9.12-1.31 2.21-.34 6-1.34 8 .31 1.12.93 1.72 3.09 2.12 5.15 2.07-.58 4.08-1.06 5.65-1.57 2.19-.71 6.48-3.08 8.73-1.36 1.86 1.43 1.51 6.98 1.5 8.94-.03 4.64.44 10.42-1.16 14.8-.59 1.63-1.68 3.14-2.78 4.61 2.56 1.58 5.16 3.08 7.81 4.47.35-.94.75-1.87 1.35-2.64 1.72-2.21 5.66-2.4 8.32-2.72.34-.72.75-1.39 1.27-2.01 1.03-1.22 3.05-1.75 4.47-2.3 1.85-.71 4.98-2.15 6.9-1.23 1.2.58 1.57 3.91 1.9 5.08 1.28 4.58 2.06 8.87 2.94 13.4 1.05 0 2.11-.03 3.17-.09.94-.07 2.02-.13 3.15-.23-.59-1.59-.94-3.2-1.3-4.89-.2-.95-.49-2.39-.08-3.32.27-.64.88-1.15 1.38-1.59 1.23-1.1 2.47-2.26 3.85-3.17.41-.27 1.11-.8 1.66-.66.76.21 1.4.74 2.01 1.31.68-1.17 1.47-2.47 2.61-3.09 1.81-.97 3.77.78 5.08 1.85 3.43 2.79 5.13 5.63 6.23 9.37 6.88-3.31 17.7-8.47 20.53-9.16 8.62-2.12 19.61-2.48 28.47-.7 4.46.9 8.68 2.82 13.15 3.71 4.79.95 9.4 1.89 14.11 3.19 1.56.43 4.1.42 5.45 1.67 1.69 1.57 2.55 4.31 3.15 6.52.28 1.03-1.3 2.28-1.91 2.8-1.44 1.25-6.97 3.07-7.28 5.42-.03.16-.03.32-.03.48.44.78.77 1.56.9 2.29.95 1.2 2.47 2.1 3.61 2.61.66.3 1.34.53 2.05.71.33.09 1.09-.11 1 .23-.12.46-.7.96-1.02 1.28-2.18 2.18-5.39 2.95-8.26 3.6-6.15 1.37-12.43 1.99-18.67 2.82-19.99 2.67-55.59 11.6-75.23 16.35-11.68 2.83-23.05 7.77-32.95 14.87-1.94 1.39-3.65 3.03-5.34 4.7-.77 1.83-1.46 3.72-2.35 5.2-4.45 7.46-9.08 15.27-14.57 21.9-7.98 9.64-21.96 14.11-26.58 26.6-.89 2.43-1.22 5.76-1.22 9.56ZM554.712 465.388c-2.015 10.396-4.002 20.81-6.031 31.226-12.327 63.302-24.023 130.073-26.368 195.717a73.57 73.57 0 0 0-2.604 6.187c-3.857 10.602-.834 22.579-4.404 33.387-3.422 10.357-9.814 19.24-15.174 28.699 3.897 15.097 5.571 30.614 2.38 46.037-4.435 21.444-17.259 42.384-17.46 64.66-.151 16.725 2.525 32.746 3.152 49.356.531 14.048-1.8 28.242-.725 42.239.781 10.174 3.719 19.841 3.975 30.107.389 15.667-3.768 31.257-3.137 46.817.538 13.25 6.821 25.6 7.09 38.99.261 12.98-2.975 24.94-1.415 38.12l.063.54c.522.29 1.081.54 1.682.74 1.826.62 3.867.38 5.634 1.16 3.323 1.46 5.875 4.19 9.067 5.88 1.221.47 2.442.93 3.665 1.39 2.51.65 5.05.83 7.635 1.39 4.979 1.08 9.023 4.63 13.791 6.53.371.14.743.27 1.114.41.591.19 1.193.36 1.812.49 5.771 1.23 11.25-.48 16.902.12 3.997.43 7.838 2.23 11.698 3.24 2.981.79 6.09 1.19 9.068 2.02-1.427-3.38-2.506-6.76-2.497-10.25.031-13.03 16.441-30.33 19.653-45.28 3.914-18.21 1.022-37 2.52-55.4.934-11.46 1.281-23.6 3.573-34.889 1.641-8.084 4.591-15.641 5.738-23.92 3.064-22.122-10.888-42.031 4.762-60.687-.982-2.921-2.276-5.723-2.426-8.832-.566-11.791 1.75-23.64 2.071-35.375.074-2.716-.879-5.399-.884-8.134-.003-1.535.712-3.556.394-5.081-.338-1.618-1.667-3.55-1.496-5.211.367-3.559 3.933-5.892 4.166-9.515.126-1.944-.531-3.589-.622-5.462-.113-2.327.432-4.598.122-6.939-.267-2.012-1.423-4.167-1.23-6.229.349-3.731 2.213-7.153 3.281-10.755.039-2.79.074-5.58.104-8.369-1.611-5.016-5.676-9.492-5.681-15-.002-2.514 2.129-4.691 3.101-6.931 1.539-3.551 2.344-7.581 2.468-11.451.138-4.285-1.09-8.284-2.881-12.131-1.079-2.318-3.087-5.14-3.143-7.735-.061-2.802 2.263-5.423 3.206-7.986a77.368 77.368 0 0 0 2.462-8.117c-.153-5.188-.338-10.377-.559-15.566l-.025-.015c-3.597-2.157-10.275-6.647-11.2-11.394-.501-2.564 2.019-5.663 2.191-8.303.301-4.647-2.514-10.006-4.659-14.106-4.109-7.856-13.377-11.726-13.231-22.037.046-3.253 2.901-5.741 4.801-8.072 1.668-2.047 2.726-4.484 3.641-6.937.851-2.285 1.568-4.948 1.394-7.411-.276-3.912-2.154-6.626 1.501-9.449 2.293-1.771 4.647-1.905 7.035-1.277a811.719 811.719 0 0 0-.727-4.369c-2.352-.946-4.547-2.275-6.483-4.149-3.938-3.81-1.467-13.319-2.141-18.013-.754-5.256-1.548-10.859-2.708-16.008-.57-2.533-2.303-4.659-2.737-7.209-1.501-8.823-1.259-18.451-2.391-27.356-.627-4.927-1.888-9.751-2.433-14.683-.342-3.099-.111-6.241-.603-9.325-.593-3.715-2.066-7.213-2.364-10.982-.446-5.658 1.535-11.254 1.659-16.897a380.93 380.93 0 0 1-.257-3.871c-.581-3.415-2.127-6.6-3.14-9.899-1.571-5.115-2.619-10.388-2.795-15.742-.27-8.174.862-16.448 1.883-24.684-4.666 2.771-9.264 5.752-13.425 9.632-3.872 3.61-7.314 7.789-10.398 12.349ZM521.233 1446.4a367.563 367.563 0 0 1 12.781-23.45c5.79-9.75 13.14-19.06 17.065-29.74 5.345-14.54 9.01-30.67 13.559-45.51 2.09-6.83 6.977-13.13 7.89-20.32.811-6.39-3.67-12.73-3.755-19.28-.11-8.48 6.43-15.93 7.807-24.24 1.034-6.24-3.019-12.29-1.654-18.32.658-2.9 1.792-5.63 3.068-8.31-3.241-1.41-6.836-1.01-10.079-3.1-1.849-1.19-3.681-2.65-5.845-3.23-2.13-.56-4.435-.06-6.592-.67-2.641-.73-4.365-2.78-6.847-3.73-2.179-.84-4.656-.56-6.897-1.35-2.848-.99-4.76-3.84-7.657-4.56-3.702-.92-7.58.23-11.312-.99-3.096-1.01-6.036-2.73-8.945-4.55-2.12 12.34-5.749 24.22-7.785 37.01-2.533 15.92-1.548 32.29-2.015 48.33-.484 16.66-2.189 33.29-7.316 49.24-2.729 8.48-7.57 17.47-9.882 26.49 4.69 7.51 9.205 15.13 13.979 22.6 3.782 5.91 7.596 11.89 11.75 17.55 1.755 2.4 3.562 4.75 5.429 7.06.902 1.11 2.223 2.12 3.253 3.07Zm2574.697-76.01c-2.41-11.09-6.3-21.95-10.28-33.85-2.04-6.1-6.23-13.69-6.06-20.26.21-7.84 13.23-16.94 17.9-22.39 4.88-5.68 9.27-11.78 14.22-17.4 13.23-15.06 19.77-19.14 30.64-12.69.84-12.97.53-25.87-.47-39.22-.23-3.03-3.94-18.53-2.13-21.33 3.02-4.68 25.39.74 28.5 1.05 9.49.93 32.49-2.18 40.08.82 5.55 2.2 10.56 9.02 15.12 17.28 12.7-19.67 20.6-41.84 34.11-61.22.66-.95 1.33-1.9 2.01-2.83 1.63-18.87.92-37.62-3.92-57.97-5.97-25.13-20.18-49.49-18.71-76.03 1.67-30.381 11.69-59.634 11.88-90.324.14-23.688-10-46.924-8.03-70.611 2.9-34.727 17.78-67.301 18.8-102.171.73-24.779-14.33-45.301-15.52-69.24-1.28-25.742 4.33-52.165 5.16-77.986 1.04-32.747-5.5-64.911-4.91-97.257.42-22.742 6.34-45.055 6.65-67.858.55-39.777-13.42-67.801-20.32-101.9-6.4 8.545-13.26 16.805-15.71 20.017-15.97 20.915-29.97 42.836-45.47 64.097-3.95 5.42-10.21 7.809-14.24 13.211-6.26 8.39-11.21 18.698-17.6 26.737-2.04 2.571-4.77 3.883-7.68 4.829-2.47 4.718-4.94 9.44-7.48 14.143a220.677 220.677 0 0 1-5.6 9.713c-.13 5.5-.53 10.974-1.34 16.404-.68 4.586-3.11 7.609-5.52 10.874.03 8.773-.02 17.526-1.29 26.105-.8 5.397-2.75 10.372-5.15 15.195-.35 4.549-.73 8.881-1.13 12.979-2.31 23.438-5.38 46.745-8.96 69.964.22 6.866-.44 13.459-1.6 20.148 4.42 12.328 9.48 24.891 8.22 34.847-.77 6.024-3.45 11.284-6.88 16.279.22.913.39 1.829.49 2.746.48 4.643-1.27 7.9-1.76 12.343-.35 3.207.14 6.538-.43 9.714-.87 4.884-1.43 10.306-2.72 15.085-.59 2.167-2.26 3.914-2.29 6.267-.19 13.939 1.58 28.481.33 42.522-.49 5.52-3.68 10.352-4.57 15.746-.66 3.941.07 7.943-.58 11.854-.55 3.308-2.4 6.333-3.52 9.474-3.39 9.452.41 22.222-5.59 30.295-2.3 3.101-6.6 4.966-9.75 7.063-1.34.894-2.7 1.726-4.08 2.505-.26 6.339-.66 12.66-1.86 18.874-3.56 18.423-10.16 36.017-12.7 54.653-1.65 12.101-.93 25.301-4.61 37.058-2.25 7.196-5.78 13.806-9.09 20.456-3.09 29.85-5.44 59.5-7.07 89.02 2.14 29.98 5.44 59.92 5.58 89.89.08 18.13-4.57 35.75-5.28 53.86-.45 11.33 2.39 23.09.83 34.28-.05.34-.1.68-.16 1.01.02.27.06.55.09.83.43 3.16 2.07 6.12 2.15 9.32.08 3.42-1.72 6.68-1.83 10.15-.07 2.42.97 4.57 1.34 6.91.44 2.78 1.25 5.53 1.57 8.32.24 2.18-.09 4.29.38 6.48.41 1.92 1.62 3.36 2.18 5.15.89 2.88.26 5.68 1.95 8.45 1 1.64 2.24 3.12 3.88 4.16.96.61 2.63.63 3.37 1.49.84.98 1.01 2.38 1.86 3.36.53.61 1.29.9 1.76 1.56.73 1.02 1.05 2.28 1.93 3.24.57.63 1.45 1.03 1.92 1.72.67.97.81 2.27 1.7 3.11 1.5 1.42 3.85 1.35 5.18 2.74 1.24 1.3 2 3.12 3.08 4.55.47.63 1.05 1.21 1.6 1.81 3.07 1.62 6.14 3.17 10.71 2.67 9.11-.99 17.85-2.37 26.72-2.89ZM327.132 343.128c-1.644-.18-3.301-.381-4.971-.604-10.527 6.517-22.853 13.589-30.035 14.379-6.993.768-12.401.964-17.135.37 3.881 23.946 6.836 46.84 9.399 66.303 7.579 57.569-24.411 161.978-35.469 220.678-3.57 18.956-11.718 37.424-11.63 56.924.267 59.581 6.693 119.199 7.464 178.757.399 30.855-9.485 61.832-6.277 92.427 3.044 29.028 13.059 56.798 15.484 85.958 2.579 31.01-4.296 61.35 1.72 92.32 7.09 36.49 31.198 71.19 31.081 108.82-.125 39.75-23.536 70.23-31.954 107.52-6.85 30.34 3.442 67.66 1.67 98.65-2.021 35.36-3.181 70.71-5.091 106.06-1.02 18.9-3.228 35.08-3.864 49.42 12.83 5.65 25.186 13.52 36.242 22.2 3.776-14.84 10.067-29.2 13.354-44.16 2.588-11.78 1.06-24.09 3.656-35.89 4.162-18.9 13.825-36.16 17.952-55.3 4.708-21.84 6.691-44.49 10.128-66.58 1.996-12.82 5.987-25.3 7.023-38.29 1.111-13.92-.695-27.91.415-41.81.865-10.85 3.023-21.55 4.463-32.32.18-11.36.263-22.69.265-33.95-1.05-8.62-2.462-17.21-2.496-26-.079-20.33.782-40.8 1.17-61.24-.679-24.65-1.527-48.47-2.318-71.03-.223-3.82-.43-7.63-.701-11.43-3.462 1.2-7.513 1.84-10.192-1.03-1.769-1.9-1.897-5.89-2.339-8.43-1.186-6.82-1.554-13.93-1.548-20.84.023-27.99 3.511-55.72 5.815-83.59.933-11.29-.003-22.682 1.108-33.964 1.098-11.156 3.344-22.384 3.89-33.566.846-17.33-.098-34.557 2.109-51.826 1.603-12.549 3.592-25.32 6.538-37.632 2.326-9.721 6.045-18.655 7.546-28.65 3.621-24.111.34-48.582 2.715-72.738 1.074-10.917 4.825-21.146 6.464-31.93 1.209-7.959 1.916-16.067 2.428-24.169a5.032 5.032 0 0 1-1.174.11c-1.869-.055-1.417-7.078-1.424-7.389-.228-9.476-.243-19.162.797-28.592 1.412-12.809 5.357-25.043 7.899-37.556a3690.94 3690.94 0 0 0 1.641-22.714c-.543-9.135-1.889-18.46-1.432-27.288.339-6.545 2.4-12.647 4.039-18.807.311-7.67.544-15.296.676-22.832-.376-1.845-.759-3.684-1.047-5.518-1.326-8.426-1.801-17.153-2.254-25.658-.529-9.939 3.296-21.966-.314-31.425-3.618-9.478-11.535-15.542-17.033-23.51-3.236-4.69-4.675-10.449-6.914-15.616-3.22-7.436-7.97-13.924-10.46-21.734-6.51-20.423-7.037-43.683-7.079-65.288Zm840.198-3.658c-18.48 6.598-37.17 12.759-57.37 13.274-32.57.831-64.12-4.461-95.31-11.773a236.77 236.77 0 0 1 4.95 7.369c3.07 4.806 6.09 9.637 9 14.542 3.34 5.634 6.33 11.275 11.09 15.853 8.67 8.33 19.6 13.914 27.26 23.35 31.1 38.29 44.93 93.269 62 138.907 5.68 15.197 15.37 28.347 22.36 42.916 1.25 2.603 2.43 5.288 3.53 8.037 0-.934.01-1.868.02-2.802-.64-4.54-.96-9.231.19-13.616.39-21.776 1.21-43.529 2.48-65.25-1.1-4.026-1.86-8.106-1.61-12.361.3-5.236 1.73-10.214 3.46-15.115.88-11.594 1.88-23.178 3.02-34.75-.54-.88-1.04-1.801-1.46-2.808-1.35-3.315-.81-7.25-.71-10.716.4-14.308.8-29.284 2.14-43.562.57-6.052 2.63-11.873 3.13-17.916.53-6.434-1.04-12.99-.6-19.474.32-4.841 1.69-9.383 2.43-14.105ZM844.25 1420.3c2.358-6.61 7.615-11.62 9.838-18.14 1.382-4.05.779-8.93.251-13.05-.188-1.46-.51-2.99-.892-4.48-21.28-16.73-39.894-36.54-57.202-57.7-.527 3.7-.368 7.51.442 10.88 1.39 5.78 3.637 9.76 4.147 15.74.478 5.6 2.964 11.64 2.834 17.19-.104 4.44-1.223 8.75-1.19 13.22.037 4.95 1.471 9.75 1.553 14.69.068 4.19-.862 8.29-.181 12.49.368 2.27 1.069 4.5 1.806 6.73 12.437 1.96 24.888 2.75 37.598 2.46l.996-.03Z" style="fill:gray"/></svg>