<svg xmlns="http://www.w3.org/2000/svg" xml:space="preserve" style="fill-rule:evenodd;clip-rule:evenodd;stroke-linejoin:round;stroke-miterlimit:2" viewBox="0 0 3508 2481"><path d="M3507.87 0v2480.32H0V0h3507.87ZM923.295 1681.8c-30.18 46-62.281 93.05-54.517 145.4 22.6 17.06 47.933 38.7 66.523 54.73 2.13.68 4.338 1.38 6.627 2.08.207.06.414.13.623.19 43.888 13.42 87.519 28.23 131.869 40.06 109.34 29.17 220.06 58.18 331.76 76.77 1.26.21 2.52.42 3.78.62 44.24 7.29 89.26 13.41 134.46 18.33 56.43 6.14 113.15 10.4 168.99 12.68 37.14 1.52 74.44 1.72 111.75 1.51 29.18-.17 58.37-.58 87.5-.8 11.36-.09 22.71-.14 34.05-.15 53.48-.01 106.47-1.94 159.16-5.59 30.54-2.11 60.98-4.8 91.35-8.02 91.19-9.68 181.81-24.17 272.89-42.34 5.21-1.04 10.28-2.04 15.2-3 117.62-22.91 155.36-24.47 250.85-93.38.64-.46 1.28-.92 1.93-1.39 9.67-7.02 18.94-14 27.69-21.26 8.66-7.18 16.82-14.62 24.37-22.61-13.98-2.03-25.69-5.21-31.98-11.44-11.19-11.09-41.16-36.09-37.39-53.45 2.01-9.21 12.45-16.36 9.34-27.14-.3-1.03-41.89-76-48.05-78.75-18.77-8.4-43.1-5.16-63.12-9.32-30.96-6.44-58.55-18.8-91-23.06-14.75-1.94-31.68 1.33-46.5.84-19.87-.67-39.15-7.12-58.9-7.43-46.21-.74-92.64-1.74-138.78-1.8-16.04-.02-31.32 4.07-47.66 2.79-26.46-2.08-53.89-3.57-81.29-5.69 5.19-5.8 11.25-10.93 16.48-15.22-20.75 2.3-41.52 4.39-62.33 6.07-5.86.93-11.77 1.94-17.71 2.51-9.48-1.35-18.86-2.9-28.09-4.69-4.22.19-8.44.32-12.67.37-1.31-1.35-2.58-2.71-3.83-4.08-31.38-8.22-61.67-22.15-94.1-25.52-145.02-15.05-291.57-15.02-436.85-22.45-69.39-3.55-138.28-29.15-208.4-28.73-40.31.24-73.77 15.54-112.07 21.6-17.61 2.79-35.47.27-53.01 4.14-16.49 3.64-29.54 14.48-46.85 16.85-53.35 7.3-80.03-5.82-121.213 7.11-.584 1.61-1.161 3.22-1.734 4.84a703.27 703.27 0 0 0-11.006 8.24c-6.303 14.07-12.291 28.28-19.229 42.05-6.186 12.28-12.836 24.32-19.395 36.4.039 3.75.21 7.45.482 11.13Zm2220.135-586.34c9.2-.91 98.54-176.808 103.97-212.879 5.65-37.505 2.71-73.66 5.71-111.062 1.84-23.019 10.75-46.322 9.88-69.338-1.56-41.88-13.12-82.427-14.85-123.885-.96-23.133 7.49-45.865 9.98-68.686 3.03-27.839-.33-56.476-1.74-84.299-1.22-23.954-3.67-82.509 1.89-125.966-48.43-5.669-95.56-16.438-145.17-17.222-11.1-.175-22.17-.876-33.23-1.774.4 4.77-.3 9.282-2.45 12.987-9.07 15.641-26.25 24.888-41.22 34.368-9.79 6.198-20.52 10.184-31.65 12.607-.87 14.789 1.9 28.78 1.47 44.189-.41 14.492-7.59 27.818-8.91 42.127-.95 10.305 2.78 20.134 3.2 30.327.59 14.199-2.53 28.407-4.26 42.429-1.75 14.212 9.8 45.932-7.58 55.312-.29.157-.02-.663-.03-.995-.06-2.101-.02-4.207-.04-6.308-.03-4.023-.03-8.073-.44-12.079-1.01-9.949-3.92-19.666-4.41-29.67-.53-10.708 2.08-20.893 2.89-31.486 1.05-13.841-1.8-27.57-1.37-41.414.93-30.201 3.05-59.965 3.84-90.013-3.38.331-6.78.551-10.19.677a45.3 45.3 0 0 1-.12 1.645c-.35 4.382-1.25 10.775-7.56 9.298-3.72-.87-5.44-6.418-6.45-9.493-.18-.551-.35-1.106-.52-1.663-6.65-.57-13.83-1.493-20.02.315.21 5.439.66 14.992-5.79 16.568-5.69 1.387-10.62-1.641-13.92-5.968-15.04 10.235-29.07 23.693-43.51 33.359-50.53 33.805-80.57 52.193-109.28 86.803-1.25 2.806-3.28 5.302-4.3 8.201-1.34 3.799-1.5 7.794-2.84 11.616-2.91 8.311-6.89 16.26-10.59 24.159-1.36 2.896-3.9 5.686-4.63 8.833-.65 2.778.82 6.448.58 9.393-.67 8.105-1.7 16.426-1.51 24.58.17 7.748 2.01 15.256 2.51 22.897.91 13.826-1.13 27.434-.34 41.249.49 8.403 3.08 16.068 4.12 24.323 1.16 9.241.65 18.434 1.6 27.634 1.08 10.575 5.58 19.467.09 29.682a3.471 3.471 0 0 1-1.82 1.621c.23 7.247.43 14.494.6 21.742.03.208.05.416.08.623.88 6.233 2.51 12.416 2.81 18.717.68 13.869 1.82 28.037 1.84 41.922.01 5.078-1.45 10.124-1.33 15.289.13 5.229 2.02 10.402 2.12 15.553.13 6.134-1.43 11.715-1.89 17.717-.26 3.345.26 7.236.48 10.553.55 8.386 1.82 17.181.4 25.623-.33 1.916-1.12 3.797-1.98 5.683 1.61 4.932 2.04 10.318 2.33 15.415.53 8.974-.35 17.149-.73 26.058-.15 3.35.51 6.758.09 10.089-.58 4.718-2.46 9.174-2.98 13.96-.56 5.069.07 10.254-.11 15.342-.18 4.735-1.53 9.294-1.14 14.089.72 8.83 3.02 17.465 2.51 26.426-.52 9.02-4.84 17.82-6.04 26.81-.98 7.38.2 14.83.02 22.26-.28 11.95-2.61 23.35-4.2 35.11-.85 6.28-.27 12.61-.56 18.91-.24 5.12-1.21 9.99-2.04 15.02 2.09 4.11 5.07 7.93 7.67 11.7 15.18.89 30.41 5.12 45.73 5.62.16.01.32.01.48.02 1.39-5.97 1.93-12.21 2.33-18.51.45-6.96-.34-18.9 4.42-25 3.44-4.41 10.59-5.54 15.59-6.82 7.73-1.96 15.63-4.12 23.64-4.59 4.88-.29 11.9.76 16.55-1.32 7.11-3.16 10.69-11.04 15.74-16.45 4.79-5.12 12.54-8.16 18.04-12.58 5.94-4.76 11.12-12.45 19.07-14.2 3.97-.87 9.68 3.1 12.96 4.79 10.75 5.52 13.5-9.76 32.41-4.55 6.66 1.83 13.75 3.09 20.47 4.58 5.92 1.31 13.88 3.18 19.62-.15 4.72-2.74 7.08-7.61 10.44-11.71 1.27-1.54 2.04-4.12 4.01-4.44 2.26-.37 4.68 1.87 6.58 2.93 3.72 2.1 7.51 3.95 11.58 5.28 4.08 1.32 8.15 2.6 12.21 3.98.87.3 1.75.6 2.63.89 4.76-12.53 7.15-26.05 8.67-39.34a39.986 39.986 0 0 0-2.99-5.15c-2.59-3.757-6.17-5.343-7.25-10.061-1.75-7.607 5.87-10.476 9.65-15.779 1.83-2.568 2.75-5.209 3.59-7.83.36-8.081.55-16.202.49-24.323-2.15-1.588-3.83-4.009-5.85-7.126-.8-1.249-3.41-4.474-2.95-6.462 1.31-5.722 5.32-10.488 7.49-16.051-1.15-13.506-3.13-26.877-6.17-39.926-2.4-1.555-5.23-3.538-6.33-6.008-3.19-7.102-2.28-15.188-1.43-23.21-1.93-5.468-4.27-10.679-7.33-15.233-1.51-2.262-3.35-4.413-5.42-6.414-.91.099-1.83.208-2.75.328-1.93.249-4.71.985-6.59-.054-4.2-2.313-7.72-6.924-10.14-10.956-.33-.537-.63-1.068-.93-1.589a46.452 46.452 0 0 0-3.55-1.029c-2.58-.638-5.46-1.414-8.14-1.111-2.45.278-4.59 1.079-6.46 2.284.9 4.306 2.07 8.558 2.76 12.906.48 2.946 1.19 6.189-.63 8.82-1.87 2.685-6.2 2.882-9.15 3.014-1.48.066-3 .235-4.46.3a83.831 83.831 0 0 0-.52 12.477c.16 4.689 1.39 9.565.75 14.248-.28 2.062-1.72 4.425-4.14 3.368-3.82-1.667-5.68-5.981-6.63-10.864-2.25-1.73-3.85-4.072-5.43-7.003-2.65-4.892-5.27-9.905-5.39-15.597-.08-4.128 1.77-8.043 3.52-11.667 2.15-4.414 4.72-8.597 7.17-12.843 1.11-5.103 2.87-9.98 5.55-14.365a26.635 26.635 0 0 1 3.96-4.975c1.26-2.594 2.56-5.171 3.79-7.765 1.11-2.331 2.26-5.818 4.38-7.423 2.04-1.541 5.25-1.335 7.64-1.381 4.78-.093 10.18 1.18 15.25 2.923 4.34-.029 8.49 1.24 12.69 4.436 1.49-.125 2.94-.132 4.25.18 4.12.986 7.38 5.799 10.14 8.655 2.16 2.227 4.25 4.237 5.07 7.301.37 1.409.64 2.841.84 4.285 3.15 3.78 6.06 7.758 8.55 12.029 1.97 3.365 3.66 6.961 5.16 10.686 2.79 2.074 5.34 4.262 7.13 7.65 4.34 8.212 4.61 18.134 3.75 27.613 2.65 8.559 5.54 17.038 7.6 25.784l.24 1.052c3.36 5.242 6.67 10.658 8.23 16.391 1.86 6.893 2.82 14.946 2.08 22.045-.43 4.135-1.27 8.24-2.16 12.343.96 7.836 1.9 15.681 2.96 23.522.54 3.926 1.08 7.848 1.65 11.767 1.83 4.874 3.72 9.735 5.75 14.562 3.02 7.198 7.33 14.51 8.75 22.236 1.19 6.49.44 13.21.02 19.74-.37 5.59-.64 11.01-1.18 16.41.52.76.98 1.53 1.4 2.21 4.87 8.07 8.29 16.92 12.92 25.12 3.47 6.15 7.39 12.25 12.16 17.48 5.4 5.93 11.22 7.55 14.53 11.99ZM3038.2 276.681c-11.85-.939-23.69-1.629-35.55-1.666-41.62-.131-81.42 9.992-123.59 6.207-1.4-.126-2.81-.263-4.21-.409-10.85 13.421-24.4 26.338-31.95 42.205-6 12.597-5.06 29.026-4.88 44.132 6.26-3.585 13.01-6.335 18.95-10.433 5.95-4.104 11.06-9.597 14.53-15.99 1.36-2.52 1.13-5.955 2.85-8.216 6.25-8.181 14.97-12.244 24.42-14.888 1.22-.339 2.42-.692 3.63-1.05.64-3.095 1.55-6.024 2.88-8.559 1.4-2.67 7.5-8.377 10.23-4.239 1.54 2.322 2.44 5.11 2.95 8.189 1.45-.431 2.94-.809 4.36-.758 2.4.086 4.86 1.467 7.16 2.078 3.54.943 8.16 1.87 12.45 2.024.61-6.876 2.83-12.978 8.57-16.335 5.3-3.098 7.13 8.963 7.51 11.166.11.613.21 1.229.31 1.847 1.3-.293 2.58-.497 3.84-.54 2.99-.102 6.42 1.285 9.07 2.44 1.69.732 2.98 1.199 4.12 2.034 1.2-.182 2.39-.392 3.58-.626.11-1.483.26-2.963.46-4.441.19-1.513.45-3.007.91-4.466 3.73-11.901 8.91.297 10.61 5.631 18.17-6.371 34.48-18.586 45.72-33.862.36-.489.72-.98 1.07-1.475ZM1594.61 1073.12c3.22 44.11 6.76 88.12 9.86 132.14 9.35 2.4 19.54 3.33 30.79 3.75 7.25.27 16.92-.89 23.85 2.57 11.09 5.54 20.16 14.41 31.04 20.43 8.49 4.7 18.33 6.33 26.52 11.46 7.85 4.93 14.68 10.95 22.38 15.9-.1-6.04-.09-12.08-.62-18.09-.75-8.48-2.86-17.1-2.57-25.64.29-8.45 3.49-16.89 4.47-25.33 1.63-14.13 1.83-28.33 2.2-42.54.4-15.7 1.68-32.07 1-47.69-1.04-23.74-3.43-47.35-2.86-71.2.32-13.53 1.36-27.12 2.13-40.702-.31-8.472-.63-16.937-.96-25.394-.28-7.144-.58-14.287-.9-21.429-2.07-7.797-4.92-15.519-7.02-22.79-3.58-12.384-5.23-24.423-4.89-37.341.07-2.785.25-5.494.5-8.144-.01-.012-.01-.024-.02-.037-6.01-9.993-3.18-26.95-3.74-37.983-1.77-34.53-1.42-69.329-1.43-103.922 0-13.443.91-27.285-1-40.608-1.67-11.678-5.46-21.669-6.06-33.789-.82-16.84.87-33.645.82-50.479-.12-33.959-1.28-67.887-1.22-101.863.04-18.066 3.69-35.145 4.94-53.01.7-9.922-.61-19.908-.06-29.903.45-8.21 2.23-16.155 2.63-24.273-17.1-.558-34.07-3.286-51.1-6.432-20.32-3.752-40.99-7.751-60.84-13.598-4.53-1.338-9.22-2.878-13.76-4.795 5.71 9.821 7.12 24.064 7.86 34.558 1.07 15.145-3.29 29.815-4.23 44.802-.57 9.261-1.7 18.724-1.7 28.008.01 7.339 1.91 14.019 1.03 21.476-2.78 23.74-6.39 48.897-.63 72.562 6.25-8.866 13.11-17.182 20.37-25.773 3.96-6.164 7.57-12.47 10.71-18.778 2.71-5.431 6.09-10.75 8.03-16.512 1.73-5.113 2.01-11.194 5.87-15.298 4.01-4.262 10.28 1.723 12 5.814 1.22 2.909.77 6.724-.37 10.208 4.28 4.018 7.78 9.667 7.2 14.351a91.128 91.128 0 0 1-1.77 9.791c2.97 10.414-4.79 21.483-7.71 31.534-2.29 7.908-3.18 16.188-5.45 24.145-4.57 16.076-10.21 29.728-17.14 44.929-6.31 13.834-12.44 28.067-17.08 42.565-2.88 8.996-4.38 18.538-7.58 27.399-6.66 18.454-16.93 35.406-19.79 54.862-.11.701-.22 1.402-.34 2.102 1.32 13.583 3.22 27.081 3.08 40.823-.27 25.569-.32 51.113-.35 76.703-.01 7.942-2.66 15.675-2.41 23.708.4 12.475 3.39 24.794 3.67 37.311.26 11.742-2.38 23.519-1.44 35.235.8 10.04 3.21 19.871 3.98 29.907.7 9.09.48 18.19 1.23 27.26.98 11.91 2.65 23.32-.62 35.06-.17.62-.33 1.28-.5 1.98Zm-659.35 248.84 7.83.69c3.746-3.38 8.874-6.23 10.847-7.58 5.13-3.53 27.961-18.19 31.062-24.04 2.085-3.93 1.776-10.03 1.517-14.39-.298-5.03-2.267-9.74-2.843-14.71-.915-7.88.71-18.3 2.288-26.24 1.337-6.72 4.884-12.91 6.751-19.5 4.016-14.16 5.474-29.11 8.668-43.44.98-4.42 3.19-8.81 3.51-13.34 1.32-19.05-2.98-38.59-.85-57.35 2.35-20.79 11.06-39.86 12.04-60.92.43-9.29-2.1-18.94-2.24-28.32-.1-7.48 2.78-14.185 3.4-21.497 1.06-12.574-1.53-25.884-.68-38.706.34-5.223 1.58-10.218 2.93-15.181-3.14-12.681-1.93-25.525-1.48-38.424.31-8.976-.97-18.869 1.24-27.737.02-6.674 1.93-14.202 2.47-17.936 1.51-10.531-.86-19.503-.31-29.74.97-17.835 4.72-36.102 3.7-53.991-.85-14.79-5.41-29.34-5.59-44.08-.38-32.098 4-64.128 4.33-96.144-.15-2.872-.27-5.747-.34-8.625-.09-3.554-.11-7.105-.08-10.654-.89-12.34-3.48-24.537-3.84-36.907-.83-29.221.95-58.849-1.29-87.982-.84-10.894-4.17-21.372-5.68-32.166-1.03-7.372.81-14.924.88-22.298.13-14.932-1.66-30.075-2.04-45.115-25.507 7.116-55.877 3.84-79.191-1.281-20.823-4.574-40.804-12.125-61.517-16.982-21.9-5.134-44.374-7.614-65.306-16.265-16.723-6.911-31.643-18.792-47.258-27.736-17.89-10.246-37.016-17.691-55.786-26.065-7.608-3.394-15.26-6.681-22.829-10.163a757.338 757.338 0 0 1-18.745-8.915c-12.876-6.353-38.619-18.22-49.382-34.495-31.979 5.452-66.018 25.054-99.376 27.875-46.579 3.938-88.788-16.849-134.239-18.312-39.095-1.259-74.105 27.622-109.238 22.976-.279 34.981-.455 71.245-6.04 105.334-4.439 27.095-15.227 52.924-17.767 80.352-2.1 22.677 4.316 46.241 6.424 68.638 2.463 26.156 1.069 54.232 1.257 80.413.659 92.013 1.436 184.223-2.009 276.159-1.046 27.924-8.485 55.366-8.894 83.221-.222 15.043 4.517 29.959 5.005 45.029.542 16.73.442 33.49.312 50.25 30.882-23.06 61.808-32.5 68.164-21.97 18.154 30.1 24.23 22.26 58.615 23.74.255 44.05 27.101 49.09 77.853 66.72 7.664 22.9 10.573 21.64 34.261 26.59 62.497 13.05 62.145 7.87 125.059 4.22 29.508 75.7 76.332 54.15 126.982 59.18 43.884 4.36 14.808 58.34 58.495 52.29 77.223-10.7 92.459 17.1 138.95 45.52Zm798.43-952.972c.27-1.841.55-3.691.85-5.546.07-10.34.4-20.635.92-30.926-49.95-3.751-100.79-29.295-150.39-34.313 2.69 14.462 4.88 29.494 6.63 44.894 2.09 1.396 4.07 3.075 5.43 3.869 11.35 6.635 22.01 13.035 34.81 16.393 27.53 7.219 58.46 12.514 86.92 9.079 5.11-.617 9.99-1.967 14.83-3.45Zm904.46-41.468c.52-17.19 1.43-33.858 3.03-48.521-.13-1.974-.27-3.948-.4-5.921-17.69 4.105-35.48 7.807-53.82 8.999-34.47 2.24-69.94-8.101-103.88-4.056-41.22 4.914-61.72 26.722-111.56 15.707-35.13-7.765-52.04-27.121-51.15-44.41-60.68 6.464-123.02 8.56-182.2 13.165-11.08.862-22.12 2.4-33.13 4.075-.33 8.951.14 18.269 1.92 26.864 1.91 9.24 5.84 17.906 6.75 27.404 1.96 20.366-1.48 41.172-.95 61.602.44 17.105 4.78 33.848 4.94 51.066.04 4.139-.54 8.199-1.49 12.215 2.66 7.03 3.41 15.02 4.48 22.26 2.56 17.384 3.71 34.801 4.93 52.305 1.1 15.848.33 31.684 1.19 47.52.87 15.828 3.54 31.633 3.74 47.481.31 23.305-2.82 46.493-2.32 69.769.15 7.012 2.36 14.181 3.37 21.102 1.02 7.076.56 14.217 1.27 21.319.87 8.568-.64 16.96.06 25.495 1.1 13.17 4.65 26.54 3.78 39.803-.19 2.862-.54 6.635-.16 9.574.4 3.086 3.21 7.761-.43 10.026-.12.074-.24.145-.36.214 3.29 8.023 6.33 16.212 7.61 24.779 1.77 11.92.33 24.022 1.65 35.979.95 8.493 2.5 17.322 3.8 25.791.49 3.184 2.1 6.566 1.94 9.826-.03.563-.07 1.125-.11 1.688 2.55-3.709 5.17-7.359 6.85-10.993 6.22-13.457 8.27-27.97 9.34-42.629 1.07-14.693.79-29.434 2.93-44.043.71-4.852 1.69-9.617 2.62-14.427.25-1.286.47-2.577.71-3.864.16-.83.07-3.244.46-2.494 3.24 6.282 3.79 14.093 4.3 21.009.77 10.499 1.2 20.993 1.3 31.52.16 18.046 1.1 37.921-2.65 55.569-3.94 18.555-13.02 36.075-18.19 54.353-2.63 9.287-4.4 18.66-5.73 28.097a702.34 702.34 0 0 0-.32 12.129c3.39 26.093 7.18 52.023 11.46 77.503.6 2.21 1.15 4.45 1.59 6.74.55 2.8.85 5.63 1.03 8.46 2.62 14.81 5.42 29.44 8.39 43.82 1.15 2.57 2.3 5.15 3.35 7.77 1.79 4.46 2.37 9.51 3.76 14.12 1.45 4.8 3.85 9.22 5.34 13.99 2.82 9 2.25 18.67 4.72 27.59 1.46 5.29 5.76 9.01 7.27 14.31 1.12 3.91.63 7.98 1.69 11.9 3.34 12.44 8.1 25.77 13.49 37.46 2.34 5.08 3.45 10.49 5.78 15.49.46.99 1.02 2.01 1.6 3.07 7.46-9.77 13.03-23.12 25.01-26.08 36.62-9.06 75.11 2.36 111.7-8.99 28.52-8.86 44.17-33.92 70.9-44.04 21.95-8.32 45.05-20.23 68.39-23.8 21.21-3.24 42.21-2.57 63.47-7.28 19.73-4.37 38.73-13.9 58.36-18.99.04-.17.08-.34.11-.51.72-3.98-.9-8.17-1.52-12.05-.98-6.19-1.39-13.66-.71-19.89.63-5.78 4.2-10.25 4.69-16.2.35-4.27-.34-8.38-.25-12.62.08-3.69.74-7.36.69-11.06-.05-3.35-.84-6.96-.31-10.29.5-3.18 2.49-6.19 3.42-9.28 1.46-4.86 1.56-10.27 1.44-15.32-.27-11.22-5.87-21.72-5.9-32.86-.01-2.5 1.36-4.96 2.02-7.29 1.38-4.87 2.44-9.843 3.52-14.785 2.58-11.76 2.74-24.823 2.76-36.805.01-8.976.59-17.989 1.12-27.006l.54-33.508c-.23-3.656-.57-7.308-.6-10.971-.01-.885-.58-4.25.54-4.907.11-.063.22-.119.33-.167.12-6.789.23-13.578.35-20.367-1.29-7.56-3.6-14.96-6.76-22.167-1.98-4.501-3.98-9.14-6.65-13.279-1.06-1.644-4.28-3.978-4.34-6.006-.1-3.13 2-6.568 3.1-9.348 1.45-3.686 2.08-7.673 2.48-11.593.39-3.913-.01-7.859.33-11.769.47-5.422 1.91-10.568 2.11-16.083.27-7.581-.43-15.201-.02-22.762.31-5.679 1.76-11.334 2.13-17.045.54-8.193.92-16.75.09-24.942-.56-5.643-1.67-11.421-1.01-17.115.44-3.745 2.05-6.887 2.82-10.551 1.32-6.284 1.65-12.756 3.02-19.047 1.11-5.128-.17-11.905 2.13-16.684.25-.507.79-.844 1.49-1.09-.13-4.202.18-8.431-.23-12.736-.84-8.661-3.89-17.48-4.08-26.134-.17-7.256 2.36-14.807 2.84-22.095.97-14.472-2.5-28.87-1.46-43.305.94-13.156 5.81-25.852 7.38-38.963.02-3.841.05-7.681.07-11.522-.43-4.611-1.25-9.214-1.79-13.776-.99-8.347-.61-17.138-.97-25.554-.62-14.709 2.01-29.507 2.15-44.25.06-5.81-.12-11.532-.51-17.33-1.05-15.783-3.47-32.031 1.44-47.261.21-.666.4-1.375.58-2.097Zm-1624.03-31.847c-57.291-12.027-132.144-48.876-177.721-44.576-36.253 3.42-69.934 10.233-107.216 6.951-31.327-2.759-62.105-13.363-93.424-15.393 2.915 2.342 5.898 4.6 8.942 6.769 25.131 17.909 53.256 30.192 81.902 41.777 35.725 14.447 72.448 27.139 107.726 42.577 36.814 16.11 74.725 35.541 115.597 38.859 21.353 1.733 44.922-2.881 66.664-9.488 5.78-22.007-4.55-44.954-2.47-67.476Zm1840.15-17.608c-47.82-7.593-97.53-22.558-144.28-18.396-1.95.173-3.89.373-5.83.598 1.06 4.882 2.47 9.701 2.87 14.646.58 7.209-.06 16.332 1.57 23.41.99 4.304 3.99 7.902 5.17 12.258 3.5 12.99 4.62 26.37 7.85 39.386 1.4 5.646 4.14 10.749 5.66 16.317 2.46 8.993 3.94 18.273 5.24 27.489 1.91 13.434 2.84 26.008 2.79 39.576 4.2-3.325 8.09-7.033 11.78-10.949 1.92-2.041 3.36-4.569 5.5-6.405 1.38-1.178 3.29-1.505 4.8-2.484 2.08-1.347 3.78-3.198 5.84-4.581 5.89-3.959 14.08-2.898 20.02-7.387 3.92-2.963 8.28-6.733 11.41-10.386 1.71-2.002 3.16-5.209 5.59-6.547 5.16-2.841 11.43.094 16.64-1.874.2-.073.39-.151.58-.232-.42-3.67-.83-7.34-1.24-11.012-2.36-21.293-10.13-50.82 8.1-68.017 9.85-9.292 20.85-15.881 29.94-25.41ZM1140.8 1236.53c7.58 35.41 18.83 69.86 36.08 101.33 6.78-1.09 13.51-2.48 20.2-4.3 17.53-4.79 35.58-14.57 53.9-15.72 10.55-.66 21.26 2.88 32.06 4.87.17-.13.35-.27.53-.41 3.45-2.71 2.73-8.81 3.13-12.45 1.02-9.08 1.16-27.56 8.7-34.16 2.61-2.28 12.7-1.56 15.72-1.9 6.81-.78 13.69-1.08 20.54-1.37 2.54-.11 7.41-.76 9.58 1.17 1.55 1.37 3.8 8.62 4.2 9.58 3.19 7.45 6.02 15.12 7.97 23 1.23 4.93 2.13 9.85 2.62 14.8 16.85-1.35 33.66-3.04 50.15-4.9 5.94-.67 11.84-1.58 17.76-2.39.07-.01 11.47-1.52 12.09-1.58.41-.05 1.21-.14 2.33-.25.69-7.29 1.13-14.69 3.59-21.5 3.35-9.28 9.89-15.37 12.07-25.46 3.23-14.94 1.6-30.57 2.66-45.7.97-13.72 5.62-26.92 6.69-40.64 1.6-20.49-4.92-40.75-1.71-61.13 1.18-7.53 2.27-15.05 3.45-22.54.43-80.12-1.82-160.026-5.02-239.877-10.06-17.237-20.59-34.512-25.82-53.249-2.52-9.007-1.32-18.336-1.04-27.527.31-10.619-.39-21.175-2.68-31.562-3.23-14.717-6.95-29.265-10.73-43.846-1.15-4.415-4.99-13.211-3.75-18.169.17-.703.45-1.378.8-2.026-.13-.872-.24-1.748-.34-2.631-.7-6.668.34-12.821 6.43-16.738 4-2.571 8.66-2.609 10.59-7.608 1.07-2.793.16-5.967 1.16-8.64 1.69-4.497 5.53-7.756 6.51-12.583.89-4.426-.64-8.922.01-13.289.66-4.403 4.11-11.535 7.47-17.363-3.48-84.878-5.95-169.876-5.34-255.179-11.24 2.404-22.57 3.915-33.86 4.161-59.6 1.3-124.79-16.599-180.48-37.102-25.47-9.376-50.72-23.579-77.57-28.58-19.54-3.639-39.17 1.464-58.97 6.875 3.64 49.902 3.39 117.141 4.32 139.549 3.83 92.216 17.8 183.781 21.11 276.099.72 19.898 1.21 39.798 1.54 59.699 3.8 12.338 5.9 25.108 7.41 38.333 2.85 25.063-.94 50.384-.94 75.537 0 24.334.69 48.79-.15 73.106-.71 20.577-3.11 40.979-3.16 61.62-.02 8.88 1.72 17.64 2.58 26.47 7.55-12.64 17.12-23.76 29.53-34.91.09-.08 16.37-16.618 17.66-16.196 6.52 2.131 16.11 18.636 15.62 26.906-1.76 30.16-23.62 55.71-30 85.01-5.8 26.66-4.87 55.1-8.26 82.16-2.23 17.84-5.53 35.53-8.94 53.2Zm876.31-876.429c-11.67 6.383-23.54 12.408-35.12 18.946-22.11 12.48-46.09 15.438-70.71 19.322-15.36 2.422-29.74 5.692-45.4 3.361-11.95-1.78-23.77-5.442-35.63-8.907 0 .116.01.231.02.346 2.83 5.487 2.31 9.455 1.84 17.808-1.11 19.955 1.33 40.393 3.17 60.252.56 6.062.88 12.804 4 18.216 4.83 8.397 10.9 10.085 11.93 20.74 1.34 13.82 2.47 29.334.83 43.144-.81 6.816-6.97 10.979-7 18.58-.06 15.934 5.43 31.541 6.72 47.325 1.69 20.672.39 41.364 2.21 62.174 1.43 16.342 1.19 32.999 3.75 49.225 1 6.348 4.8 11.558 6.11 17.79 1.07 5.078 1.01 10.71.33 16.281 2.07-2.673 3.97-5.446 5.65-8.327 9.76-16.732 12.74-38.079 16.43-56.844 1.26-6.421 2.78-12.78 3.56-19.284.83-6.851.85-14.05 3.51-20.522 2.07-5.029 3.79-5.475 8.24-6.625.45-.116 3.2-1.164 3.55-.906.64.458-.52 8.968-.55 9.646-.53 12.038-.59 24.091-1.14 36.129-.26 5.895-.5 11.812-.91 17.712 3.42-6.608 7.42-12.997 12.02-18.449 4.14-4.916 9.87-8.682 14.58-13.025 4.64-4.284 9.02-8.869 13.06-13.728a58.64 58.64 0 0 0 3.33-4.351c.4-.572 1.03-2.437 1.14-1.751 2.5 14.816-6.27 27.435-13.89 39.27-8.78 13.656-17.76 27.546-28.06 40.124-3.8 4.633-7.95 8.912-12.12 13.179-5.77 11.51-13.44 21.895-20.27 33.582-5.54 9.476-8.73 19.631-10.79 30.094.4 5.949.79 11.898 1.16 17.847 1.89 7.431 4.47 14.707 5.54 22.375 2.11 15.266-1.59 29.995-.67 45.183.95 15.466 5.55 30.483 6.27 46.035.9 19.693-2.14 39.27-1.17 58.922 1.24 25.16 1.94 50.89 1.6 76.07-.12 8.83-3.16 17.29-3.37 26.02-.56 23.29 2.52 46.28 5.38 69.31 1.5 12.1 2.89 24.59 7.24 36.07 2.93 7.74 7.69 13.85 11.61 21.02 4.69 8.59 8.62 17.67 12.91 26.47 1.1 2.25 2.19 4.49 3.21 6.74 4.29-1.47 8.57-2.96 12.82-4.53 2.22-.81 9.69-5.27 12.3-4.49 6.19 1.85 9.54 11.87 12.31 18.4 7.08-7.72 15.38-16.48 24.3-17.71 6.38-.88 11.16 8.16 14.2 12.28 2.64 3.57 6.23 5.96 8.54 8.54.15-.15.3-.3.46-.45 1.95-1.88 4.21-3.54 6.69-4.64 3.52-1.56 10.8-4.39 14.74-3.27 4.18 1.18 7.4 6.99 13.71 8.77 1.64.46 3.25.81 4.81 1.11-1.34-3.7-2.33-7.55-2.39-11.34-.16-9.71 3.54-19.2 4.62-28.78 1.04-9.18.1-18.58.88-27.79.44-5.16 2.37-10.07 3.1-15.19 1.21-8.51 1.67-19.69 1.13-28.23-.36-5.72-1.51-11.24-1.24-17.02.46-9.86 4.01-19.49 5.07-29.35.19-9.05.35-18.09.49-27.12-.26-7.59-.66-15.18-.68-22.72-.09-23.99-1.38-47.75-.65-71.68.26-8.478-.41-17.01.93-25.403a246.41 246.41 0 0 1-2.07-4.379c-2.92-6.292-5.5-12.956-6.59-19.834-2.72-17.156 1.55-34.28 1.11-51.498-.53-20.881 2-41.397.99-62.279-2.53-52.117-10.01-103.951-8.61-156.273.17-6.482-2.26-12.13-3.39-18.381-1.59-8.79-3.28-17.738-3.45-26.692-3.65-13.295-8.13-26.539-13.26-39.36-1.15-.6-2.28-1.285-3.35-2.153-3.68-3.001-5.75-7.069-8.64-10.724-1.13-1.414-2.28-3.356-4-4.112-5.62-2.461-12.46-3.016-18.33-4.736-2.66-.78-6.44-1.38-8.44-3.497-1.27-1.342-.38-3.487-.23-5.13.31-3.299.42-6.618.82-9.906.13-.996.3-3.805 1.55-4.185 1.43-.435 6.02 2.24 7.41 2.745 5.83 2.127 11.65 4.457 17.32 7.043a275.639 275.639 0 0 0-7.09-12.81c-4.13-6.972-9.45-13.678-11.98-21.445-2.75-8.475-2.91-19.127-2.16-27.916.5-5.767 1.18-11.977 3.82-17.196.34-.676.68 1.354 1.02 2.032.69 1.377 1.38 2.747 2.09 4.115 2.25 4.355 4.23 8.792 6.13 13.307 5.59 13.293 8.78 27.658 15.78 40.335 3 5.426 6.16 10.815 9.4 16.195l.12-.024c4.31-.994 5.41-7.517 6.06-11.319.31-1.841-1.48-4.657-1.46-6.656.07-4.858-.71-9.575-.75-14.335-.04-5.612.39-11.31.74-16.91.17-2.612.32-5.23.35-7.849 0-.917-.3-3.305.27-4.319.29-.533.66-1.036 1.07-1.518-.4-3.493-.3-7.021-.8-10.498-.4-2.819-1.22-5.567-1.4-8.416-.2-3.474 1.19-7.173 1.24-10.721.2-11.885-.04-23.819-.43-35.719-.19-5.758-2.01-11.262-2.21-17.001-.18-5.001 1.29-9.864.87-14.977-.65-7.871-2.64-15.727-2.89-23.59-.22-6.733 2.32-13.523 3.08-20.204.03-.277.04-.691.05-1.186Zm5.67-29.474c1.41-9.208 3.22-17.374 5.48-24.235.27-10.891.37-21.787.42-32.683-39.1-1.66-78.83-12.597-117.47-7.439-26.55 3.544-49.33 17.856-72.1 32.288-4.85 19.02-10.26 36.507-15.74 47.663 1.26 4.166 2.3 8.506 3.17 12.972 15.08 8.462 32.29 13.388 49.33 15.887 11.97 1.754 25.26 3.014 37.31 1.136 29.36-4.579 58.69-16.666 85.52-29.196 9.17-4.284 16.78-10.081 24.08-16.393Z" style="fill:#b3b3b3"/></svg>