<svg xmlns="http://www.w3.org/2000/svg" xml:space="preserve" style="fill-rule:evenodd;clip-rule:evenodd;stroke-linejoin:round;stroke-miterlimit:2" viewBox="0 0 3508 2481"><path d="M0 2480.32V0h3507.87v2480.32H0ZM268.458 291.83c-.314 30.078-1.144 60.719-5.905 89.778-4.439 27.095-15.227 52.924-17.767 80.352-2.1 22.677 4.316 46.241 6.424 68.638 2.463 26.156 1.069 54.232 1.257 80.413.584 81.498 1.26 163.15-.987 244.629 7.964 8.28 13.047 16.858 4.368 29.437-2.297 3.33-4.222 6.522-5.816 9.59-.929 12.411-2.889 24.741-4.691 37.072 7.639 27.493 35.52 47.641 8.448 88.821a78.394 78.394 0 0 0-6.856 12.9c.103 10.73.032 21.47-.052 32.21 6.719-5.02 13.44-9.39 19.91-13.05-17.506 72.87-10.419 81.15-9.065 96.36.046.52.105 1.06.178 1.63 3.075 8.26 6.16 16.02 8.902 23.05 24.244-.03 36.854 4.12 71.761 44.73 34.438 40.07 60.6-9.05 101.608 15.01 147.008 86.24 176.399 36.73 214.347 93.86 57.892 87.15 180.979-29.39 259.586 24.8.7.48 1.043 1.35 1.066 2.52 3.292-.25 6.543-.49 9.751-.73 68.547-22.82 80.675-63.65 171.265-29.28 58.51 22.19 62.6-9.21 122.46 9.76 20.51 6.49 62.81 1.69 70.8 9.71 31.15 31.26 39.52 11.73 79.88 27.75 12.66 5.03 101.15-1.99 150.27 1.9 22.98-4.81 40.48-8.49 49.8-8.29 27.3.6 49.12 9.97 75.04 21.17 22.24.74 24.71-.22 30.04 1.63 45.94 15.92 47.12 5.45 94.46 13.13 82.88 13.45 163.94-15.53 198.07-16.45 95.81-2.57 94.24-45.7 118.6-27.69 34.7 25.67 76.7.55 136.49-14.64 17.35-4.41 35.68-5.06 53.89-3.46 31.14-46.93 142.08-24.62 183.56-43.31 37.67-16.96 38.73-16.65 79.02-7.44 46.02 10.53 47.84-4.4 92.63 11.49 7.63 2.71 11.26 4 101.14 4.27 23.28.07 53.01-17.96 79.83-12.48 21.89-11.44 45.44-25.99 71.15-44.33 89.95-64.16 116.83-50.09 242.06-36.88 11.63-15.69 23.23-31.63 36.99-40.7-7.92-25.88-19.36-51.36-25.38-67.36 52.82-25.34 65.29-21.41 71.11-79.53 20.14-1.54 26.17 6.89 31.82-9.48 2.56-7.44 2.77-16.075 7.44-22.409.1-.129.19-.236.29-.322-6.63-47.02-21.52-59.73-18.94-130.522 2.04-56.237-13.02-56.3-.6-111.013 11.07-48.774-11.11-57.376 15.05-94.523 19.08-27.097-16.45-121.558-9.5-138.296 6.73-16.206 17.62-16.193 29.98-23.925l.17-7.439a100.088 100.088 0 0 1-2.37-12.162c-.7-.37-1.42-.745-2.15-1.125.51-.417 1.13-.876 1.85-1.373-1.5-14.044-.12-28.24 3.92-40.236l.95-41.782c-5.82-7.881-12.13-14.947-25.99-18.449-35.57-8.989-60.3 1.941-46.67-32.338-37.29-13.242-37.07-13.108-40.27-14.302-25.97-9.675-6.2-19.714-5.93-39.043-2.58-.243-5.16-.468-7.74-.673a3298.12 3298.12 0 0 1-19.59-8.014c-33.02-.795-85.92 1.243-97.51-4.393-28.77-13.99-36.76 1.914-56.3-7.771-39.35-19.51-43.79 3.444-76.96-10.142-23.33-9.554-40.33 20.436-69.71 3.886-34.62-19.503-38.79 6.322-72.63-5.768-45.16-16.137-74.51 19.056-108.1 25.421-24.89 4.715-45.52.111-61.18-9.234-19.16 3.726-38.18 7.26-57.06 10.608-12.55-1.024-25.02-1.442-37.29.02-23.83 2.84-40.73 11.325-60.38 15.853-6.4.946-12.79 1.87-19.16 2.774-9.41.504-19.84-.228-32.02-2.92-14.04-3.103-59.38-5.147-108.66-5.935-40.66 23.256-113.14 58.982-182.9 46.202-32.55-5.962-69.8-20.763-107.6-37.346-28.99-2.28-60.09-3.799-91-4.375a323.372 323.372 0 0 0-4.03 3.285c-23.66 19.612-56.76 6.139-97.46-1.323-52.56 3.445-94.91 11.081-111.04 24.171-3.77-1.106-10.03-2.421-18.05-3.859-84.38 32.276-98.65 8.625-208.12 12.455-27.07.947-37.05 5.124-51.34-15.988-16.03-23.676-37.32-4.447-75.62-24.558-41.55 25.966-54.82 29.522-112.7.446-60.95-30.62-81.12-6.657-128.83.949-16.11 2.567-248.608-17.79-330.68 1.365-29.836 6.964-154.893 4.89-182.323-24.841l-.093-.1c-6.346.721-13.134-.487-25.392-5.165-21.94-8.373-155.281 40.598-166.485 40.751-34.985.476-31.058-16.783-66.016-18.047-11.046-.4-22.976 3.978-34.723 10.015ZM935.662 1646.9c-4.218 7.96-8.553 15.86-12.849 23.77.039 3.75.21 7.45.482 11.13-30.18 46-62.281 93.05-54.517 145.4 22.6 17.06 47.933 38.7 66.523 54.73 2.13.68 4.338 1.38 6.627 2.08.207.06.414.13.623.19 43.888 13.42 148.949 85.9 193.289 97.73 3.48.93 6.85 1.8 10.12 2.62-.01-1.96.23-4.17.84-7.11 1.18-5.81.15-11.26.94-16.96.17-1.22.41-2.43.68-3.63l-.66-11.04c-.99-16.4-.42-32.32.96-48.05-.15-.25-.3-.49-.46-.74-1.58-2.44-4.95-5.87-4.51-9.09.68-4.91 4.44-9.35 6.82-13.5.31-.54.63-1.09.94-1.64 3.14-23.99 7.3-47.9 9.81-72.78.24-2.38.47-4.79.68-7.2-.57-1.81-1.06-3.64-1.31-5.48-1.56-11.73-.7-23.47-2.19-35.2-.94-7.48 2.5-15.13 1.46-22.55-.48-3.47-2.6-7.28-4.67-10.64-.54 2.74-.94 5.52-1.46 8.11-1.36 6.85-3.25 13.44-4.29 20.42-.22 1.47-.38 3-.71 4.44-.12.5-.46 1.9-.66 2.6-.29.99-.31 1.24-.67 1.98-2.2 4.47-4.61 1.1-8.01-.13-1.69-.61-3.8-.95-5.08-2.33-.56-.6-.04-2.3.02-2.97.22-2.62.6-5.22.96-7.83.83-5.89 2.06-11.76 3.56-17.51 1.26-4.78 3.19-9.23 2.99-14.25-.28-7.01-2.72-14.67-4.85-21.3-.92-2.89-1.3-5.93-2.45-8.76-1.94-4.8-5.12-9.23-6.23-14.32-1.36-6.19 1.97-12.7 1.48-18.91-.5-6.2-4.79-10.02-6.31-15.88-1.68-6.49-1.5-13.17-3.19-19.5-.3.4-.66.74-1.12.96-2.38 1.17-6.07.96-8.63 1.6-3.18.79-5.4 3.76-8.26 4.44-3.12.74-7.15-.21-10.39.08-4.36.37-7.43 2.25-11.37 3.44-.65.2-1.7-.67-2.19-.89a48.107 48.107 0 0 0-8.75-2.93c-4.06-.96-7.02.08-10.87.22-4.69.17-9.34-.2-14.03.41-2.91.38-5.72.92-8.38 2.22-1.46.71-3.04 2.09-4.65 2.47-4.28 1.02-8.85.61-13.15 1.64-4.32 1.03-7.73 3.82-11.85 4.98-2.38.67-5.02.52-7.465 1.09-4.727 1.1-9.807 2.97-14.489 4.37-5.773 1.73-9.009 6.13-15.301 7.08-7.362 1.12-14.601-.6-21.676-2.72-4.048 1.89-8.098 3.77-12.157 5.64Zm311.068 350.75c27.91-.11 56.25-1.47 111.82 7.78l3.78.63c44.24 7.28 136.89 9 182.09 13.92 56.43 6.14 113.15 10.4 168.99 12.68 37.14 1.52 74.44 1.72 111.75 1.51 29.18-.17 58.37-.58 87.5-.8 11.36-.09 22.71-.14 34.05-.15 53.48-.01 106.47-1.94 159.16-5.59 30.54-2.11 60.98-4.8 91.35-8.02 91.19-9.68 181.81-24.17 272.89-42.34.98-.2 1.94-.39 2.91-.58-.01-.75-.02-1.51-.02-2.26-.91-4.03-1.84-8.06-1.74-12.19.26-11.05 4.67-22.07 3.63-33.17-.03-.33-.06-.67-.1-1-7.89-12.73-14.94-25.78-21.15-38.67-17.31-35.96-27.24-82.4-65.44-102.7-19.38-10.3-43.37-11.55-64.73-8.53-18.2 2.57-32.5 14.06-50.55 16.72-21.13 3.11-40-7.29-60.8-7.83-28.07-.74-58.88 7.52-77.71.41-17.36-6.55-33.86-30.7-35.27-43.06-.74-6.58 2.64-12.05 8.24-17.28-.05-2.84-.12-5.56.61-8.43.37-1.41 1.2-5.3 2.58-2.44.1.2.18.42.27.63.18.44.32.9.48 1.35.36 1 .7 2.02 1.05 3.03.11.3.22.6.32.9 1.21-.96 2.44-1.91 3.68-2.83.52-2.2.97-4.43 1.46-6.63.28-1.27.64-2.52.92-3.79.09-.41.2-.82.29-1.22.05-.21.08-.84.16-.64.22.6.39 1.22.53 1.85.09-.35.18-.7.28-1.06.5-1.73 1.13-3.37 1.77-5.05.55-1.42.69-3.97 2.12-1.76.22.34.41.69.59 1.05.44.87.7 1.55 1 2.48.2.65.62 2.15.78 2.81.22.89.43 1.79.64 2.71.09-4.74.66-9.44 2.09-14.02.47-1.52 1.01-3.01 1.56-4.5.19-.52.39-1.02.59-1.53.1-.24.12-.89.31-.71.57.54.67 2.06.8 2.8.4 2.2.65 4.43 1.01 6.64.5 3 .98 6 1.51 8.98.76-2.04 1.53-4.08 2.36-6.1.08-.2 1.17-3.18 1.32-3.16 1.25.18 2.3 1.64 3.15 3.22.21-2.12.49-4.23.84-6.34.27-1.69.59-3.34.99-5 .13-.53.25-1.07.38-1.6.09-.37.02-1.36.28-1.09 2.28 2.3 3.51 5.77 5.59 8.31a57.44 57.44 0 0 0 7.63 7.72c2.02-.39 4.04-.76 6.07-1.1.04-1.2.1-2.41.14-3.61.04-.91.09-1.8.17-2.7.04-.49-.36-1.6.12-1.48 1.73.43 3.74 2.79 4.99 3.96.93.86 1.87 1.71 2.81 2.55l3.04-.42c.09-.51.18-1.02.28-1.54.33-1.79.74-3.56 1.03-5.36.25-1.59.84-2.5 1.64-1.09.25.44.49.88.72 1.34.26.52.49 1.06.74 1.58.66 1.39 1.34 2.77 2.09 4.11-.11-.54-.2-1.09-.28-1.64-.13-.93-.2-1.88-.23-2.82-.03-1.4-1.01-7.06 1.65-3.69.54.68 1.01 1.41 1.52 2.11 1.02 1.38 1.97 2.71 3.07 4.03.4.48.82.95 1.24 1.41a54.9 54.9 0 0 1 2.2-.11c3.77-.14 7.66-.22 11.54-.45.11-1.78.27-3.55.48-5.31.1-.93.11-.9.26-1.63.07-.34-.12-1 .23-1.03 1.81-.11 4.26 3.84 5.17 4.92.66.78 1.33 1.55 2.01 2.3 1.35-.19 2.68-.41 4-.68 1.12-.23 4.78-1.98 5.46-3.62.03.02.05.04.08.05 2.08-1.02 3.79-2.27 5.03-3.82 10.53-13.12 10.86-29.61 5.93-44.99.67-1.48.18-3.41.01-4.98-.36-3.2-.96-6.78-2.1-10.09-.22-.02-.43-.05-.64-.07-1.6-.16-3.19-.3-4.78-.54-1.3-.2-4.47-.33-5.32-1.54-.09-.11 1.43-2.01 1.45-2.03.03-.04.06-.07.09-.11-21.16-1.49-42.79-2.77-64.41-4.44 5.19-5.8 11.25-10.93 16.48-15.22-20.75 2.3-41.52 4.39-62.33 6.07-5.86.93-11.77 1.94-17.71 2.51-9.48-1.35-18.86-2.9-28.09-4.69-4.22.19-8.44.32-12.67.37-1.31-1.35-2.58-2.71-3.83-4.08-29.67-7.77-58.37-20.65-88.83-24.87 3.95 5.46 7.49 11.41 10.91 17.15.89 1.48 1.58 3.38 2.35 5.21 1.69 1.66 3.4 3.31 5.34 4.7 9.9 7.09 21.27 12.03 32.95 14.86 19.64 4.75 55.24 13.69 75.23 16.35 6.24.83 12.52 1.46 18.67 2.83 2.87.64 6.08 1.42 8.26 3.6.32.32.9.81 1.02 1.27.09.35-.67.14-1 .23-.71.18-1.39.41-2.05.71-1.14.51-2.66 1.41-3.61 2.62-.13.72-.46 1.5-.9 2.29 0 .15 0 .31.03.48.31 2.34 5.84 4.17 7.28 5.41.61.53 2.19 1.77 1.91 2.81-.6 2.21-1.46 4.94-3.15 6.51-1.35 1.26-3.89 1.24-5.45 1.67-4.71 1.3-9.32 2.25-14.11 3.2-4.47.89-8.69 2.81-13.15 3.71-8.86 1.78-19.85 1.41-28.47-.7-2.83-.69-13.65-5.85-20.53-9.16-1.1 3.74-2.8 6.57-6.23 9.36-1.31 1.07-3.27 2.83-5.08 1.85-1.14-.61-1.93-1.92-2.61-3.08-.61.57-1.25 1.1-2.01 1.3-.55.15-1.25-.39-1.66-.66-1.38-.9-2.62-2.06-3.85-3.16-.5-.45-1.11-.96-1.38-1.59-.41-.94-.12-2.38.08-3.33.36-1.69.71-3.3 1.3-4.88-1.13-.11-2.21-.17-3.15-.23-1.06-.07-2.12-.1-3.17-.09-.88 4.53-1.66 8.81-2.94 13.39-.33 1.17-.7 4.5-1.9 5.09-1.92.92-5.05-.53-6.9-1.24-1.42-.55-3.44-1.08-4.47-2.3a9.14 9.14 0 0 1-1.27-2c-2.66-.32-6.6-.52-8.32-2.73-.6-.77-1-1.69-1.35-2.63-2.65 1.38-5.25 2.89-7.81 4.46 1.1 1.47 2.19 2.99 2.78 4.62 1.6 4.38 1.13 10.16 1.16 14.8.01 1.95.36 7.51-1.5 8.93-2.25 1.72-6.54-.64-8.73-1.35-1.57-.51-3.58-.99-5.65-1.57-.4 2.05-1 4.22-2.12 5.14-2 1.66-5.79.65-8 .32-2.99-.46-6.24-.31-9.12-1.31-1.83-.65-3.85-2.17-5.57-3.65-.75.67-1.49 1.34-2.21 2.03-.56.53-1.11 1.06-1.66 1.59 1.1 2.85 2.32 5.65 2.86 8.63 1.76 9.72 1.42 20.6 1.69 30.49.1 3.78-.03 7.6.22 11.37.11 1.72.44 3.63-1.42 4.53-3.2 1.57-6.58-.13-9.63-1.15-1.04-.34-2.07-.71-3.1-1.09-.23 2.33-.08 4.89-2.86 5.52-2.7.63-6.85-.84-9.52-1.24-3.91-.57-7.78-1.29-11.62-2.26-1.91-.49-4.13-.95-5.72-2.21-1.98-1.56-3.53-4.18-4.71-6.75a225.55 225.55 0 0 1-7.01 6.44c1.47 2.49 2.9 5 3.61 7.8.91 3.59.72 7.34.72 11.01.01 8.65-1.21 16.99-2.3 25.55-.54 4.2-.97 8.48-2.17 12.56-.46 1.54-.84 3.96-2.41 4.82-1.86 1.03-4.37.67-6.34.2-1.67-.4-3.29-.94-4.9-1.54-.04.06-.09.11-.14.17-1.37 1.58-2.86 2.92-4.94 3.25-1.46.24-3.49-.86-4.81-1.35-3.97-1.47-7.7-3.41-11.56-5.17-6.6-3.01-13.21-6.03-19.84-9-6.29-2.82-14.34-4.76-15.98-12.52-.18-.86-.26-1.72-.3-2.57-.83.2-1.65.39-2.48.58.41 3.76.63 7.6-.02 11.18-1.35 7.6-6.2 13.88-9.89 20.44-3.28 5.82-6.16 11.81-10.19 17.16-1.94 2.57-3.96 5.06-5.97 7.58-2.99 3.76-6.14 8.23-11.61 7.83-3.57-.26-6.03-2.74-8.4-5.2-3.87-4.04-7.13-8.56-10.73-12.83-4.66-5.53-9.66-10.76-14.56-16.09-1.71 1.79-3.56 3.46-5.14 5.34-3.51 4.17-6.23 8.88-9.94 12.93-1.9 2.06-4.95 4.64-8 3.4-2.86-1.16-4.58-4.67-6.03-7.1-3.49-5.86-6.5-11.97-9.58-18.05-1.87-3.69-3.69-7.43-5.85-10.95-.46-.75-.93-1.43-1.38-2.09-1.02.83-2.04 1.64-3.08 2.44-2.76 2.11-6 8.23-10.04 7.5-1.34-.25-2.27-1.84-2.95-2.88-1.71-2.62-3.15-5.39-4.81-8.03-3.35-5.34-6.72-10.74-9.7-16.29-1.65-3.06-3.67-6.12-4.45-9.54-.46-2.04.12-5.6.98-8.37-2.66-1.83-5.29-3.71-7.94-5.56-.15 1.05-.37 2.07-.71 3.06-.55 1.65-2.22 2.67-3.36 3.92-1.71 1.86-3.07 4.03-4.64 6-1.31 1.64-3.12 5.71-5.7 5.51-3.77-.3-5.05-6.97-6.15-9.5-.07-.15-.14-.31-.21-.46-.46.2-.94.36-1.44.36-.86 0-1.43-.67-2.03-1.19-.99-.84-1.99-1.68-2.94-2.57-3.03-2.84-6.65-6.19-8.58-9.89-1.68-3.24-1.91-6.83-1.37-10.32-.9.01-1.79.06-2.65.18-1.11.14-2.69.59-4.64 1.29.89 1.81 1.71 3.7 1.82 5.41.2 3.11-2.12 6.81-2.88 9.75-.55 2.1-1.51 6.55-3.75 7.57-1.86.84-5.59-1.28-7.34-1.89-2.08-.72-4.54-1.41-6.84-2.32-.32.46-.63.92-.93 1.39-1.19 1.89-2.18 3.96-3.65 5.67-.49.56-.99 1.25-1.72 1.52-1.24.44-2.82-.41-3.96-.78-2.83-.9-5.62-1.95-8.45-2.88-.99-.33-2.52-.56-3.24-1.35-.68-.74-1.09-1.93-1.4-3.1-3.31 1.48-6.33 2.75-8.85 3.71-3.43 4.09-5.16 9.61-6.83 14.57-1.31 3.89-2.89 7.68-4.31 11.52-.97 2.61-4.36 12.35-4.36 12.35s-1.67-3.47-1.87-3.99c-.99-2.68-.92-5.98-.99-8.8-.07-2.66-.06-5.34-.06-8 0-3.39-.21-6.92.08-10.36-2.27.98-4.54 2-6.78 3.07a46.814 46.814 0 0 0-3.79 3.48c-.47.65-.93 1.3-1.41 1.95-2.75 3.76-5.47 7.34-7.58 11.48-.07.14-.15.29-.22.44-.14.27-.27.55-.4.83-.87 1.87-4.66 9.59-4.66 9.59s-.63-5.28-.61-5.99c.11-3.92.51-7.94.92-11.87-8.36 5.59-12.45 9.38-16.89 13.19-3.45 2.97-5.98 7.29-6.73 9.66 0 0-.94-3.04 2.2-7.41 5.71-7.96 14.97-20.34 21.82-26.99-.2-.11-.4-.22-.6-.34-5.26-1.35-9.54-5.16-14.21-8.14-.4-.25-5.33-4.8-5.33-4.8s2.99-.08 4.35.36c2.79.93 5.5 2.28 8.25 3.36 3.76 1.46 7.88 2.37 12.05 2.89 1 0 2-.04 2.99-.1.72-.58 1.37-1.08 1.95-1.49 4.45-3.15 8.97-6.22 13.51-9.27-6.06-.97-12.27-1.72-17.99-3.84-1.88-.69-5.8-4.29-5.8-4.29s9.1-.2 11.22.23c3.25.68 6.71 1.2 10.23 1.51 4.68.03 9.31-.33 13.81-1.29 9.67-6.48 36.86-38.39 40.89-44.9 13.16-21.27 31.91-37.57 54.44-46.76 9.03-3.69 18.33-6.84 27.5-10.13 6.06-2.18 12.02-2.75 15.31-8.96 6.78-12.85 7.62-28.79 14.22-42.06 2.89-5.8 11.7-10.19 12.29-16.34.37-3.82-.64-10.98-2-18.07-.97-.18-1.52-.42-1.61-.75-14.2-.18-28.96-1.6-43.45-3.85-46.84-1.6-93.64-3.21-140.31-5.6-7.01-.36-14.01-.94-21.01-1.7-2.59.48-5.18.99-7.77 1.55-22.66 4.9-23.54 11.55-42.99 8.83-7.64 19.27-14.98 17.79-33.94 18.38-6.24 4.24-14.14 6.86-25.39 9.26.55 9.51 1.49 30.24-2.96 30.68-8.01.8-19.42-4.24-28-4.35-9.75-.14-19.42.29-29.05 1.14-4.87 11.79-10.85 23.12-16.06 34.88-9.02 20.35-7.73 33.38-22.99 40.79-7.06 83.78-24.28 156.05-33.48 230.23.17 8.67.98 17.64 1.69 26.08.43 5.1 2.03 10.74 1.27 15.85-1.3 8.84-7.51 15.91-8.4 24.78-.1.97-.05 2 .09 3.08Zm1228.8-364.7c-17.8-1.53-35.2-6.79-52.98-7.07l-11.19-.18c17.2 5.66 35.15 10.68 50.73 20.22 4.84 2.96 8.56 6.83 11.9 10.98-.73-7.89.83-15.98 1.54-23.95Zm130.87 124.5c1.64 2.98 3.26 5.87 4.86 8.61 4.92 8.41 8.79 17.19 12.83 26.05.14.3 1.25 3.2 1.48 3.19 6.07-.1 14.36-19.53 16.94-24.4 12.1-22.81 29.99-57.41 26.86-84.21-.84-7.25-3.31-17.16-7.06-27-8.57-1.14-17.53-1.4-26.21-2.02-.23.76-.42 1.54-.55 2.34-.88 5.3-.14 11.44-2.12 16.49-1.45 3.72-5.34 6.44-8.06 9.11-1.65 1.62-2.98 3.44-4.14 5.36.64 3.43-1.86 6.4-3.06 9.59-1.9 5.06-4.63 9.81-7.22 14.59-1.35 3.97-2.67 7.94-4.14 11.88-.91 2.44-1.8 4.86-2.67 7.26-.19 1.14-.38 2.28-.57 3.43-.07 3.17.23 6.37.78 9.41.57 3.22 1.78 6.85 2.05 10.32Zm-771.51-186.16c-28.62-1.68-57.27-3.01-85.94-4.17 2.07 10.41 4.71 18.74 7.79 22.69.44.56-.16 1.74-.26 2.88 8.23-4.53 17.08-7.63 25.85-10.83 12.55-4.58 24.91-7.08 37.95-9.34 3.66-.64 8.78-1.03 14.61-1.23Zm859.82 337.55c12.74-7.87 26.38-17.07 41.45-27.95.64-.46 1.28-.92 1.93-1.39 9.67-7.02 18.94-14 27.69-21.26 8.66-7.18 16.82-14.62 24.37-22.61-13.98-2.03-25.69-5.21-31.98-11.44-11.19-11.09-41.16-36.09-37.39-53.45 2.01-9.21 12.45-16.36 9.34-27.14-.11-.36-5.43-10.07-12.52-22.55-1.93 11.56-4.96 23.01-9.83 34.36-3.8 8.88 7.01 18.62 5.15 27.89-1.94 9.72-14.8 21.81-16.82 30.45-3.17 13.6 5.96 29.44 7.82 42.74 2.37 16.85-8.83 34.5-9.18 51.36 0 .33-.01.66-.03.99Z" style="fill:#8c8c8c"/></svg>