<svg xmlns="http://www.w3.org/2000/svg" xml:space="preserve" style="fill-rule:evenodd;clip-rule:evenodd;stroke-linejoin:round;stroke-miterlimit:2" viewBox="0 0 3508 2481"><path d="M0 2480.32V0h3507.87v2480.32H0Zm2491.91-507.33c113.25-21.86 151.09-24.54 246.18-93.49 1.63-1.19 3.26-2.38 4.87-3.56-.11-.64-.21-1.29-.3-1.92-.96-6.61-3.15-13.06-3.95-19.65-1.57-12.89-1.4-25.81-3.57-38.73-.99-5.93-2.21-12.03-3.26-18.19-7.43-9.12-12.83-18.72-11.1-26.71 2.01-9.21 12.45-16.36 9.34-27.14-.3-1.03-41.89-76-48.05-78.75-15.31-6.85-34.33-5.96-51.68-7.66-.03.04-.05.07-.08.1-3.62 4.07-8.37 6.36-12.34 9.96-7.55 6.83-11.98 16.74-19.21 23.84-4.41 4.33-10.23 6.88-15.22 10.44-9.35 6.65-18.1 14.01-27.96 19.97-13.47 8.13-29.44 10.42-42.71 18.68-9.6 5.97-16.11 16.37-22.17 25.56-2.84 4.31-6.46 11.6-11.84 13.17-.22.07-.45.11-.69.15-.79 7.66-.94 15.52.41 22.74 1.4 7.48 5.31 13.6 5.52 21.38.2 7.56-1.88 15.37-2.42 22.94-.74 10.44.72 20.95-.31 31.37-1.6 16.14-4.91 31.98-5.5 48.22 4.81-1.38 11.06-2.46 13.64.62.89 1.05.72 3.27.82 4.49.37 4.71.01 9.52.11 14.24.2 9.31 1.24 18.56 1.47 27.93Zm104.31-323.19c-22.34-6.39-43.94-14.14-68.27-17.33-12.81-1.69-27.26.56-40.54.86-8.95 32.46-13.46 71.61-15.32 113.74 13.93-12.95 30.14-22.78 45.17-34.5 15.04-11.72 27.09-26.02 44.4-34.84 7.63-3.89 16.42-2.21 23.8-7 4.77-3.09 5.96-12.39 8.58-17.16.71-1.29 1.43-2.54 2.18-3.77Zm-287.02-25.6c-8.49-.06-16.96-.11-25.43-.12-16.04-.02-31.32 4.07-47.66 2.79-54.65-4.29-113.43-6.11-167.52-16-3.3 8.24-6.13 16.92-8.56 25.89 1.67 3.9 3.06 7.76 2.81 11.06-.55 7.38-1.34 16.17-3.55 23.26-1.61 5.16-4.39 9.61-5.03 15.12-.96 8.31 2.21 16.57 1 24.83-1.06 7.16-4.59 12.56-4.35 20.16.23 7.52 2.24 28.44-3.31 37.37 2.87 2.14 4.92 4.48 5.29 6.93 1.03 6.88-.75 14.63-.95 21.57-.14 5.1 1.3 10.18.97 15.25-.27 4.18-2.19 7.84-2.09 12.25.59 27.01 4.97 53.82 3.49 81.03-.83 15.36-6.28 30.83-8.2 46.25-1.42 11.34-.89 22.98-1.89 34.39-.5 5.69-1.09 11.35-1.68 17.02-.12 4.24-.24 8.48-.35 12.72.46 3.22.94 6.44 1.43 9.67.28 1.82.58 3.63.9 5.45 107.34-4.64 213.14-16.66 319.01-34.28-1.45-16.08-3.23-32.09-5.42-48.12-.78-5.77-1.29-11.54-1.39-17.36-.03-1.37-.94-5.13.58-6.19 1.12-.78 2.28-1.19 3.47-1.3-3.71-58.85-9.28-117.53-17.83-175.95-5.54-37.94-15.7-83.16-33.74-123.69Zm-395.67-47.28c-12.58-1.08-25.17-2.07-37.76-2.97-.42 1.87-.99 3.6-2.06 4.84-4.79 5.52-17.54 6.57-24.14 13.7-5.5 5.94-5.46 14.74-7.05 22.06-1.89 8.73-5.7 16.92-7.31 25.81-.82 4.53-.02 11.59-3.14 15.32-2.95 3.53-12.88 4.87-17 6.85-.81.38-1.62.78-2.42 1.19.03 5.07.03 10.13.03 15.2 0 2.35.83 8.37-.14 10.82-2.29 5.74-5.73 10.08-9.1 14.34-1.99 33.1-2.13 68.06-6.53 103.61.26 6.06.69 12.14 1.42 17.56.75 5.6 4.24 11.41 3.03 17.16-1.49 7.03-7.63 9.71-13.33 13.08-3.87 15.47-8.49 30.75-13.22 46.01-.24 9.6-.66 19.21-2.98 28.69-1.77 7.26-4.57 14.29-9.7 19.87-.68.74-1.58 1.5-2.55 2.29-2.19 8.1-4.2 16.24-5.95 24.44 1.63 7.6 3.76 15.63 2.61 22.64-1.74 10.61-5.91 20.43-8.85 30.7-.34 1.17-.57 2.36-.75 3.56 66.6 1.46 133.55-.46 200.07-.47 6.63 0 13.26-.03 19.88-.09-.15-.8-.33-1.58-.55-2.35-4.18-14.61-7.99-27.79-9.01-43.13-.98-14.51-6.66-28.56-5.91-43.13.36-6.95 2.83-13.05 4.92-19.34-1.23-17.2-2.15-34.43-2.7-51.66-.18-.69-.36-1.38-.53-2.05-.46-1.85-2.26-4.67-1.73-6.63.32-1.22.93-2.28 1.62-3.28-.47-3.58-.97-7.06-1.56-10.42-1.3-7.44-7.14-12.94-7.98-20.47-.63-5.59 2.23-11.47 3.8-16.68 2.19-7.3 4.4-14.65 6.24-22.07.42-37.8.58-76.31-3.22-113.54-.75-1.28-1.5-2.54-2.26-3.78-2.98-4.92-9.24-10.88-9.91-16.82-1-8.8 2.69-17.56 4.81-26.39-2.47-11.2-5.48-22.18-9.14-32.89-.27-.21-.54-.41-.82-.6-4.64-3.24-11.2-4.45-14.93-8.8-2.35-2.73-2.87-7.78-3.86-11.01-.12-.39-.23-.77-.34-1.17Zm-263.23-13.35c-44.93-1.53-89.81-3.11-134.58-5.4-21.86-1.12-43.67-4.42-65.48-8.42-39.29 82.62-43.62 179.22-52.38 270.21-5.66 58.81-11.08 117.86-15.27 176.99 7.86 1.41 15.73 2.77 23.59 4.08 81.27 13.52 165.24 23.11 248.18 28.5 1.11-25.99 1.82-51.97 1.27-77.9-1.67-78-12.28-154.76-7.98-233.12 2.35-42.89 20.4-108.67 2.65-154.94Zm-557.57 8.81c-19.02 2.4-34.63 2.23-48.78 1.68-.81.26-1.6.58-2.39.97-8.86 4.44-11.56 17.56-23.64 16.86-15.53-.91-29.784-6.52-44.215-11.44-5.762 15.98-10.904 32.54-19.259 49.37-4.818 9.71-10.431 19.39-16.441 29.08-.534 17.48 5.191 34.2 5.991 51.47.549 11.83-5.909 23.48-5.231 35.94.744 13.68 4.751 26.97 5.141 40.64.637 22.38-.616 44.82-.458 67.18.064 9.1 1.791 18.2 1.705 27.22-.012 1.2-.073 2.4-.174 3.6 43.07 13.22 85.911 27.7 129.441 39.31 68.12 18.17 136.78 36.29 205.88 51.86-2.78-32.02-5.68-64.05-7.48-96.21-6.87-122.62 9.8-209.56-50.76-309.37-1.1.29-2.21.58-3.33.84-15.9 3.79-28.77-.37-44.86.14-6.77.22-12.7 2.43-19.22 3.07-7.87.77-16.07-1.22-23.98-1.01-5.88.16-11.63 2.39-17.24 2.53-7.06.17-13.81-2.07-20.7-3.73ZM2914.14 319.549c-1.1 71.002-10.46 142.667-13.46 212.428-1.37 31.607-2.73 62.994-4.3 94.296.75 2.383 1.53 4.77 1.65 7.439.22 4.969-1.46 9.763-1.56 14.697-.21 10.448.93 21.237 1.86 31.657.9 10.073 5.03 19.485 5.72 29.467.6 8.551-4.37 15.674-5.45 23.574 11.98-7.684 24.16-14.981 37.29-20.496 7.01-2.944 14.22-5.574 21.36-8.2.1-.039 3.24-1.632 3.76-1.019 3.91 4.557 2.94 13.019 3.07 18.388.32 12.68 2.97 18.996-7.29 28.495-12.76 11.816-29.46 20.199-40.42 33.881-4.33 5.409-3.16 14.254-6.46 20.494-6.72 12.704-15.32 24.317-20.6 37.754-4.48 11.401-5.46 24.091-9.68 35.763a214.374 214.374 0 0 1-4.01 10.221c-5.68 58.742-11.6 133.072-11.8 207.132 1.22 1.89 2.31 3.84 3.14 5.95 2.48 6.29.9 16.34.68 23.09-.23 6.97 1.97 12.87 1.98 19.66.01 6.15.13 12.92-.55 19.01-.34 2.95-1.7 5.73-1.68 8.72.02 3.39 3.09 7.14 3.4 10.82.61 7.22-1.94 15.29-.61 22.19 2.32 12.07 9.92 22.72 12.14 34.66 1.41 7.6-2.58 14.07-1.82 21.44.71 6.84 2.23 14.36 4.92 20.72 2.25 5.32 6.27 9.7 7.83 15.36 1.03 3.72.25 6.78.56 10.36.48 5.52 1.92 11.38 4.15 16.64 1.93-.54 4.05-.88 6.59-.94 11.24-.22 22.13-.65 33.18-3.05 6.78-1.47 14.67-4.59 21.74-5.02 2.03-.12 4.67 3.06 6.39 3.87 4.29 2.03 8.11 2.77 12.87 2.97 3.82.16 7.51-.13 11.14-.69.77-1.12 1.46-2.28 2.04-3.52 1.04-2.19.37-5.17 1.31-7.53.73-1.82 2.41-3.09 3.17-4.95 4-9.8 3-16.28 3.95-25.86.56-5.63 2.08-11.37 1.95-17.04-.13-6.1-2.24-11.56-1.38-17.94.79-5.82 2.42-11.26 5.56-16.23 2.47-3.91 6.6-8.08 8.4-12.33 1.26-3.02-1.79-5.96-2.19-8.98-.92-6.81 2.61-12.48 7.67-16.29.06-.58.11-1.14.12-1.68.1-5.14.47-10.29.89-15.42.35-4.37-.97-8.55-1.04-12.89-.15-10.48 1.49-19.22 3.77-29.12 1.35-5.88-4.38-9.18-2.56-15.17 1.08-3.57 4.53-6.51 6.57-9.55 2.35-3.52 4.56-8.17 5.87-12.81.36-3.6.71-7.19 1.06-10.8-.23-2.73-.66-5.47-.47-8.28.22-3.22 1.7-6.2 1.87-9.4.18-3.51-3.81-7.46-4.19-11.27-.57-5.8.46-12.28.25-18.16-.27-7.71-1.63-14.89-.94-22.66.7-7.84 6.75-13.24 8-20.666 1.04-6.179-1.72-12.251-.8-18.569.64-4.355 2.86-7.995 3.84-12.194 1.55-6.679 1.51-13.637 3.22-20.302.22-.86.53-1.701.86-2.537.83-11.756 1.64-23.501 2.44-35.232-.24-5.951-.4-11.89-.03-17.742.44-6.829 1.02-13.64 2.48-20.341.06-.292.14-.589.22-.89l.78-11.282c.11-1.694.23-3.389.34-5.083-1.83-5.742-5.08-11.184-5.69-17.161-.44-4.318.31-8.882 1.41-13.027.74-2.783 2.43-5.718 2.25-8.682-.65-10.635-2.73-21.265-3.39-31.935-.53-8.559 2.39-16.532 2.29-24.913-.09-7.681 1.33-14.658 1.89-22.245.21-2.815-2.02-4.978-1.68-8.041.29-2.67 2.25-5.649 4.22-8.385a1.977 1.977 0 0 0-.14-.157c-2.48-2.67-1.74-6.529-1.87-9.764-.26-6.407-1.37-12.707-1.41-19.204-.05-6.75-1.27-13.596-1.12-20.254.1-4.774 1.97-9.214 2.52-13.898.42-3.507-.44-7.046.01-10.616 1.37-10.909 3.2-21.528 3.38-32.577.16-10.469.57-21.071 1.52-31.515.38-4.177 1.53-8.49 1.53-12.675.02-11.773 1.02-23.723.79-35.458-.07-4.091-1.07-8.034-.85-12.154.57-10.326 2.86-20.7 3.2-31.013.4-11.795-3.51-22.699-2.93-34.64.28-5.63.41-11.359 1.38-16.917.88-5.03 2.72-10.153 2.81-15.283.05-3.101-.9-6.09-.82-9.2.18-6.026 1.39-11.909 1.05-17.958-.22-4.082-1.82-8.157-1.7-12.235.16-5.372 1.87-10.541 2.47-15.859 1.32-11.484 1.36-23.402 2.18-34.936.68-9.595-.83-19.392.08-28.879.68-7.051 2.62-14.205 4.88-21.083a44.737 44.737 0 0 1-3.47-2.403c-4.15 2.332-8.33 4.599-12.7 6.461-7.83 3.339-17.65 4.649-24.94 8.799-7.56 4.308-14 10.907-21.33 15.669-11.48 7.463-28.28 14.001-41.55 17.439-7.7 1.993-16.94 4.968-24.8 1.91-4.61-1.794-6.66-6.44-11.97-7.408-5.33-.97-10.89-.28-16.26 1.184Zm-2137.171 89.27c1.131-26.105 2.746-52.196 4.944-78.208a25.108 25.108 0 0 1-1.543-.367c-6.302-1.707-11.668-6.79-17.78-8.428-4.082-1.094-8.981 1.378-13.046 1.634-3.254.205-4.463-1.166-7.101-2.154-2.177-.814-5.257-.052-7.463.342-6.215 1.108-9.555 5.613-14.191 8.862 6.788 12.068 13.827 24.029 21.233 35.669 9.829 15.45 21.418 30.173 34.947 42.65ZM2472.09 1242.77c2.78 62.76 11.41 118.9 31.88 156.2 4.91-.74 9.69-2.05 13.84-4.19 4.71-2.44 10.94-9.98 15.82-11.16 8.05-1.95 15.62-3.15 23.46-6.5 6.11-2.6 13.29-8.25 19.77-9.58 11.28-2.31 21.8-5.18 32.56-9.55.67-.27 1.33-.55 1.99-.83-7.29-5.16-12.71-12.42-17.37-20.89-2.62-4.77-3.81-14.08-8.58-17.16-7.38-4.79-16.17-3.11-23.8-7-17.31-8.82-29.36-23.13-44.4-34.85-15.03-11.72-31.24-21.54-45.17-34.49Zm-433.17-473.583c-.17 25.213-.03 50.458.32 75.709 3.1.148 6.17-.036 9.24-.514 5.15-8.838 10.54-17.532 16.84-25.622 1.41-1.815 3.95-7.609 5.4-8.419 3.92-2.175 8.72-4.26 12.77-6.232 1.62-.784 3.34-1.645 5.13-2.503 1.65-5.935 3.78-12.945 5.68-15.308 1.3-1.614 3.59-2.302 5.53-2.843 10.39-2.898 12.09 4.178 12.89 12.239 1.5-.111 2.98-.318 4.4-.745 3.57-1.079 6.76-3.233 9.57-5.636.24-.206 3.07-3.29 3.57-3.182 2.58.552 6.19 8.408 5.95 11.477-.36 4.569-5.14 6.354-8.79 8.064-5.45 2.56-12.47 5.743-17.44 9.599-5.43 4.219-7.68 11.232-11.25 16.868-3.22 5.086-8.01 8.639-11.65 13.357-5.15 6.663-6.29 15.318-11.21 22.045-7 9.568-15.61 17.763-23.66 26.481 1.34 6.59.78 13.824.13 20.278-1.68 16.752-6.19 33.247-8.72 49.899-.49 3.226-.97 6.449-1.43 9.67.11 4.241.23 8.481.35 12.72.59 5.664 1.18 11.331 1.68 17.011 1 11.42.47 23.06 1.89 34.4 1.92 15.41 7.37 30.88 8.2 46.25 1.48 27.21-2.9 54.02-3.49 81.02-.1 4.42 1.82 8.07 2.09 12.26.33 5.07-1.11 10.14-.97 15.24.2 6.94 1.98 14.7.95 21.58-.37 2.44-2.42 4.78-5.29 6.93 5.55 8.92 3.54 29.85 3.31 37.37-.24 7.59 3.29 13 4.35 20.16 1.21 8.26-1.96 16.52-1 24.83.64 5.51 3.42 9.96 5.03 15.12 2.21 7.09 3 15.87 3.55 23.26.25 3.29-1.14 7.16-2.81 11.05 2.43 8.98 5.26 17.66 8.56 25.9 5.95 4.64 13.17 12.37 15.12 19.17.7 2.46.5 6.14.1 10.24 6.08 9.1 13.11 17.16 21.25 23.89 4.2-.52 8.39-1.41 12.58-2.71 5.87-1.82 23.36-11.79 27.27-11.96 6.91-.3 22.03-.04 28.19 1.57 4.37 1.13 7.15 3.29 12.3 3.48 5.17.2 13.18-3.04 18.09-2 3.56.76 3.84 4.4 8.47 3.88 5.02-.56 9.23-4.06 14.13-4.67 4.59-.57 8.77.86 13.64-.08 4.8-.93 10.74-4.64 15.52-4.43 2.59.11 4.59 3.88 6.82 4.94 3.82 1.81 8.08 2.77 12.31 2.83 41.11-49.24 60.15-123.6 68.56-181.17 8.55-58.42 14.12-117.11 17.83-175.95-1.19-.12-2.35-.53-3.47-1.3-1.52-1.06-.61-4.82-.58-6.19.1-5.82.61-11.59 1.39-17.36 2.64-19.35 4.69-38.67 6.28-58.132 1.03-12.536.26-25.352.32-37.913.06-12.341.95-24.789.3-37.122-.73-13.937-2.16-28.086-2.18-42.047-.01-12.099 1.87-23.994 1.35-36.152-.59-13.613-.79-27.198-1.23-40.839-.25-8.041-2.08-15.54-1.2-23.657.68-6.285 3.63-12.254 4.8-18.47.69-3.73 1.16-7.598 1.87-11.397-.13-.2-.24-.407-.36-.622-1.39-2.693-.92-6.095-1.02-9.015-.24-7.371-.41-14.702-.45-22.088-.06-11.761-2.68-23.683-2.34-35.392.39-13.09 3.66-25.939 4-39.052.35-13.081 1.08-26.249.57-39.334-.59-14.974-1.83-29.865-1.04-44.88.63-11.929 5.6-23.451 5.68-35.332.08-10.441-4.65-19.951-4.73-30.241-.08-9.569 2.1-18.761 3.83-28.044-4.8 1.409-9.56 2.98-14.27 4.989-10.31 4.404-19.06 11.574-29.55 15.729-17.08 6.762-34.7 8.015-52.45 10.971-9.34 1.557-18.45 4.854-28.02 4.929-11.83.092-23.55-3.362-35.38-3.326-11.66.035-22.68 6.431-34.33 7.323-19.98 1.53-38.97-2.605-58.59-4.758-17.81-1.954-36.99-2.504-53.76-8.614-.66 2.418-1.28 4.85-1.72 7.329-.88 4.966-.45 10.14-1.71 15.025-1.73 6.707-4.46 12.976-5.63 19.842-1.9 11.168-.35 22.558-1.68 33.739-3.81 32.068-8.7 64.317-8.75 96.763-.02 8.93-.23 17.779-1.24 26.665-2.92 25.411-1.71 44.579-2.37 69.192-.15 5.49-.5 16.686-4.19 21.968Zm713.79 281.863c5.18-48.7 9.87-97.602 13.97-146.581a9.065 9.065 0 0 1-1.47-1.857c-2.56-4.274-1.24-11.939-1.03-16.468.58-12.173 3.79-23.623 3.88-35.911.06-7.258 1.28-14.336 1.5-21.546.1-3.092-.91-6.231-1.18-9.3-.62-7.149-.37-15.948-.03-23.132.75-15.908 4.71-31.836 5.46-47.728.17-3.665-1.75-7.114-1.62-10.853.14-4.036 1.93-7.614 2.32-11.547.6-6.235-.38-12.524.72-18.75.46-2.59 1.53-5.147 2.6-7.706a4.296 4.296 0 0 1-1.57-1.245c-.92-1.169.08-6.044.13-7.518.24-6.558-.31-12.896.44-19.385.78-6.67.02-14.24-.85-20.864-.55-4.218-2.37-7.803-2.24-12.217.3-9.793 6.77-19.011 6.07-28.879-.19-2.706-1.29-5.309-1.36-8.011-.21-7.815.8-15.616.52-23.407-.39-11.034-1.25-21.541-.36-32.647.51-6.472 2.43-12.872 3.41-19.298 2.36-15.449 2.3-31.132 3.4-46.672.39-5.445 2.53-10.49 3.05-15.886.42-4.29-.46-8.758-.32-13.079.25-7.92 1.2-15.701.59-23.646-.4-5.245-2.26-10.276-2.26-15.557 0-8.969 4.45-17.08 4.54-25.772.1-9.518-3.16-18.602-3.3-28.098-.21-13.408 7.03-25.301 5.85-38.806-1.45.168-2.93.474-4.49.98-8.08 2.635-15.59 6.241-23.87 8.291-5.81 1.435-11.61-.535-17.19 1.517-24.43 8.983-49.92 21.676-75.77 25.454-9.84 1.438-18-3.75-27.24-4.049-9.03-.292-17.89 4.412-27.15 4.071-4.89-.18-8.97-2.238-13.56-2.696-7.72-.773-15.67 1.528-23.65.589-3.44-.404-6.86-3.63-10.15-3.677-5.79-.084-11.59 2.751-17.47 2.837-2.24.032-6.67-2.343-9-1.645-12.75 3.822-23.31 12.43-36.65 15.105-.8.161-1.6.306-2.39.431-1.63 8.455-1.85 16.971-3.13 25.471-.84 5.569-2.72 10.8-3.25 16.413l-.12 1.855c-.26 7.522 1.74 14.968 1.52 22.583-.19 6.27-1.21 12.474-1.39 18.736-.2 6.814.42 13.791-.05 20.584-.52 7.542-2.08 14.976-2.56 22.535-.56 8.79-.32 17.765-1.13 26.53-1.06 11.57-3.7 23.041-4.57 34.593-.41 5.447.57 10.817.25 16.259-.42 6.925-2.76 13.823-3.86 20.658-.87 5.382-.55 10.888-1.39 16.253-2.76 17.714-8.29 35.821-8.28 53.802 0 4.223 1.66 8.275 1.71 12.463.09 7.953-2 15.869-1.83 23.847.16 7.807 1.41 15.724 1.78 23.445.26 5.242 1.52 10.951 1.15 16.177-.26 3.663-1.56 7.718-.57 11.349.78 2.863 2.93 5.014 3.26 7.967.51 4.608-.4 9.186-.21 13.77.74 1.482 1.47 2.991 1.81 4.535.35 1.557.27 3.144.24 4.728.17.417.36.813.57 1.175.55.969 2.37 1.88 1.79 2.83-.32.525-.87.903-1.56 1.17.71 1.46 1.74 2.774 1.96 4.384 1.05 7.68.71 15.559 1.6 23.255 1.14 9.791 2.93 20.792-.38 30.394-1.22 3.526-3.81 6.73-5.89 9.986.92 2.745 2.02 5.41 2.45 8.347 1.64 11.311-1.14 23.111.28 34.454.76 6.167 4.5 11.497 5.13 17.702 1.29 12.883-1.09 26.206-1.23 39.125-.17 15.521 1.94 30.733 1.79 46.28-.06 5.683 1.17 11.213 1.04 16.913-.21 9.5-1.27 18.88-1.48 28.31-.1 4.73.26 9.54-.11 14.25-.1 1.22.07 3.43-.82 4.49-2.58 3.08-8.83 1.99-13.64.61.59 16.25 3.9 32.09 5.5 48.23 1.03 10.42-.43 20.92.31 31.37.54 7.57 2.62 15.37 2.42 22.93-.21 7.78-4.12 13.91-5.52 21.39-1.35 7.21-1.2 15.08-.41 22.74.24.03.47.08.69.15 5.38 1.57 9 8.86 11.84 13.16 6.06 9.2 12.57 19.59 22.17 25.57 13.27 8.26 29.24 10.55 42.71 18.68 9.86 5.96 18.61 13.31 27.96 19.97 4.99 3.55 10.81 6.11 15.22 10.44 7.23 7.1 11.66 17.01 19.21 23.84 3.97 3.59 8.72 5.89 12.34 9.96 3.42 3.85 5.47 8.46 7.05 13.33 1.07-.37 2.16-.71 3.26-1.03 6.02-1.74 10.79 1.14 17.26.83 8.58-.4 16.87-3.32 25.41-3.75 2.96-.15 6.01.09 9.09.41 25.8-29.46 36.1-68.34 41.58-109.34-2.11-3.31-3.81-6.73-4.16-10.55-1.43-15.9 2.73-32.68 5.34-48.25 2.17-12.93 2-25.84 3.57-38.73.8-6.59 2.99-13.05 3.95-19.65.66-4.57 1.84-9.28 1.84-13.92-.01-6.14-1.03-12.12-.4-18.3.53-5.15 3.2-9.76 3.93-14.82.52-3.65-1.72-6.82-.95-10.49.5-2.38 3.06-4.93 5.63-7.24Zm488.3-625.921c-7.54-20.78-19.04-39.572-25.74-61.666-5.78-19.045-1.73-40.648-10.23-58.787-1.7-3.643-5.4-8.558-10.33-14.3a40.23 40.23 0 0 1-3.55-1.075c-3.87-1.388-5.63-4.256-9.82-4.774a39.607 39.607 0 0 0-4.86-.285c1.66 42.007 2 82.135 2.9 92.982 2.39 29.062 3.94 58.125 4.86 87.191 3.34.67 7.44-1.799 10.69-4.71 2.47-2.21 3.45-5.441 5.76-7.773 10.1-10.194 20.4-21.091 34.9-24.066 2-.411 3.78-1.559 5.42-2.737ZM1642.14 1442.21c30.54-45.86 8.14-122.77 5.51-170.89-4.3-78.36 6.31-155.11 7.98-233.11 1.18-55.523-3.44-111.322-5.31-166.807-3.45-102.495-20.12-202.088-1.22-304.001 10.59-57.044 11.21-113.153 10.7-169.175-17.39 8.132-35.38 15.261-56.52 15.864-36.01 1.027-64.23-15.955-92.75-31.543-3.72-.462-7.49-.749-11-1.974-2.68-.932-4.19-3.667-6.83-4.35-6.28-1.622-12.98-1.353-19.4-1.441-4.39-.06-8.83-1.236-13.18-.861-6.97.6-13.58 2.959-20.41 4.208-5.01.917-9.96.179-14.86 1.114-6.02 1.148-11.86 3.704-17.81 5.209-3.86.976-7.72.234-11.52 1.298-6.39 1.789-11.98 5.339-18.8 5.606-4.45.173-8.97.111-12.88-1.236 2.67 35.414 4.99 70.856 7.9 106.254 8.83 107.656 1.59 214.355 3.04 322.112 1.57 117.181 11.86 234.773 23.08 351.393 9.52 98.98 13.81 204.6 63.56 291.64 10.96 1.13 22.52-2.05 32.4-8.15 2.76-1.7 15.62-13 18.31-13.21 8.37-.66 17.78 3.26 26.67 2.73 11.89-.71 23.66-4.9 35.58-4.87 6.37.02 12.52 2.29 19.31 1.96 9.21-.46 18.48-3.11 27.73-2.58 5.87.35 11.68 3.94 17.66 4.6.96.1 1.98.17 3.06.21Zm1554.01-231.23c1.07 8.17 2.34 16.32 3.85 24.38 6.12-4.83 12.15-9.66 18.08-14.5 11.36-68.35 23.41-133.23 24.55-160.29.99-23.3-5.55-45.64-6.49-68.688-2.43-59.888-2.66-121.774-2.53-181.586.03-14.111 6.37-27.934 7.26-42.021 1.47-23.262-4.02-46.809-3.06-70.277.97-23.564 8.44-46.468 8.94-69.971.43-20.065-10.59-37.42-10.13-57.642.55-24.088 6.22-47.711 9.55-71.579-11.85 11.907-22.86 24.978-32.39 38.894-.24.608-.46 1.221-.67 1.839-2 5.821-.56 11.31-1.91 16.938-2.08 8.657-7.96 16.384-10.6 24.965-1.12 3.631.45 7.684-.76 11.12-1.5 4.245-5.41 7.436-6.28 11.998-1.15 6.021 1.73 11.606 1.81 17.668.15 12.032-2.64 24.907-5.51 36.574-3.13 12.727-1.99 23.13-2.29 35.875-.1 4.656 2.4 10.966-1.38 14.855-.19.191-.38.368-.57.532.32 2.832.87 5.704.45 8.424-.85 5.423-3.11 9.979-2.8 15.691.34 6.29 2.2 12.645 2.93 18.902 1.21 10.38 1.47 21.065 1.26 31.49-.07 3.927-1.44 7.645-1.82 11.528-1.02 10.436-1.94 20.947-1.84 31.421.06 7.539 1.69 15.218 1.94 22.756.16 4.704-1.16 9.635-.78 14.292.43 5.143 2.19 11.171 1.45 16.405 1.49 1.857 2.85 3.802 3.67 6.087 3.18 8.881 4.23 19.754 5.02 29.143.72 8.549-.89 17.149-1.66 25.639-1.4 15.429-2.55 31.687-2.46 47.153.06 9.411 2.86 18.455 3.21 27.765.17 4.49-1.38 9.18-1.86 13.62-1.04 9.54-1.46 19.17-1.2 28.76.18 6.64 3.42 12.82 3.93 19.45 1.04 13.59.07 27.4.06 41.02-.01 9.14.34 18.51 1.63 27.59.54 3.81 2.34 7.58 2.63 11.39.53 6.98-1.02 14.19-.92 21.21.11 7.23 4.09 19.14.91 26.11-.87 1.91-1.96 3.57-3.22 5.07ZM265.515 845.122c-4.564 24.08-10.312 48.323-9.166 72.76 1.447 30.858 11.063 60.703 13.448 91.498 2.698 34.84-2.372 69.53 3.101 104.2 5.007 31.72 18.161 62.69 18.375 95.08.049 7.43-.565 14.73-1.64 21.96 1.739 18.66 1.565 36.14-.942 51.63-1.622 10.02-4.235 22.26-7.731 35.44 7.245 5.88 17.012 12.77 26.067 13.85 2.176.26 4.269-.01 6.337-.35 4.473-24.01 8.26-48.14 9.307-72.67 5.233-122.62-10.002-245.09-6.448-367.785-7.452-9.82-15.916-19.028-25.866-27.381-7.913-6.643-16.264-12.609-24.842-18.232Zm542.571 4.56c-9.968-98.451-31.79-196.158-33.043-294.952-.304-23.999-.352-48.095-.066-72.235-6.88-2.23-13.004-8.306-16.386-14.258-3.524-6.202-8.561-11.749-11.901-17.723-3.742-6.692-4.425-12.878-10.222-19.467-3.92-4.456-8.664-10.515-13.739-13.691-3.693-2.311-7.702-2.291-11.024-5.371-5.596-5.187-7.374-13.06-12.276-18.751-9.828-11.41-21.947-20.437-29.945-33.674a308.84 308.84 0 0 1-6.691-11.741c-3.841 1.857-7.712 3.67-12.091 4.538-4.628.918-9.042-.301-13.548.573-8.404 1.63-16.029 5.931-24.712 6.411-4.519.25-8.278-1.904-12.497-2.913-2.122-.508-5.814 2.623-7.506 3.342-4.302 1.827-9.03 2.146-13.468.446-3.237-1.239-5.497-3.648-7.554-6.286-15.018-3.162-29.693-10.792-44.093-19.98-3.208.404-6.622 1.879-9.31 2.805-5.418 1.867-10.853 3.662-16.592 4.197-5.258.49-8.469-3.047-13.262-3.685-10.09-1.342-20.414.424-30.558-1.068-7.321-1.076-14.813-3.983-21.31-7.459-3.112-1.665-5.567-4.595-8.919-5.77-2.108-.739-4.736-.575-7.223-.277l-.588 6.332c-4.386 47.01-7.971 94.407-8.054 141.745 1.642 2.602 2.669 6.025 3.487 8.503 3.181 9.634 3.184 18.846 2.362 28.827-.261 3.171-1.348 6.352-1.163 9.553.273 4.732 2.935 9.481 3.937 14.094 2.143 9.864 4.179 19.973 5.533 29.982 1.598 11.821.713 23.738 1.039 35.602.169 6.175 1.545 12.188 2.417 18.277.82 5.726.885 11.347 2.044 17.032 1.946 9.535 2.778 19.941 3.501 29.673.454 6.118-.05 11.364 2.663 16.197 5.776-14.49 11.614-28.955 18.281-43.103 11.363-24.116 27.354-45.983 35.676-71.568 3.016-9.271 5.337-18.753 8.273-28.052 1.06-3.357 2.04-6.62 3.197-9.932.422-1.208.38-4.559 1.256-3.627 4.426 4.716 3.844 18.789 5.231 24.99.818 3.66 10.011 25.345 9.562 28.038-1.739 10.423-9.746 20.242-14.355 29.605-6.361 12.919-10.213 25.68-13.102 39.716-5.957 28.941-7.81 58.96-15.183 87.562-9.909 38.444-26.998 74.115-36.875 112.538-1.463 5.691-2.552 11.48-3.456 17.317-3.354 52.082-9.408 103.595-16.987 155.196-2.206 27.32-3.37 54.57-4.748 82.14-1.206 24.13-3.13 48.67-.685 72.79 2.54 25.04 7.243 50.03 7.836 75.25.723 30.82-2.746 62.47-.127 93.15.956 11.2 2.558 22.49 4.26 33.71 5.81 3.37 11.703 6.58 17.959 9.03 14.173 5.54 29.771 7.2 43.882 12.23 19.745 7.04 38.975 16.98 58.816 23.91 6.245 2.18 13.374 1.8 19.421 4.39 10.371 4.44 19.18 12.71 29.995 16.93 15.497 6.06 31.575 2.88 47.026 9.04 9.806 3.91 19.78 5.16 29.997 6.26-.562-6.16-1.035-12.34-1.317-18.46-.046-1.02-1.183-8.19-.2-9.15 5.958-5.76 24.258-1.84 31.668-1.81 6.047.02 20.754-4.56 25.674-2.57 5.781 2.33 7.458 9.7 13.663 11.75 5.29 1.75 14.667-.92 19.168 2.69 4.766 3.82 3.865 11.6 9.024 15.07 5.912 3.97 12.454 6.83 19.063 9.55 3.934-20.88 10.127-40.92 11.613-62.52.93-13.51-2.154-27.07-2.108-40.59.042-12.64 4.112-24.86 4.323-37.56.125-7.56-2.64-14.46-3.09-21.85-.82-13.5-1.281-28.32-.779-41.93.951-25.78 8.505-50.72 8.844-76.41.163-12.29-3.38-24.3-3.488-36.65-.163-18.72 5.046-37.53 4.443-56.32-.289-9.04-3.762-17.55-4.529-26.47-1.166-13.54 1.652-28.53 3.139-41.84 1.61-14.43.512-30.854-.637-45.244-.396-4.961-2.784-9.722-2.885-14.676-.374-18.397 2.283-36.633.827-55.312-.927-11.89-5.746-23.95-4.717-35.929.582-6.776 3.869-13.49 7.909-20.107Zm-490.244-18.209c2.123-97.962 1.851-195.977 5.76-293.892 2.661-66.664 1.55-133.371 3.938-200.049.222-6.215.432-12.506.649-18.858-.731-.098-1.462-.198-2.191-.301-2.467.293-4.723 1.151-7.404.447-1.21-.317-2.216-1.214-3.216-2.104-2.227-.383-4.44-.788-6.638-1.215-.9.48-1.772 1.019-2.443 1.293-2.826 1.154-6.081 2.095-9.187 1.982-1.595 48.129-8.69 95.526-10.657 124.13-5.809 84.522 1.06 170.109-5.732 254.585-2.153 26.766-4.043 54.384-6.623 81.679 15.554 16.563 30.765 33.766 43.744 52.303ZM2378.29 379.445c-2.42.864-4.82 1.91-7.41 1.519-7.62-1.149-13.49-5.86-21.45-5.854-6.7.005-13.34 5.005-20.12 4.075-4.16-.572-7.76-3.496-11.64-4.917-5.5-2.015-11.37-2.514-17.06-3.775-3.81-.845-8.06-2.699-12.05-2.69-3.86.009-7.82 2.536-11.5 3.52-4.32 1.155-8.7.647-12.94 1.628-6.91 1.6-11 8.834-17.64 11.317-5.78 2.16-12.03 1.814-17.75 4.395-7.38 3.326-14.34 8.601-21.43 12.476-8.13 4.438-16.16 6.521-24.66 9.712-3.46 1.304-6.7 3.533-10.29 4.5-6.14 1.654-12.91.766-19.21 2.016-6.31 1.253-12.65 3.053-18.76 5.062-3.11 1.025-7.55 3.155-11.02 2.506-9.66-1.806-19.27-6.32-28.75-9.047-5.02-1.443-9.87-2.675-14.57-3.989-3.82 13.831-5.84 28.155-8.28 42.349 14.92 8.971 33.68 10.891 51.77 14.765 17.61 3.772 35.65 9.872 53.79 9.864 10.95-.005 21.87-4.343 32.8-3.813 16.26.79 32.66 4.951 49.06 2.784 8.55-1.129 15.23-7.131 23.42-9.512 10.58-3.075 21.6-2.658 32.24-5.072 7.95-1.802 14.72-6.74 21.92-10.283 12.38-6.088 25.23-11.445 37.67-17.48-.17-4.018-1.1-8.164-1.46-12.058-.72-7.814-1.27-17.307-.51-25.086.64-6.584 4.12-12.479 5.83-18.912ZM1287.64 900.097c.23-9.624.33-19.26.26-28.914-.76-102.081-2.82-204.083-2.79-306.183.02-53.934-1.86-109.22-2.21-164.443-54.88-7.477-103.65-45.857-157.1-58.681-.99.326-1.98.647-2.97.974-7.91 2.605-15.31 6.317-23.41 8.48-4.8 1.286-9.67 1.218-14.43 2.421-4.78 1.205-9.37 3.013-14.16 4.19-4.36 1.073-9.74 1.22-13.87 3.059-1.27.566-2.41 2.299-3.42 3.106-3.74 2.988-8.06 5.746-12.72 6.982-3.11.823-6.35.798-9.4 1.577-8.61 2.201-16.77 5.15-25.69 6.236-3.12.38-6.28.533-9.404.104-1.828-.252-3.672-1.164-5.524-.789-10.272 2.08-21.32 8.83-31.91 7.742-2.798-.288-5.147-.855-7.57-2.26-1.583-.918-3.216-2.844-5.019-3.27-5.799-1.373-14.061 3.812-19.029 5.89-.684.286-1.361.557-2.032.811-3.262 13.125.501 16.826 1.022 33.946.233 7.666-.464 15.567.34 23.191.817 7.749 3.911 15.2 4.108 23.035.323 12.87-.016 25.653.799 38.488.481 7.578 3.611 14.254 3.323 21.958-.977 26.213-3.887 52.576-3.048 78.912.352 11.051.251 23.557 1.215 34.437.641 7.224 3.223 13.518 3.238 20.965.037 19.154-2.226 38.228-1.548 57.423 1.019 28.863 4.79 57.586 5.728 86.437.515 15.845-2.116 31.886-1.539 47.762.262 7.196 3.6 13.968 3.932 21.175.599 13.01-.76 25.791 1.259 38.761 1.225 7.877 6.194 14.475 7.606 22.186 2.32 12.674-.068 32.178-2.177 45.384-1.737 10.877-7.176 21.041-13.531 30.341 2.871 7.63 5.76 15.38 6.49 23.39 1.366 14.97-2.131 29.7-1.254 44.68.562 9.62 3.857 19.35 3.948 28.89.086 9.02-1.641 18.12-1.705 27.21-.158 22.37 1.095 44.81.458 67.18-.39 13.68-4.397 26.97-5.141 40.65-.678 12.46 5.78 24.11 5.231 35.94-.809 17.47-6.661 34.38-5.97 52.08.937 24.01 15.137 47 23.502 68.63 1.117 2.88 3.571 7.21 5.925 11.28 16.601-5.28 32.697-12.47 50.467-13.51 12.08-.7 14.78 12.42 23.64 16.85 7.48 3.75 15.67.81 23.48 1.07 3.79.12 7.84 2.53 11.64 3.03 12.87 1.69 24.34-5.48 36.75-5.17 5.61.14 11.36 2.37 17.24 2.53 7.91.21 16.11-1.78 23.98-1.01 6.52.64 12.45 2.85 19.22 3.07 16.09.51 28.96-3.66 44.86.14 1.12.26 2.23.55 3.33.84 60.56-99.81 43.89-186.75 50.76-309.37 2.72-48.52 7.93-96.73 11.47-145.08-2.62-4.561-5.24-9.103-7.77-13.65-6.16-11.032-10.67-23.534-18.94-33.268-5.92-6.974-16.17-9.248-22.86-15.811-7.1-6.972-10.13-16.413-16.54-23.737-4.35-4.979-12.88-6.621-18.6-9.705-9.9-5.335-20.01-13.151-27.69-21.402-5.88-6.321-9.03-19.28.99-23.912 8.93-4.13 30.84 21.682 35.8 25.727 9.31 7.588 20.78 2.359 30.03 8.3 9.21 5.913 14.27 16.296 21.7 23.834 7.93 8.049 17.19 14.154 27.23 18.871Zm672.85-329.982c-10.88-64.45-11.31-131.437.06-196.275-5.06 2.063-11.06 2.522-16 4.424-3.59 1.378-8.23 2.651-11.33 5.032-3.08 2.359-5.25 6.223-9.03 7.534-10.95 3.792-22.22 1.124-33.3 2.33-4.11.448-7.88 2.069-11.85 3.131-7.43 1.986-14.88 3.921-22.48 5.158-7.05 1.148-13.38-.154-20.3-.035-8.21.141-16.07 2.168-24.34 1.534-6.15-.472-11.59-3.207-17.73-3.894-5.01-.561-10.2-.001-15.11-1.337-1.48-.402-2.73-.897-3.72-2.05-.82-.941-.89-2.787-2.1-3.344-3.09-1.431-7.55-.849-10.95-2.185-3.81-1.499-6.2-4.944-9.87-6.445-7.58-3.102-17-2.293-25.73-2.971 1.95 16.833 1.24 34.204 4.08 50.879 1.5 8.83 5.85 17.016 6.37 26.042 1.08 18.88-2.48 37.734-1.36 56.554.66 11.264 4.77 21.893 5.44 33.194.64 10.815 1.57 21.994.28 32.786-.81 6.83-3.91 13.606-3.86 20.501.05 7.44 4.95 13.981 5.48 21.479.67 9.559-.86 19.293-2.16 28.962 4.2 3.041 2.45 9.636 2.38 15.125-.16 13.376-4.13 26.124-3.76 39.427.14 4.951-.18 9.841-.5 14.719l.27 10.692c.24 9.605.38 19.294.47 29.048.85 15.079 1.52 30.025.14 45.547.02 44.014.08 88.697 3.5 132.321.42 1.327.85 2.666 1.26 4.021 1.73 5.67 1 11.913 2.65 17.685 2.94 10.272 7.11 20.089 8.85 30.702 1.15 7.009-.98 15.044-2.61 22.644 1.75 8.2 3.76 16.34 5.95 24.43.97.79 1.87 1.55 2.55 2.3 5.13 5.58 7.93 12.61 9.7 19.87 2.32 9.48 2.74 19.08 2.98 28.69 4.73 15.25 9.35 30.54 13.22 46.01 5.7 3.37 11.84 6.05 13.33 13.07 1.21 5.76-2.28 11.57-3.03 17.16-.73 5.43-1.16 11.51-1.42 17.56 4.4 35.56 4.54 70.52 6.53 103.61 3.37 4.27 6.81 8.6 9.1 14.34.97 2.46.14 8.48.14 10.83 0 5.07 0 10.13-.03 15.2.8.4 1.61.8 2.42 1.19 4.12 1.97 14.05 3.31 17 6.85 3.12 3.73 2.32 10.78 3.14 15.32 1.61 8.89 5.42 17.08 7.31 25.81 1.59 7.31 1.55 16.12 7.05 22.06 6.6 7.13 19.35 8.18 24.14 13.7 2.66 3.07 2.22 9.22 4.06 12.85 3.02 6 9.3 8.42 12.6 13.68 2.84 4.53 2.64 10.62 4.95 15.43 1.54-4.62 9.56-9.95 11.9-14.84 3.85-8.07 4.03-17.89 6.65-26.43.99-3.23 1.51-8.27 3.86-11 3.73-4.36 10.29-5.57 14.93-8.8.28-.19.55-.39.82-.61 3.66-10.71 6.67-21.69 9.14-32.88-2.12-8.83-5.81-17.59-4.81-26.39.67-5.94 6.93-11.91 9.91-16.83.76-1.23 1.51-2.49 2.26-3.78 3.8-37.22 3.64-75.74 3.22-113.53-1.84-7.42-4.05-14.78-6.24-22.07-1.57-5.22-4.43-11.1-3.8-16.69.84-7.52 6.68-13.02 7.98-20.47.59-3.35 1.09-6.84 1.56-10.41-.69-1-1.3-2.07-1.62-3.29-.53-1.95 1.27-4.78 1.73-6.62.17-.68.35-1.36.53-2.05.55-17.24 1.47-34.46 2.7-51.66-2.09-6.29-4.56-12.4-4.92-19.34-.75-14.57 4.93-28.62 5.91-43.14 1.02-15.329 4.83-28.513 9.01-43.124 1.94-6.776.94-15.216 1.74-22.219.98-8.569 3.3-16.859 4.93-25.267 1.73-15.023 3.18-29.986 4.34-44.903.58-13.298.73-26.604.89-40.196.09-7.693 2.32-15.454 2.04-23.064-.29-8.031-2.76-15.822-3.16-23.824-.41-8.388 1.62-16.555 1.24-24.95-.72-15.96-10.84-28.537-12.87-44.031-3.34-25.435 3.85-52.836 3.7-78.312-.06-10.191-7.96-20.81-10.31-30.552-2.43-10.106-.5-21.155 1.91-31.623Z" style="fill:#999"/></svg>