<svg xmlns="http://www.w3.org/2000/svg" xml:space="preserve" style="fill-rule:evenodd;clip-rule:evenodd;stroke-linejoin:round;stroke-miterlimit:2" viewBox="0 0 3508 2481"><path d="M3507.87 0H0v2480.32h3507.87V0Zm-2301.4 1225.31c-.72-8.79-.42-17.75-.58-26.41-.03-1.42-.05-2.84-.06-4.26.91.31 1.79.65 2.64 1.04 2.86 8.78 5.2 17.76 7.09 26.8-3.07.85-6.1 1.78-9.09 2.83ZM592.592 356.589c2.278 24.003 4.283 44.694 4.388 51.688.541 36.104.973 72.472.928 108.938-6.83-6.755-13.155-14.056-19.208-21.668-.96-1.208-17.115-25.369-18.373-25.016-9.894 2.77-28.817 22.18-24.393 34.87.981 2.813 2.573 5.835 4.605 9.008.685 2.581 1.599 5.105 1.985 8.085.481 3.714-.545 7.133 1.3 10.722.597 1.161 1.404 2.169 2.296 3.118 2.431 2.588 7.031 6.874 9.905 9.061 2.525 1.922 5.505 1.289 8.015 2.711 3.784 2.144 6.286 7.413 9.255 10.546 1.991 2.1 5.575 3.849 6.953 6.517 2.48 4.805 1.95 9.843 3.566 14.757 1.552 4.721 4.681 7.093 5.538 12.533 1.24 7.865.346 16.341 4.956 23.249.59.885 1.252 1.737 1.972 2.551-2.637 77.84-8.981 155.441-22.595 231.212-11.011 61.287-21.713 122.674-34.21 183.679-11.008 53.74-23.951 127.52-62.637 169.72-8.284-1.56-16.119-4.63-24.367-7.78.528-3.58 1.976-6.78 1.299-10.93-.83-5.09-3.499-9.46-4.027-14.68-.527-5.2 1.826-9.56 1.563-14.59-.235-4.48-3.446-8.21-3.677-12.63-.26-4.96 2.286-10.14 2.76-15.12.676-7.09-.781-14.14-.234-21.26.299-3.88 1.798-6.85 2.479-10.57 1.261-6.88 1.763-14.04 1.811-21.02.017-2.5.654-5.05.133-7.52-.362-1.72-1.188-3.39-2.217-4.94 2.716-26.43 5.169-54.01 4.853-83.101-.654-60.029-14.626-118.48-26.136-177.179 4.579-29.247 14.882-56.949 21.117-85.81.854-3.952 7.776-42.412-10.227-41.055-2.03.153-5.944 9.003-8.914 16.286.091-5.22-.081-10.471-.11-15.648-.167-30.402-3.237-60.324-6.267-90.542a746.267 746.267 0 0 1-.781-8.301c3.44-22.753 6.83-45.515 8.426-68.418.511-7.323.948-14.648 1.318-21.973a9.772 9.772 0 0 0 1.059-1.544c1.03-1.896-.171-5.34-.62-7.879.09-2.106.174-4.212.254-6.319.762-4.772 2.377-9.544 3.029-14.23.892-6.418-1.217-12.08-1.505-18.338-.156-3.376 1.676-6.406 1.947-9.729.31-3.791-.947-7.621-.851-11.441.078-3.058 1.6-6.018 1.521-9.032-.073-2.781-.812-5.497-.821-8.33-.009-2.796 1.076-5.917.681-8.71-.994-7.024-2.851-14.566-2.13-21.847.204-2.058 1.263-3.929 1.527-5.991.395-3.079.521-6.234.561-9.398 5.597.925 11.232 1.467 16.874 1.477 7.615.013 22.478-4.33 28.262-3.441 11.983 1.841 23.738 7.138 35.679 9.66 18.026 3.807 36.786 3.212 54.814-.277 5.471-1.059 11.125-2.382 16.671-4.131ZM2864.26 518.892c17.16-26.167 34.27-51.012 47.34-71.386 23.36-36.391 40.58-69.231 56.53-109.041 1.29-3.226 2.55-6.471 3.75-9.734 11.84-2.244 23.52-5.862 37.68-9.622 14.02-3.722 28.95-3.387 43.2-7.561 8.92-2.613 27.97-13.589 35.79-14.066 10.92-.665 22.77 8.986 34.34 9.467 22.66.941 37.35-6.195 52.1-15.412-.11 9.702 2.72 21.72 9.09 37.099 13.73 33.142 30.65 66.314 56.01 92.185 5.38 5.494 13.37 10.494 22.41 15.105-.26 39.565.34 79.093 3.97 118.456 9.4 101.969-11.59 223.578-20.89 326.637-2.38 26.31-12.15 52.011-12.27 78.449-.22 51.182 20.54 99.992 21.75 151.312 1.14 48.42-29.73 100.03-26.36 142.18 2.28 28.6 12.52 47.17 17.27 70.49-22.11 7.1-45.22 13.79-68.38 18.31-8.3-3.95-33.78-6.4-68.63-7.8.38-2.93 2.54-7.4 1.62-10.42-1.71-5.56-5.49-10.66-7.45-16.26-2.02-5.73-.83-11.1-1.79-16.73-.91-5.36-3.92-9.83-4.37-15.47-.54-6.8 2.3-12.61 2.37-19.21.05-4.98-3.39-11.44-4.97-16.18-2.66-7.98-4.12-16.44-6.04-24.63-2.52-10.81.29-19.53.66-30.21.2-5.71-1.06-11.38-.7-17.11.62-10.07 4.8-19.38 6.57-29.23 1.68-9.34.81-18.84 3.2-28.15 1.86-7.26 8.01-10.59 8.03-18.35.06-17.27-4.89-31.39-8.25-48.01-1.42-7.07 1.68-14.34-.4-20.88-1.65-5.16-4.79-9.86-6.6-15.01-.25-.73-.69-4.11-1.83-4.41-1.6-.43-2.92.94-3.91 2.6-1.03-.97-1.86 2.46-2.87 3.58-2.42 2.63-5.2 4.87-8.21 6.78-3.57 2.27-8.72 2.26-11.73 4.06-2.47 1.49-8.46 19.91-13.05 23.97-7.7 6.8-8.3 1.6-14.79-1.83-.49-.26-1.16-.86-1.68-.75-9.47 1.95-13.45 16.61-20.71 21.51-6.06 4.08-16.39.67-21.01-3.45-1.54-1.37-.97 4.01-1.49 6.01-1.13 4.42-2.44 8.72-3.94 13.01-1.01 2.9-2.03 5.91-2.93 9.01-6.61 3.8-10.9 9.59-13.71 18.7-3 9.73-5.93 19.89-5.24 30.15.43 6.43 3.77 13.37 3.23 19.68-1.25 14.46-6.46 28.41-8.63 42.74-2.09 13.73.62 28.97-2.35 42.37-1.35 6.1-7.39 17.32-10.02 23.75-2.46 6-3.3 12.55-6.18 18.36-2.93 5.91-7.23 10.61-8.14 17.37-.92 6.8 7.3 13.85 5.62 19.21-3.29-1.05-6.52-2.47-9.76-4.18-5.36-2.83-11.31-7.86-17.82-7.51-7.23.4-13.95 2.73-21.04 3.78-8.41 1.25-18.5 1.5-27 2.04-6.82.43-12.79-1.85-19.55-2.2-5.16-.26-10.98.22-16.27.27-8.35.08-13.27 4.97-20.73 5.92-8.57 1.09-17.31.43-26.04.39.16-1.98.24-3.95.13-5.92-.26-4.23-2.03-7.87-1.36-12.26 1.02-6.69 5.99-13.08 6.12-19.84.1-5.54-1.76-10.97-1.79-16.55-.08-15.07 1.95-30.24 1.61-45.35-.36-15.71-1.77-31.47-1.19-47.21.47-12.8 3.39-25.4 4.07-38.13 1.19-22.25-.38-44.6.26-66.86.48-17.06 3.34-33.99 3.87-51.07.59-19.228-2.81-38.627-1.59-57.83.72-11.259 5.04-22.078 5.87-33.376.6-8.198 2.67-20.44.53-28.439-1.81-6.731-6.91-12.016-8.39-18.647.03-3.08.06-6.16.08-9.24.98-7.076 3.15-14.329 5.08-20.936 1.06-3.601 3.66-9.416 2.56-13.387-.97-3.493-3.96-7.275-7.26-10.812.36-46.968.6-93.939.6-140.901.53-3.504 1.13-7.009 1.79-10.516 1.42-2.157 3.46-3.723 4.83-5.958 2.07-3.415 2.8-7.066 4.28-10.65 1.29-3.136 3.85-5.761 5.43-8.738 4.52-8.583 7.54-16.042 13.68-23.899 3.91-5.014 9.4-8.521 12.51-14.219 3.62-6.612 3.06-14.239 6.17-20.998 4.22-9.179 9.59-17.806 13.38-27.182 1.98-4.909 2.34-10.354 4.45-15.196 2.44-5.572 6.89-9.894 8.54-15.858.86-3.135.93-6.647.94-10.176Zm-1417.5 926.618c4.23-20.72 8.38-44.8 10.98-66.84 9.88 11.99 18.65 24.3 27.33 37.56 7.79 11.9 15.43 24.78 24.71 35.73-2.74-.06-5.48-.17-8.24-.33-18.38-1.03-36.63-3.17-54.78-6.12ZM1033.55 351.044c26.13 5.218 52.34 10.298 79.14 13.228 4.02.44 8.01.675 11.96.729-5.18 4.947-8.38 11.553-13.43 17.773-2.81 3.458-6.59 6.042-9.17 9.774-4.34 6.282-7.22 13.709-11.66 19.846-2.69 3.719-6.81 6.142-9.44 9.999-2.36 3.452-3.47 7.659-5.92 11.008-4.57 6.228-10.58 11.058-15.08 17.647-2.33 3.41-5.23 6.383-7.57 9.806-5.55 8.102-11.06 16.208-16.61 24.303-2.38-10.67 2.03-23.808 2.93-33.766.78-8.544-2.8-16.42-3.01-24.714-.23-8.992-.46-18.419-.3-27.422.16-8.365 1.72-13.749-.37-22.065-1.36-5.395-2.62-12.18-2.68-17.69-.03-2.892.81-5.66 1.21-8.456Zm395.7 41.618c3.45 7.662 7.65 15.379 15.3 18.253 18.69 7.017 37.06-3.736 55.4-.668 6.65 1.112 13.14 6.612 20.21 8.051 9.8 1.993 19.61-1.924 29.1-.143 6.4 1.2 14.45 11.845 20.93 14.833 9.07 4.178 16.85 2.038 23.41-3 1.33 2.48 2.69 4.728 4.06 6.682 28.68 41.057 76.39 64.805 108.3 102.837 22.23 26.494 38.38 57.383 50.55 90.031-.17 4.968.13 9.912.87 14.663.19 1.174.49 2.424.81 3.714.27 4.848.55 9.697.84 14.548-2.97 12.732-9.24 24.501-10.23 38.017-1.43 19.581 4.67 39.596 2.6 59.239-1.28 12.057-5.74 24.651-4.73 36.868.61 7.322 3.71 14.231 4.37 21.623.65 7.307-1.38 14.799-.23 22.029 1.01 6.362 4.81 11.803 5.79 18.271 2.24 14.996 1.26 30.612 2.92 45.677 1.39 12.664 5.59 21.556 4.4 35.209-2.47 28.629 1.29 45.454 3.01 69.934-5.28 6.64-10.71 13.44-12.41 20.54-2.56 10.63 2.18 21.17-.42 31.59-3.1 12.45-10.84 22.53-10.32 35.91.51 13.01 5.09 25.34 8.21 37.94-3 6.27-5.09 11.76-4.97 15.75.08 2.97 3.15 8.11 6.67 13.39-2.75 10.6-9.32 20.48-8.64 31.93.14 2.44.29 4.86.46 7.27-3.63 4.41-6.9 8.98-9.61 13.68-6.41 11.14-3.45 23.68-8.51 34.74-6.66 14.56-15.19 28.71-22.18 43.36-4.7 9.85-15.17 18.25-24.82 25.85-36.44 6.57-72.24 119.78-108.98 125.82-.39-.44-.76-.87-1.09-1.29-1.88-2.36-3.24-5.72-5.63-7.63-2.65-2.13-6.74-2.99-9.71-4.69-4.5-2.58-6.69-6.77-10.55-9.83-2.31-1.84-5.3-2.39-7.62-4.56-3.33-3.12-5.73-7.22-8.24-11.01-1.19-1.79-2.2-4.27-3.95-5.59-2.35-1.77-5.41-2.76-7.88-4.48-2.81-1.95-4.78-4.93-7.59-6.84-3.18-2.15-6.84-2.87-9.83-5.53-2.93-2.59-2.71-6.74-4.23-10.03-.93-2.01-4.43-1.85-6.02-3.49-3.05-3.17-3.06-8.88-6.31-11.72-1.46-1.27-4.58-1.53-6.3-2.31-5.29-2.41-11.11-4.58-16.28-7.45.76-16.02-.05-28.89-3.28-35.43-5.16-10.43-17.46-16.45-29.01-23.76 1.38-2.1 2.94-4.15 4.72-6.14 9.87-11.06 27.59-18.39 32.5-33.19 2.67-8.04 3.22-18.4 4.52-26.42.7-4.3 1.6-10.17 2.04-14.51.09-.88.66-3.34.08-2.66-6.87 8.02-10.29 17.66-19.09 24.73-7.35 5.9-16.65 8.35-24.11 14.12.26-1.19.53-2.37.8-3.55 3.67-15.98 12.57-36.33 10.12-53.16-.78-5.28-23.15-1.36-24.16.75-4.39 9.19-4.93 28.42-6.56 38.73-1.82 11.52-3.92 23.11-5.67 34.75-19.11-32.56-28.98-50.78-47.02-57.67 9.77-3.93 19.35-8.19 27.38-15.04.78-.66-1.99-.48-2.99-.72-1.91-.48-3.59-.88-5.48-1.47 5.16-3.75 10.44-7.32 15.83-10.73 11.71-.31 23.35-1.5 34.71-4.73 4.86-1.38 11.77-3.58 14.67-7.92.48-.73-1.6-.72-2.36-1.14-1.96-1.1-3.82-2.33-5.6-3.7-1.07-.83-2.11-1.67-3.14-2.53 23.41-8.32 61.95-17.41 71.56-29 .02-.02-8.13-3.53-23.14-10.79-1.37-.66-2.74-1.32-4.12-1.96 5.02-6.87 11.37-13.69 11.68-21.67.02-.47-.9.25-1.35.4-1.55.48-3.05 1.02-4.57 1.61-3.15 1.21-6.14 2.76-9.17 4.24-4.8 2.36-9.77 4.76-14.48 7.53-13.73-5.62-27.71-10.26-42.38-13.59 3.17-10.04 8.03-20.34 6.73-30.12-.08-.56-14.27 3.61-14.63 3.76-13.65 5.64-25.14 13.58-35.72 23.39-9.73 1.01-19.26 3.11-28.49 6.16-.96-9.9-.42-20.02-1.48-29.9-.23-2.14-1.03-10.54-3.05-10.97-.22-.05-.73.82-.76.86-3.27 3.87-6.69 7.58-9.7 11.66-9.64 13.05-13.04 26.38-13.8 41.43a162.47 162.47 0 0 0-13.65 8.94c.49-11.02 1.87-21.98 2.22-33 .06-1.57.74-15.53-2.48-16.54-1.51-.48-1.77 2.63-2.68 3.93-3.12 4.45-6.64 8.59-9.91 12.92-16.53 21.89-20.78 39.84-20.02 64.14-.08.1-.16.19-.24.29-2.2.37-4.4.62-6.52.59.17-26.57.68-53.13 2.39-79.62.23-3.53.49-7.05.77-10.57 1.59-2.97 3.42-5.79 5.57-8.39 21.75-26.18 58.32-46.49 68.08-80.079 9.06-31.149 12.65-69.324 6.15-101.04-.43-2.068-.56 4.185-.82 6.281-.46 3.834-1.07 7.652-1.71 11.46-2.13 12.674-8.53 22.487-16.38 32.445-19.25 24.406-39.55 44.401-53.93 69.697 1.9-21.163 3.03-42.397 1.85-64.028 4.19-12.461 8.72-24.817 12.28-37.218 9.26-32.261 13.94-66.856 16.41-100.191 1.38-18.472 4.92-61.616-7.24-76.039-1.14-1.351-.7 3.468-1.04 5.202a847.204 847.204 0 0 0-3.01 15.785c-2.44 13.533-4.07 27.025-4.68 40.751-.52 11.795.13 24.418-2.89 35.965-2.67 10.207-8.51 19.422-12.38 29.19a154.854 154.854 0 0 0-4.44 12.873c-3.47-17.909-8.84-32.909-17.36-36.202-2.06-.799-8.22 3.352-12.73 6.749-.03-.219-.06-.439-.08-.659-2.17-17.765-1.04-35.813-3.56-53.543-2.88-20.265-10.56-39.077-12.9-59.556-1.53-13.41-2.6-26.906-5.31-40.149-.03-.162-1.56-10.733-2.6-10.94-.5-.1-1.62 14.679-1.68 15.585-.97 14.163 0 28.401.66 42.555 1.59 34.388-2.85 71.76 4.06 105.604 2.64 12.935 7.78 25.171 13.01 37.39 1.25 26.264 5.92 60.183 6.2 69.795.08 2.797.14 5.594.2 8.391-11.2-22.575-24.17-44.052-30.02-69.386-2.92-12.616-4.54-25.338-6.12-38.168-.51-4.166-1.24-8.294-2.04-12.411-.33-1.683-.56-6.617-1.17-5.011-6.84 18.313-5.63 43.195-3.41 62.347 4.45 38.356 21.16 73.091 27.7 110.645 2.43 13.93.31 27.56 1.95 41.43 1.76 14.94 7.2 28.8 12 42.93.67 1.97 1.25 4.01 1.85 6.07.66 14.99 1.69 29.97 2.65 44.94a285.694 285.694 0 0 0-32.87-51.78c-3.3-4.12-6.63-8.22-9.98-12.29-.07-.34-.13-.69-.2-1.03-.86-4.87-1.35-9.42-.99-14.32.14-1.93.7-3.71 1.42-5.49.18-.44 1.01-1.16.56-1.32-6.75-2.43-11 1.01-15.75 4.2-3.13-3.74-6.26-7.48-9.37-11.24a406.36 406.36 0 0 1-7.42-9.16c-1.53-5.96-2.57-12.02-3.16-18.33-.83-8.812 7.48-23.613-7.15-17.502-3.75 1.566-5.61 2.496-8.73 4.228-1 .55-1.96 1.127-2.91 1.728a387.81 387.81 0 0 1-2.79-4.084c-2.86-4.213-5.64-8.498-8.37-12.792-1.38-2.182-2.89-9.074-3.91-6.698-5.75 13.472-4.23 30.757-3.16 45.14 3.28 44.07 12.43 78.92 42.26 110.97 6.42 6.89 13.74 12.99 19.99 20-4.77.54-9.57.47-14.19-.91-3.87-1.15-10.92-6.5-15.23-6.4-.74.02.62 8.19.68 8.45 2.11 8.71 6.85 17.18 11.29 24.9 2.95 5.12 5.72 12.79 11.22 16.07 3.81 2.27 8.17 3.47 12.63 4.36-.04 11.36 3.1 23.73 1.87 34.5-.26 2.31-.57 4.59-.98 6.84-.08.04-.17.09-.25.13-33.51 18.1-32.67 70.28-60.1 112.96-.35-.05-.7-.09-1.05-.13-15.69-1.84-29.29-94.21-44.72-93.54-4.21.18-8.2-.33-12.05-1.42.27-1.13.39-2.27.32-3.41-.55-8.29-6.59-14.69-11.02-21.22-2.97-4.38-4.98-8.94-6.59-13.95-1.44-4.44-1.57-9.22-2.97-13.65-1.26-3.96-3.83-7.53-5.34-11.42-1.66-4.28-1.99-9.12-2.96-13.59-1.25-5.81-3.04-11.46-3.96-17.34-1.17-7.49.62-15.53-1.1-22.87-.55-2.35-2.51-4.55-4.17-6.56-.03-1.84-.04-3.67-.02-5.5.23-17.57 1.81-35.62 3.59-53.05.73-7.16 2.75-14.43 2.89-21.62.21-10.64-2.98-21.26-2.81-32.11.26-16.381 4.57-32.029 5.5-48.24 2.22-38.537-3.36-77.563-.41-115.999 1.05-13.801 3.75-27.873 4.17-41.623.57-18.66-1.48-37.039-1.69-55.656-.12-11.298 1.56-22.344.66-33.691-.87-11.079-.35-15.237-3.79-20.959 3.1-10.77.43-20.455 1.56-32.029.61-6.243 2.6-12.668 2.32-18.978-.52-12.151-4.07-24.033-4.75-36.15-.29-5.087 1.04-10.118.96-15.201-.15-9.924-1.42-19.604-1.66-29.5-.09-3.79 1.29-7.624.98-11.344-.53-6.423-2.69-12.622-4.21-18.959 2.29-4.535 4.57-9.077 6.81-13.645 13.65-27.922 26.36-54.041 45.76-78.479 10.4-13.102 21.82-26.277 33.48-38.283 10.02-10.32 20.99-20.974 29-33.241 10.52.889 23.73-.819 30.76-.826 14.14-.014 29.94 1.493 43.54-3.178 6.7-2.302 13.62-8.601 20.45-9.86 10.1-1.862 21.17 2.587 31.38 2.404 11.04-.198 19.42-4.925 29.16-5.421 8.81-.449 22.19 13.224 31.64 16.458 13.21 4.525 26.17-2.63 36.76-.333 9.76 2.116 17.19 12.833 25.1 17.902 8.13 5.207 18.37 5.379 28.11 3.293Zm924.53 985.638c-7.87 3.33-15.16 7.79-21.38 14.23-15.78 16.31-32.03 32.46-49.37 47.25-14.06-10.67-28.29-21.66-43.89-29.48-4.71-2.36-9.59-4.43-14.57-6.31 34.51-7.38 72.84-15.63 108.97-23.43 6.74-.74 13.49-1.48 20.24-2.26Zm-602.57-843.292c-10.92-19.43-23.37-37.589-42.14-51.66-27.17-20.362-47.11-45.099-65.92-71.991 7.5-1.738 14.93-4.101 22.74-4.871 21.95-2.163 41.34-8.904 62.47-13.044 8.34-1.635 17.03-3.349 25.7-5.429.95.295 1.9.587 2.85.876.1.829.19 1.591.21 2.229.2 6.101-.62 12.121-.69 18.197-.03 2.705.84 5.241.81 7.951-.02 3.252-.84 6.18-.51 9.442.4 4.012 1.91 8.08 1.62 12.143-.28 3.798-4.43 5.925-5.13 9.619-1.42 7.478-.48 15.843-.98 23.451-.4 6.088-2.5 11.591-3.13 17.491-.32 3.1 1.97 6.846 2.52 9.798.8 4.221-.65 8.289-1.23 12.42-1 7.082 1.99 16.182.81 23.378Zm575.67-183.591c8.06 8.021 18.26 13.81 31.01 15.946 15.27 2.559 30.85-1.761 43.29-10.911 5.98-4.397 11.04-8.767 16.16-14.028 1.16-1.193 1.78-4.165 3.38-3.68 11.2 3.402 19.25 13.616 31.04 16.299 15.94 3.631 27.66 1.916 39.93-.59 1.88.238 3.8.409 5.74.502 11.79.563 23.6-1.917 35.44-5.525 7.75.086 15.51.219 23.29-1.378 9.57-1.967 44.17-16.6 48.29-16.712 16.29-.445 31.81 7.378 48.82 6.497 2.23-.116 4.41-.27 6.53-.464 5.45 1.129 10.9 2.16 16.38 2.913 3.94 26.573 8.22 53.078 12.37 79.61-10.63 12.877-23.3 24.839-37.53 35.873-1.11-2.027-2.52-3.811-4.3-5.222-4.99-3.946-5.2 8.334-5.43 9.891-.18 1.234-.17 1.023-.37 2.466l-.06.399a338.12 338.12 0 0 1-18.45 12.199c-1.17-1.984-2.82-3.379-5.16-3.654-1.38-.163-2.43 5.181-2.96 8.509a407.024 407.024 0 0 1-17.2 9.443c-.12-.405-.24-.809-.38-1.212-.41-1.191-.93-2.33-1.62-3.388-4.43-6.828-7.41-1.933-9.05 3.296-.65 2.078-1.1 4.228-1.43 6.376-.07.414-.13.829-.19 1.243-83.87 40.156-188.41 58.973-263.16 55.076-16.21-.845-31.92-3.691-47.51-7.101-.25-2.809-1.5-5.067-4.77-5.143-2.59-.06-4.67.941-6.34 2.632-3.82-.884-7.65-1.782-11.47-2.671.25-3.648-1.01-7.068-4.91-9.622-3.09-2.03-6.69 3.752-8.32 6.613-7.65-1.68-15.34-3.231-23.11-4.482 1.52-4.371 2.44-9.515-.22-11.952-4.06-3.721-9.72 4.206-11.19 6.925a44.79 44.79 0 0 0-1.54 3.176c-5.13-.683-10.23-1.324-15.28-1.944 1.67-6.122 1.68-13.805-4.01-15.355-5.35-1.459-11.02 4.238-13.73 8.089-.76 1.082-1.58 2.758-2.39 4.834-44.61-5.435-86.72-11.638-129.44-34.9-38.89-21.176-72.07-50.944-106.18-79.479 3.25.532 6.76.471 10.52-.303 5.24-1.075 10.35-3.912 15.79-3.107 16.74 2.48 32.18 7.658 49.44 6.43 15.47-1.101 27.84-5.503 40.07-14.295 3.29-2.366 27.65-2.086 35.04-4.79 7.29-2.671 14.62-12.609 21.39-14.339 8.3-2.119 18.03.751 26.72-1.039 6.28-1.292 11.7-3.286 16.85-5.82 16.78 8.865 34.41 15.708 55.82 13.21 43.04-5.023 83.3-21.96 124.39-35.341Zm-2053.429 2.646c15.476 5.694 24.969 16.448 44.374 13.861a59.922 59.922 0 0 0 11.324-2.649c-4.792 72.011-3.043 145.006-.315 215.574 4.029 104.239 30.968 205.74 25.016 310.677-4.764 83.984-18.032 187.404-35.215 286.434-1.104.28-2.211.55-3.371.58-5.168.14-9.668-3.02-14.647-2.93-2.055.04-4.298 3.84-6.113 4.81-2.461 1.31-5.224 1.36-7.936.78-1.516-30.43-2.889-61.09.475-91.05 7.011-62.45 22.954-129.455 14.838-192.495-4.147-32.213-25.206-59.689-27.371-92.389-2.28-34.447 13.581-68.5 7.547-102.644-8.342-47.204-44.87-83.473-37.838-133.537 7.33-52.181 24.074-102.229 29.544-155.115.989-9.562.795-32.107-.312-59.907Zm342.185 884.547c-1.436-14.07-1.939-28.2-1.692-42.39.734-1.5 1.313-2.79 1.694-3.71 9.913-23.8 14.424-47.25 14.94-73.08.191-9.52-.072-21.49 1.562-30.62 1.865-10.42 7.421-20.06 9.364-30.45 1.512-8.09.518-16.81 2.354-24.94 1.481-6.55 6.032-11.29 7.701-17.61 3.908-14.81 5.766-29.214 8.718-44.25 1.801-9.173 5.899-17.958 7.746-27.237 5.573-28.003 1.02-56.146 3.08-84.411 1.11-15.237 6.888-29.938 9.729-44.897 2.873-15.12-.705-28.791-.805-43.85-.045-6.731 3.373-12.988 3.846-19.738.686-9.787.042-20.052-1.77-29.964l.1-1.777c1.075-.802 2.009-1.762 2.709-2.93 4.025-6.722 2.658-17.61 2.718-25.092.074-9.179 1.204-18.32.871-27.492-.39-10.747-2.229-20.967-1.433-31.765.62-8.401 2.808-16.641 2.847-25.091.059-12.958-3.731-25.415-4.679-38.275-.855-11.595 1-23.198.38-34.788-.768-14.365-3.556-28.562-3.999-42.956-.521-16.956-2.52-34.631-.861-51.518 1.034-10.528 6.199-21.431 5.914-31.963-.347-12.778-4.433-25.806-6.612-38.657 18.64 1.175 36.903 5.82 55.548 7.22 11.721.881 21.484-3.03 32.696-3.526 9.218-.408 18.738 2.22 27.732 3.815 14.548 2.581 29.759 2.558 44.321.128 8.332-1.39 17.865-4.995 24.335-10.502 4.045-3.442 10.373-12.494 15.988-13.29 9.961-1.412 21.066 8.276 30.846 9.954 13.948 2.395 28.054 1.242 40.452-3.576 5.824 19.027 1.61 41.241.298 60.533-.985 14.475.249 29.787.56 44.306.191 8.901.92 17.981-.123 26.853-1.296 11.027-4.764 21.811-4.074 33.04 1.478 24.034 4.484 47.983 5.989 72.017.644 10.273-.172 20.674.731 30.908 1.688 19.13 6.424 37.445 6.126 56.849-.11 7.116-3.045 13.611-3.09 20.603-.083 12.916-.489 26.065.186 38.971.289 5.536 1.532 10.951 1.857 16.478-11.048-9.797-20.268-22.54-26.699-35.684a4073.974 4073.974 0 0 1-1.565-22.245c-.223-3.311.115-8.995-2.618-11.407-.109-.096-.838 1.043-.863 1.082-.935 1.498-1.613 3.128-2.208 4.787a29.643 29.643 0 0 0-1.248 4.725c-1.058-3.794-2.033-7.613-3.023-11.415-.67-2.568-1.037-5.214-1.569-7.812-.228-1.115-.377-4.406-.749-3.33-3.306 9.534-5.589 24.262-3.264 34.398 1.738 7.578 7.039 16.136 6.862 24.213-.097 4.395-3.313 7.516-3.434 11.885-.189 6.805 4.344 30.711 8.508 39.297-.691 6.67-.008 13.409-1.042 20.038-2.303 14.759-3.452 30.372-.912 45.194.631 3.684 2.293 7.724 4.779 10.531.422.476 3.145 2.388 3.746 1.405 1.675-2.743.514-8.044.198-10.908-.974-8.847-3.038-17.426-3.245-26.391-.189-8.203 1.862-15.869 2.273-23.973.145-2.859.278-5.719.396-8.578 2.764 2.392 5.768 4.649 7.893 7.145 5.793 6.803 10.719 13.574 14.427 20.839a50.749 50.749 0 0 0-.31 2.492c-3.422 34.407 2.402 69.439 1.333 103.825-.259 8.301-3.232 16.093-3.703 24.353-1.029 18.045 1.4 36.389 1.652 54.454.13 9.36-1.994 18.42-1.894 27.73.116 10.82 2.826 21.42 2.719 32.3-.183 18.51-4.058 37.48-4.571 56.13-.331 12.01 1.641 24.94-.076 36.81-4.232 29.25-6.818 59.06-11.058 88.42-1.02 7.06-2.333 14.06-3.33 21.12-3.944.13-7.999-.04-12.428-.73-7.783-1.2-15.796-8.81-23.462-8.17-15.127 1.25-30.784 4.14-45.965 4.39-5.983.1-12.056-2.59-17.911-2.17-11.097.79-21.119 4.96-32.699 4.76-7.279-.13-19.051-1.2-26.435-3.22-4.423-1.21-9.106-5.79-13.78-5.78-17.168.03-37.111 3.25-54.063-1.6-5.512-1.57-9.642-6.26-14.913-7.61-9.607-2.47-30.495-4.9-40.474-5.59-3.392-.23-6.702 1.62-10.296 1.22-8.668-.96-16.806-6-25.564-7.44-1.109-.18-2.556-.48-4.215-.82ZM2787.51 570.342c-.72-44.439-1.95-88.855-3.48-133.294-.7-20.338-.19-69.431-5.15-117.145 3.57-1.456 7.07-2.935 10.52-4.427 12.79 16.443 29.97 26.427 52.17 14.131 9.31-5.155 15.66-14.708 20.29-23.911 1.5-2.988 2.45-5.581 3.56-8.662.51-1.427.19-5.067 1.5-4.296 22.74 13.427 36.34 33.446 64.43 37.126 4.54.594 8.81.946 12.9 1.088-.5 2.765-.97 5.07-1.45 6.706a206.29 206.29 0 0 1-2.61 8.354c-3.44 3.657-7.04 7.067-11.16 10.158-13.3 9.989-12.72 15.252-20.42 31.661-3.01 6.436-8.08 11.902-11.95 17.815-9.07 13.879-11.55 23.891-24.61 33.852-.19-4.752-.41-11.13-2.35-13.901-.94-1.351-3.25-1.541-4.66-1.63-8.52-.533-9.41 5.963-11.05 14.035-2.9 14.29-5.81 28.578-10.98 42.254-1.84 4.86-4.33 9.298-6.48 13.948a553.243 553.243 0 0 0-8.64 13.447c-3.67 2.869-7.47 5.595-10.66 8.842-9.02 9.163-12.87 20.593-18.58 31.789-3.7 7.26-7.86 14.517-11.14 22.06ZM717.72 1835.63c13.987-2.03 25.697-5.21 31.984-11.44 11.193-11.09 41.161-36.09 37.385-53.45-2.004-9.21-12.441-16.36-9.332-27.14.298-1.03 41.889-76 48.045-78.75 18.768-8.4 43.101-5.16 63.117-9.32 30.964-6.44 58.559-18.8 91.006-23.06 14.752-1.94 31.675 1.33 46.495.84 19.88-.67 39.16-7.12 58.9-7.43 46.22-.74 92.64-1.74 138.79-1.8 16.03-.02 31.31 4.07 47.66 2.79 56.47-4.43 117.37-6.23 172.93-17.02 4.22.19 8.45.32 12.67.37 1.31-1.35 2.58-2.71 3.83-4.08 31.39-8.22 61.68-22.15 94.11-25.52 145.02-15.05 291.56-15.02 436.85-22.45 69.38-3.55 138.28-29.15 208.39-28.73 40.31.24 73.78 15.54 112.08 21.6 17.6 2.79 35.47.27 53 4.14 16.49 3.64 29.54 14.48 46.85 16.85 53.36 7.3 80.03-5.82 121.22 7.11 5.95 16.39 11.15 33.39 19.73 50.68 31.35 63.17 96.37 125.24 85.67 197.38-22.6 17.06-47.94 38.7-66.53 54.73-2.32.74-4.73 1.5-7.25 2.27-43.89 13.42-87.52 28.23-131.86 40.06-109.34 29.17-220.06 58.18-331.77 76.77-100.62 16.74-205.39 27.46-307.22 31.63-77.53 3.18-155.71.58-233.3.56-177.56-.03-349.64-21.28-523.41-55.95-130.6-26.07-167.03-24.57-267.974-97.77-19.242-13.96-36.863-27.79-52.066-43.87ZM2254.94 572.541l.04-.378.18.031c.11.019.21.04.31.064-.18.096-.35.19-.53.283Zm0 0c-3.24 30.255-6.46 60.926-6.24 91.378.1 12.439 4.88 23.38 5.18 35.794.11 4.26-.64 8.416-1 12.649-.17 1.872-.31 3.735-.31 5.614 0 .627-.33 2.272.15 1.873 17.56-14.491 5.07-43.151 3.21-60.602-1.44-13.528 2.43-27.095 3.27-40.57.61-9.668-1.61-19.892.76-29.343 1.1-4.387 2.75-8.593 4.51-12.766 4.11 1.261 8.77 1.534 12.9.75 4.43-.84 6.47-4.489 9.94-6.938.2-.142.4-.28.6-.414 107.77 4.4 216.98-12.839 311.47-59.469.05.304.11.608.18.911.73 3.447 3.17 4.914 6.44 3.468 4.08-1.807 5.93-6.163 6.78-11.245 4.23-2.25 8.44-4.562 12.61-6.936.03 2.44.55 4.626 3.49 4.046 3.96-.78 6.23-5.519 7.64-10.585 4.41-2.673 8.79-5.419 13.12-8.239-.34 2.497-.73 5.01-.44 7.485.91 7.603 4.71 13.73 3.57 21.59-.99 6.859-4.87 12.814-6.13 19.609-1 5.385-.31 10.871-.65 16.299-.41 6.556-2.63 13.209-2.15 19.805.36 4.9 2.43 9.29 3.68 13.98 1.57 5.868-.12 12.032 1.41 17.884.14.536 2.3 5.275 2.65 4.893 3.76-4.202.59-12.498-.02-17.014-.7-5.129 1.36-10.314 1.42-15.472.06-4.877-2.02-9.796-2.43-14.632-.97-11.384 5.09-16.697 6.34-27.228 1.85-15.567-.5-32.312-1.28-47.93-.05-.989-.09-2.034-.14-3.122 2.53-1.702 5.05-3.429 7.55-5.183 10.36-7.267 20.5-14.666 30.21-22.42 3.63 24.327 6.98 48.706 9.68 73.207 9.94 90.272 13.42 179.425 11.66 268.272l-.39-.609c-5.17-7.823-15.23-11.558-21.39-18.589-2.33-2.656-4.82-7.465-8.23-8.776-6.98-2.685-13.94-1.762-20.9-5.564-4.28-2.334-7.95-5.779-10.88-9.649-1.35-1.787-2.7-3.598-4.18-5.283-.41-.468-.71-1.6-1.28-1.359-1.71.72-2.95 5.035-3.28 6.84-1.15 6.245 6.98 11.013 10.53 14.911 2.67 2.938 5.06 6.254 8.33 8.573 4.79 3.392 10.51 5.455 14.97 9.355 2.68 2.352 4.31 5.463 6.56 8.2 2.86 3.478 6.36 6.34 9.31 9.724 4.03 4.627 8.25 9.778 10.67 15.465 4.89 11.467 5.03 24.228 7.39 36.306.21 1.061.43 2.118.66 3.172-4.71 100.418-15.77 200.693-31.41 301.993-9.21 59.7-21.66 127.39-52.58 182.12-22.03-1.17-42.67-11.26-65.14-11.73-12.64-.27-19.58 8.35-31.64 10.47-15.13 2.66-30.97-1.03-46.1 1.83-2.97.57-5.93 1.35-8.89 2.24.71-8.71 1.75-17.49 4.06-25.85.29-1.06 4.12-11.22 3.29-12.28-3.04-3.89-9.99-3.44-14.45-3.62-10.95-.46-16.5-1.7-26.34 4.67-2.66 1.72-5.31 3.54-8.05 5.14-4.55 2.65-9.34 5.01-14.38 6.62-9.59 3.07-19.78 3.91-29.67 5.55-21.94 3.65-44.4.87-66.14 5.46-14.15 2.98-29.53 13.1-44.13 12.69-7.5-.21-17.38-8.93-22.94-13.46-3.75-3.05-4.63-7.18-10.22-6.13-13.49 2.54-14.19 9.39-24.1 16.58-6.3 4.58-13.7 4.34-20.43 7.7-9 4.48-15.42 11.76-25.64 13.83-32.78 6.6-67.13 5.1-99.16 14.48-6.85 2-13.88 3.43-20.64 5.68-1.69.56-6.48 1.55-7.44 3.48-.66 1.33-.79 2.7-.51 4.09-3.38-.58-6.73-1.31-10.02-2.17-2.66-.69-5.55-2.7-8.36-2.82-6.44-.26-14.09 3.76-20.48 4.48-1.46.16-2.95.3-4.46.41-18.78-17.16-33.32-36.97-46.28-59.6-4.98-8.69-8.74-17.85-12.55-27.08-1.4-3.4-2.56-7.85-6.05-9.63-4.59-2.35-11.33-1.05-16.3-1-7.78.08-15.65.74-23.5 1.22-2.93-7.32-6.93-14.05-8.87-21.94-2.4-9.79-3.08-20.01-5.81-29.72-4.67-16.6-12.17-32.49-16.85-49.14-4.23-15.06-4.35-32.3-6.98-47.72-5.51-32.42-4.94-72.25-3.97-105.08.14-4.88.2-10.01-.48-14.97.97-.79 1.83-1.71 2.53-2.8.64-1-.2-4.08-.3-5.16-.44-4.68-.21-9.37-.36-14.07-.55-17.538.02-34.627 1.89-52.103 2.69-25.235 1.13-50.633.39-75.876-.19-6.291 1.25-12.478 1.09-18.735-.29-11.014-3.97-21.499-3.91-32.666.07-12.458 1.94-24.821 1.82-37.286-.15-16.331-2.42-32.461-3.31-48.727-.67-12.147.19-23.348-1.81-34.858 1.69-3.36 1.69-9.912 1.71-10.803.01-.036 0-5.132 0-5.168V679.3c-.01-1.739-.01-3.478-.03-5.218-.24-28.587-6.62-56.732-8.6-85.132-.66-9.354.05-18.734-.76-28.109-.94-10.854-3.08-21.543-3.54-32.454-.54-13.004.75-26.013.36-38.982-.31-10.382-3.57-20.389-3.33-30.82.29-12.548 1.12-25.4 2.02-37.947.33-4.571 1-10.259-.44-14.916 3.94.326 7.88.595 11.83.806 56.16 53.972 136.41 100.483 209.89 124.019 31.04 9.941 63.39 18.251 96.52 24.68.71 3.611 2.17 6.486 4.64 7.952 4.87 2.885 12.44.692 20.02-3.541 7.4 1.211 14.82 2.327 22.28 3.346 2.04 1.117 4.25 1.992 6.55 2.626 6.48 4.48 13.75 7.633 21.99 8.422l.21.02c5.17 2.43 11.17 1.403 16.74-1.511Z" style="fill:#a6a6a6" transform="matrix(-1 0 0 1 3507.87 0)"/></svg>