<svg xmlns="http://www.w3.org/2000/svg" xml:space="preserve" style="fill-rule:evenodd;clip-rule:evenodd;stroke-linejoin:round;stroke-miterlimit:2" viewBox="0 0 3508 2481"><path d="M3507.87 2480.32H0V0h3507.87v2480.32ZM2415.26 371.598c-23.68-2.571-47.12-8.208-70.6-8.437-39.39-.384-76.63 8.508-116.44.832-26.31-5.074-40.43-22.261-63.43-30.111-27.76-9.469-64.82-6.166-94.2-11.695-33.33-6.271-65.63-23.348-99.3-26.793-54.34-5.56-112.8 10.571-167.29 11.534-39.31.695-80.13-27.021-117.29-23.53-62.58 5.877-101.52 37.305-176.06 28.199-33.46-4.087-57.38-31.635-89.54-37.629-19.33-3.603-48.1 8.659-66.99 10.936-30.35 3.658-61.48 3.77-91.95 2.373-41.16-1.886-142.33-32.336-167.77-29.148-29.19 3.659-57.88 20.264-87.83 24.663-28.918 4.246-200.082 10.173-217.531 8.805-8.547-.669-17.903-2.573-27.679-5.182-33.133 8.267-75.141 12.84-96.314 14.433-12.763.961-26.261-2.216-38.767-.853-17.762 1.934-67.073 47.753-86.523 58.685-31.099 17.479-57.729-2.311-90.73 8.124a54.443 54.443 0 0 0-8.859 3.699c-.467 10.179-2.793 20.321-2.479 30.46 1.44 46.456 4.454 91.995-.737 138.353-4.35 38.853-19.315 75.511-23.021 114.514-1.096 11.537 1.774 22.911 1.083 34.542-.464 7.806-4.085 15.408-4.313 23.048-.162 5.437 5.419 11.758 6.092 17.742 1.448 12.874 1.11 27.02.893 40.475 4.59 9.122 8.806 18.697 13.24 28.663 14.788 33.236 44.098 54.936 55.781 90.294 6.872 20.8 4.291 40.809 8.423 61.647 2.937 14.815 11.991 26.804 12.856 42.746.446 8.223-4.026 18.153-4.646 26.613.597 3.93 1.237 7.86 1.95 11.8 4.415 15.03 11.542 30.3 17.185 45.77 21.013 13.1 38.036 31.17 43.011 48.7 5.572 19.63-7.055 31.87-16.208 47.39 3.546 15.59 5.81 31.91 5.935 49.62.184 25.9-7.231 56.67-14.396 87.67 1.207 6.1 1.919 11.9 1.638 16.76-.646 11.18-5.535 19.99-11.064 28.39-4.23 25.27-5.575 49.08.606 68.68 17.345 55.01 56.623 94.21 96.278 134.34 11.458-1.68 28.575-5.75 35.84.95 12.698 11.72 15.792 32.33 25.179 46.29 4.365 6.49 11.453 10.07 16.413 16.15 6.491 7.95 9.966 17.42 15.782 25.65 16.781 23.74 34.881 28.39 39.234 63.49 2.086 16.82-3.897 31.81-6.97 47.89-2.07 10.84 4.837 21.58 1.705 33.75-3.12 12.12-12.535 23.42-13.26 36.13-.835 14.62 4.836 29.03 6.237 43.47.429 4.42-6.185 46.54-9.256 64.91.123.06.246.11.369.17 1.589.71 16.332 5.81 16.462 7.76.353 5.28-2.746 10.37-3.015 15.72-.447 8.91 2.23 17.88 1.512 26.81-.283 3.51-2.396 7.86-.89 11.27 3.425 7.74 13.398 6.91 16.838 12.13 2.489 3.78 3.425 8.06 6.618 11.55 3.549 3.87 9.597 6.51 12.682 10.59 3.476 4.6 2.632 11.72 5.281 16.82 2.135 4.11 8.141 8.53 8.965 13.12 1.527 8.52-.744 18.52 4.096 26.25 4.28 6.83 11.384-1.31 14.119.72 3.206 2.38 4.091 7.03 7.009 9.7 9.03 8.26 20.906 10.39 32.827 10.03 4.884-.14 5.497 5.85 5.672 5.83 7.485-.87 10.045-10.46 16.895-12.46 5.867-1.71 12.97 1.87 19.181 1.97 22.205-13.73 41.435-30.56 59.642-44.73 11.607-18.99 20.645-27.02 42.019-34.56 17.79-6.28 18.89 4.34 36.28 3.57 24.17-1.07 48.39-5.36 72.77-5.9 21.01-.47 37.21 10.61 56.79 15.27 7.54 1.8 19.14 5.89 26.69 3.92 3.32-.87 12.84-6.96 15.47-5.25 5.82 3.77 5.01 12.83 10.15 16.92 3.21.67 6.43 1.34 9.65 2.01 7.56-1.27 12.67-8.51 19.81-10.76 2.18-.69 21.47 4.38 24.72 4.44 8.92.16 14.51-6.01 22.86-7.03 6.71-.82 11.94 5.26 17.47 8.31 4.64-3.59 8.05-8.17 10.08-14.52 1.79-5.6-.28-13.83 3.6-18.87 9.49-12.34 13.63-9.25 25.52-16.15 6.49-3.76 12.49-8.68 19.41-11.65 6.65-2.86 12.63 1.9 18.81 1.08 3.5-.46 7.14-2.41 10.66-2.43 8.78-.04 14.74 3.69 24.32 1.27 9.02-2.28 26.8-5.7 34.62-8.49 2.06-.74 5.53-2.87 9.23-4.93.13-.36.25-.73.38-1.09 4.9-14.02 15.41-9.66 27.29-15.16 4.63-2.15 8.87-4.8 13.15-7.56.65-.41 3.97-3.16 5.24-3.31 1.66-.2 3.44 1.16 5.04 1.42 2.86.47 5.7.56 8.59.65 9.74.29 19.36-1.37 29.11-1.2 4.88.09 9.77 2.15 14.99 2.07 8.16-.14 16.65 1.1 24.71.63 4.15-.25 10.05-2.54 14.16-2.07 2.36.27 4.06 3.31 6.01 4.42 3.27 1.86 6.27 2.5 10.04 2.6 10.48.26 20.86-5.19 31.12-4.44 3.5.26 6.72 3.28 10.3 3.93 7.6 1.37 15.63.52 23.33.86 7.78.35 15.18 2.54 23.04 2.27 9.31-.31 18.18-2.56 27.4-3.61 5.95-.68 12.43.54 18.24-.65 9.62-1.97 19.95-6.15 29.87-3.71 15.81 3.89 26.08 16.71 38.3 26.83 2.4.27 4.88.58 7.25.97 11.64-3.96 23.33-7.35 35.44-7.39 22.31-.08 43.87 5.19 65.41 10.31 2.94-5.74 5.51-11.69 7.67-17.99 2.01-5.88 2.15-20.7 6.71-25.37 7.71-7.88 35.31-6.05 46.6-7.84 11.15-1.77 22.14-3.6 33.11-6.27 1.87-.45 5.55-1.71 9.74-3.12-7.6-4.16-14.82-9-21.57-14.67 0 0 67.1-62.85 88.01-59.24 22.91 3.97 45.59 9.23 68.4 13.72 14.67 2.89 14.45 2.55 29.47 5.96a486.43 486.43 0 0 1 20.57 5.13c14.15 3.86 17.78 3.83 16.31 18.38-.5 4.99-.81 9.98-1.06 14.97 8.27.01 16.4 1.54 25.41.79 5.56-.47 11.5-5.14 16.81-4.53 6.96.79 11.9 4.43 18.42 5.82 18.37 3.91 40.22 5.23 59.13 2.79 8.75-1.13 17.11-5.71 25.66-7.21 7.6-1.34 14.84-.79 22.5-3.16 5.25-1.63 11.34-8.45 16.22-8.83 3.52-.27 6.88 1.48 10.51.95 7.32-1.05 14.72-4.91 22.06-5.2 12.01-.46 25.12 1.64 37.05.53 6.69-.62 12.88-3.73 19.51-4.56 5.03-.63 9.96 1.38 15.13.38 16.95-3.25 36.82-11.17 53.36-13.53 3.26-5.34 6.81-10.5 10.78-15.33 15.25-18.56 19.87-13.82 40.38-14.37 10.15-.27 21.65-2.84 31.81-.84 13.45 2.64 25.9 8.79 39.84 8.96 10.06.11 17.89-4.91 27.18-6.11 5.03-.65 8.68 1.98 14.3.2 4.9-1.56 10.25-6.97 15.28-7.53 13.67-1.51 28.82 1.17 42.38-.94 14.29-2.23 28.86-7.2 43.38-7.35 3.74-.04 7.8 2 11.58 2.31 2.61.22 31.57-2.95 37.75-4.86 5.35-1.66 10.55-5.08 15.94-6.35 3.78-.88 7.21.28 11.28-1.09 4.93-1.67 8.97-5.54 13.87-7.12 4.4-1.42 9.45-.34 14.1-1.9 5.23-1.75 9.77-5.52 14.95-7.08 5.97-1.8 12.76-.27 19.13-2.5 12.97-4.52 24.28-12.71 37.02-17.76 6.3-2.5 14.31-.24 21.1-2.22 11.45-3.35 24.48-11.66 34.35-18.94 7.91-5.84 16.24-16.88 25.63-20.35 5.68-2.09 11.31-2.57 17.31-6.28 4.72-2.91 10.24-8.55 15.72-8.51 7.65-26.15-1.21-45.14 1.28-73.29 2.05-23.2 9.2-45.04 14.63-67.51 1.16-4.82 3.12-9.48 4.63-14.23-.77-11.6-1.49-22.81-1.82-33.39-.05-1.4-.09-2.79-.15-4.17-.56-2.27-1.09-4.59-1.54-6.97-3.08-16.35-5.6-33.23-11.93-48.68-13.91-33.94-32.44-65.64-45.61-100.05-3.69-9.62-7.46-19.2-11.19-28.8-.72-1.86-4.55-7.77-4.04-9.83.67-2.66 8.38-4.6 10.51-5.59 11.65-5.45 22.45-12.84 33.63-19.15 1.84-1.04 6.72-5.6 9.4-3.87 11.9 7.71 17.59 25.53 26.57 36.07 10.9 12.81 25.73 21.25 36.68 33.5 8.63 9.65 16.03 20.29 23.99 30.5 15.66-40.44 28.03-81.85 40.57-123.19-2.64-19.2-9.64-37.67-9.88-57.56-.12-9.43 3.94-18.51 7.58-27.62-.08-.6-.17-1.1-.25-1.48-8.98-42.66-2.1-61.57 1.57-101.76-.06-5.51-.37-11.03-1.11-16.54-2.37-17.66-20.43-30.75-20.07-49.11.22-11.61 5.71-23.47 7.39-34.981.91-6.178 1.83-12.408 2.8-18.65a255.51 255.51 0 0 0-.11-6.76c-.21-7.015-2.51-13.907-2.55-20.833-.16-28.166 7.83-55.685 8.1-83.566.14-14.054-8.2-26.995-7.14-40.783 1.41-18.305 10.93-34.377 9.64-53.511-.66-9.728-1.46-19.794-5.02-28.974-2.63-6.796-6.64-13.314-8.12-20.51-1.94-9.433.59-17.966 3.77-26.432-.66-1.7-1.06-3.518-1.05-5.511.02-6.534 4.11-12.242 8.3-18.004.39-7.919-3.15-15.473-2.44-23.503.6-6.716 3.91-12.907 4.22-19.663.8-17.488-5.77-38.591-17-53.361-13.69 3.644-25.7 5.626-31.02 5.316-59.87-3.478-121.34 5.726-180.67-3.412-55.48-8.544-111.91-.672-167.55-6.803-4.76-.525-9.5-1.086-14.23-1.683-2.78 11.546-6.72 23.195-6.31 34.505 1.01 28.014 19.27 49.65 14.82 78.919-1 6.587-10.1 42.288-20.21 38.818-4.03-1.384-1.9-46.459-2.44-54.827-.9-14.013-8.21-26.316-9.08-40.148-.79-12.721 3.59-25.364 3.97-38.026.22-7.287-.11-14.626-.64-21.98a866.002 866.002 0 0 1-57.19-10.501c-3.65 4.203-7.68 6.8-12.13 6.728-9.05-.145-13.79-5.386-16.1-13.411a842.482 842.482 0 0 1-84.1-26.181c-2.69-.015-5.37-.151-7.84-.939-8.45-2.69-16.19-8.303-24.59-10.905-7.43-2.305-15.85-2.204-23.46-4.018-11.29-2.692-23.59-9.066-34.54-13.925-4.4-1.954-18.88-14.903-25.13-18.784-2.22-1.38-4.48-2.971-6.26-4.891-1.43-1.536-2.66-3.131-3.84-4.716a965.312 965.312 0 0 1-27.53-16.021c-5.51-1.118-11.08-2.104-15.92-3.825-5.38-1.914-15.97-11.662-18.5-12.203-6.08-1.304-12.47-.229-18.51-2.568-5.14-1.993-24.58-16.974-26.38-19.458-3.79-5.226-.27-10.536.98-15.447a244.219 244.219 0 0 1-9.87-13.46c-.34-.262-.63-.505-.86-.726-3.42-3.308-5.91-7.314-7.42-11.678Zm781.91 116.905c-18.99-3.153-38.9-7.611-58.06-18.504-37.56-21.351-47.83-74.694-84.41-92.817-44.36-21.975-103.71 7.307-147.85-56.709-4.72-6.834-8.38-13.841-11.14-20.973-23.73 3.447-45.24 5.741-61.15 7.858-26.12 3.477-54.63 20.931-81.94 25.527-29.28 4.929-60-4.351-88.7 2.506-27.95 6.679-50.72 23.34-80.96 27.07-16.34 2.015-35.64 4.083-55.68 5.839 1.59 1.541 3.19 3.067 4.8 4.577 5.41-.166 11.31.057 12.67 2.166 2.69 4.184 2.49 8.78 4.14 12.746 3.81 3.192 7.66 6.307 11.55 9.348 11.58 5.455 27.28 9.251 36.28 15.009 3.34 2.142 2.79 8.379 5.69 11.366 2.6 2.668 10.33 8.217 16.95 12.414 3.69 2.041 7.41 4.036 11.15 5.984 5.82 2.671 13.13 6.812 18.6 8.228 5.67 1.473 13.68 1.497 18.83 4.119 4.07 2.07 4.52 7.073 9.71 8.691 12.53 3.906 24.28 2.325 36.59 7.529 1.92.814 3.46 2.802 5.13 4.376 7.57-6.7 16.21-13.518 22.66-9.047 5.22 3.613 6.9 11.765 7.11 21.918 2.44.679 4.88 1.348 7.33 2.005 4.4.478 8.86.471 13.11 1.584 2.81.738 5.46 2.225 8.1 3.813 8 1.924 16.03 3.738 24.1 5.453 3.21-8.019 9.49-20.229 19.23-14.416 6.54 3.896 9.22 11.721 10.28 20.229 35.35 6.442 71.15 11.194 106.74 14.978 19.57-1.676 39.13-4.521 58.65-4.379 4.3.032 9.93 4.115 14.41 4.873 12.68 2.144 25.33 6.381 37.9 8.188 6.29.903 14.05-.271 20.21 1.254.9.224 1.65.674 2.38 1.175 6.39.37 12.81.682 19.23.933 4.96-1.26 9.9-2.829 14.82-3.092 4.19-.223 8.67 2.195 12.86 2.507 8.7.647 17.3.216 25.95 1.023.44.041.89.081 1.34.121 16.79-.335 33.57-1.155 50.26-2.525-1.25-3.932-2.01-8.053-2.16-12.331-.4-11.052 2.59-20.471 3.29-30.614ZM2102.51 1966.61c12.74-5.6 25.22-11.77 37.46-18.33.65-.35 1.3-.71 1.96-1.09-18.95-1.58-38.14-4.16-56.43-9 3.78 4.37 7.32 8.82 9.5 13.07 2.08 4.08 3.94 8.26 5.98 12.36.18.37.76 1.5 1.53 2.99Z" style="fill:#595959"/></svg>