<svg xmlns="http://www.w3.org/2000/svg" xml:space="preserve" style="fill-rule:evenodd;clip-rule:evenodd;stroke-linejoin:round;stroke-miterlimit:2" viewBox="0 0 3508 2481"><path d="M3507.87 0H0v2480.32h3507.87V0ZM780.688 256.775c-.322 8.688-1.487 17.198-3.962 25.55-1.774 5.988-4.165 11.938-4.703 18.208-.53 6.186 2.369 11.494 1.375 18.048-1.674 11.043-6.509 21.344-8.261 32.342-1.878 11.785-1.497 24.461-.898 36.724-1.981-2.081-4.119-4.021-5.945-6.256-3.768-4.614-6.722-9.393-11.327-13.301-4.552-3.864-9.106-7.861-13.746-11.62-2.748-2.226-5.708-3.882-8.026-6.633-2.19-2.602-1.131-5.443-2.849-8.17-1.993-3.164-5.695-4.717-7.962-7.574-2.045-2.576-3.23-7.409-4.482-10.362-3.969-9.361-6.307-18.715-12.131-27.351-3.655-5.421-9.87-9.276-12.864-15.044-2.935-5.656-5.546-11.464-8.242-17.235 12.535-8.008 25.272-15.22 36.854-15.727 13.064-.571 39.368 3.062 67.169 8.401ZM3117.13 793.857c1.27-3.285 2.47-6.603 3.11-9.971 1.01-5.399 0-11.532.18-16.975.26-7.956 1.69-15.861 2.42-23.779.85-9.273.81-18.621 1.74-27.921.54-5.486 2.88-10.743 3.02-16.247.16-6.468-.74-12.949-1.81-19.35.25-.587.41-1.228.51-1.803.82-4.523 1.56-9.276 1.97-13.859 1.82-19.932-.4-39.074-1.44-58.83-.68-12.919.71-24.958 1.06-37.849.42-14.97-.72-30.01-.72-44.979-.01-31.433.28-62.631-5.26-93.688-2.22-12.407-5.54-24.997-6.3-37.607-.9-14.717 1.34-29.265-.64-44.037-.77-5.798-2.85-11.579-3.25-17.387-.08-1.155-.04-2.661.43-3.833 27.53.002 54.99.186 82.24 1.251 19.11.746 36.57 6.607 53.85 13.491.77 43.927 9.14 120.637 15.73 163.219-7.88 33.779-15.48 68.089-15.46 101.352.02 35.588 10.9 70.429 9.85 106.352-1.79 61.589-19.48 123.052-21.95 184.132-.71 17.557 1.14 36.002 3.54 54.361-7.89 2.771-15.88 6.453-21.69 8.153-11.75 3.437-27.16 2.077-38.07 7.485-11.92 5.912-21.15 18.272-32.81 25.195-8.9 5.286-14.89 7.968-19.43 10.877.43-9.201-2.04-32.045-1.95-35.761.55-22.109-3.55-43.34-5.24-65.273-1.83-23.57-.63-47.86-.77-71.497-.06-11.772-1.81-23.508-2.86-35.222Zm-1774.39-296.08c2.6-.22 5-1.269 5.69-4.018.47-1.851-.62-3.705-1.78-5.293 3-6.868 6.22-13.632 9.59-20.318 2.2.042 4.37-.473 5.75-2.221 2.01-2.54 1.22-5.423-.47-7.934 3.02-5.684 6.15-11.32 9.35-16.925 4.23-.011 2.74.085 12.54-.388.29 1.755.86 3.494 1.73 5.2 3.32 6.528 10.43 12.212 11.91 19.078 2.79 12.906-10.92 23.956-10 36.718.9 12.675 13.14 24.367 12.85 37.357-.23 10.115-6.86 19.786-8.23 29.805-.1.739-2.35 8.747 1.75 9.838 2.87.764 8.42-7.157 9-8.086 5.5-8.933 6.29-19.028 7.9-28.325 2.57-14.925-6.9-28.86-5.97-43.709.6-9.684 7.39-18.891 7.94-28.616.58-10.257-1.75-20.566-4.55-30.827 61.62-4.89 36.31-13.357 62.62-14.456 12.03-.503 21.63 7.342 33.51 8.202 22.39 1.619 44.31-16.478 67.85-15.998 22.93.468 47.14 20.755 69.57 25.996 45.45 10.622 105.87 7.599 159.6-4.882 15.45 8.148 31.16 15.597 48.02 18.983 58.18 11.682 102.21-17.933 157.64-17.3 41.83.478 83.94 24.158 126.2 14.24 28.96-6.797 44.78-39.926 73.75-45.279 24.65-4.555 50.28 12.015 75.7 10.308 26.42-1.774 50.81-12.28 76.42-17.787 18.41-3.957 37.82 1.347 56.46-2.026 19.75-3.571 38.18-13.353 57.85-16.399 30.56-4.73 63.8 5.85 95.23 1.931 29.66-3.698 80.47-34.369 119.89-68.456 38.53 7.935 76.27 19.567 115.29 22.413 34.14 2.489 69.26-13.513 104.02-19.54 8.99 11.976 20.6 22.294 31.76 32.254 17.58 15.7 35.5 33.416 46.93 54.362 5.58 10.218 8.57 21.919 14.87 31.719 13.35 20.746 31.23 38.273 43.84 59.679 9.95 16.908 15.94 35.63 21.48 54.452-.03 3.33-.05 6.659-.07 9.989-1.31 6.125-2.91 12.216-3.99 18.324-3.1 17.512-4.61 35.461-4.1 53.248.32 11.281 4.05 22.43 5.45 33.611 1.94 15.37-.8 30.413-.89 45.78-.04 5.338.58 10.932 1.09 16.523-.84 9.69-1.58 19.453-2.38 29.208-.53 1.991-1.01 3.993-1.32 6.028-2.52 16.666-3.76 33.007-7.36 49.5-1.69 7.704-8.08 19.949-4.28 28.056.19.402.38.789.59 1.162-1.04 5.706-1.95 11.426-2.57 17.18-2.33 21.573-.34 43.347-2.79 64.827-1.24 10.879-4.57 21.499-5.52 32.434-1.2 13.807 1.3 27.534 1.39 41.295.08 11.016-4.57 20.846-5.33 31.536-.74 10.44.86 20.97.86 32.17-2.36.4-4.45.73-6.2.94-12.77 1.5-24.12-2.54-36.51-2.56-13.59-.03-27.2 3.25-40.71 4.42-9.51.82-19.13-.11-28.62 1.14-14.17 1.87-36.81 31.18-54.26 40.06-24.31 12.38-52.04 13.33-77.8 20.4-9.32 2.56-17.69 9.97-26.49 13.93-8.54 3.83-17.31 3.9-26 6.57-10.51 3.23-12.62 22.92-16.94 30.19a89.666 89.666 0 0 1-4.24 6.45c-5.17 2.06-10.51 3.96-16.13 5.68-9.04-.24-17.7-.36-19.48-.56-20.27-2.21-39.86-8.46-60.02-10.66-11.53-1.25-23.74 1.91-35.4 1.56-18.95-.57-34.99-8.77-53.04-11.96-9.88-1.75-20.36 1.38-30.41-.17-9.74-1.5-17.09-7.31-26.2-9.91-9.16-2.63-18.71-1.91-27.78-5.64-10.4-4.28-16.31-13.68-25.95-18.66-10.16-5.23-24.39-1.96-35.45-4.14-11.13-2.19-19.24-11.06-29.97-12.97-5.51-.98-13.36 2.51-18.46 3.34-29.17 4.73-66.44-11.83-81.21 20.62-3.66-.75-6.8-1.37-8.96-1.82-14.09-2.92-27.83-8.21-42.44-6.64-9.28 1-19.36 10.47-28 13.89-9.02 3.57-19.65 4.76-28.25 9.15-8.52 4.36-15.45 13.13-23.84 18.22-27.48 16.65-155.08 37.46-176.35 44.81-7.9 2.73-10.51 8.19-15.19 11.53-.92-1.65-1.84-3.31-3-4.77-2.34-2.93-5.66-4.46-7.14-8.33-1.4-3.68 2.69-7.1 2.26-10.87-.01-.14-1.38-.75-1.41-.76-1.57-.94-3.13-1.97-4.5-3.18-3.06-2.68-6.23-9.48-7.53-13.38-.56-1.67-.05-3.54-.66-5.16-.73-1.96-2.53-3.19-2.98-5.47-.76-3.79-.37-7.72-1.15-11.48-.97-4.7-2.91-9.42-3.31-14.26-.18-2.21.48-4.38.19-6.59-.36-2.79-2.24-5.32-2.59-8.24-.24-2.02.27-5.44-.67-7.28-.61-1.18-2.15-2.08-3.05-2.98-1.38-1.4-2.7-2.84-4.04-4.25-2.62-10.87-5.43-21.78-7.99-32.73 1.6-9.06 1.98-18.36 5.64-26.91 7.9-18.43 29.74-45.91 33.36-64.15.33-1.627.54-3.247.56-4.856.17-.685.35-1.366.55-2.041 2.07-6.964 4.7-13.833 7.62-20.484 1.52-3.458 6.18-10.52 3.42-14.461-.01-.016-1.04.771-1.09.812-.72.567-1.43 1.15-2.15 1.727-1.69 1.359-3.35 2.621-5.36 3.464-.27.112-1.55 1.979-1.67 2.13-1.34 1.621-2.82 3.769-4.84 4.605-2.89 1.199-1.21-4.533-3.75-5.745-.3-.14-2.3 1.045-3.08.916-.67-.112-1.13-1.711-1.81-1.604-.77.122-2.73 1.935-3.39 2.326-.64.38-1.38.647-2.08.893-.68.242-1.53 1.658-1.96 2.174-1.74 2.108-2.97 3.609-3.62 5.785-.07.003-.13.01-.19.019-.21.031-9.24 15.235-9.94 16.513-5.26 9.617-8.86 19.587-15.9 26.857-.21-4.55-.46-9.11-.83-13.66-.22-2.7.28-12.718-1.83-15.52-3.2-4.242-8.01-6.969-13.49-8.792-4.67-8.064-9.6-13.674-22.13-15.23-1.78-.221-6.6-1.956-8.54-1.206-2.73 1.052-5.16 4.591-7.3 6.474-2.92 2.579-4.48 3.414-5.42 5.117-.5.397-.93.918-1.27 1.592-6.34 12.776-3.41 29.585-2.55 43.345.38 6.14.75 12.3 1.08 18.47-1.46 4.06-2.54 9.49-2.23 12.53.17 1.64.55 3.34.82 4.97.28 1.74-1.5 4.04-1.64 5.92-.2 2.66.63 4.93.8 7.52.22 3.3-.76 6.34-1.04 9.56-.37 4.32-.63 9.48-.22 13.85.31 3.33 1.74 7.14 1.01 10.48-.37 1.68-.94 3.35-1.32 5.04-1.12 5.05-1.72 13.93 2.02 18.92-1.9 11.83-4.66 24.59-7.99 37.09-1.38.65-2.6 1.54-3.55 2.7-7.14 8.66-8.9 17.82-13.74 27.46-2.41 4.77-6.5 8.65-8.72 13.42-1.95 4.22 1.96 9.46-.02 13.57-2.25 4.66-5.19 8.07-8.44 11.35-5.05-1.43-9.96-3.37-15.02-3.82-13.14-1.18-46.81-1.95-67.43-1.37-12.71.36-37.44 12.89-52.6 15.77-33.24 6.32-67.8 4.04-101.06 8.74-13.69 1.93-25.58 17.41-36.1 25.06-9.09 6.6-18.2 10.95-27.89 13.34-2.49-5.36-3.01-10.02-6.41-16.12-4.44-7.95-12.95-13.35-17.1-21.57-6.14-12.18-12.49-26.35-17.23-39.17-2.21-5.97-3.07-12.68-5.72-18.42-3.16-6.86-8.52-10.79-12.24-16.94-2.47-4.07-2.24-9.27-4.24-13.56-3.37-7.26-8.73-13.67-11.39-21.23-2.94-8.37-1.6-18.07-3.9-26.78-4.6-17.41-12.72-33.34-18.33-50.25-4.55-13.73-7-27.86-12.18-41.47-1.69-4.43-3.05-8.54-4.16-12.46-1.56-9.29-2.99-18.602-4.29-27.931-.3-8.162 0-16.738.27-26.99.09-3.643.01-13.269-1.28-20.426.06-.138.12-.277.17-.416.96-2.344 1.77-4.774 2.26-7.262 2.98-15.236-2.31-31.249-2.94-46.397-.44-10.653-1.29-21.55-1.02-32.19.18-7.13 1.81-14.322.4-21.415-2.11-10.634-6.36-20.446-7.8-31.304-1.2-9.051.1-18.647.36-27.718.48-16.914.42-34.239-.66-51.114-.9-14.217-3.13-28.321-4.05-42.523-.62-9.421.28-18.907-.51-28.328-.68-8.145-2.72-16.12-2.84-24.317-.19-12.083 3.46-24.235 2.7-36.179-.27-4.234-3.52-9.185-4.94-13.035-1.2-3.234-2.35-6.499-3.43-9.792-.32-3.874-.66-7.746-1.02-11.618 2.96-19.02 6.3-37.963 13.43-55.838Zm-585.123-35.182c-.321 1.6-.564 3.222-.617 4.898-.225 7.084 2.38 13.264 2.809 20.239.363 5.921-.633 11.855-.013 17.793.228 2.186 1.371 4.001 1.982 5.982l-.257 3.886c-2.024 4.655-4.281 9.274-5.141 14.338-2.649 15.585-2.147 31.554-3.237 47.284-.657 9.485-3.279 18.806-4.267 28.273-.918 8.799-.209 17.686.004 26.503.263 10.835-.009 21.985-.222 32.849-.319 16.255-2.583 32.888-4.827 48.989-1.061 7.607-6.797 13.185-9.02 20.417-2.076 6.757.514 15.082.006 22.123-.274 3.791-2.696 7.696-2.652 11.336.037 3.017 2.651 6.162 3.293 9.194 1.241 5.857 1.214 11.91 1.837 17.843.385 3.673 1.559 7.868 1.412 11.581-.114 2.903-1.041 5.845-1.379 8.737-.786 6.722-.858 13.388-1.921 20.09-.684 4.315-2.433 10.78-.589 15.215.68 1.637 1.865 3.325 3.348 4.817l-.07.782c-3.22 6.017-5.094 13.449-5.06 19.706.03 5.455.999 10.852.721 16.315-.403 7.897-2.645 15.717-3.717 23.552-1.086 7.936-.83 16.279-1.344 24.409-.581 4.227-1.18 8.462-1.801 12.702-2.247 8.538-7.903 15.986-9.204 24.867-1.041 7.108-.017 14.35-.802 21.481-.903 8.204-4.264 15.524-6.123 23.474-2.019 8.63-2.305 17.67-5.321 26.06-2.067 5.74-5.324 11.06-7.573 16.77-4.798 12.2-8.517 25.98-10.135 39.04-.595 4.81-2.103 8.93-1.699 13.39-1.388 1.72-2.883 3.38-3.824 5.38-2.768 5.89-3.363 13.04-5.936 19.23-3.233 7.77-8.542 14.5-11.922 22.21-3.058 6.98-4.225 19.35-7.629 25.35-4.124 7.26-14.55 9.57-19.948 15.87-5.969 6.96-8.338 14.48-13.327 21.96-3.6 5.4-10.373 7.8-14.276 13.14-4.785 6.55-7.98 17.98-10.594 26.78-8.673-6.25-19.625-17.15-26.079-18.06-6.512-.92-17.061 3.2-23.347 4.2-8.192 1.29-14.881-2.85-22.546-2.49-8.077.39-17.403 5.94-25.491 7.36-21.096 3.71-42.589-2.03-63.557-1.41-14.076.41-21.951 3.86-34.825 6.31-16.077 3.04-34.156.89-50.375-.36-7.69-.59-11.501-8.88-18.306-9.28-7.96-.47-19.6 4.87-27.464 5.44-17.867 1.28-29.099-2.91-41.099 4.41-10.733-73.03 30.223-88.91 27.711-170.31-1.521-49.3-21.564-93.51-25.276-141.982-3.19-41.651 15.592-84.554 9.563-125.533-8.444-57.396-29.271-92.545-29.993-160.434-.916-86.082 28.569-181.332 16.232-266.111-1.301-8.942-2.708-21.708-4.866-35.982 65.606 24.72 141.287 26.694 201.021-.48 28.921-13.157 51.885-44.623 80.115-54.825 29.983-10.835 62.835-10.883 94.039-20.86.517 1.764.982 3.271 1.373 4.468 10.735 32.892 42.752 53.73 64.52 78.859 30.755 35.501 45.979 55.715 57.685 92.215ZM717.72 1835.63c13.987-2.03 25.697-5.21 31.984-11.44 11.193-11.09 41.161-36.09 37.385-53.45-2.004-9.21-12.441-16.36-9.332-27.14.298-1.03 41.889-76 48.045-78.75 18.768-8.4 43.101-5.16 63.117-9.32 30.964-6.44 58.559-18.8 91.006-23.06 14.752-1.94 31.675 1.33 46.495.84 19.88-.67 39.16-7.12 58.9-7.43 46.22-.74 92.64-1.74 138.79-1.8 16.03-.02 31.31 4.07 47.66 2.79 56.47-4.43 117.37-6.23 172.93-17.02 4.22.19 8.45.32 12.67.37 1.31-1.35 2.58-2.71 3.83-4.08 31.39-8.22 61.68-22.15 94.11-25.52 145.02-15.05 291.56-15.02 436.85-22.45 69.38-3.55 138.28-29.15 208.39-28.73 40.31.24 73.78 15.54 112.08 21.6 17.6 2.79 35.47.27 53 4.14 16.49 3.64 29.54 14.48 46.85 16.85 53.36 7.3 80.03-5.82 121.22 7.11 5.95 16.39 11.15 33.39 19.73 50.68 31.35 63.17 96.37 125.24 85.67 197.38-22.6 17.06-47.94 38.7-66.53 54.73-2.32.74-4.73 1.5-7.25 2.27-43.89 13.42-87.52 28.23-131.86 40.06-109.34 29.17-220.06 58.18-331.77 76.77-100.62 16.74-205.39 27.46-307.22 31.63-77.53 3.18-155.71.58-233.3.56-177.56-.03-349.64-21.28-523.41-55.95-130.6-26.07-167.03-24.57-267.974-97.77-19.242-13.96-36.863-27.79-52.066-43.87Zm617.3-1408.862c-2.67.573-4.99 1.236-5.12 4.518-.11 2.758.62 5.047 1.92 6.995a786.418 786.418 0 0 1-5.68 18.996c-.8.097-1.53.332-2.09.769-2.47 1.901-2.11 5.474-.89 8.539a593.116 593.116 0 0 1-7.65 21.91c-3.05-.148-5.43 1.13-5.55 5.416-.03 1.354.19 2.709.46 4.032.14.718.36 1.433.64 2.132a532.21 532.21 0 0 1-4.32 10.498c-1.44-9.361-2.88-18.721-4.33-28.08 2.83-31.389 2.54-62.595-.32-93.932 13.52 3.261 27 6.319 40.41 9.133-2.39 9.747-4.86 19.447-7.48 29.074Zm-57.24 136.242c-2.49.772-5.05 1.368-7.46 1.98-19.11 4.828-14.4 11.025-38.28 11.976-6.96.278-13.93.436-20.89.463a41.37 41.37 0 0 0-1.12-4.807c-2.44-8.151-11.1-10.095-16.11-4.012-1.53 1.863-2.82 4.934-4.07 8.47a458.902 458.902 0 0 1-30.29-2.113c-.78-2.965-2.1-5.4-4.54-6.195-2.34-.761-4.63 2.275-5.99 4.967-5.79-.748-11.55-1.62-17.3-2.623-.1-1.343-.29-2.664-.63-3.956-1.54-5.942-6.48-5.59-9.82-1.648-.77.907-1.4 2.012-1.93 3.231-35.09-7.339-57.68-15.278-84.59-28.352-17.47-8.486-33.74-20.508-41.81-37.838.836.106 1.667.193 2.492.259 9.878.791 37.528-10.401 47.448-14.225 5.08-1.955 13.79-4.534 17.5-9.337.24-.306-3.86-4.148-4.08-4.349-7.29-6.56-10.75-6.816-19.92-5.009-13.96 2.75-26.49 6.108-40.022 5.386-1.454-.591-3.251-.894-4.299-1.35-1.606-.699-3.353-1.106-5.023-1.664-.161-4.263-.273-8.56-.651-12.982-.188-2.207-.334-12.35-4.067-12.542-1.869-.096-3.94 2.574-4.913 3.663-3.781 4.233-5.75 10.146-7.014 15.67-5.257.968-9.932 4.255-15.027 5.57-5.335 1.378-10.945-.048-16.312 1.647a34.86 34.86 0 0 0-1.006.335c-.104-.663-.21-1.325-.32-1.987-.552-3.338-1.058-12.124-6.218-12.345-2.185-.093-1.916 3.762-2.036 4.875-.529 4.914-1.058 9.826-1.585 14.741-3.606 2.399-7.044 5.086-10.759 7.53-4.029 2.651-8.125 5.196-12.248 7.697-.433-3.68-1.4-7.678-3.9-9.348-3.083-2.059-6.391 2.256-6.938 5.077-.681 3.517-1.172 7.497-1.158 11.457a992.507 992.507 0 0 0-4.665 2.803c-3.692 2.233-8.309 4.632-11.396 7.566-1.617 1.538-2.121 4.716-4.512 5.253-2.909.654-5.192-2.446-7.383-3.555-1.357-.687-3.06-.91-4.742-1.07.963-5.464.068-11.613.374-16.969.78-13.658 2.466-27.817 4.374-41.36 3.32-23.566 7.776-47.149 10.107-70.837 1.244-12.647 1.703-25.598 2.35-38.288.41-8.027-3.484-15.649-3.903-23.584-.322-6.085 1.936-12.175 2.03-18.298.104-6.852-.429-13.726-.731-20.605 30.028 13.329 57.184 31.912 90.142 38.488 32.373 6.459 65.071-14.068 94.431-4.947 37.21 11.56 66.15 37.649 103.39 48.524 22.06 20.882 44.34 36.301 60.53 41.004 7.22 2.096 14.68 4.42 22.33 6.848 1.19 5.762 2.87 11.302 4.18 17.324 2.65 12.2 2.92 24.897 5.54 37.147 3.24 15.139 9.94 28.649 11.94 44.1 2.29 17.67 6.76 34.847 10.5 52.144Zm-371.089-23.785c.533 6.767 2.431 14.065 9.647 10.538 5.739-2.804 6.964-13.065 7.198-18.577.07-1.67.15-3.336.237-4.997 6.188-5.47 12.341-11.599 18.971-16.802.455 2.916.963 5.826 1.551 8.728.704 3.479 2.028 16.517 8.4 15.622 6.71-.942 9.451-9.785 10.88-15.326 1.655-6.416.653-18.704 6.534-15.664 8.568 4.429 32.691 36.222 44.881 42.239 15.91 7.854 31.84 14.068 48.35 20.471 16.94 6.566 30.62 20.87 52.65 24.367 4.59.727 9.19 1.289 13.82 1.714-.12 2.179-.07 4.331.29 6.432.58 3.425 4.2 4.904 6.8 4.941 3.42.048 5.67-4.773 7.3-10.455 6.24.237 12.49.287 18.75.223 2.18 4.198 5.91 6.967 9.89 8.345 5.49 1.903 8.98-2.596 11.72-8.906 5.29-.194 10.58-.409 15.86-.6 5.91 17.37 5.75 42.202 2.62 58.775-1.61 8.497-5.82 15.789-6.98 24.505-1.65 12.52 1.34 25.258 1.47 37.806.13 11.322.57 23.114 2.45 34.232.74 4.402 1.85 9.924 4.86 12.826.22.208.24-1.757.27-2.161.11-1.452.33-2.864.54-4.297.67-4.482.34-9.239.25-13.759-.31-14.311-2.29-27.138-.52-41.575 1.46-11.896 5.15-23.28 6.43-35.125 1.86-17.101.3-35.756.25-52.97-.01-5.642.29-12.161.2-18.631 4.49-.113 8.96-.185 13.42-.188 27.27-.02 57.16-.719 57.83 7.706 1.11 13.768-1.2 27.48-1.3 41.251-.04 5.79 2.82 12.036 2.33 17.544-.92 10.346-4.68 20.259-4.4 30.793.19 7.312 4.55 14.178 5.61 21.407 1.71 11.653 1.87 25.837.24 37.585-1.36 9.822-6.3 18.843-7.2 28.76-1.57 17.117 1.47 34.306-.87 51.493-2.34 17.258-8.98 32.799-9.47 50.428-.22 8.055-8.28 31.002-5.66 36.827.76 1.691 2.35 2.852 4.21 3.682-1.33 12.881-2.44 25.834-3.23 38.886-.84 14.066-1.07 28.762-.88 43.932-.97.42-1.87.97-2.59 1.77-.65.73 1.48 12.89 1.52 14.62.12 5.14 1.79 10.76 1.42 15.85-.36 5.02-2.86 9.71-2.58 14.79.34 6.05 2.73 12.05 3.66 18.06 2.41 15.72-1.07 32.62.08 47.24 1.78 22.57 8.23 46.35 6.97 68.93-.45 8.14-1.63 18.25-3.73 26.27-1.15 4.43-3.99 8.85-4.13 13.5-.16 5.52 5.11 10.81 6.83 16.04 2.33 7.13-1.15 18.52-1.46 25.91-.2 4.8 1.77 9.35 1.45 14.25-6.4.63-12.75 1.28-18.09.14-11.03-2.37-21.54-5.45-31.93-9.94-15.51-6.72-29.86-22.54-48.05-21.28-21.81 1.51-28.41 24.93-59.34 27.28-16.39 1.24-36.02.61-51.7-2.53-9.31-1.86-15.52-8.31-24.15-11.34-7.69-2.7-17.11-2.46-25.23-4.04-4.95-.97-12.213 1.79-17.473 1.84-10.2.09-19.787-3.14-29.777-3.1-9.925.04-18.973 7.67-29.738 7.21-11.141-.47-18.574-13.07-29.353-12.38-18.791 1.19-42.985-.47-63.545 1.6-6.445-14-10.733-29.56-15.632-43.4-7.805-22.04-14.526-44.71-19.924-67.74.735-14.75 1.19-29.74-1.027-43.73-1.69-10.67-10.035-19.46-10.78-30.37-1.539-22.54 10.297-41.39 9.606-60.43-.483-13.303-9.786-24.585-11.138-37.576-1.166-11.207 4.076-23.324 4.649-34.832 4.926-9.226 8.333-19.328 10.032-29.292 1.027-6.025.18-12.202 1.167-18.231 1.731-10.579 4.738-21.043 6.765-31.593 2.442-12.702 7.957-30.023 1.324-42.308 2.674-4.366 2.785-10.013 4.392-14.882 1.532-4.642 5.147-9.419 6.167-14.093.967-4.435-.018-9.397-.043-13.841-.021-3.738 1.077-7.398 1.397-11.102.256-2.961-.519-5.863-.354-8.808.355-6.36 2.282-12.681 3.612-18.874 1.656-7.712 2.797-15.705 3.857-23.502 2.773-20.411 4.304-41.21 7.873-61.479 2.876-16.335 11.352-35.693 5.858-52.433 3.067-2.288 5.96-4.733 8.584-7.383 8.99-9.078 14.965-20.696 24.493-29.249 7.344-6.592 15.687-11.973 23.859-17.567ZM3056.43 325.771c-4.03 10.975-.74 24.375-.4 35.573.17 5.715-1.48 11.394-1.53 17.121-.07 8.427 2.16 16.908 2.99 25.266 1.19 12.013.67 24.086 2.28 36.133.95 7.058 1.5 14.125 2.36 21.185-10.42-2.744-17.31-16.21-23.5-24.12-11.28-14.434-18.37-31.615-29.6-46.016-3.99-5.116-9.64-8.499-13.84-13.363-3.36-3.896-4.38-9.184-7.93-13.118-4.32-4.785-10.13-8.31-13.36-13.963-5.68-9.934-10.75-19.484-19.59-27.187-.86-.748-1.67-1.55-2.46-2.375-.61-.902-1.22-1.806-1.82-2.712 17.03 2.193 33.71 6.321 50.96 6.815 18.42.528 36.92.71 55.44.761Z" style="fill:#ccc" transform="matrix(-1 0 0 1 3507.87 0)"/></svg>