<svg xmlns="http://www.w3.org/2000/svg" xml:space="preserve" style="fill-rule:evenodd;clip-rule:evenodd;stroke-linejoin:round;stroke-miterlimit:2" viewBox="0 0 3508 2481"><path d="M3507.87 0v2480.32H0V0h3507.87ZM1484.99 1996.68c15.08-.92 30.17-1.75 45.03-3.05 13.35-1.17 24.98-7.97 37.84-9.92 24.7-3.74 56.71 2.31 80.31 5.21 22.29 2.74 42.74 14.42 63.72 21 11.92 3.74 24.29 2.2 35.99 5.11 8.62 2.13 23.48 11.03 32.76 15.02 7.86 3.38 15.98 10.59 24.17 16.37 6.8 1.63 13.62 3.16 20.45 4.6 5.23-1.67 10.51-3.07 15.99-3.34 12.99-.66 25.33 3.06 37.81 5.8-.69-4.25-1.69-8.29-3.43-11.87-10.61-21.89-91.21-84.69-48.09-113.76 1.59-1.07 1.97 3.29 2.96 4.93 5.17 8.55 10.27 17.15 15.59 25.59 12.01 19.04 26.88 36.63 47.57 46.48.51.24 1.02.48 1.52.71-15.04-17.51-24.01-39.89-26.83-62.62-5.7-45.85 7.46-84.7 27.31-124.25 3.11-6.2 7.55-26.53 12.65-30.04.02-.02 2.18 3.53 2.33 3.8 4.83 8.34 8.69 17.35 12.46 26.2 16.36 38.49 17.07 50.46 3.87 87.33-14.46 40.38-.11 76.29 12.98 113.45.64.28 1.29.57 1.94.87 6.12-27.21 35.54-31.07 66.51-48.82 16.94-9.7 30.71-24.67 41.7-40.62 12.57-18.25 21.49-39.17 30.55-59.3 3.4-7.55 6.42-15.2 9.33-22.94.54-1.44 3.74-10.05 3.76-9.83 1.2 21.24-4.86 42.61-2.79 63.93 2.63 27.12 27.03 58.62 7.79 84.12-19.93 26.4-64.49 38.52-95.2 47.39-10.2 2.95-22.99 3.97-31.36 11.16 6.79-2.59 13.67-4.76 20.98-4.62 8.05.15 14.96 4.9 23.4 4.79 11.79-.17 19.58-11.21 30.94-12.34 7.25-.73 12.49 5.35 19.85 5.48 7.68.14 13.43-5.53 20.81-6.3 18.19-1.88 39.73.49 57.99.02 1.63-.05 3.25-.17 4.86-.37-1.02-10.08-.87-20.43 1.05-29.84.41-2.01 1.99 3.59 3.07 5.34 3.7 5.98 8.94 11.31 14.04 16.08 1.13 1.07 2.3 2.12 3.49 3.15 2.75-.79 5.49-1.55 8.25-2.18.36-9.78-.33-19.56-2.4-29.12-1.62-7.5-3.47-14.94-5.29-22.39-1.01-4.12-7.37-12.57-3.13-12.34 20.67 1.08 33.62 32.25 37.56 49.38 1.08 4.71 2.25 9.23 3.22 13.81 4.67-1.21 9.35-2.37 14.04-3.48 4.49-8.43 7.29-17.83 9.21-27.2 1.04-5.08 1.78-10.14 2.44-15.28.34-2.66-1.11-9.64 1-7.98 11.76 9.26 15.44 29.21 16.4 43.28.01.09.02.55.03 1.19 8.9-1.53 17.86-2.77 26.92-3.64 2.58-2.7 4.79-5.74 6.54-8.82 2.6-4.57 4.44-9.66 5.99-14.67.75-2.43-.03-8.83 2.07-7.37 6.91 4.83 12.59 17.03 14.33 29.31 2.45-.04 4.91-.05 7.37-.05 7.02-4.22 14.93-8.8 22.96-9.35 12.03-.82 23.82 4.78 35.84.94 8.01-2.56 12.89-11.02 17.93-17.09 9.26-11.13 19.59-21.64 33.25-27.04 5.08-2.01 11.31-4.44 16.87-3.16 4.89 1.12 8.89 12.58 11.1 16.11 7.33 11.69 14.22 23.65 22 35.06 6.19 9.08 11.48 15.04 18.25 15.79 8.61-11.07 15.7-23.19 20.59-36.62.74-2.02 1.43-4.15 2.09-6.36-6.09-9.88-17.04-15.52-20.31-27.88-.68-2.53-2.51-7.67-1.45-10.08.51-1.15 8.87 3.7 9.61 4.22 5.88 4.08 10.61 9.48 16.93 12.25 1.86-11.39 3.06-23.95 3.63-36.9-.4-.3-.83-.59-1.28-.88-3.45-2.14-6.77-4.51-9.55-7.5-.06-.07-2.34-2.88-2.31-2.89 4.04-2.42 8.97-2.77 13.52-4.29.06-10.87-.3-21.79-1.06-32.34-5.08-.05-8.74-2.68-14.93-3.35-1.46-.15-2.95-.17-4.42-.12-.77.02-2.33.89-2.33.11.01-3.46 7.04-10.26 8.98-13.41 2.66-4.33 6.24-8.44 9.34-12.73-1.67-10.34-3.81-19.68-6.37-27.45-2.23-6.76-5.05-13.24-8.23-19.54-.61-.57-1.24-1.1-1.89-1.61-1.79-1.39-5.54-.92-7.53-.9-1 .01-2.84 1-3 .01-.62-3.86.87-8.39 1.69-12.13.23-1.04.47-2.09.72-3.12-2.94-4.82-5.97-9.57-8.99-14.32-2.76-4.33-5.58-9-8.52-13.8-2.6-.19-5.32-.98-8.51-2.53-.7-.34-4.94-.98-5.03-1.24-1.77-5.17-.84-10.91.18-16.68-7.29-10.03-15.57-19.2-25.49-25.35-.35.77-.61 1.55-.75 2.33-.27 1.46.32 9.23-1.56 10.1-.58.27-4.32-2.78-5.16-3.38-5.2-3.64-10.54-7.9-16.63-9.94-2.6-.87-5.53-1.56-8.44-1.83-9.87 5.69-17.33 17.17-20.99 29.34.06.65.17 1.29.32 1.92 1.14 4.73 7.12 6 4.74 11.12-1.87 4.01-4.66 6-7.47 6.22.23 3.45.87 6.72 1.97 9.66 3.54 9.54 15.26 6.07 21.15 1.44 2.41-1.9 4.36-4.34 5.65-7.13.65-1.42.93-6.06 1.23-4.53 3.32 17.27-10.99 33.69-29.33 31.66-1.02-.11-2-.27-2.96-.49-4.8 2.16-10.26 2.81-15.54 1.97-.92-.14-5.92-.51-6.54-1.4-.52-.74 1.92-4.72 2.37-5.61 1.16-2.33 2.32-4.66 3.41-7.03-6.84-11.15-7.5-27.24-3.48-38.26 1.3-3.58 2.74-7.07 4.32-10.44.03-2.21 0-4.41-.1-6.6-.08-1.69-1.98-8.38-1.36-9.27 2.19-3.1 7.03-4.72 10.23-6.47 4.11-2.26 7.88-4.86 11.77-7.3 11.38-11.19 25.62-19 42.71-21.95.68-.83 1.33-1.68 1.93-2.55 1.08-1.56 5.73-11.24 7.64-11.62 7.88-1.56 17.39 10.64 21.78 15.28 1.42 1.5 2.91 2.98 4.39 4.48 11.06 5.98 20.49 15.52 28.82 26.27 2.58.6 5.24 1 7.93 1.22 3.34.27 8.72-.72 11.47.5.85.37 1.24 3.68 1.34 4.43.75 5.5-.84 11.15-2.2 16.41-.3 1.17-.6 2.34-.91 3.51 3.62 5.84 7.04 11.52 10.36 16.72 2.92 4.58 5.72 9.52 8.38 14.75.63.18 1.28.35 1.95.51 3.06.72 6.22 1.08 9.34 1.4.09.01.84.02.87.08 1.62 4.66-1.48 10.23-4.3 15.28 2.71 6.62 5.23 13.57 7.56 20.75.37-.88.78-1.76 1.22-2.62.65-1.26 1.5-2.42 2.43-3.49 4.2-4.83 6.7-3.84 10.47-2.84 3.47-3.45 7.11-6.78 10.82-10.06 1.99-1.77 4.08-3.58 6.26-5.35.21-.61.42-1.21.63-1.82.03-.09 2.94-10.89 3.63-10.96 2.12-.21 6.03 1.47 9.64 3.24 3.27-1.74 6.65-3.16 10.14-4.06 2.64-.68 5.38-.77 8.1-.61 4.25-4.22 9.48-9.21 14.18-10.22.06-.02 1.13 3.96 1.14 3.98.81 3.27 1.06 6.33 1.02 9.48 2.27.91 4.39 2.07 6.21 3.58 9.67 8.01 9.41 25.48 5.42 36.18-1.28 3.42-10.19 15.27-14.66 8.04-.12-.2 1.58-2.64 1.72-2.91 1.32-2.56 2.55-5.67 2.21-8.62-.27-2.37-1.15-4.2-2.47-5.58-2.44 2.24-5.15 4.18-7.94 5.19-.31.12-2.38-3.86-2.56-4.2-.8-1.54-1.46-3.16-2-4.82-4.74.11-9.53 1.24-12.57 2.48-5.01 2.03-9.3 4.79-13 8.11-.8 3.12-1.33 6.31-1.63 9.55-.27 3.05 1.37 8.44-.35 11.15-3.65 5.75-10.21 7.48-16.3 9.91-3.07 8.9-5.32 18.27-7.54 27.13 1.12 6.98 2.09 13.99 2.89 21 1.54.85 3.11 1.64 4.74 2.31 1.17.48 5.01 1.04 6.02 2.42 1.51 2.05.23 5.24-.72 7.15-2.3 4.62-5.29 8.51-7.93 12.78.78 13.5.88 26.71.28 39.24 4.03 11.75 7.74 25.78.83 35.09-1.76 2.37-3.86 4.44-6.1 6.39-.19.83-.38 1.64-.58 2.45-3.27 13.46-7.94 26.59-13.2 39.55 6.27.62 13.53-1.02 18.68-1.49 10.51-.96 21.51-2.66 32.13-1.5 6.83-12.58 9.79-27.56 11.38-41.7.84-7.41 1.07-14.88 1.77-22.31.29-3.08.34-12.08 1.39-9.18 5.69 15.67 5.09 34.97 5.71 51.38.43 11.27.37 20.11-.41 27.95 5.32 2.43 10.62 4.97 16.4 6.26 5.46 1.21 11.51 2.18 17.11 1.32 1.64-.25 8.96-4.2 9.34-1.36.04.32.08.64.11.95 24.08-4.04 46.09-6.4 52.35-1.35 5.58 4.51 7.2 9.77 6.4 15.05 40.3-4.71 78.77-15.51 120.7-36.58 24.96-12.54 64.99-49.91 100.77-63.42 2.22-20.02 2.73-40.24 1.39-60.3-2.04-30.77-13.62-76.04-2.01-106.72 8.95-23.67 24.24-43.22 41.05-61.79 7.59-27.75 28.52-45.46 45.91-76.23 4.93-8.73 3.06-17.89 6.59-26.38 4.92-11.84 15.92-21.55 21.42-33.59 5.48-11.98 5.24-25.89 10.9-37.49 4.21-8.64 11.29-15.72 15.94-24.12 4.34-7.84 5.9-17.06 11.08-24.43 6.52-9.26 15.99-15.48 20.27-26.52 6.87-17.73.26-38.16 3.11-56.54 3.55-22.84 14.59-44.65 19.4-67.53.33-10.37.48-20.75.52-31.13-2.15-10.1-5.09-19.12-.17-33.87-.55-51.72-1.74-103.48 6.06-154.39 4.13-26.96 12.99-51.98 23.4-76.49.57-4.99 1.19-10.07 1.66-15.38.81-9.1-2.54-18.72-1.11-27.6 1.73-10.661 8.9-18.296 12.64-28.144 4.96-13.056 7.81-27.395 13.95-39.987 5.77-11.829 16.08-20.865 21.69-33.035 6.59-14.307 12.13-32.741 14.91-48.494 1.26-7.116.73-14.935 3.1-21.834 4.36-12.702 14.3-22.535 18.37-35.487 3.91-12.42 3.75-25.16 9.05-37.318.9-2.06 1.9-4.069 2.98-6.034 2.44-15.459 5.09-32.995 7.87-51.851v-65.36c-9.44-20.559-17.4-41.622-21.92-63.75-8.84-43.354 18.5-79.16 16.66-122.035-1.43-33.445-21.88-58.709-29-90.076-6.08-26.856-.15-54.12-3.39-81.176-1.91-15.957-7.13-31.228-14.2-45.569h-76.81c-36.57 15.61-71.13 42.183-109.47 51.446-68.21 16.48-127.02-4.226-195.43 1.549-69.88 5.9-137.19 34.494-207.2 37.252-71.64 2.823-139.46-30.87-212.82-26.392-103.08 6.292-203.94 61.277-308.65 50.511-57.28-5.888-115.29-29.315-172.23-39.44-47.94-8.522-97.04-4.497-144.28-13.907-36.34-7.24-71.86-29.115-109.26-29.255-148.5-.558-298.03 10.536-446.8 9.544-48.65-.325-96.07-14.61-145.17-12.756-74.3 2.805-142.946 27.904-219.556 24.747-41.823-1.723-79.897-22.562-121.292-24.379-52.44-2.303-105.097 23.609-158.62 24.704-14.224.291-61.304-8.294-111.017-22.395-17.437 19.36-29.191 43.963-51.399 59.122-36.256 24.749-74.208 22.559-111.445 40.488-18.77 9.038-37.733 24.769-57.797 37.035-.088.329-.175.658-.261.988.722 61.193 24.294 124.403 16.238 190.794-4.503 37.112-11.686 73.622-8.445 111.203 3.042 35.275 16.854 67.467 15.431 103.558-2.043 51.772-26.543 100.828-21.723 153.341 3.916 42.682 27.847 79.042 29.719 122.772 1.808 42.24-8.99 84.86-12.686 126.91-5.35 60.87-4.224 127.96-.793 189.36 1.962 35.1 18.076 67.49 23.94 101.82 5.99 35.07-.85 73.04-3.323 108.28-5.632 80.24-32.041 99.02-62.431 125.99v119.77a914.528 914.528 0 0 1 23.056 11.68c44.217 23.37 86.157 50.98 130.94 72.55l1.954.12a.637.637 0 0 1 .02-.07c3.47-11.98 11.472-19.59 12.441-32.69 1.305-17.63 10.632-34.63 9.016-52.23-3.34-36.38-19.003-73.1-13.466-109.97 2.756-18.35 31.949-23.2 33.575-41.75 1.121-12.78-3.415-26.27-5.281-38.83-2.076-13.97-2.574-28.53-.592-42.6-16.124-17.76-20.866-34.5-33.948-58.66-25.586-47.24-55.566-109.08-63.459-161.57-5.84-86.3 26.609-168.44 85.525-226.87 10.274-27.66 19.745-55.77 24.277-84.87 2.407-15.46 3.492-31.06 5.908-46.52.533-3.41 1.214-6.87 2.571-10.06.143-.34 1.574-3.43 1.898-3.32 1.372.48 2.768 5.59 3.029 6.39 2.565 7.86 3.745 16.27 5.024 24.41 3.062 19.47 3.06 39.21.859 58.78-.836 7.42-2.345 14.72-3.601 22.07a292.764 292.764 0 0 1 47.629-26.6c2.667-5.89 4.792-12.07 6.902-18.1 6.163-17.6 12.164-35.62 14.212-54.24 1.002-9.11 2.505-18.24 2.981-27.4.308-5.92-.151-13.89 3.057-19.092.269-.437.576.852.847 1.282.532.85 1.002 1.74 1.443 2.65 1.354 2.76 2.367 5.67 3.319 8.59 3.005 9.22 3.854 18.55 4.838 28.17 1.017 9.93.275 19.23-.873 29.09-1.434 12.31-3.798 24.66-4.737 37.04 4.514-1.41 9.085-2.72 13.711-3.93 73.972-7.54 107.371-77.02 107.371-77.02s2.111 10.31-.832 13.9c-11.976 14.61-4.732 14.75-21.022 29.76-7.674 7.07-68.068 57.21-76.721 60.31-2.206 5.2-.805 11.42 4.798 16.11 7.054 5.91 16.154 7.03 25.046 8.02 13.155 1.46 26.433.83 39.643.81 4.093-.01 8.184.24 12.277.08 1.296-.05 2.592-.07 3.888-.11.18 0 2.124-.08 2.125-.07.124 2.42-11.759 8.8-13.4 9.83-8.337 5.26-12.177 3.53-21.849 4.16-3.922.26-7.857.36-11.793.41-.279-.09-.559-.17-.839-.25-2.282-.04-4.563-.25-6.834-.38-6.607-.36-13.096-.91-19.68-1.62-8.507-.93-17.312-1-25.73-2.51-9.632-1.73-18.989-4.8-28.324-7.66-3.022-.93-6.076-1.78-9.145-2.57-7.69.02-15.334.5-22.706 3.16-3.729 1.35-7.387 3.49-10.753 5.91-.111.16-.22.31-.325.47-1.586 2.41-3.852 14.81-4.155 17.02 7.044 1.94 14.502 3.36 22.035 4.29 1.147-.03 2.294-.06 3.441-.11 7.744-.29 15.513-.06 23.248-.42 4.683-.22 31.251-1.06 32.364-1.2 1.148-.14 5.116-.18 4.348.69-1.569 1.77-8.398 6.09-10.113 7.96-1.096 1.19-2.437 2.35-3.848 3.17-2.936 1.7-5.764 2.86-9.012 3.95-4.499 1.5-9.349 2.4-13.961 3.42-20.828 4.62-44.078 7.41-65.562 7.02-4.256-.08-9.643-.86-15.07-1.22-.111.16-.209.31-.292.43-2.988 4.49-4.549 9.64-7.558 14.05 8.866.27 17.119.9 28.134 6.39 3.455 1.73 7.951 3.28 10.193 6.65 5.542 8.33-6.44 16.9-11.74 21.5-6.517 5.65-11.348 13.53-17.931 18.75-4.018 3.18-20.799 10.5-23.075 11.29 1.28 2.05 2.893 3.99 3.605 6.17.889 2.72.213 5.61.377 8.32.928 2.11 1.952 4.26 3.061 6.43 1.864 2.01 4.182 3.77 5.727 5.75 1.537 1.97 2.01 4.64 3.111 6.85.207.41.447.82.711 1.22 5.716-19.88 31.976-39.75 42.472-36.52 10.815 3.33 21.534 44.25 21.958 58.32.185 6.15-3.224 13.03-4.067 19.11-.467 3.37-.911 6.76-1.581 10.08 10.265-4.16 8.234-6.91 17.341-14.32-.791-10.79.238-39.93 2.029-56.18 1.542-13.99 2.789-29.7 8.716-41.3 5.915-11.58 18.021-26.84 26.841-28.31 8.821-1.47 20.945 15.27 26.08 19.49 14.996 12.33 30.717 22.53 41.613 39.1 3.534 5.37 4.407 11.72 6.75 17.62.18.45.363.9.546 1.35 12.369-3.34 11.474-3.48 24.167-6.14-.294-9.77-.405-18.44-1.559-28.07-1.083-9.03 13.916-40.17 15.928-44.85 5.182-12.05 7.488-21.06 12.255-30.19 4.557-8.73 13.159-23.98 16.351-24.6 3.193-.62 6.952 10.11 10.803 14.88 4.65 5.76 11.415 13.14 17.094 19.66 11.787 13.55 21.911 28 30.731 43.61 3.533 6.26 8.034 12.4 9.564 19.54 1.076 5.03 1.026 10.34.523 15.63 7.411-.09 14.801.03 22.157.36.712-3.4 1.261-6.81 1.574-10.2.981-10.62.406-22.03 3.904-32.23 3.246-9.46 14.478-17.27 20.87-24.39 13.237-14.76 24.105-30.75 37.488-45.33 7.654-8.35 22.891-16.78 29.32-18.25 4.292-.98 7.741 5.8 9.255 9.42 3.287 7.86 6.606 15.75 9.124 23.88 1.323-.83 2.627-1.66 3.906-2.48 6.301-4.05 20.765-14.46 25.92-13.88 5.155.59 4.253 14.32 5.009 17.38 2.219 8.98 4.474 17.69 5.906 26.86 2.212 14.15 1.46 26.12 1.395 40.3-.027 5.87 1.644 12.07-.418 17.72-5.111 13.98-18.433 26.62-29.72 37.85 12.177 4.16 24.202 8.79 35.643 14.05 8.514-20.44 13.372-43.51 27.082-61.29 6.845-8.88 20.526-12.43 30.199-17.29 15.163-7.62 29.373-16.24 43.513-25.57 8.95-5.9 21.92-17.72 29.71-16.31 7.78 1.42 15.38 18.62 17.01 24.81 3.38 12.83 6.72 25.54 9.83 38.38.64-.39 1.29-.78 1.94-1.15 2.79-1.62 5.7-3.04 8.54-4.57 6.47-3.51 21.66-13.82 28.07-10.49 6.4 3.34 9.38 23.24 10.37 30.49 3.96 28.77 4.88 57.53 5.72 86.54.32 11.04 1.11 22 1.08 33.06-.03 9.02.38 18.47-1.93 27.27-3.03 11.52-10.02 21.24-15.79 31.49-5.32 9.41-10.61 18.83-15.96 28.21 5.02 5.37 10.05 10.73 15.12 16.06 3.75-3.64 7.48-7.31 11.19-11 7.38-7.39 14.81-14.72 22.13-22.18 5.4-5.52 10.76-11.09 16.07-16.71 4.35-4.61 8.58-9.39 13.05-13.9 3.01-3.05 5.94-6.15 8.81-9.33 5.51-6.11 12.21-11.06 17.61-17.24 3.63-4.14 6.74-9.78 11.83-12.25 3.41-1.66 9.06-.17 11.82 2.02 3.09 2.46 3.47 8.38 3.69 11.94.66 10.52.55 21.04.53 31.57-.01 6.34-.07 12.6-.48 18.84.32-.43.64-.87.95-1.31 1.41-2.1 2.73-4.26 3.86-6.48 4.72-9.23 6.82-18.74 15.74-24.88 3.17-2.18 6.41-3.45 10.35-3.09 3.2.3 4.25 5.86 4.86 8.2 2.57 9.79 2.31 19.77 3.63 29.74 1.11 8.46 2.43 16.92 2.96 25.45 1.07 17.02.44 34.13.22 51.16-.21 16.32-.37 32.77-1.8 49.03-.03.37-.08.67-.16.88.71 4.81 1.65 9.62 1.96 14.45.89 14.06-1.05 28.25-6.34 41.33-2.54 6.27-5.43 12.43-9.7 17.67 1.79 5.97 4.83 11.27 8.58 16.46 3.32-.24 6.64-.49 9.96-.77 6.22-.53 17.26-4.08 23.07-.69.69.4.64 9.07.73 9.78.93 7.16 2.28 14.23 3.45 21.34 5.26-4.48 10.13-9.47 14.5-14.81 1.58-1.92 4.57-9.04 6.61-8.89 2.04.15 3.78 6.65 5.64 9.78 1.6 2.69 4.84 5.99 7.87 9.51 1.73-2.84 4.32-6.42 6.81-6.52 2.82-.12 7.69 2.41 10.08 3.16 6.66 2.11 13.19 4.66 17.56 9.19 8.18-11.4 9.1-29.32 19.79-50.15 13.51-26.34 32.88-45.77 54.65-64.85 24.78-21.73 50.71-52.98 85.92-24.81 24.38 19.52-4.61 57.34-8.56 78.42-4.07 21.67 2.16 45.39-6.22 66.19-11.69 29.05-35.33 24.49-51.41 45.16-3.18 4.1-5.83 8.06-8.12 11.95-.24 2.02-.65 4.01-1.5 5.88-1.69 3.71-4.14 6.97-6.53 10.27-4.4 10.27-7.88 20.34-13.96 31.06-.87 2.91-1.67 5.93-3.24 8.47-2.67 4.31-6.14 7.34-9.85 10.11-4.91 5.72-10.9 11.71-18.38 18.07-.4.34-.81.68-1.22 1.02-2.34 3.62-4.66 7.27-7.7 10.25-4.05 3.98-9.8 5.45-14.77 7.84-2.33 1.13-4.63 2.29-6.93 3.45-6.36 4.1-12.98 8.08-19.82 11.9-.41.65-.85 1.32-1.42 1.96-3.25 3.69-7.24 6.33-11.85 6.92 1.16 1.52 2.05 3.17 2.31 4.97.41 2.87.44 6.03.23 9.03 3.55 7.38 8.48 13.64 14.88 18.8 2.25.66 4.44 1.37 6.4 2.42 2.28 1.21 3.91 3.21 5.59 5.15 6.67 3.26 14.36 5.77 23.14 7.52 1.73.35 3.41.68 5.05 1 2.51.21 4.98.52 7.37 1.1 1.35.32 2.65.73 3.93 1.21 13.35 2.89 23.81 6.17 34.43 13.91 3.93 1.18 7.28 3.04 8.25 6.91 2.3 2.18 4.65 4.6 7.06 7.32 1.27 1.42 4.45 4.11 6.91 6.73Zm-970.367-60.43c2.304-.36 4.602-.73 6.893-1.12 29.384-4.91 61.924-15.04 92.582-12.54 3.87-2.01 7.885-3.82 12.092-5.41 23.235-8.77 23.744-6.55 47.599 1.33 8.103 2.68 17.623 1.44 25.313 4.92 18.459 8.34 33.379 22.33 53.748 27.47 20.772 5.24 42.62 4.73 64.051 5.48-7.991-9.85-12.975-27.66-17.218-44.09-23.094-4.78-46.404-10.68-70.807-17.19-15.148-4.05-32.842-4.08-47.202-10.17-59.262-25.12-67.572-95.73-101.865-142.88-.936 7.26-1.768 14.53-2.409 21.82-1.525 17.35.77 43.73-8.91 59.82-16.751 27.85-83.676 37.71-84.285 78.04-.231 15.25 15.192 27.39 30.418 34.52Zm528.927 66.7c10.47-.07 20.94-.64 31.4-1.43 5.66-3.11 12.7-8.23 18.58-7.93 5.27.26 9.82 2.9 14.5 5.05 19.28-1.71 38.56-3.15 57.85-2.56 19.07-2.86 38.21-5.41 57.98-3.69 15.19 1.33 30.32 9.03 45.53 11.29 18.69 2.76 39.18.87 57.9 2.39 2.92.24 5.9.53 8.91.83-18.8-5.58-37.49-12.73-44.6-19.57-.74-.72-1.48-1.45-2.2-2.21-.7-.24-1.39-.51-2.07-.84-4.12-1.98-5.31-5.06-5.69-8.61-6.78-9.4-12.54-20.54-17.67-31.78-.86.2-1.73.4-2.59.59-1.47.95-3.41 1.19-5.46 1.2-5.62 1.18-11.22 2.23-16.78 3.13-2.08.87-4.2 1.62-6.52 1.85-1.42.14-2.84-.02-4.25-.29a292.49 292.49 0 0 1-25.45 2.15c-2.34.88-4.98 1.52-7.2 1.67-1.45.1-3.02-.3-4.47-.43-3.16-.27-6.78-.43-9.85-1.34-7.69-.39-15.15-1.18-22.35-2.41-1.06-.18-2.11-.37-3.15-.58l-.54.03c-3.16.22-6.3.69-9.33-.52-2.12-.84-3.8-2.28-5.46-3.74-4.14-1.42-8.2-3.03-12.23-4.76-1.4-.09-2.72-.31-3.8-.99-.78-.48-1.51-1.06-2.21-1.68-5.94-2.73-11.82-5.65-17.71-8.54-2.19-.21-4.37-.53-6.1-1.36-1.01-.48-1.45-1.81-2.24-2.68-.77-.36-1.55-.73-2.32-1.09-1.21-.21-2.47-.27-3.5-1.52l-.12-.15c-9.57-4.33-19.34-8.12-29.64-10.47-1.76.03-3.52 0-5.29-.13-2.36-.18-4.67-1.1-7-1.91-.66-.07-1.32-.12-1.99-.18-3.61-.29-7.23-.39-10.86-.34-.16.04-.32.09-.48.13-2.42.69-4.69 1.9-7.28 1.73-1.23-.09-2.23-.67-3.23-1.28-1.92.17-3.85.37-5.78.6-.32.44-.65.86-1.04 1.17-1.21.97-5.11 1.5-6.45.6-.25-.16-.42-.39-.55-.65l-.11.02c1.31 10.54 2.73 21.81 4.83 32.87 3.14 5.37 6.39 10.75 8.09 16.52.93 3.14-.33 6.09-1.44 9.05 4.7 13.33 11.4 24.98 21.43 32.79Z" style="fill:#333"/></svg>