<svg xmlns="http://www.w3.org/2000/svg" xml:space="preserve" style="fill-rule:evenodd;clip-rule:evenodd;stroke-linejoin:round;stroke-miterlimit:2" viewBox="0 0 3508 2481"><path d="M3507.87 0v2480.32H0V0h3507.87ZM2852.6 269.854c-11.86-3.579-23.98-6.741-36.84-8.528-30.34-4.214-59.77 7.582-91.69.956-22.34-4.638-44.57-10.698-66.79-17.132 1.81 7.688 3.36 15.428 4.45 23.275 26.59 23.901 51.16 53.786 76.53 82.884 6.4-4.706 14.86-5.263 17.21 5.21.99 4.416.42 8.871-.94 13.117 6.46 7.112 13 14.086 19.68 20.816 4.61-4.492 9.71-7.026 14.44-3.305 5.97 4.697 6.23 13.394 4.54 21.326 5.99 5.319 12.11 10.384 18.38 15.128 1.48-2.477 2.92-7.399 6.07-5.29.4.266.77.553 1.11.859-.43-8.341-.89-16.731.4-25.001 2.19-14.074 9.39-27.308 12.94-41.025 1.11-4.294-.11-9.014 1.04-13.45.45-1.753 1.69-3.461 2.71-5.187.47-2.024.97-4.049 1.51-6.076-.15-5.886-1.72-11.656-.61-17.644.82-4.398 2.3-9.107 4.6-12.933 1.75-2.904 4.8-5.726 6-8.889 1.37-3.622 1.2-7.947 2.3-11.738.74-2.51 1.78-4.97 2.96-7.373Zm-311.96 81.045c-20.4-16.524-41.31-33.423-62.6-51.177a414.44 414.44 0 0 1-11.13 1.562c4.65 6.649 9.56 13.521 16.74 19.841 13.87 12.199 31.76 23.86 49.72 28.325 2.11.523 4.58.986 7.27 1.449ZM288.531 313.616c-.423 8.39-.87 16.781-1.305 25.172.106 5.276.2 10.537.266 15.776.347 27.716 3.75 55.376 4.263 83.07.452 24.396-1.8 49.241 1.809 73.496 5.798 38.959 19.167 76.204 26.641 114.578 3.342 17.163 2.433 34.502 4.694 51.764 1.569 11.973 6.023 24.073 5.612 36.26-.822 24.396-8.651 50.715-16.871 75.171 13.435 31.2 5.05 33.033 3.011 68.837-2.162 37.956.07 75.836.321 113.638.097 14.573-4.134 28.852-4.331 43.402-.262 19.31 2.954 38.75 3.682 58.09.981 26.03-1.994 49.76.656 74.95 2.056 3.62 4.007 7.3 5.811 11.04 5.471 11.35 6.603 24.81 11.685 36.56 24.772 57.28 24.815 66.07 20.646 114.63 8.657 25.35 19.364 50.8 21.429 76.73.274 3.43-.111 7.49-.892 11.97 1.444 4.06 2.853 8.14 3.028 12.23.338 7.9-4.668 15.8-5.715 23.6-.845 6.29 1.802 11.74 2.055 17.86.272 6.62-1.852 13.1-1.767 19.74.099 7.67 2.864 15.39 4.428 22.81 2.606 12.38 4.738 24.47 5.796 37.08.919 10.97-1.225 21.57-.319 32.47.658 7.91 4.669 15.96 4.346 23.87-.325 7.92-4.15 15.93-3.391 23.89.537 5.63 5.003 10.53 7.612 15.27 5.631 10.23 11.078 21.29 14.437 32.49 2.837 9.46 3.128 19.13 4.456 28.82.702 5.12 2.865 10.3 2.849 15.52-.024 7.29-3.123 13.93-1.967 21.37 3.077 19.82 19.684 34.32 28.037 51.95 3.48 7.35-.01 15.82 4.301 22.97 2.847 4.72 6.599 8.78 10.643 12.5 3.14 2.9 8.472 4.83 7.222 9.42-.567 2.07-1.774 3.95-3.385 5.63 1.823 2.29 3.221 4.37 4.075 6.16 11.408 23.99 11.592 50.94 24.946 74.65.823.42 1.653.87 2.493 1.34 9.577 5.35 13.623 17.05 23.37 22.08 4.191 2.15 8.456.85 12.27 2.36 6.19 2.45 10.63 7.88 17.189 10.4 8.305 3.2 70.777 10.21 76.492 10.9 10.709 1.29 26.129 4.3 36.494 2.28 10.59-2.05 22.306-10.6 32.779-10.85 2.941-.07 20.911 18.34 34.835 19.9 11.576 1.3 21.903-3.49 33.217-2.82 11.483.69 23.089 1.04 34.607 1.98 8.083-.91 15.929-.78 23.157 1.27 5.024 1.42 9.916 2.99 14.693 4.69 5.064-1.25 9.898-4.88 14.71-3.83 8.802 1.93 16.825 9.32 24.754 13.45 7.622 3.97 16.38 5.93 23.804 10.1 9.525 5.36 17.332 13.09 27.157 18.02 9.579 4.81 21.573 1.97 30.38 6.63 9.705 5.13 13.841 15.71 24.995 20.15 14.274 5.69 30.909-.11 44.379 5.27 7.33 2.92 13.96 8.29 21.11 11.75 12.4 6.02 26.23 9.25 38.44 15.57 7.54 3.91 13.75 10.57 21.13 14.91 7.84 4.62 24.99 12.68 40.62 19.77 5.06-2.51 10.21-5.02 15.7-5.79 16.91-2.39 34.08 2.09 51.2 3.48 3.86-.78 7.81-1.15 11.87-.95 1.94.1 3.86.24 5.78.43 10.23-1.95 19.85-6.4 30.07-6.35 8.32.04 16.74 2.46 25.11 2.77 23.99.87 47.5 1.04 71.38 4.3 7.39 1.01 14.14 4.72 21.67 5.7 12.88 1.67 25.28-3.29 37.38-1.95 26.58 2.96 56.19 9.76 83 8.94 19.28-.58 32.46 7.58 47.31 13.29 22.67 3.06 46.72-1.03 67.36-10.75 8.32-3.93 15.83-9.35 24.76-11.54-4.43-1.74-8.74-4.23-12.91-7.96-17.28-15.5-1.94-47.95-31.89-55.59-15.45-3.94-59.21 35.77-68.77 21.01-6.68-10.33 45.08-57.78 67.08-51.83 49.56 13.42 78.62 50.08 106.1 89.07 5.77-9.73 11.46-20.22 14.47-32.06 2.97-11.66 4.9-23.89 5.39-35.93.23-5.61.3-11.23.21-16.84 0-.22-.14-4.71-.1-4.71 13.53-1.04 24.45 25.94 25.65 35.5 1.97 15.6-6.76 28.55-10.21 43.2-3.99 16.98-1.54 35.47 4.49 52.55 19.73-29.95 37.31-19.37 71.26-41.37 7.35-4.77 13.29-11.1 18.51-18.08 2.55-3.42 3.5-11.68 7.55-10.33 3.67 1.22.84 25.92.46 30.59-1.38 16.96-11.43 28.53-22.41 40.58 19.1-5.83 35.94-3.04 59.25-7.3 10.34-1.89 34.7-8.5 43.38-4.5 4.87 2.25 11.86 5.41 15.77 8.81 3.03 2.64 4.71 9.11 8.9 10.58 13.89 4.88 29.63 4.63 43.45 9.98 8.24 3.19 15.59 11.04 24.3 13.96 13.23 4.43 27.12 1.07 40.29 4.03 4.31.98 2.07 8.16 10.06 8.36 6.53.17 12.2-1.44 18.56-2.13 1.17-.13 10.26 4.82 10.49 4.87 8.03 1.91 15.92-.26 23.88.35 3.51.27 4.21 6.39 8.99 6.86 3.93.38 13.98-2.77 17.07-1.07 3.61 1.99 3.49 4.17 8.05 5.84 6.03 2.21 12.38.43 18.51-.15 3.41-.32 8.74 5.03 13.58 4.73 9.32-.56 16.86-4.78 25.66-6.77 6.12-1.39 13.01.39 19.41-1.37 6.74-1.85 15.81-8.13 22.46-9.27 10.1-1.74 20.74.64 31.42 2 8.07-1.24 16.16-2.32 24.27-3.17 2.29-.24 4.63-.41 7.02-.53 4.38-1.89 8.65-3.9 13.78-4.9 13.38-2.6 27.23-2.54 40.53-5.35 7.23-1.53 13.68-7.01 21.27-7.09 6.38-.07 12.49 2.59 18.7 4.5 3.43-2.76 6.86-5.48 10.64-7.59 4.28-2.4 8.47-3.75 12.57-5.24 4.98-3.56 10.17-6.94 15.98-9.67 9.09-9.53 14.92-25.76 26.42-32 5.06-2.75 11.28-.45 16.62-2.17 10.39-3.35 20.89-9.18 30.83-13.72 10.74-4.91 15.27-16.87 26.51-19.62 5.77-1.41 11.79-1.77 17.85-1.95 28.76-37.64 56.05-78.56 110.54-68.53 2.1.38 4.2.81 6.29 1.28 1.24-1.09 2.44-2.23 3.55-3.47 7.73-8.58 12.07-19.42 20.46-27.76 8.58-8.52 19.18-15.04 25.92-25.39 9.78-15.01 3.96-43.34 7.69-61.62 10.57-51.75 30.54-100.92 33.49-153.93 2.53-45.47-3.48-91.09-7.17-136.45-4.89-60.22-6.48-122.65-2.04-182.71 1.22-16.54-10.43-30.47-8.47-47.49.78-6.8 2.8-13.28 5.12-19.66-.1-3.8.01-7.47.35-10.92.97-9.93 4.81-20.83 4.16-30.78-.31-4.66-4.83-7.7-6.73-11.77-2.06-4.39-1.06-13.96-.87-21.39-.63-3.37-1.03-6.8-1.25-10.29-1.94-5.33-5.48-9.8-5.74-16.19-.48-11.55 1.98-22.47 3.34-33.8.74-6.19-1.99-12.82-1.78-19.2.14-4.12 2.05-8.1 1.89-12.24-.75-18.79-7.59-36.99-8.55-55.66-.75-14.58 5.3-28.14 2.58-42.87-3.22-17.35-15.87-34.11-15.93-52.12-.04-11.73 7.03-21.13 8.55-32.22.87-6.29-2.47-12.61-2.82-18.898-.42-7.541 4.96-13.162 11.22-17.215-8.05-25.812 6.5-36.607 12.64-68.091.48-2.451 5.47-3.639 12.11-4.041 1.17-4.141 1.72-8.558.52-12.573-2.56-8.543-9.22-13.468-8.15-23.246.73-6.714 2.9-13.111 3.16-19.915.24-6.349-1.72-12.699-1.1-19.004.58-5.902 3.21-11.419 4.03-17.295.67-4.859-.2-9.918.85-14.692 1.19-5.419 3.6-10.235 4.14-15.881.27-2.882-.45-5.792-.12-8.628.38-3.264 1.96-6.435 1.47-9.801-.77-5.325-2.4-10.206-2.62-15.679-.27-6.786.14-13.558.48-20.331-1.77-10.612-1.96-20.174-1.03-29.741-.31-2.719-.58-5.44-.69-8.17-.27-6.537.65-13.22.73-19.769.08-6.384-.33-12.934.76-19.263.97-5.627 3.07-10.836 4.64-16.301.91-3.134.92-8.32 1.75-12.569-1.29-6.991-2.55-14.405-2.28-24.301.06-1.916.18-3.837.37-5.761-14.52-23.769-30.2-45.601-46.88-66.066-11.07-1.673-12.25-6.112-9.32-11.167a688.135 688.135 0 0 0-19.51-21.887c-4.57 3.048-9.44 4.75-13.71 2.625-7.25-3.619-5.11-10.638-.51-17.522-9-9.177-18.22-18.135-27.64-26.943-1.99 19.848-5.83 39.644-5.71 59.657.08 14.597 1.65 29.379 6.23 43.301 4.41 13.407 11.82 24.914 14.29 39.09 3.96 22.731-1.98 46.065-4.91 68.548-2.73 20.986-5.58 43.14-1.94 64.206.78 4.501 2.1 8.851 3.72 13.113 5.25 13.81 16.74 46.931-6.2 53.524-1.36.391-3.14.629-4.52.474-.23-.026 1.4-11.41 1.53-12.471 1.03-8.41.43-17.379-1.47-25.605-5.04-21.831-11.66-41.279-11.67-64.109-.01-24.664 7.44-49.415 4.07-74.013-1.52-11.071-5.7-21.681-7.93-32.63-4.45-21.838-6.88-45.166-7.6-67.392-.88-27.487 2.48-54.846 3.93-82.31-19.99-17.887-40.8-35.317-62.26-52.896-.08 2.761-.06 5.528.1 8.305 1.15 19.993 8.98 38.52 10.83 58.256 1.89 20.226-1.92 41.017-1.22 61.414.56 16.451 5.1 32.396 5.59 48.815.77 25.836-2.64 51.708-6.09 77.251-1.5 11.066-3.51 22.413-3.29 33.613.33 17.418 3.66 34.14.32 51.465-.97 5.005-5.41 23.231-8.7 24.233-1.43.433-.24-2.974-.35-4.461a249 249 0 0 0-.8-8.627c-.95-8.596-3.29-16.888-4.52-25.419-2.45-16.849-3.51-33.75-.87-50.67 4.13-26.415 13.53-52.159 10.48-79.251-1.34-11.876-5.51-23.038-6.18-35.071-1.53-27.443 1.95-54.534-1.3-82.044-2.24-18.943-12.18-36.02-13.06-55.106-.43-9.324.15-18.602.99-27.869-10.31-.031-21.91-1.802-30.93-3.503-38.68-7.29-66.18-28.256-78.96-64.015-54.01 3.837-106.99-2.707-159.37-15.444-14.71 4.58-29.65 8.177-45.39 8.779-46.49 1.78-87.79-14.366-133.05-15.824-21.52-.693-42.89 1.664-64.28 1.548-11-.06-22.62-4.766-33.34-6.713-9.38-1.703-21.34-1.548-30.27-5.19-11.54-4.707-20.73-17.333-31.45-24.042-5.46-3.415-11.07-6.564-16.79-9.519-23.26 10.356-45.8 22.539-67.65 39.329-18.33 39.035-32.72 84.9-65.27 93.281-28.54 7.347-48.33-17.78-75.49-17.539-32.54.288-59.95 15.999-93.71 9.38-33.53-6.575-59.04-32.905-84.9-36.71-10.16-1.495-20.25-2.342-30.25-3.083-14.89 33.013-38.28 60.379-78.96 61.021-17.63.277-27.1-6.799-44.33 2.499-20.42 11.018-39.14 27.21-61.34 34.675-15.48 5.209-35.39-2.015-50.94-1.34-49.61 2.154-95.77 20.977-146.86 14.611-11.66-1.452-19.95-9.523-30.99-12.093-18.28-4.253-36.43.08-54.57-2.268-8.73-1.13-15.05-8.477-23.61-9.708-31.133-4.473-52.187 26.273-80.727 23.775-13.341-1.168-21.399-12.524-33.329-15.697-29.955-7.966-63.608-10.567-94.307-14.511-31.264-4.017-64.371-10.569-95.555-11.561-35.031-1.113-227.399-28.712-261.596-43.722-15.144-6.648-21.314-23.673-26.194-44.868a367.783 367.783 0 0 0-5.451-1.992c-.821.515-1.604.985-2.348 1.407-41.007 23.294-89.168 23.858-133.002 11.577ZM2948.95 631.697a147.005 147.005 0 0 1-7.58 19.861c.93.902 1.81 1.852 2.65 2.851 2.91 3.446 6.81 7.596 8.34 11.981 1 2.858-.32 6.947-.22 9.899.12 3.807 1.63 7.383 1.64 11.21.02 4.127-.68 8.217-1.01 12.325.52 3.063.83 6.174.86 9.352.37 1.127.75 2.251.98 3.412.73 3.678.53 7.308 1.55 10.979 1.07 3.894 3.24 7.59 2.79 11.744-1.31 12.312-6.25 24.744-9.27 36.762-.83 3.308-.6 7.188-1.19 10.694 1.58 4.501 3.08 9.05 3.55 13.75.27 2.722-.98 5.539-.86 8.326.14 2.949 1.27 6.06.94 9.006-1.72 15.638-6.31 30.88-9.03 46.395-.51 2.906-1.18 6.293-.79 9.243.37 2.821 1.52 6.011.97 8.906-1.98 10.365-7.61 19.671-9.03 30.121-.4 2.95.73 5.581.52 8.426-.41 5.319-2.18 10.324-2.14 15.731.03 2.71 1.1 5.238.89 7.969-1.28 16.29-3.74 31.915-3.61 48.302.11 13.798 5.44 26.508 3.51 40.338-.62 4.47-1.24 8.93-1.78 13.41 10.99-23.49 26.32-43.954 43.19-65.177.69-.961 1.31-1.97 1.79-3.083 2.41-5.551.71-12.897 4.32-17.756 1.93-2.595 4.71-4.451 7.07-6.603 2.31-2.104 3.51-4.832 5.48-7.068.41-1.981 1.19-3.435 3.01-3.447.38-.003.8.027 1.25.087 1.35-.842 2.72-1.66 3.9-2.755 2.56-2.353 4.3-5.869 6.93-8.221 2.15-1.928 4.96-2.825 7.11-4.925 4.27-4.196 2.19-8.189 3.75-13.914.93-3.385 2.51-3.027 4.51-5.101 5.13-5.312 4.87-7.715 12.01-5.694.43.121 2.67.719 3.33.94 2.39.806 6.21 1.854 8.27 3.422 2.59 1.959 1.01 8.081.83 10.543-.53 7.039-1.77 14.323-3.82 21.1-1.12 3.701-3.38 6.885-4.26 10.699-1.57 6.857-1.29 14.011-4.01 20.61-1.2 2.908-3.05 5.548-4.97 8.155-1.57 7.562-5.16 14.93-8.45 22.137-.08 3.179-.2 6.361-1.16 9.491-1.12 3.66-4.15 6.35-5.68 9.77-.35 1.43-.67 2.86-.97 4.29-.28 4.4.76 8.96.83 13.32.12 6.59-1.76 13.73-5.24 19.28-2.37 3.78-5.83 6.42-9.52 8.82-4.29 6.19-9.46 11.72-14.93 17.01-2.06 3.56-3.88 7.52-6.42 10.55-1.34 1.59-3.64 1.79-4.91 3.45-2.93 3.85-5.52 9.82-9.02 13.05-1.7 1.56-4.53 1.04-6.27 2.72-1.93 1.88-6.13 5.62-7.21 8-1.01 2.24-.77 4.89-1.9 7.13-1.92 3.79-4.97 6.47-7.29 9.91-2.15 3.19-2.15 7.66-3.84 11.12-.97 1.99-2.7 3.24-3.83 5.06-.26.42-.52.85-.78 1.29a321.81 321.81 0 0 0-2.92 8.25c2.33 3.3 4.52 6.84 5.19 10.27.58 3-1.35 7.44-1.6 10.53-.46 5.67.05 11.38-.36 17.01-.29 3.98-1.53 7.68-1.51 11.75.02 5.65 2.99 10.34 3.82 15.8 1.68 11.09.79 22.33 1.2 33.49.2 5.63 1.83 11.1 2.16 16.73.24 3.93-.87 8.72-.16 12.5.69 3.67 3.18 7.6 3.18 11.37 0 4.62-2.41 8.97-2.26 13.69.45 14.49 4.9 29.13 4.7 43.65-.05 3.49-.58 6.85-1.02 10.21.67 6.51 1.37 13.01 2.08 19.51 2.07 4.96 4.82 9.61 6.13 14.77 2.36 9.36 1.7 19.78 3.55 29.39.9 4.74 3.91 8.75 4.91 13.41 1.07 5.03.17 10.26.85 15.33 1.28 9.55 3.28 18.67 3.37 28.36.04 3.93-1.15 7.72-1.49 11.61-.69 7.86 3.35 16.02 4.23 23.78.8 7.01.14 14.64 2.23 21.46.98 3.2 4.04 5.53 4.88 8.63 1.23 4.59.88 9.22.64 13.92-.28 5.34-.38 10.65-.41 15.99 2.84 2.18 5.71 4.32 8.71 6.27 2.51 1.62 6.14 3.05 8.31 5.22 2.04 2.05 1.25 6.85 3.08 9.46 3.26 4.67 8.05 7.53 11.47 11.88.86 1.11.83 2.8 1.62 4 1.51 2.26 4.08 3.53 5.58 5.73 2.06 2.99 3.26 6.61 5.57 9.43 4.19 5.12 10.31 7.02 14.89 11.33 2.23 2.1 2.95 6.1 4.87 8.51 4.66 5.85 10.64 10.8 15.77 16.25 4.67 4.98 12.47 2.63 17.94 5.15 2.74 1.26 4.48 5.76 6.95 7.67 4.68 3.63 10.62 4.81 15.4 8.3 3.33 2.44 1.59 8.77 2.73 12.24 1.23 3.77 5.07 2.81 6.48 5.58 1.03 2.01 1.11 4.91 2.49 6.82 1.48.96 2.98 1.93 4.48 2.9 2.13.76 4.3 1.08 6.45 2.15 2.93 1.47 5.37 3.98 8.29 5.58 4.04 2.22 8.45 3.76 12.43 6.04 2.02 1.15 2.22 3.97 3.65 5.64 2.02 2.38 4.88 4.18 7.71 5.42 3.65 1.6 7.58 2.34 11.52 2.75.89.1 5.33-.16 6.04.44 2.02 1.69 2.21 5 4.26 6.86 5.05 4.57 10.74 3.09 16.12 5.78 3.89 1.93 4.61 5.86 9.66 7.34 5.13 1.5 11.56.92 15.99 4.62 4.11 3.45 4.55 10.78 8.89 14.8 1.4 1.3 3.61 2.35 4.79 3.86 2.12 2.7 2.91 5.1 5.78 7.35.91.7 6.33 2.62 6.3 3.33-.04.91-.42 1.77-1.04 2.56 1.96 1.67 3.9 3.37 5.8 5.12.78.71 3.17 3.15 6.17 6.27 6.71-4.73 13.56-9.14 20.38-13.59V520.564c-80.01-5.4-50.97-56.434-72.9-99.008l-1.44-.852c-5.91-3.539-13.32-14.861-19.68-17.301-16.12-6.187-32.8-3.456-48.19-14.217-16.09-11.26-22.16-27.569-42.62-35.144-7.73-2.865-16.33-2.351-24.16-5.68-3.2-1.36-13.41-11.257-16.8-11.014-20.77 1.486-40.07 8.106-60.4 3.422-1.87 3.919-3.36 7.974-4.18 12.455-1.09 5.985 1.72 10.174 1.81 15.719.15 8.855-2.97 17.895-5.42 26.304-2.24 7.682-4.32 14.931-4.84 23.015-.26 4.036 1.27 8.233.61 12.196-1.24 7.321-5.34 13.991-6.65 21.452-1.14 6.478-.01 13.094-1.07 19.514-.86 5.244-2.61 10.307-3.43 15.566-.87 5.498-.79 11.147-1.78 16.609-2.15 11.761-5.6 21.728-5.82 34.119-.13 7.356 2.16 14.6 1.74 21.806-.26 4.326-1.35 8.722-2.03 13.116.25 2.159.46 4.316.62 6.47.2 2.813.32 5.653.34 8.512.93 2.895 2.03 5.747 2.55 8.768.95 5.501.19 10.4-.08 15.886-.11 2.109.75 5.3.11 7.428-1.03 3.484-2.72 7.803-5.72 10.087-1.01.768-2.12 1.375-3.27 1.905ZM3083.81 1945.4c8.44-8.31 17.58-16.78 28.25-25.26 7.88-6.25 17.09-10.68 26.59-14.7-9.91-2.79-20.68-7.19-32.8-13.33-25.73-13.05-43-36.65-61.32-58.61-.02 2.62-.16 5.26.16 7.87.8 6.52 2.66 16.47 4.87 22.95 1.29 3.78 4.24 5.84 6.06 9.09 3.15 5.65 6.54 11.35 9.62 17 2.13 3.92 2 8.79 4.24 12.78 2.03 3.61 5.43 6.87 6.84 10.75 2.73 7.53 2.25 16.04 5.06 23.74.92 2.54 1.61 5.15 2.43 7.72Z" style="fill:#262626"/></svg>