<svg xmlns="http://www.w3.org/2000/svg" xml:space="preserve" style="fill-rule:evenodd;clip-rule:evenodd;stroke-linejoin:round;stroke-miterlimit:2" viewBox="0 0 3508 2481"><path d="M0 2480.32V0h3507.87v2480.32H0Zm3241.89-510.19c2.44-12.63 4.22-25.48 5.5-38.5-6.73 7.19-13.61 14.29-20.21 21.43-.4.43-.97.92-1.68 1.45.62.6 1.25 1.25 1.9 1.93 2.33 2.43 4.67 4.85 7.04 7.25 1.66 1.67 4.53 3.92 7.45 6.44Zm-58.19 55.07c.58.82 1.15 1.61 1.72 2.35 2.57 3.32 5.34 6.61 8.29 9.78 3.69-2.91 5.58-7.22 9.02-10.37 9.75-8.91 20.51-16.88 28.67-27.44-7.8 2.86-16.36 4.99-23.44 9.15-8.59 5.05-15.85 11.59-24.26 16.53ZM276.512 1632.43c1.954-5.03 4.35-9.63 7.181-13.68 1.233-14.08 3.469-27.97 7.907-41.64-10.159-15.84-20.687-24.18-29.621-33.56-.827 5.82-.61 12.1-.432 17.4.609 18.14 2.476 35.74 8.255 53.15 2.127 6.42 4.814 12.23 6.71 18.33Zm2977.578 178.16c.06-.22.12-.45.18-.68 1.93-17.24 8.74-32.02 7.38-52.31-1.33-19.74-11.55-38.96-12.78-58.83-6.62-21.93-12.22-44.05-13.58-66.98-1.79-30.18 9.11-60.11 11.11-90.19.49-7.29.95-14.62 1.37-21.96-.05-4.91-.18-9.81-.53-14.69-.75-10.61-4.29-20.61-4.2-31.38.08-9.93 6.89-18.02 6.61-28.82-.37-14.14-7.98-26.69-8.21-40.61-.28-16.67 7.96-32.98 7.22-49.79-.79-18.05-10.27-34.31-13.4-51.74-2.52-14.03.2-29.4-.55-43.99-5.7-19.6-10.59-39.23-9.94-59.49.37-11.47 1.28-22.93 2.55-34.4-6.06-21.98-12.39-50.13-11.85-66.67.38-11.93 5.81-23.34 7.26-35.18 1.24-10.07-.07-20.93 2.49-30.78 1.61-6.22 12.29-15.4 15.59-25.04 4.45-13.035 3.88-25.975 5.68-39.254 1.25-9.287 6.65-17.592 8.1-26.985.2-1.34.34-2.683.42-4.027.03-1.451.05-2.902.07-4.353-.51-18.807-10.77-37.624-8.65-53.18.67-4.875 4.24-12.41 7.72-20.144-.39-12.059-.87-24.22-1.37-36.543-1.5-36.211-4.85-71.998-9.06-107.787-.75-2.296-1.45-4.583-2.08-6.86-.79-2.875-.27-5.781.2-8.695-.56-4.5-1.13-9-1.71-13.502-1.03-2.763-2.16-5.475-2.72-7.109-2.53-7.486-11.49-13.257-12.78-20.813-1.25-7.396 2.35-16.301 2.74-23.72.36-6.578-3.62-11.332-4.03-17.344-.41-6.116 3.12-13.28 3.61-19.5.87-11.109-9.34-36.08-1.22-46.236.36-.451.74-.887 1.15-1.308.27-25.14 3.17-50.534 10.46-77.591 5.26-19.478 10.74-40.085 17.59-60.236-5.7-4.583-12.67-8.053-13.13-11.52-.63-4.769 4.51-8.076 2.72-13.594-2.95-9.109-9.97-11.708-14.74-18.755-6.52-9.623-9.42-19.297-18.44-27.749-6.67-6.249-14.81-13.757-22.05-19.288-2.92-2.228-6.98-3.578-9.94-5.791-25.65-12.925-51.9-24.569-76.82-36.521-15.41-7.393-31.02-18.653-47.17-27.188-41.9 5.068-88.64 3.324-123.01-11.487-26.38 15.977-50.99 33.699-83.21 37.959-42.54 5.624-78.82-7.645-120.82-10.013-7.06-.398-14.09-.49-21.11-.36-.35 6.642-.05 13.324.71 20.202 6.5 27.695 12.9 55.435 17.09 83.245 4.28 12.56 10.05 25.43 10.16 38.63.1 12.515-3.16 24.874-7.11 37.172-2.68 18.337-8.02 36.514-12.55 54.666.63 9.311 2.79 18.361 3.27 27.966.72 14.667-3.92 29.676-5.28 44.178-.44 4.687-.39 10.516-.08 17.001 9.13 42.172 24.12 115.144-13.78 128.836-.13.045-.5-1.554-.52-1.654-1.18-5.709-.07-12.171.31-17.858.87-13.02 1.6-26.136 1.48-39.187-.33-36.864-16.87-70.352-15.72-106.661 1.65-51.803 15.52-103.031 14.22-154.839-1.1-43.724-15.52-86.545-22.63-129.984-16.04 1.379-32.05 3.294-48.07 4.731 3.59 26.93 8.03 53.774 8.02 79.534-.06 110.804-58.05 177.159-32.95 290.5 7.78 35.128 25.38 66.901 33.69 101.752 2.63 11.036 4.13 22.362 4.94 33.825 1.71 12.657 2.48 25.511 2.51 38.74.01 4.944-.78 12.281-2.09 21.078-.13 7.273-.21 14.494-.14 21.624.33 31.822 1.06 78.717-22.71 103.67-10.04 10.541-12.63 2.765-12.51-9.448-.27-5.445 1.15-12.086.59-15.873-.71-4.735-4.1-8.49-3.1-13.388 6.91-33.932 3.7-69.308 6.41-103.96.71-8.997 6.04-16.873 7.82-25.657-.31-13.57-1.44-26.626-3.83-38.588-6.21-10.999-15.12-20.339-18.38-33.32-1.53-6.087-4.01-14.776-3.49-21.005.22-2.594.79-4.764 1.29-6.883-11.59-31.758-22.35-64.301-23.88-97.335-1.54-32.924 3.01-65.495 8.72-97.996-.08-5.927-.23-11.868.82-17.548 1.7-9.212 4.06-19.251 6.3-28.378.48-1.936 1.28-3.751 2.17-5.533a838.208 838.208 0 0 0 3.43-21.55c-.19-1.306-.29-2.609-.17-3.903.34-3.828 1.26-7.548 2.16-11.278.69-5.946 1.28-11.899 1.72-17.86-.51-4.662-1.57-9.18-1.91-14.068-1.16-16.862-.77-33.547-3.92-50.326-2.02-10.79-6.47-23.368-2.48-34.067-4.13-1.587-8.16-3.414-12.02-6.033-4.95-3.367-4.57-7.505-5.95-11.155-1.37.202-2.73.407-4.06.617-11.72 1.851-24.3 3.352-37.47 4.455-3.11 2.561-6.34 4.909-9.98 6.503-6.67 2.912-11.29.295-12.1-5.059-22.73 1.082-46.65 1.002-70.54-.455-9.32 3.978-20.08 6.471-28.64 2.216-2.78-1.38-5.2-3.337-7.45-5.519a497.959 497.959 0 0 1-28.85-4.403c-9.81 4.078-19.91 5.998-31.37 6.78-3.32.228-7.95 1.374-11.37.847-4.3-.661-8.39-2.961-12.41-4.822-12.76 8.275-26.49 14.909-41.18 19.334-4.41 8.366-11.22 15.133-22.19 11.813-3.28-.992-6.44-1.999-9.42-3.733a62.68 62.68 0 0 1-3.19-1.993c-41.95 3.132-74.21-2.894-105.58-10.88-1.21.239-2.43.451-3.66.63-7.73 1.12-19.19 4.247-26.8.374-4.87-2.475-8.56-7.245-11.83-12.245-15.34-3.942-31.37-7.602-49.02-10.209-12.91-1.907-26.21-3.082-39.68-3.809-3.64 1.286-7.31 2.458-11.07 3.325-5.51 1.267-13.16 3.102-18.52-.259-1.65-1.036-3.08-2.496-4.34-4.115-21.55-.282-43.1-.035-63.82-.385-18.29-.31-36.43 1.096-54.56 2.883-.67.67-1.35 1.327-2.07 1.953-5.94 5.219-8.06 5.255-12.35-.477-26.89 2.812-53.82 5.683-81.16 4.253-26.18-1.369-51.8-7.826-77.48-12.917-6.88 1.8-10.44.731-12.91-2.411-9.23-1.598-18.48-2.881-27.78-3.551-10.2.212-20.4.303-30.57.223-29.88 2.215-59.12 8.393-88.21 15.171a53.413 53.413 0 0 1-4.81 3.389c-3.52 2.185-10.08 7.289-14.75 5.835-1.77-.554-3.36-1.849-4.77-3.482-30.85 7.28-61.68 14.177-93.06 16.66-4.34 3.781-8.83 7.415-13.67 10.764-1.49 1.032-5.46 3.408-7.24 4.14-.88.358-1.81.56-2.74.735-9.97 1.874-6.5-8.676-3.35-15.683-16.79-2.055-31.57-7.763-46.48-12.169 4.2 6.789 12.76 20.155.08 14.958-1.81-.743-3.63-1.466-5.4-2.295-3.74-1.744-7.36-3.705-11.07-5.518-8.1-3.967-16.24-7.848-24.34-11.792-13.01 2.316-28.01 8.566-42.95 14.911-1.17 2.651-2.34 5.309-3.52 7.965-1.37 3.089-2.76 6.169-4.24 9.207-.29.585-1.86 3.881-2.65 5.181-5.18 8.503-8.23 6.67-14.67-.806-1.7-1.97-3.3-4.362-4.65-6.516a48.004 48.004 0 0 1-1.53-2.644c-4.37 1.43-8.58 2.592-12.57 3.365-16.4 3.177-39.1 4.602-64 3.813l-.57.893c-1.86 2.977-4.86 9.509-9.1 9.498-1.84-.005-7.39-5.208-8.02-5.631-3.29-2.204-6.62-4.346-9.94-6.502-24.28-2.289-49.21-6.661-71.45-13.496-3.6 6.852-8.41 14.856-14.13 15.174-1.84.102-5.99-4.827-7.17-5.801-4.84-4.006-11.27-6.648-17.231-8.844-30.455 19.854-65.077 37.504-97.532 53.036.681 1.053 1.06 2.315 1.076 3.811.117 11.363-50.352 35.656-58.82 39.474-10.379 4.679-22.52 7.287-31.216 15.007-13.364 11.865-18.922 30.236-33.9 41.048-9.526 6.876-20.793 10.774-31.933 14.759 12.445-.148 24.851.183 37.344 1.27 17.899 1.558 35.673 1.202 53.508-.894 4.447-.522 9.089-.88 13.443-2.011 1.185-.308 2.816-2.007 3.531-1.013 11.452 15.943-5.225 24.606-18.815 30.704-6.394 2.868-12.85 6.506-19.665 8.372-15.082 4.128-31.678-.504-47.16 3.478-8.409 2.163-15.694 7.285-24.015 9.68-7.862 2.262-16.121 1.815-24.026 4.036-12.542 3.523-23.735 10.482-36.132 14.287-5.48 1.682-11.075 3.135-16.732 4.429-7.861 7.398-16.197 14.923-24.812 24.155-7.044 7.55-12.624 16.513-18.047 25.399.247.127.492.26.733.399.448.259.846.529 1.197.809 3.98-.983 7.925-2.059 11.861-3.212 9.39-2.75 15.519-8.063 19.928 2.316.68 1.6 1.236 3.247 1.893 4.856.458 1.12 1.255 2.362 1.979 3.645 2.936-.463 5.597-.327 5.533 1.652-.662 20.478-21.393 19.549-35.895 29.681-3.015 2.106-5.599 4.882-8.819 6.694-4.521 2.544-8.8 3.258-13.002 6.735-3.145 2.603-5.017 6.912-8.179 9.725-7.318 6.511-15.979 12.173-24.692 16.674-3.114 1.608-6.071.901-9.125 1.804-4.142 1.226-7.744 3.817-11.942 4.994-5.016 2.073-10.347 3.454-15.666 4.74-8.623 6.024-17.838 13.852-25.922 16.468-5.748 1.86-10.755-1.354-16.062-3.056-2.409-.773-5.735-1.466-9.172-1.882-2.42.254-4.849.433-7.288.521-1.604.057-3.206.074-4.806.06-.497 1.004-1.241 3.291-1.319 3.477-2.045 4.88-5.128 9.576-7.865 14.037-5.339 8.702-13.883 13.3-22.332 18.591-6.699 4.193-19.739 10.759-27.495 12.393a1.705 1.705 0 0 1-.082.016l-.441.357c-10.246 8.288-21.232 15.728-32.019 23.411a709.2 709.2 0 0 0-16.121 18.699c-2.177 4.211-4.282 8.451-7.531 12.291-2.104 2.487-4.561 4.362-7.179 5.949a811.286 811.286 0 0 0-21.981 29.494c-1.034 3.71-3.93 6.495-6.107 9.622-2.801 4.022-2.077 8.096-3.644 12.138-2.94 7.582-11.324 13.491-15.163 20.736-2.287 4.316.865 9.861-1.84 14.867-3.531 6.533-8.768 11.812-13.994 17.072.44 5.23.465 10.401-.636 15.343a87.63 87.63 0 0 1-.669 2.788l.001.022c.2 4.686 1.817 9.012 1.127 13.709-2.978 20.27-9.27 41.32-14.47 61.175-1.845 7.038-5.514 13.258-6.313 20.638-.626 5.78 1.933 11.36 1.275 17.1-1.056 9.19-5.576 17.67-4.244 27.14 2.136 15.18 8.959 24.72 5.01 40.82-1.442 5.87-1.236 11.93-2.418 17.82-1.311 6.53-3.892 12.26-4.137 19.06-.249 6.91 4.519 11.88 4.68 18.25.089 3.49-.986 7.06-2.391 10.54 2.831 7.28 5.79 14.52 6.239 22.4.814 14.29-1.321 28.8-3.701 43.23 3.11 2.24 6.085 4.68 7.832 7.73 4.149 7.25 2.476 15.8 2.766 23.72.197 5.39 2.727 9.81 2.961 15.13.45 10.2.112 20.42.782 30.63.538 8.21 3.629 16.06 4.801 24.15 1.292 8.92-.131 16.99-.439 25.88-.298 8.59.345 17.14-1.365 25.62-1.929 9.56.399 18.79-.842 28.13-1.329 10-4.594 19.46-4.852 29.58a41.833 41.833 0 0 1-.236 3.44c.085 1.1.15 2.19.196 3.29 21.642 31.11 9.564 55.3 23.657 96.64 7.148-9.77 14.865-19.16 17.916-30.69 3.516-13.28 17.424-50.68 33.093-50.39.951.02-.32 1.88-.482 2.81-.965 5.59-1.905 11.16-2.334 16.82-.916 12.08 1.794 23.81 1.65 35.82-.24 19.91-17.902 29.26-28.731 43.9 11.422-5.8 22.896-5.01 40.328-5.73 6.183-.25 11.967-2.3 17.52-4.93 2.96-1.4 9.768-7.44 8.841-4.29-7.685 26.06-28.056 40.39-46.126 56.7 10.239 5.28 21.441 13.2 33.575 24.2 26.719 24.23 20.972 68.36 45.972 94.42 25.965 27.08 69.664 12.9 89.924 52.58 17.255 33.79 13.163 73.17 26.151 108.14 6.95-15.22 13.014-30.66 14.058-47.01 2.811-44.04-25.311-80.71-3.163-124.62 15.336-30.41 43.996-40.91 68.388-62.22 16.108-14.07 27.337-31.85 41.015-47.97 1.56-1.84 13.301 14.13 14.099 15.43 16.179 26.51 18.627 62.91 11.308 92.39-19.765 79.61-41.876 68.94-79.066 124.07-20.069 29.76-35.054 63.03-47.938 96.9 41.233-6.73 74.736-25.66 105.03-59.42 10.516-11.72 20.256-27.12 35.819-32.46 24.688-8.47 53.756 2.53 79.149 1.21 20.45-1.06 40.517-9.05 57.537-20.11 1.748-1.14 4.247-5.37 5.179-3.51 11.043 22.08-26.386 54.41-40.957 61.7-25.476 12.75-55.423 11.95-80.525 25.45-70.66 38.01-56.906 70.92-147.242 78.21 3.748 1.59 7.65 2.81 10.266 6.42 5.988 8.29 9.549 17.95 16.751 25.56 3.722 3.94 9.419 4.18 13.03 7.61 4.061 3.86 6.4 8.98 11.018 12.49 4.978 3.78 11.517 10.23 17.484 12.64 4.489 1.8 9.537 2.09 13.793 4.42 10.375 5.69 20.828 11.55 31.831 15.92.179-17.68 3.565-35.94 6.86-52.31 1.864-9.25 2.537-22.84 10.085-29.67.587-.54.827 1.34 1.214 2.04.593 1.05 1.065 2.02 1.619 3.11 1.574 3.09 3.188 6.16 4.562 9.35 4.791 11.12 8.386 22.28 9.389 34.03 5.184-9.53 9.686-19.59 13.556-30.29 3.728-10.3 6.426-21.03 9.014-31.66.93-3.82 1.711-7.67 2.579-11.5.507-2.24.349-8.68 1.537-6.72 7.683 12.7-8.437 79.75-11.837 94.03-.649 2.73-1.314 5.44-1.993 8.15 2.912-2.63 5.91-5.18 8.51-7.96 1.511-1.62 4.272-7.03 6.397-7.65 2.407-.7 4.924 1.47 6.088 3.42.899 1.5 2.139 3.56 3.34 5.83.597-1.18 1.183-2.35 1.759-3.5 3.344-6.68 6.419-13.49 9.508-20.3.057-.12.136-.51.174-.37 4.14 14.47 5.526 29.31 5.193 44.22l.078-.06c4.888-3.92 12.016-11.78 19.167-12.64-.508-3.05-.743-6.11-.833-9.29-.105-3.68.078-7.21.762-10.84 2.876-15.25 20.668-16.68 30.247-26.99 6.327-6.81 10.71-14.11 14.33-22.68.963-2.28 1.83-4.58 2.718-6.89.568-1.48 1.166-2.94 1.768-4.41.174-.42.443-1.71.545-1.26 2.818 12.42 3.671 25.48 5.489 38.08.984 6.82 5.033 16.99 2.701 24.09-.936 2.86-2.147 5.55-3.539 8.14.579 1.93 1.05 3.62 1.469 4.65 2.568 6.27 4.996 12.59 7.424 18.9 4.221.06 8.473-.04 11.745-2.19 4.933-3.25 8.405-10.75 10.557-16.01.648-1.59 1.254-3.2 1.912-4.78.366-.88.278-3.06 1.128-2.63 1.773.9 1.275 8.83 1.329 10.66.362 12.2-.173 24.39-.193 36.59-.016 9.59.569 18.67 2.575 28.07.739 3.47 2.311 6.55 3.314 9.87 11.705 4.01 34.778 10.36 39.86 10.95 7.287.83 14.132 2.12 20.818 3.8-.206-.53-.41-1.05-.613-1.58-11.907-3.12-21.887-7.68-27.015-20.07-1.429-3.46-2.753-6.9-2.993-10.67-.056-.87.354-3.88 1.396-4.21 1.447-.45 6.874 4.59 7.678 5.26 5.534 4.6 9.994 9.69 15.308 14.12a403.136 403.136 0 0 1-8.838-29.87c-7.922-4.94-16.297-9.61-21.644-17.43-1.255-1.83-5.705-8.06-4.551-10.27.092-.18 2.997 1.02 3.165 1.09 3.205 1.39 6.127 2.8 8.5 5.38 3.41 3.71 7.263 6.47 11.547 8.59-3.175-14.57-5.419-29.08-6.53-43.05-.255-3.2-.396-6.4-.446-9.61-1.01-.76-2.033-1.5-3.072-2.23-2.032-1.41-4.116-2.75-6.177-4.12-1.86-1.24-3.725-2.48-5.522-3.81-4.478-3.32-9.193-9.51-9.222-15.43-.003-.65-.273-4.31.253-4.66 2.006-1.33 6.1.17 8.165.64 3.603.84 6.571.94 9.645 3.25 2.394 1.81 4.425 4.29 6.598 6.55.643-8.74 1.638-17.46 2.554-26.1.324-3.04.676-6.09 1.058-9.14-4.431-3.56-8.858-7.48-11.78-12.22-3.599-5.85-4.829-13.32-5.982-19.96-.722-4.17-1.375-8.35-2.309-12.48a71.85 71.85 0 0 0-1.281-4.81c-.196-.66-1.261-2.19-.619-1.96 11.219 4.12 19.813 15.01 23.602 25.92.568 1.63.963 3.5 1.352 5.41 2.666-15.46 6.2-30.77 10.792-45.77-2.941-3.86-6.002-7.63-7.742-11.88-1.858-4.55-1.545-9.54-1.469-14.36.041-2.59.134-5.19.166-7.79.005-.48-.168-4.19.562-4.3 2.207-.34 5.446 2.77 6.895 4.04 3.707 3.23 6.423 7.52 9.594 11.28a303.6 303.6 0 0 1 4.916-11.78c4.706-10.63 10.165-21.54 16.909-31.07-.206-.65-.412-1.3-.616-1.95-.757-2.43-1.287-4.91-1.894-7.38-.637-2.59-1.467-5.09-2.394-7.59-.127-.34-1.126-2.27-.953-2.55 1.09-1.8 5.254 1.3 5.731 1.64 3.138 2.19 6.024 4.53 9.2 6.34 7.606-8.68 16.539-16.79 26.319-23.2 1.57-5.5 1.34-11.28 1.62-17.5.07-1.75 1.58-8.17 3.83-8.5 3.59-.54 8.58 4.22 11.52 5.87 4.92 2.75 10.33 4.97 15.82 6.88 10.32-1.55 20.94-.58 31.46 3.82.81.34 1.62.69 2.43 1.06 3.36-.56 6.7-1.25 10.05-2 2.07-.46 5.6-1.34 7.52.08 3.04 2.24 3.69 7.21 4.63 10.67.72 2.66 1.12 5.4 1.4 8.14.32 3.22.11 6.37-.16 9.55 3.7 13.83 2.02 29.47-2.99 42.53-3.39 8.81-10.31 17.48-20.51 17.68-1.26.03-9.92-1.47-9.37-3.51.45-1.66 5.06-5.42 6.05-6.64 2.07-2.55 3.74-5.55 5-8.63-4.12 1.53-8.02 1.75-8.32-2.81-.01-.26 4.17-3.12 4.64-3.89 2.16-3.55 4.37-5.94 6.73-7.92.61-14.53-4.98-30.63-18.01-35.56-.46 4-1.04 7.62-3.48 11.66-.81 1.34-2.83 4.62-4.67 4.66-.74.02-1.27-10.18-1.28-10.21-.83-2.66-3.25-5.05-5.78-6.99-12.92 2.18-22 9.2-30.22 18.55.11 6.92 3.21 13.21 4.01 20.31.43 3.82.66 9.11-2.46 12-.7.64-.69-1.76-1.14-2.58-1.17-2.15-2.58-4.12-4.74-5.37-3.25-1.87-7.15-2.97-11.05-3.88-7.324 11.13-13.327 22.59-18.512 34.91 1.848 6.8 5.123 13.65 7.885 19.42 2.319 4.84 5.427 12.55.25 17.14-.089.08-4.567-2.96-4.865-3.15-4.293-2.73-8.158-5.62-12.817-7.09a320.182 320.182 0 0 0-8.285 32.39c3.306 5.7 7.567 10.83 11.616 16.01 2.444 3.13 5.401 8.25 4.196 12.22-.869 2.86-10.669 2.56-12.575 3.15-3.071.94-5.659 2.71-8.345 4.4a319.174 319.174 0 0 0-1.152 30.38c9.354.25 15.964-8.71 25.439-9.62 14.085-1.35.803 11.41-2.389 13.58a73.47 73.47 0 0 1-3.193 2.09c-3.583 2.23-7.169 4.43-10.607 6.88-3.068 2.17-5.838 4.7-8.401 7.43.935 12.65 2.63 25.26 5.091 37.75 1.642-1.94 3.245-3.92 5.028-5.73 1.906-1.93 3.946-3.63 6.385-4.84a19.429 19.429 0 0 1 3.837-1.44c15.968-4.16 3.434 16.87-.394 22a48.689 48.689 0 0 0-3.426 5.23c-1.173 2.08-1.961 4.52-2.62 6.78-.756 2.59-1.111 5.32-1.319 8.07.9 2.98 1.846 5.94 2.837 8.9 1.254 3.73 2.644 7.42 4.138 11.08 2.59-4.64 3.831-10.05 6.392-14.79 3.523-6.52 12.616-15.35 20.856-13.79.01.01-1.18 5.52-1.3 6.03-1 4.33-2.47 8.41-4.38 12.45-2.86 6.06-8.156 10.35-11.365 16.16-1.569 2.84-2.563 6.08-3.273 9.38 2.017 4.17 4.117 8.3 6.25 12.42 1.814-1.02 3.741-1.83 5.918-2.18 9.35-1.49 18.67 2.6 28.05 2.67 5.31.05 8.86-4.03 13.81-4.08 5.66-.05 11.64 2.25 17.39 2.54 11.25.56 25.99-.93 37.17-2.32 26.33-3.27 51.21-10.95 77.35-15.25 11.88-1.96 24.9 1.42 36.9.99 5.04-.18 9.98-.39 14.92-.55 5.57-3.26 10.57-7.31 14.34-12.07 3.39-4.3 6-8.99 7.42-14.29.03-.09 1.41-9.12 2.08-9.16 3.26-.19 9.21 10.75 11.65 13.11 4.38 4.23 9.36 7.44 13.52 11.8.3-.63.58-1.26.84-1.91 2.95-7.37 1.56-15.28 5.22-22.83 1.15-2.37 4.92-12.15 8.58-10.97.6.2.7 3.61.71 4.14.1 4.42-.1 8.94.75 13.3 1.01 5.17 3.85 9.37 7.31 13.12 6.57-2.56 13.53-4.59 18.51-7.34 4.7-2.58 9-6.44 12.4-10.58 1.14-1.39 2.17-2.89 3.2-4.36.16-.22 1.06-1.89 1.26-1.6 3.41 4.98 3.73 11.53 4.61 17.3.8 5.2 1.58 10.46 2.55 15.64.35 1.91 1.74 5.15.83 7.19-2.16 4.87-5.87 9.06-9.8 13.17 5.34 1.58 10.8 2.89 17.91 2.98 9.27.13 19.59-3.3 28.66-4.27 10.32-1.11 20.73.39 31.07-.53 5.8-.51 11.83-5.01 17.56-4.82 5.8.19 11.34 2.18 17.33 2.06 10.71-.22 23.84-3.61 34.01-.15 9 3.06 18.67 4.34 27.2 8.34 6.26 2.93 10.12 9.96 16.83 12.7 5.44 2.22 12.56 1.81 17.54 4.24 4.36 2.12 6.92 6.72 11.21 9.06 3.22 1.75 7 .98 10.12 2.49 5.57 2.69 8.94 8.71 14.63 11.48 4.84 2.35 10.52 1.7 15.07 3.92 6.59 3.21 10.27 8.87 17.97 10.9.69.18 1.4.32 2.11.44 3.85.65 7.8.77 11.68.26.07-.01 1.34-.18 2.71-.23 2.78-2.25 6.88-7.73 10.83-7.54 7.72.37 15.89 4.22 23.5 5.64 6.21 1.17 13.12 3.53 19.52 3.87 3.55.18 7.03-1.96 10.57-1.09 6.66 1.64 12.41 3.71 19.38 4.22 6.68.49 13.07-1.13 19.63-.98 4.29.09 8.45 1.58 12.8 1.55 4.39-.03 8.63-2.2 12.89-2.19 12.79.05 25.93.98 38.6.89 4.44-.03 8.97-4.43 12.95-4.06 6.3.58 11.48 4.47 17.97 5.01-1.33-1.88-1.3-4.15 1.48-6.49 5.26-4.43 11.87-6.58 17.98-9.37 3.68-1.67 6.59-4.63 10.42-6.05 4.01-1.48 9.92-2.05 13.42-4.69 3.72-2.81 5.5-7.65 6.4-12.05.46-2.24.79-6.34 3-7.63 4.67-2.74 7.98 4.09 11.98 5.04 5.92 1.39 18.52.18 23.79-2.03 4.09-1.72 6.62-5.63 10.72-7.39 17.43-7.5 35.63-13.14 52.2-22.6 5.18-2.96 8.98-7.63 14.37-10.23 5.23-2.53 11.34-5.07 17.24-4.58 3.7.3 6.88 4.14 5.64 7.62-1.22 3.44-5.61 4.66-8.55 5.96-3.59 1.58-6.04 4.85-9.38 6.8-2.08 1.22-4.82 1.02-6.71 2.49-1.87 1.44-3.45 3.15-4.96 4.95 6.74-1.16 13.48-2.33 20.22-3.54 12.55-2.25 24.78-4.94 36.79-9.28 4.7-1.7 11.78-7.74 17.56-6.6.53.11 1.06.22 1.59.34-5.17-10.51-15.98-18.93-27.33-21.01-2.81-.51-24.86-1.91-26.46-7.56-.9-3.19 7.31-6.32 8.95-7.01 9.3-3.88 23.35-7.43 33.33-4.88 10.62 2.7 13.62 9.39 15.58 17.02-.02-.76-.08-1.55-.2-2.38-2.31-16.02-8.34-35.32 2.36-50.22.58-.8-.48 1.92-.73 2.87-.46 1.72-.93 3.53-1 5.31-.23 6.05 2.84 10.86 6.51 15.38 5.56 6.84 12.52 13.2 15.65 21.07 5.63-6.67 12.62-11.79 15.04-21.02 2.42-9.17 2.42-18.64 3.29-28.02.27-2.87.71-5.64 1.28-8.45.34-1.71-.45-6.03 1.03-5.12 3.73 2.28 6.55 6.12 9.47 9.3 2.74 2.97 10.17 8.17 10.57 12.94 1.07 12.8-18.32 28.56-21.6 43.61-.06.26-.11.53-.15.8 1.64-1.82 3.51-3.92 5.09-4.43 5.96-1.92 12.4-.74 18.56-3 7.93-2.9 14.85-9.74 23.24-11.45 6.54-1.33 11.72 1.58 18.05 1.09 8.38-.64 17.17-2.44 25.42-3.87 1.88-.32 3.83.43 5.76.03 2.36-.48 5.15-2.39 7.46-2.45 1.96-.05 3.82.41 5.8.03 4.65-.9 9.42-3.09 14.11-3.65 2.77-.33 7-1.14 9.7-.81 2.69.33 5.25.93 8 .61 2.92-.33 5.73-2.17 8.59-2.41 2.96-.24 5.48.43 8.34 0 .89-.24 1.78-.47 2.68-.69 3.8-1.26 7.41-3.19 11.36-3.95 2.08-.41 4.41.9 6.53.85 3.24-.06 6.98.54 10.11.17 2.09-.25 4.65-1.69 6.75-1.44 2.48.29 4.99 2.19 7.44 2.86 2.87.79 6.05 1.48 9.01 1.75 1.16.1 4.15-.36 4.97 1.13 1.92 3.46-.81 7.46-4.22 10.84 5.75.84 11.77 1.52 17.53 1.01 2.75-.25 8.41-2.36 11.11-1.58 1.87.53 2.84 2.7 4.8 3.2 2.19.56 5.47-.05 7.46.82 4.93 2.16 9.3 6.28 14.12 8.72 2.31 1.17 6.05 1.21 7.98 2.75 1.67 1.33 2.14 3.57 3.79 4.95 1.1.92 2.69.93 3.73 1.82.93.81 1.31 2.12 2.25 2.93 1.65 1.4 3.65 1.76 5.33 2.96 1.14.81 1.82 2.24 2.91 3.13 2.69 2.21 6.12 3.02 9.5 3.53.81.12 4.61-.34 5.5.78.94 1.21-1.54 3.58-2.08 4.09-.63.57-1.27 1.12-1.94 1.66 1.01-.12 2.01-.29 3-.52 1.71-.39 4.34-2.13 6.06-2.1 2.72.04 5.6 1.52 8.44 1.65 7.27.32 15.33-2.3 22.47.02 2.03.66 3.39 2.64 5.17 3.76 2.39 1.51 5.4 1.22 7.66 2.47.7.39.65 1.34 1.38 1.71 1.85.94 4.5-.27 6.52.19 2.55.58 6.5 3.34 8.71 4.78 5.62 3.66 9.37 9.67 14.6 13.74 2.42 1.89 5.76 2.26 8.04 3.96 2.14 1.59 4.75 5.86 5.69 8.34 1.05 2.76 5.45 6.16 3.88 9.63-.38.85-1.43 1.28-2.49 1.52.65 1.1 1.26 2.22 1.82 3.37.44.16.89.3 1.37.4 1.79.37 4.15-.34 5.87.36 2.61 1.06 4.21 3.38 7.1 4.1 2.26.56 5.23-.4 7.23.38 2.68 1.06 3.87 3.55 7.05 4.49 3.26.95 7.7-.37 10.73.96 3.72 1.64 6.39 5.03 10.36 6.57 4.85 1.88 9.81 2.77 14.9 3.62 1.78-.76 3.53-1.56 5.44-2.1 2.4-.67 5.47.02 8.04-.57 1.71-.4 4.42-1.9 6.15-1.79 5.27.33 13.2.82 18.51-.14 3.61-.65 7.42-2.84 11.02-3.14 1.76-.15 3.57.94 5.45.78 8.72-.7 17.72-1.22 26.28-3.12 7.32-1.62 14.47-4.25 21.71-6.23 2.09-.57 4.22-.23 6.33-.85 1.42-.42 2.82-1.02 4.21-1.65-9.62-1.68-19.25-3.33-28.48-7.56-7.54-3.47-20.93-21.76-7.14-25.9.65-.19 11.61 8.72 14.68 10.63 11.18 6.94 23.89 12.45 37.32 11.51 8.82-.62 16.79-2.59 24.76-3.68-12.69-7.3-26.3-12.59-38.3-21.28-22.14-16.03-40.19-44.61-45.8-71.42-1.69-8.09-1.57-16.28-.83-24.48.53-5.91 1.39-11.8 2.79-17.56 4.22-17.3 15.03-59.51 37.51-61.22 2.27-.17.42 4.54.66 6.81.49 4.47 1.24 8.97 2.2 13.37 3.12 14.2 7.87 28.94 14.57 41.88 7.92 15.3 18.23 29.79 29.51 42.78 8.57 9.86 18.39 18.6 25.17 29.91 6.53 10.91 7.49 25.58 9.77 38.43.47-.35.93-.7 1.38-1.08 4.63-3.81 8.54-9.06 11.26-14.38 10.12-19.76 6.31-42.86-.98-62.93-4.46-12.31-10.98-24.6-10.19-38.09.88-14.76 7.3-30.87 13.28-44.25.49-1.09 5.16-11.82 5.79-11.69 1.34.29 3.17 5.82 3.57 6.87 3.2 8.33 5.61 16.27 10.23 24.02 6.93 11.62 17.17 20.59 24.84 31.65 13.56 19.57 23.55 53.62 13.84 76.87-7.29 17.47-29.05 25.96-41.17 39.62-3.23 3.64-5.78 7.87-7.7 12.42.22-.23.46-.45.69-.67 1.37-1.25 4.76-1.34 6.38-1.88 5.2-1.73 12.48-2.68 17.47-5.18 5.51-2.75 10.86-5.73 16.37-8.52 2.71-1.37 5.23-3.59 8.1-4.64 2.72-.98 5.82-2.65 8.73-2.79 2.52-.12 4.96.62 7.53.33 4.18-.47 8.12-2.46 12.25-2.9 1.32-.13 2.39 1.31 3.8 1.19 4.74-.4 9.59-2.69 14.39-3.22 2.32-.26 4.64 1.66 7.34 1.2 1.8-.31 3.68-1.74 5.43-1.82 1.02-.05 1.56 1.08 2.53 1.21 1.54.21 7.1.48 8.38-.22 3.43-1.87 8.48-5.01 10.66-8.42 1.22-1.91 2.05-4.7 3.61-6.36 2.33-2.48 5.54-4.44 8.28-6.44 1.63-1.2 4.07-1.51 5.88-2.35 5.64-2.61 11.36-4.46 17.19-6.19-11.12-7.63-21.73-15.78-30.96-25.57-21.19-22.48-3.16-53.39-9.26-80.02-13.75-60-61.26-59.69-42.12-140.58 3.07-12.97 9.07-35.51 21.23-43.34 1.9-1.22 1.76 4.17 2.59 6.27 3.64 9.25 6.97 18.56 10.34 27.92 8.38 23.24 14.86 47.39 25.97 69.56 20.43 40.79 46.73 62.34 65.25 88.92 5.62-74.28 24.79-139.28 44.03-238.66 5.58-28.85 5.26-71.87 19.9-98.58 5.2-9.47 23.5 32.19 28.28 48.04 7.8 25.85 14.12 52.76 16.75 79.68 7.85 80.13-29.22 137.14-52.87 210.99-6.82 21.31-10.67 43.75-12.71 66.32 3.82-1.69 7.88-3.02 11.59-4.78 5.77-2.73 9-8.7 14.65-11.73.44-.24.89-.46 1.35-.67-.41-1.36-.83-2.71-1.27-4.06-1.49-4.62-7.33-14.1-6.26-19.22 1.64-7.87 15.88-14.06 21.61-18.38 12.78-9.61 21.64-17.64 37.63-22.75 2.89-.93 7.17-3.96 10.41-3.73 5.86.42 10.64 5.43 16.38 6.65 2.91.62 6.43.17 9.76.21-.92-7.09-2.05-14.14-3.68-21.13-.55-2.35-4.85-12.21-1.67-15.09 6.48-5.89 15.73-7.47 23.83-9.97 5.17-1.6 10.3-3.29 15.48-4.88 1.63-.5 3.15-.97 4.57-1.4-2.35-11.36-5.03-22.62-9.06-33.54-1.26-3.42-9.14-16.84-7.16-21.04 5.1-10.77 24.87-16.02 34.68-21.09 5.39-2.78 10.67-5.87 15.98-8.8 4.77-2.61 8.72-5.22 12.25-6.99-.02-1.24-.12-2.46-.29-3.65-.56-3.85-1.94-8.04-1.23-11.96 1.11-6.11.96-13.61 3.17-19.35 1.54-3.99 4.98-6.56 7.12-10.12.41-.7.8-1.41 1.17-2.13ZM575.624 495.035c7.444-9.789 12.572-20.609 21.583-28.891-.079-1.94.019-3.857.561-5.723 1.435-4.943 5.822-8.804 9.361-12.292 3.742-3.689 7.344-7.539 10.254-11.93 3.094-4.667 6.016-10.836 11.444-13.166 4.636-1.99 10.157-1.838 15.01-3.211 2.652-.75 5.231-1.829 7.708-3.141 6.918-6.781 14-13.411 21.25-19.852.463-.717.915-1.442 1.36-2.174 2.106-3.466 3.912-8.291 7.542-10.518 3.771-2.314 8.215-3.68 12.438-5.291 22.18-17.683 45.854-33.434 71.164-46.294.12-.21.239-.421.357-.632 2.102-3.762 4.235-9.29 8.096-11.756 12.099-7.725 27.45-8.922 40.514-14.38 11.356-4.744 22.345-10.323 33.169-16.207-15.956-4.357-31.613-9.865-46.935-16.375-21.42 2.998-42.781 5.27-63.828 5.379-32.652.168-121.023-4.439-154.934-7.61-22.809-2.133-44.639-10.821-67.444-12.213-19.561-1.194-39.486 1.579-59.378 4.495-.836 2.299-.685 4.749-1.427 8.086-1.269 5.699-4.541 10.76-5.34 16.608-.569 4.167 1.376 7.692 1.273 11.691-.187 7.302-5.011 15.319-6.678 22.431-1.361 5.809-.419 11.967-1.952 17.64-2.906 10.756-11.453 19.967-16.543 29.723-4.28 8.204-6.656 17.137-9.819 25.76-2.669 7.277-6.439 14.049-9.187 21.292-3.652 9.623-.188 20.01-2.797 29.95-2.644 10.071-4.186 20.549-7.127 30.512-5.471 18.538-12.624 37.312-15.135 56.654-2.652 20.436-5.027 41.19-10.199 61.151-.355 1.371-.7 2.744-1.025 4.123a626.73 626.73 0 0 0-.719 3.081c-.169.732-3.538 10.612-2.409 12.098 2.119 2.79 10.37-2.86 12.145-4.202 7.808-5.905 17.842-19.027 28.334-19.881 3.513-.285 7.521.295 10.915-.89 3.5-1.222 6.575-4.147 10.126-5.007 3.68-.891 7.621.026 11.068-2.096 9.158-5.638 18.216-11.133 27.608-16.552 5.471-3.158 11.82-4.583 16.741-8.755 4.291-3.638 7.185-10.576 11.713-13.588 2.9-1.93 8.525-1.55 11.867-2.587 6.164-1.912 11.409-5.96 16.764-9.444 9.152-5.954 13.653-20.953 23.012-24.008 4.464-1.456 9.509-2.914 14.448-4.673 1.781-.971 3.601-1.711 5.42-2.098 3.333-1.415 6.489-3.032 9.234-4.953.133-.093.265-.188.397-.284ZM1850.53 2213.62c1.25.25 2.53.45 3.9.42 5.72-.1 10.98-3.3 16.64-3.46 12.16-.35 25.01 3.6 37.2 2.85 4.59-.28 7.64-3.91 11.83-4.91 5.2-1.23 23.18-3.61 28.41-3.62 9.43-.02 18.67 2.46 28.04 3.65-2.5-9.94-5.41-19.66-9.68-29.18-1.64-3.64-3.18-7.31-5.32-10.7-18.85 8.25-37.16 17.64-56.71 24.39-11.99 4.14-24.29 7.37-36.02 12.21-5.87 2.42-11.2 5.91-17.19 7.97-.37.13-.73.25-1.1.38Zm231.25-73.09c.04.01.08.03.11.04-.02-.06-.04-.13-.06-.19-.01.05-.03.1-.05.15Zm-1572.9-179.55c-10.704-35.52-32.851-41.3-73.501-79.6-18.011-16.98-26.638-40.71-44.62-57.48-6.486-6.05-12.997-11.1-19.468-15.56-2.556 8.12 2.899 16.48.93 24.9-5.562 23.78-10.192 64.6-1.677 88.12 1.603 4.43 6.817 8.02 9.285 12.23 4.377 7.48 8.38 16.93 15.438 22.33 4.865 3.73 9.762 3.95 14.711 6.33 6.838 3.28 11.681 7.8 19.823 9.11 3.103.5 8.731 2.07 12.836 1.68l.334-.03a8.312 8.312 0 0 0 1.9-.46c5.226-2.03 8.059-6.56 13.276-8.58 11.383-4.42 35.387-6.97 50.733-2.99Z" style="fill:#0d0d0d"/></svg>