<svg xmlns="http://www.w3.org/2000/svg" xml:space="preserve" style="fill-rule:evenodd;clip-rule:evenodd;stroke-linejoin:round;stroke-miterlimit:2" viewBox="0 0 3508 2481"><path d="M3507.87 0v2480.32H0V0h3507.87ZM374.543 853.745c7.163.627 12.028 4.338 15.464 9.573-.135-7.676-.557-15.324-.923-23.04-.622-13.07 1.173-28.947-3.405-41.423-.949-2.589-2.492-5.181-4.498-7.089-.199 4.636-.609 8.542-.761 10.61-1.277 17.313-3.117 34.352-5.877 51.369ZM1363.67 1909.44c13.11 1.81 26.17 1.79 39.24 4.62 7.69 1.66 16.18 10.8 23.51 14.08 14.6 6.53 31.1 6.21 45.85 11.71 5.55 2.07 9.89 11.37 14.35 15.16 8.1 6.88 19.03 11.24 29.19 13.9 22.26 5.85 44.9 6.23 67.46 9.83 10.48 1.67 19.77 7.44 30.7 8.4 13.87 1.21 27.82 1.15 41.67.07 7.78-.61 16.66-3.34 24.52-2.57 7.66.76 15.67 5.77 23.13 7.75 17.06 4.54 34.62 5.95 51.95 8.82 3.93.65 11.84.38 11.15 4.3-.52 2.92-2.12 5.33-4.32 7.35 12.6-1.1 18.44 1.33 39.92 1.91 14.87.39 29.68-.85 44.54-1.41 33.76-15.95 63.23-33.06 101.82-41.01 15.58-3.2 39.23 2.2 63.98 8.9 11.51-6.17 24.94-11.44 36.92-11.32 4.22.05 9.72 2.97 13.93 3.69 14.3 2.45 40.77 7.12 53.91 5.89 8.94-.83 17.32-6.97 25.9-7.52 17.93-1.15 42.21-.51 59.39-7.43 13.97-5.64 24.32-23.04 38.64-26.41 9.52-2.24 22.33 6.1 32.86 5.01 11-1.14 21.56-5.28 32.42-6.32 10.67-1.02 20.85 1.34 31.95-.84 5.2-1.01 18.49-7.22 25.58-6.06.25-.06.49-.13.74-.19 12.49-3.25 25.7-.81 39.1 2.8 3.35-4.22 7.1-8.85 11.17-10.26 15.61-5.42 33.46 1.48 49.39-1.25 7.15-1.22 13.63-6.65 20.67-7.19 15.51-1.21 30.52-4.59 45.86-6.14 8.44-.86 16.54 1.07 25.11-1 9.56-2.31 19.27-9.46 28.86-10.4 7.98-.78 16.23.96 24.31.31 22.62-1.8 56.75-7.81 77.65-19.74 21.65-12.35 22.89-8.11 46.97-13.64.2-.05.41-.1.62-.14-1.93-46.06-57.55-84.16-83.28-129.27-11.64-20.4-11.58-43.28-11.11-66.08.14-6.6.19-13.2.24-19.8.01-2.43.06-4.84.12-7.27.04-1.39-.88-5.14.11-4.17 21.27 20.74 29.88 51.71 50.42 73.49 11.74 12.45 25.38 15.75 38.79 20.99-.73-1.5-1.43-3.02-2.12-4.55-4.05-9.03-8.03-18.27-11.24-27.66-17.48-51.3 7.13-50.21 15.59-103.9 3.2-20.34 1.84-39.81.26-60.19-.51-6.59-.98-13.19-1.35-19.79-.17-3-2.19-11.38-.38-8.99 3.2 4.23 4.59 10.85 6.38 15.77 4.6 12.62 8.64 25.83 14.83 37.78 6.59 12.7 14.49 20.87 18.19 35.4 4.97 19.52 3.47 40.44 9.89 59.72 3.96 11.88 9.42 22.83 15.43 33.43.7-2.37 1.71-4.55 3.26-6.27 3.64-4.08 9.79-2.31 14.66-3.38 3.86-.85 7.28-2.92 11.02-3.95 8.48-2.34 19.29-4.08 25.44-11.19 3.67-4.23 6.99-11.3 11.85-14.53 12.1-8.05 23.16-19.58 31.15-31.85 4.09-6.28 6.82-13.35 8.73-20.57.95-3.62 1.05-8.79 2.97-12.13 1.4-2.44 6.24-3.8 8.53-5.49 6.18-4.56 12.6-8.81 18.68-13.36 2.61-1.94 5.8-6.49 8.81-7.86 2.62-1.19 5.63-1.63 8.76-1.69-8.37-31.94-13.04-65.3-5.26-89.29 6.51-20.09 22.17-35.94 30.52-55.28 9.59-22.2 14.54-46.14 15.99-70.22.53-8.9.61-12.69.87-21.31.17-5.7.41-11.9.55-11.59 8.18 18.48 11.5 38.83 17.88 57.95 7.78 23.31 22.55 41.88 22.75 67.39.22 26.47-21.57 44.66-30.5 68.5-5.68 15.15-7.76 31.02-9.07 46.99 5.76-3.07 11.44-6.63 17.34-9.13 4.08-1.73 8.82-1.3 12.99-3.1 1.51-.65 2.99-1.39 4.46-2.14 3.04-1.54 4.31-2.84 5.84-3.37 3.53-3.77 7.09-8.15 10.7-13.31 12.9-18.46 22.09-37.77 30.08-58.73 2.46-6.42 4.53-12.95 6.8-19.43 1.8-5.12 3.66-10.22 3.77-9.96 4.19 9.54 21.05 99.15 18.8 115.85-2.89 21.4-15.28 40.18-20.03 61.11-.11.47-.21.94-.31 1.41 7.31-1.24 12.84-2.97 22.39-5.55 2.08-.56 4.51 1.21 7.12.19 4.52-1.78 9.56-7.55 13.96-8.46 4.76-.98 10.89-2.53 15.75-2.25 4.96.28 9.19 2.4 14.46 1.3 7.37-1.53 12.97-7.13 19.93-9.14 2.99-.86 7.42 1.99 10.97 1.22 6.15-1.33 12.27-6.09 18.22-8.54 9.53-3.94 19.31-10.6 27.21-17.96-4.09-38.73-10.01-77.29-11.26-116.34-2.14-67.08 10.85-129.25 14.4-195.76 2.4-44.95-4.29-90.23-.26-135.09 4.44-49.6 21.88-96.69 21.62-146.931-.29-55.867-17.39-110.251-17.2-166.619.16-46.527 15.18-94.223.23-139.793a135.62 135.62 0 0 0-5.9-14.892c-15.86-13.184-31.03-27.24-38.01-36.083-6.14-7.769-9.39-17.029-16.26-24.753-9.43-10.612-25.51-19.734-32.13-32.598-6.79-13.181-12.58-28.708-17.22-42.822-2.36-7.157-2.15-17.467-6.42-23.677-10.94-15.877-54.27-49.4-71.18-58.038-11.72 6.854-23.87 11.149-36.45 11.433-52.43 1.183-100.12-38.369-146.71-58.882-5.23 2.449-10.49 4.896-16.12 5.403-14.89 1.345-33.95-9.406-48.79-5.224-17.79 5.01-31.27 28.222-50.06 26.526-11.29-1.019-21.5-7.121-32.46-9.908-31.67 12.465-64.18 22.666-106.38 15.636-21.89-3.647-43.41-16.769-63.77-30.471-7.11-1.686-14.12-3.862-21.55-4.542-20.93-1.916-41.97-1.388-62.94-2.269-11.29-.473-21.89-3.827-33.32-4.265-17.37-.665-34.69-.581-52-.261-27.72 10.646-55.65 21.182-84.62 23.916-50.28 4.746-105.89-4.548-153.54-22.455-30.65 4.765-60.67 13.003-92.03 13.63-39.82.797-80.68-11.974-120.58-15.549-15.68-1.405-72.37 3.157-81.01-7.089-3.57-4.234-6.49-9.37-8.76-15.137-35.97-1.066-72.28-4.525-108.57-7.557-27.14 12.184-54.42 24.123-84.43 26.354-46.07 3.424-89.62-9.005-133.15-20.816-21.45.697-40.77 1.256-42.68 1.218-22.5-.443-45.31-18.826-62.15-18.181-13.32.511-29.43 10.532-42.52 13.463-13.26 2.967-28.33 4.255-43.51 5.087-40.28 17.294-79.15 39.677-122.27 41.717-47.97 2.27-93.74-16-139.81-29.527-25.55-1.888-51.08-4.253-75.941-4.596-22.426-.31-41.108 11.515-65.579 8.19-12.436-1.69-21.946-7.69-31.353-13.628l-.804-.01c-17.084-.229-31.622-4.384-47.141-6.471-2.631.943-5.029 1.686-6.942 1.921-12.961 1.595-26.021 1.857-39.003.936-36.68 8.206-72.829 23.271-110.689 23.103-22.991-.103-42.902-11.077-63.072-20.829-6.143.474-12.225 1.057-18.218 1.852-16.969 2.251-34.278 10.787-51.309 14.054-15.465 2.966-33.132 1.241-48.009 5.923-8.869 2.791-17.554 7.189-26.287 11.918-15.067 16.194-28 24.318-48.318 21.225-4.005.784-8.089 1.233-12.268 1.256-48.2.264-68.769-19.174-104.22-9.281-10.657 21.883-18.334 44.944-27.251 68.052-3.103 8.043-7.556 18.63-13.545 28.148 9.513 56.921 23.081 113.68 20.355 173.002-5.803 126.268-25.236 255.253-17.645 381.861 2.735-4.39 5.203-8.96 7.297-13.77 1.844-4.24 3.716-8.94 5.58-13.99.314-1.49.614-2.97.905-4.47 2.47-12.689 6.366-25.309 8.631-37.949 1.815-10.133 2.008-20.632 3.94-30.854 2.441-12.912 5.788-25.874 7.37-38.911 4.048-33.346 4.394-67.734 11.027-100.918 3.318-16.603 5.037-33.291 9.324-49.726 1.442-5.526 3.176-13.424 7.795-17.257.504-.418.279 1.279.44 1.913.389 1.531 1.001 2.991 1.564 4.463 1.546 4.04 3.32 7.992 4.598 12.132 1.284 4.16 2.251 8.36 2.968 12.589 1.166-.026 2.427-.406 3.831-1.03 1.014-.452 3.455-2.085 4.653-1.792 1.228.301 2.052 1.136 2.829 2.037 3.426-4.402 6.659-7.027 9.426-6.856 9.03.557 12.049 10.379 12.814 20.6a28.066 28.066 0 0 1 2.021-.411c5.244-.874 11.857-1.801 17.061-.061 8.188 2.738 13.433 14.315 16.792 21.385 3.448 7.259 7.29 14.506 9.761 22.181 3.981 12.371 5.417 25.258 7.562 38.008 3.2 19.017 6.19 37.916 12.437 56.229 5.503 16.135 10.227 32.903 18.441 47.933 3.394 6.21 7.883 42.265 10.82 48.695.445.98 3.62 5.58 2.306 6.27-2.633 1.36-6.87.03-9.59-.42-7.696-1.28-15.357-3.41-22.759-6 6.499 8.36 13.268 16.61 21.281 23.38 3.459 2.93 7.663 5.27 11.69 7.32 3.106 1.59 9.793 3.91 6.248 8.58a13.3 13.3 0 0 1-2.032 2.13c-7.084 5.86-15.405 8.91-24.109 10.15 2.765 18.85 2.692 37.93.564 56.85-.836 7.42-2.345 14.72-3.601 22.07a292.764 292.764 0 0 1 47.629-26.6c2.667-5.89 4.792-12.07 6.902-18.1 6.163-17.6 12.164-35.62 14.212-54.24 1.002-9.11 2.505-18.24 2.981-27.4.308-5.92-.151-13.89 3.057-19.092.269-.437.576.852.847 1.282.532.85 1.002 1.74 1.443 2.65 1.354 2.76 2.367 5.67 3.319 8.59 3.005 9.22 3.854 18.55 4.838 28.17 1.017 9.93.275 19.23-.873 29.09-1.434 12.31-3.798 24.66-4.737 37.04 4.514-1.41 9.085-2.72 13.711-3.93 73.972-7.54 107.371-77.02 107.371-77.02s2.111 10.31-.832 13.9c-11.976 14.61-4.732 14.75-21.022 29.76-7.674 7.07-68.068 57.21-76.721 60.31-2.206 5.2-.805 11.42 4.798 16.11 7.054 5.91 16.154 7.03 25.046 8.02 13.155 1.46 26.433.83 39.643.81 4.093-.01 8.184.24 12.277.08 1.296-.05 2.592-.07 3.888-.11.18 0 2.124-.08 2.125-.07.124 2.42-11.759 8.8-13.4 9.83-8.337 5.26-12.177 3.53-21.849 4.16-3.922.26-7.857.36-11.793.41-.279-.09-.559-.17-.839-.25-2.282-.04-4.563-.25-6.834-.38-6.607-.36-13.096-.91-19.68-1.62-8.507-.93-17.312-1-25.73-2.51-9.632-1.73-18.989-4.8-28.324-7.66-3.022-.93-6.076-1.78-9.145-2.57-7.69.02-15.334.5-22.706 3.16-3.729 1.35-7.387 3.49-10.753 5.91-.111.16-.22.31-.325.47-1.586 2.41-3.852 14.81-4.155 17.02 7.044 1.94 14.502 3.36 22.035 4.29 1.147-.03 2.294-.06 3.441-.11 7.744-.29 15.513-.06 23.248-.42 4.683-.22 31.251-1.06 32.364-1.2 1.148-.14 5.116-.18 4.348.69-1.569 1.77-8.398 6.09-10.113 7.96-1.096 1.19-2.437 2.35-3.848 3.17-2.936 1.7-5.764 2.86-9.012 3.95-4.499 1.5-9.349 2.4-13.961 3.42-20.828 4.62-44.078 7.41-65.562 7.02-4.256-.08-9.643-.86-15.07-1.22-.111.16-.209.31-.292.43-2.988 4.49-4.549 9.64-7.558 14.05 8.866.27 17.119.9 28.134 6.39 3.455 1.73 7.951 3.28 10.193 6.65 5.542 8.33-6.44 16.9-11.74 21.5-6.517 5.65-11.348 13.53-17.931 18.75-4.018 3.18-20.799 10.5-23.075 11.29 1.28 2.05 2.893 3.99 3.605 6.17.641 1.96.469 4.01.384 6.01.249.3.432.61.488.9l.006.04c1.05.55 2.013 1.2 2.845 1.97 3.975 3.69 6.268 10.92 9.124 15.51.328.52.658 1.05.99 1.58 7.099-18.99 31.578-37.05 41.622-33.96 10.815 3.33 21.534 44.25 21.958 58.32.185 6.15-3.224 13.03-4.067 19.11-.467 3.37-.911 6.76-1.581 10.08 10.265-4.16 8.234-6.91 17.341-14.32-.791-10.79.238-39.93 2.029-56.18 1.542-13.99 2.789-29.7 8.716-41.3 5.915-11.58 18.021-26.84 26.841-28.31 8.821-1.47 20.945 15.27 26.08 19.49 14.996 12.33 30.717 22.53 41.613 39.1 3.534 5.37 4.407 11.72 6.75 17.62.082.2.163.41.245.61 13.268-16.62 23.31-30.12 22.909-33.47-1.083-9.03 13.916-40.17 15.928-44.85 5.182-12.05 7.488-21.06 12.255-30.19 3.927-7.52 10.857-19.89 14.742-23.56 40.463-52.07 72.847-86.38 78.519-80.12-3.845-11.26-3.814-22.98 4.583-35.8 10.677-16.29 22.748-33.79 36.702-47.4 4.978-4.86 11.215-8.35 16.567-12.79 8.507-7.058 15.262-14.307 25.545-18.675 8.899-3.779 19.545-8.984 29.269-8.428 12.558.719 23.341 9.318 36.12 9.049 10.1-.213 20.948-4.266 30.739-5.971 20.71-3.607 42.142-6.569 63.187-6.61 11.39-.022 22.55 1.091 33.52 4.167 6.79 1.901 15.12 6.939 22.35 7.353 8.91.511 17.3-4.436 25-8.21 13.12-6.426 27.01-14.183 41.33-17.217 19.63-4.157 42.33-3.317 58.58 9.784 7.42 5.981 11.84 14.605 18.71 21.098 9.68 9.151 20.12 17.34 29.95 26.32 5.99.49 13.26.71 18.2 4.26 2.71 1.94 4.23 5.11 6.57 7.43 6.17 6.1 17.49 13.25 26.82 12.78 19.9-1.02 30.58-17.67 47.49-25 14.43-6.27 30.34-8.66 45.48-12.65 15.21-4.004 31.27-9.688 46.95-11.626 14.44-1.786 32.94 10.049 45.46 16.416 11.84 6.03 25.74 9.6 36.49 17.63 7.44 5.55 14.43 11.65 21.42 17.75 2.82 2.46 5.61 6.28 9.15 7.83 5.4 2.35 11.67 1.75 17.25 3.59 11.46 3.77 22.16 11.54 31.87 18.49 5.12 3.67 10.82 7.22 14.17 12.71 9.18 15.1 7.57 33.46 10.65 50.17 4.19 22.66 11.43 44.58 16.07 67.06 2.46 11.93 3.02 23.93 6.22 35.77 5.01 18.52 9.65 37.21 18.82 54.18 4.24 7.86 8.94 15.79 14.82 22.54 4.87 5.61 12.94 12.18 13.38 20.38.32 5.96-3.47 13.18-5.38 18.61-1.94 5.53-4.4 10.98-6.69 16.38-3.2 7.54-6.89 16.52-13.55 21.85-12.3 9.84-27.53 18.39-43.03 21.77-9.86 2.15-18.52.34-28.1 3.94-11.38 4.27-28.3 13.78-37.47 15.41-6.06 1.08-11.76-3.46-17.58-5.6-2.32-.85-4.75-1.72-7.2-2.65a35.626 35.626 0 0 1-6.89 4.68c-.05.02-3.38 1.9-3.53 1.72-.36-.39.2-2.17.3-2.7.5-2.41.96-4.92 1.57-7.32-.05-.03-.1-.05-.14-.07-1.84 1.19-4.76 3.08-4.76 2.93v-.12c-.77.7-5.48 2.94-6.32 3.52-.29.2-1.98 1.5-2.44 1.32-.33-.14.77-3.02.84-3.23.39-1.16 3.37-5.66 3.68-6.93-3.04 1.41-6.25 2.52-9.39 3.63-4.7 1.67-13.61 6.36-18.54 6.88-.58.06-2.35-2.3-2.03-2.59 1.81-1.66 7.53-7.47 8.98-9.47 3.53-4.87 6.77-10.41 9.12-16.12-2.18.63-4.4 1-6.71 1.24-1.55.16-3.12.29-4.68.35-1.74.06-3.48.08-5.23.09 0 0-2.4.1-2.43.01-.66-2.47 2.41-5.01 4.03-6.3 2.64-2.08 5.31-3.95 7.78-6.04-.77-.08-1.53-.22-2.28-.46-.29-.09-2.48-.88-2.36-1.39.04-.17.14-.37.3-.58-2.44.71-6.99 2-8.21 1.24-1.02-.64 1.61-4.6 2.06-5.23 2.22-3.1 4.72-5.73 6.88-8.62-.15-.38-.29-.75-.43-1.13-3.53.19-7.17.03-10.51-.53-.73-.12-5.05-.98-4.92-1.87.07-.46 3.92-1.93 4.14-2.05 2.77-1.51 5.48-3.04 7.98-4.92l-.09-.27c-.02 0-.04-.01-.05-.01-.92-.27-4.83-1.6-4.37-2.86.18-.51 2.09-1.21 3.03-1.55-.21-.69-.42-1.38-.62-2.07-4.41-.12-8.82-.8-12.39-3.38-.47-.34 1.16-.11 1.74-.21 1.09-.18 2.16-.46 3.22-.79 1.9-.59 3.78-1.4 5.58-2.32-.32-1.25-.64-2.51-.96-3.77-4.53.27-10.21-.22-13.09-2.55-.44-.37 1.1-.37 1.63-.58.95-.36 1.9-.72 2.83-1.11 2.41-1.01 4.56-2.22 6.59-3.76-.24-.9-.48-1.8-.73-2.71-3.17 1.01-6.52 1.36-9.84 1.4-.67.01-3.58-.34-3.72-1.23-.04-.24 6.71-4.47 7.11-4.68 1.73-.88 2.14-8.7 2.14-8.7s-2.08-4.88-3.31-7.21c-2.65-4.98-5.53-10.32-9.59-14.34-3.63-3.59-8.73-4.59-13.43-6.1-1.2-.39-2.43-.8-3.67-1.19l.01-.19c-.19.01-.37.01-.56.02-6.95-2.14-14.19-3.48-19.85 3.16-.54.63-.97 1.34-1.31 2.1-14.97 8.71-24.57 25.6-30.65 41.18-.82 2.09-1.61 4.18-2.38 6.28.06-.01.12-.02.19-.03-.43.54-.84 1.09-1.23 1.65.83 1.25 1.69 2.48 2.67 3.63.34.39 2.29 1.95 2.37 2.49.19 1.35-4.44 1.52-4.82 1.54-1.34.05-2.68-.09-4-.3-.02 0-.04 0-.06-.01-.71 1.9-1.25 4.32-1.58 5.84-.23 1.07-.67 2.2-.4 3.27 1.12 4.44 2.51 17.36 7.13 23.39 1.06 2.37 1.84 4.97 3.58 7.55 2.88 4.26 7.29 7.67 11.22 10.89 7.26 5.94 9.92 14.32 19.46 14.52 4.56.09 15.61 1.07 17.15 2.69 6.75 7.11 5.73 6.54-.61 7.83-15.75 3.19-31.21 5.52-46.81 1.06-10.26-2.93-18.31-8.82-24.79-16.36l-1.2 4.47c2.33 1.49 11.72 10.87 10.51 11.16-3.06.73-11.76-.89-15-.31 2.98 1.64 6.14 2.99 9.27 4.25 1.65.66 3.33 1.18 5.05 1.63.57.15 1.13.31 1.7.45.3.08 1.16.03.91.23-2.38 1.91-6.68 1.84-9.61 1.92-3.6.1-7.19-.04-10.79-.16a87.502 87.502 0 0 1-.8 2.47c3.57 2.32 7.65 3.84 11.63 5.34.46.17 5.3 1.6 5.36 1.99.34 2.33-5.06 2.52-6.11 2.57-4.61.22-9.32.14-13.98-.15-.56 1.86-1.12 3.73-1.68 5.6 2.65.76 5.35 1.25 8.12 1.4 1.56.08 3.13.07 4.69.07.08 0 1.13-.03 1.15.05.61 2.14-3.82 4.3-5.32 4.94-3.6 1.51-7.52 2.22-11.47 2.84-.96 3.04-1.96 6.06-3.05 9.05 3.08 2.65 6.28 5.2 8.93 8.25.81.93 1.65 1.94 2.3 3 .34.56.62 1.21.87 1.82 1.92 4.72-4.89 3.12-7.63 2.77-1.69-.21-3.38-.55-5.03-.96-1.64-.42-3.26-.96-4.82-1.64-.7 1.61-1.43 3.21-2.18 4.79.4.11.81.22 1.22.34 1.86.52 3.74 1.01 5.61 1.49.88.22 1.75.45 2.61.73 1.08.35 2.76.87 3.37 1.93.03.05-1.06 1.09-1.09 1.12-1.25 1.23-2.8 1.94-4.45 2.49-4.8 1.63-12.16 2.3-14.75 3.1-.6.18-.53 1.18-.82 1.68-.27.46-.45 1.05-.91 1.32-2.21 1.28-7.46 5.13-12.33 6.36-1.6.41-3.21.68-4.81.79-6.26 1.7-11.79-7.98-18.05-11.28.77 15.81.22 31.69.01 47.5-.21 16.32-.37 32.77-1.8 49.03-.03.37-.08.67-.16.88 2.15 5.82 2.72 14.06 2.15 22.97-.22 11.11-2.26 22.15-6.41 32.5-2.79 8.23-6.23 14.88-9.82 17.98 3.44 6.7 4.94 10.43 8.58 16.46 3.32-.24 6.64-.49 9.96-.77 6.22-.53 17.26-4.08 23.07-.69.69.4.64 9.07.73 9.78.93 7.16 2.28 14.23 3.45 21.34 5.26-4.48 10.13-9.47 14.5-14.81 1.37-1.67 3.82-7.28 5.78-8.61.25-.41.52-.6.83-.28 2.04.15 3.78 6.65 5.64 9.78 1.6 2.69 4.84 5.99 7.87 9.51 1.73-2.84 4.32-6.42 6.81-6.52 2.82-.12 7.69 2.41 10.08 3.16 6.66 2.11 13.19 4.66 17.56 9.19 8.18-11.4 9.1-29.32 19.79-50.15 13.51-26.34 32.88-45.77 54.65-64.85 24.78-21.73 50.71-52.98 85.92-24.81 24.38 19.52-4.61 57.34-8.56 78.42-4.07 21.67 2.16 45.39-6.22 66.19-11.69 29.05-35.33 24.49-51.41 45.16-3.18 4.1-5.83 8.06-8.12 11.95-.24 2.02-.65 4.01-1.5 5.88-1.69 3.71-4.14 6.97-6.53 10.27-4.4 10.27-7.88 20.34-13.96 31.06-.87 2.91-1.67 5.93-3.24 8.47-2.67 4.31-6.14 7.34-9.85 10.11-4.91 5.72-10.9 11.71-18.38 18.07-.4.34-.81.68-1.22 1.02-2.34 3.62-4.66 7.27-7.7 10.25-4.05 3.98-9.8 5.45-14.77 7.84-2.33 1.13-4.63 2.29-6.93 3.45-6.36 4.1-12.98 8.08-19.82 11.9-.41.65-.85 1.32-1.42 1.96-2.21 2.51-4.76 4.53-7.62 5.75Zm-920.061-842.95c-1.499-.09-2.996-.21-4.485-.36-19.151-1.97-39.305-6.03-52.314-21.46-4.581-5.44-5.543-12.21-7.347-18.87-3.166-11.7-4.845-52.855-5.164-64.898-.182-6.881-1.111-13.749-.625-20.638.671-9.498.801-19.126 2.12-28.565.964-6.901 3.593-13.553 4.19-20.499.406-4.718-.202-13.025-4.488-16.332-1.086-.837-2.364-1.361-3.745-1.709.266 7.652-3.693 15.265-5.953 22.359-.023.07-.045.141-.066.212a533.93 533.93 0 0 1-.441 1.705 23.048 23.048 0 0 0-.419 6.665c.192 2.279 1.255 4.797.643 7.079-.619 2.307-2.584 4.143-3.767 6.15-1.731 2.938-3.412 5.961-4.714 9.133-.648 2.126-1.303 4.248-1.963 6.365-.983 4.857-.859 9.567-1.664 14.429-2.234 13.485-3.019 27.353-5.758 40.74-1.018 4.978-2.369 10.704-4.475 15.354-1.633 3.6-3.836 6.74-5.216 10.51-1.36 3.72-2.239 7.71-2.822 11.61-.312 2.09-.124 4.41-.895 6.43-1.828 4.77-5.791 8.61-7.995 13.25-4.347 9.14-3.59 19.21-4.023 29.01-.185 4.21-1.062 7.47-2.562 11.28-.176.45-.258 1.98-.639 2.47.188.7.395 1.41.622 2.13 1.549 4.88 4.952 9.6 5.484 14.72.304 2.93-2.647 6.22-2.723 9.41-.153 6.48 2.046 12.68 2.088 19.13.024 3.78-.886 7.4-.971 11.16-.075 3.36.807 7.64 1.156 10.94.233 2.22.203 5.7 1.073 7.79 1.952 4.69 7.969 5.74 11.433 8.87 1.048.94 1.093 3.26 1.74 4.51 1.11 2.13 3.113 3.87 4.052 6.05 2.1 4.89.381 10.64 1.286 15.64.437 2.42.621 5.52 1.585 7.78 1.361 3.17 3.199 5.7 4.39 8.9.757 2.04 1.577 3.84 3.116 5.42 1.403 1.45 7.897 4.89 6.546 8.36-.541 1.39-2.129 1.84-3.567 2.09 2.614 5.84 4.981 11.81 7.299 17.8a291.446 291.446 0 0 1 52.37-70.62c10.274-27.66 19.745-55.77 24.277-84.87 1.378-8.85 2.322-17.74 3.331-26.63Zm-108.376 262.38a.465.465 0 0 1-.033-.07c-1.4-3.03-1.382-6.21-2.93-9.33-1.758-3.54-4.287-6.69-5.921-10.29-1.527-3.36-2.243-7.07-3.928-10.35-2.094-4.08-5.161-7.19-7.384-10.98-1.437 51.25-8.84 100.2-15.183 149.07 8.955 31.9 17.658 64.04 17.953 97.47.104 11.88-8.069 22.23-7.798 33.97.159 6.86 7.502 13.93 6.312 20.54-2.378 13.22-9.108 22.72-7.449 37.42 1.643 14.56 11.201 38.68 18.68 50.77 2.955 4.78 12.155 11.39 12.833 17.49 1.393 12.55-7.103 22.68-1.834 35.89 5.398 13.54 14.868 15.84 19.849 24.85 3.787 6.86 2.874 15.5 8.93 21.21 4.888 4.61 16.718 2.9 18.406 5.46 4.515 6.85 3.735 15.79 10.143 21.82 1.15 1.08 3.644 2.61 6.737 4.26.525-.55 1.05-1.08 1.576-1.62-3.955-19.33-6.931-38.74-4.011-58.18-7.268-11.74 4.658-69.26 21.552-130.59-11.463-15.18-16.545-30.47-27.798-51.25-25.586-47.24-55.566-109.08-63.459-161.57-1.751-25.88-.059-51.38 4.757-75.99Zm918.107 67.3c1.01-14.6 2.62-28.85 3.77-41.89 1.06-12.12.54-24.25 1.28-36.37.06-.97 1.43-9.42.72-9.87-1.68-1.07-6.44 1.21-7.91 1.95-6.29 3.15-11.25 8.48-17.13 12.3-13.13 8.56-26.07 18.04-40.65 24.04-8.74 3.6-19.42 3.55-27.87 7.68-.25.12 2.54 2.52 4.36 3.97 4.68 3.72 10.41 6.24 15.85 8.61 3.85 1.68 7.62 3.42 11.28 5.52 2.84 1.63 5.57 3.42 8.28 5.26 4.89 3.32 13.56 9.98 17.91 17.46 3.89-.38 7.73-.67 11.72-.85 6.12-.3 12.82-.6 18.39 2.19Z" style="fill:#404040"/></svg>