<svg xmlns="http://www.w3.org/2000/svg" xml:space="preserve" style="fill-rule:evenodd;clip-rule:evenodd;stroke-linejoin:round;stroke-miterlimit:2" viewBox="0 0 3508 2481"><path d="M0 2480.32V0h3507.87v2480.32H0Zm388.626-258.94c24.369-3.82 52.916-9.33 79.461-14.13-21.876-4.22-49.112-11.26-82.576-30.19-3.689 13.08-6.348 23.07-8.404 31.5 2.804 7.18 6.68 10.91 11.519 12.82ZM3139.56 222.105c-15.74 2.933-16.92 2.466-19.15 1.575-26.67-10.631-42.86-17.84-54.75-21.949-17.4 2.94-37.43 9.555-52.58 7.843-15.26 3.162-47.74 6.664-123.75 5.093-90.79-1.878-90.51-.665-98.15-2.518-81.46-19.777-190.75-8.205-218.49-17.4-49.94-16.556-81.58 9.181-128.7-3.613-20.12 37.327-90 6.09-117.26 9.902-60.34 8.439-57.04-23.167-118.08-19.84-57.49 3.135-93.57-.298-123.89-5.843-30.53.414-53.73-1.295-72.92-3.465-15.98-4.276-35.05-6.827-57.27-6.921-9.66-.609-19.31-.528-29.95.75-61.7 2.375-96.45 7.896-118.58 14.653-11.13-2.745-20.85-7.071-29.49-12.298-22.71 11.42-38.47 10.735-71.05 18.558-19.69 4.727-30.05 15.823-72.81 10.255-213.5 59.137-292.81-20.063-392.49 18.878-12.33 4.817-89.44 34.941-164.61 16.934-14.44-3.46-26.33-8.056-36.21-13.443l-10.02.012c-33.987-20.11-79.534-34.031-138.951-9.973-6.442 2.608-11.518 5.97-15.367 9.795-128.47-.941-186.75-5.288-222.398-23.116-23.948 1.37-52.508 4.521-87.771 11.047-75.746 14.017-82.414 14.75-199.385 13.805-18.337 32.524-20.67 62.927-40.67 132.63-17.005 59.265-48.807 65.537-78.882 77.541-1.377 82.131-4.911 172.341 2.531 229.946 1.001 7.75 1.057 14.773.408 21.286-22.568 54.928 6.151 171.386-26.652 269.35-5.653 16.883-22.737 48.951 2.024 59.521-6.719 26.03 1.042 37.08-7.137 78.41-1.303 6.58-2.541 12.69-3.718 18.4 4.54 39.8 6.58 64.34 1.905 90.88 8.606 42.63 1.95 48.49-4.23 66.25-.994 2.86 5.072 2.98-1.185 37.8-7.723 42.98 21.517 93.5 15.67 126.39-1.391 7.82-2.47 15.35-3.467 22.52 34.535 103.35-31.814 202.41-7.103 321.58 18.652 32.43 43.08 70.37 91.506 179.83-13.467 11.06-24.548 19.76-33.593 26.63 7.453 14.99 16.738 33.71 26.842 55.1 23.289-2.42 36.541 2.28 53.019 23.37 53.877 68.95 115.368 67.04 142.27 69.21 23.627 86.04 66.797 39.28 170.942 104.06 21.742 13.52 39.222 21.9 52.775 27.11l.472-.39c60.653-50.53 81.849-52.39 129.89-49.94 7.169 3.69 14.717 5.23 21.29 5.63 94.52 5.76 94.292 18.64 187.145-4.78 3.73 3.61 10.06 9.73 19.38 16.94 2.82-1.71 5.76-4.4 10.57-8.7 3.23-2.88 36.38 7.58 36.64 8.15 5.35 11.44 12.84 24.47 33.1 4.42 7.67-7.58 25.15 30.48 42.06 21.47 8.39-4.48 9.33-9.36 19.22-1.51 4.61 3.67 11.3 4.14 2.59 17.3-2.95 4.44-5.54 8.39-7.92 11.88 19.81 2.61 41.76 3.88 65.99 3.26 3.7-3.21 8.06-7.03 11.86-13.4 19.67-32.94 23.75-31.51 29.39-69.75 6.03 13.86 7.33 12.96 21.87 28.77 14.16 15.41 19.6 22.37 28.33 25.77-.91-7.34-.61-13.81.37-16.4 9.29-24.43 19.48-21.66 20.82-66.6 42.53 44.05 59.03 30.87 66.17 61.31 2.51 10.66 8.07 7.69 26.89 16.1 87.98-15.53 135.4-10.96 224.3 10.44 5.13-.85 11.32-2.32 21.05-4.95 23.24-6.29 19.21 12.54 43.02 15.66 20.48 2.69 29.82-6.29 52.48-1.73 31.33 6.29 34-7.84 62.17 7.48 11.61 6.32 32.74-7.37 47.03-7.69 30.74-.68 59.86-10.7 64.29.55 56.03-6.99 57.23-38.51 84.45-29.04 28.76 10 38.6 6.83 59.58.88-.24-4.46-1.32-8.71-1.68-11.64-4.01-32.93 10.3-31.49 10.63-70.49 13.59 22.33 18.82 20.66 20.11 46.95.88 17.81 5.59 22.92 11.44 29.48 16.91-.46 34.02.2 46.04-1.27 1.7-20.22-1.7-23.02-11.6-31.66-16.72-14.59-13.22-29.99-6.57-67.86 15.5 23.37 16.8 30.67 67.3 47.61 8 2.68 13.12 6.5 16.37 10.98 31.89-.73 33.9 3.28 63.82-11.87 26.7-13.51 25.09-16.52 53.5-25.6-20.52 19.44-29.68 28.72-16.88 48.47 2.94 4.55 1.77 8.87-2.04 14.04 30.04 4.31 40.21 11.6 70.91 16.17 67.3 30.34 211.75 26.15 333.05 7.13 39.77-6.24 70.74-10.06 96.8-12.03 3.02-14.55-4.25-28.14 2.31-34.9 10.08-10.37 8.92-11.16 12.46-25.17 11 19.78 12.14 32.42 44.78 34.32 12.54.73 15.37 3.72 16.9 11.42 16.51-4.27 35.62-1.91 56.9 1.11-9.72-11.08-5.6-32.99 3.6-42.61 35.04-36.66 50.27-28.52 58.07-78.72 5.98 29.04 4.8 42.03 27.29 55.72.2.12.4.25.59.37 9.66-17.39 29.25-26.32 31.41-87.44 28.86 47.52 45.17 37.08 55.03 73.35 2.11 7.74-2.51 20.41 6.82 31.94 8.11 10.01 11.9 12 21.28 21.22 14.26-7.38 23.13-22.15 49.54-41.61.77-8.55-2.04-16.27.24-22.03-4.34-5.08-9.59-10.04-15.83-14.82-27.04-20.69 14.54-29.87 33.54-70.71 23.77-51.1 29.62-76.88 33.46-104.84-.63-.68-1.28-1.39-1.96-2.11-14.24-15.22-3.06-19.28-9.73-34.14-20.97-46.76 16.96-44.51 12.75-66.93-6.14-32.65-1.48-40.37 13.45-55.7-7.92-41.71-23.11-87.96-23.42-93.02-7.29-119.24-12.26-118.72-11.7-129.07 5.83-107.58 33.4-134.4-4.7-199.16 10.15-12.56 16.78-22.92 15.38-24.77-24.01-31.92-12.66-34.93-6.1-73.52 5.47-32.23-13.23-37.5-8.96-77.02 7.71-71.36 6.98-96.52 20.28-133.58-1.44-9.46 4.63-21.02 6.58-52.693 2.8-45.339 31.73-46.205 19.45-76.028-3.06-7.439-3.39-17.899-1.47-29.185-5.06-3.892-11.21-8.15-18.47-13.172 10.88-24.143 15.08-34.39 22.21-45.564-5.58-.755-10.83-2.453-14.93-5.634-7.27-5.65 10.48-25.679 10.57-28.854.11-4.502-28.92-8.953-26.01-21.969 3.63-16.294 5.16-28.782 5.27-38.571-10.87-25.538-24.21-51.937-40.38-78.644 2.99-7.245 6.06-13.993 9-20.306a140.23 140.23 0 0 0-2.47-5.167c-6.12-12.158 5.44-63.948 19.96-102.178-.95-73.682-7.73-110.272-6.41-161.33-14.65-8.298-21.29-23.059-27.4-42.583-5.96-19.044-53.27-15.595-72.37-57.612-4.64-.148-10.01-1.503-16.41-4.19-10.75-4.511-19.75-9.338-27.31-14.258-3.84-1.603-7.07-2.951-9.55-3.99.66-.444 1.31-.889 1.97-1.333-9.2-6.973-15.73-13.976-20.39-20.394ZM316.363 2174.52c16.238-.04 35.306-.03 64.694-.03-21.501-12.63-45.506-30.18-72.234-54.93-7.95 11.85-14.908 22.22-21.013 31.31 11.065 9.73 18.807 7.01 28.553 23.65Zm295.986 125.98c5.335.16 11.396.38 21.917.28 12.821-.12 21.588-16.83 34.193-10.55 12.568-5.85 24.67-12.77 36.052-20.74-75.58-9.79-193.83-54.04-209.213-57.25-3.64-.76-7.505-1.46-11.605-2.18 20.204 40.4 21.988 43.14 47.175 80.2 43.993-.42 56.458-.87 81.481 10.24Z"/></svg>