<svg xmlns="http://www.w3.org/2000/svg" xml:space="preserve" style="fill-rule:evenodd;clip-rule:evenodd;stroke-linejoin:round;stroke-miterlimit:2" viewBox="0 0 3508 2481"><path d="M3507.87 0v2480.32H0V0h3507.87ZM344.146 1084.22a459.196 459.196 0 0 1-4.064 36.28c9.534-1.65 19.096-3.1 28.655-4.57-8.106-10.14-16.741-21.35-24.591-31.71Zm556.605 276.87c1.452-31.5.128-64.69-1.346-96.23-3.211 3.48-6.565 6.7-10.037 9.48-16.134 12.91-35.732 20.52-52.268 32.69.828 10.27 1.09 20.54.18 30.85-.426 4.84-1.28 9.59-2.44 14.25.939.02 1.894.06 2.87.14 6.132.48 12.43 4.1 18.502 5.38 1.978.41 3.96.78 5.946 1.09 12.817-.14 25.512.32 37.986 2.33.202.01.404.01.607.02Zm335.349 48.53c5.62-.82 11.43-1.18 17.5-.9 10.51.47 20.9 1.7 31.19 3.41 2.48-8.23 5.85-16.15 11.95-21.79-.9-9.12-2.1-18.22-3.14-27.34-2.65-23.09-6.1-46.38-10.98-69.31-1.1.77-2.4 1.38-3.81 1.85-3.2 1.07-6.54 1.68-9.9 1.88-1.3.07-2.64.07-3.97.13-3.22 3.59-6.02 7.66-8.53 11.74-2.29 3.74-4.54 7.49-6.7 11.27 1.14 3.33.9 7.27-.44 10.37-1.82 4.23-4.92 7.49-8.16 10.68-1.18 1.17-2.31 2.32-3.44 3.44-2.51 6.32-4.59 12.84-6.09 19.67-.52 2.35-.95 4.7-1.31 7.06 3.2 4.96 4.28 10.88 2.18 17.22-1.03 3.12-2.69 5.96-4.28 8.84-.13 3.78-.19 7.56-.19 11.34 2.76-.4 5.48-.36 8.12.44Zm375.92-64.1c2.79-2.08 5.7-3.95 8.77-5.51 5.24-2.65 10.98-4.63 16.93-6.12.18-1.34.43-2.67.75-3.98 1.93-7.96 6.44-14.99 9.57-22.48 3.43-8.21 6.06-16.93 6.7-25.84.45-6.16-.34-12.35-1.32-18.48-4.38 1.06-8.61 2.69-12.49 5.13-10.34 6.49-17.55 17.28-25.05 26.63-2.58 3.21-5.19 6.36-7.85 9.42-.1 6.8-3.05 13.4-2.54 19.94.55 7.03 3.59 14.28 6.53 21.29ZM455.703 466.551a976.8 976.8 0 0 0-10.993 21.521c-39.868 80.656-8.131 156.433-16.452 241.894-7.98 81.949-64.445 113.194-80.749 181.462-9.44 39.527-3.321 82.191-2.259 122.312.086 3.24.143 6.47.17 9.69 1.359-.11 2.722-.21 4.092-.28 7.542-.41 38.239-4 43.593-.87 7.426 4.33 5.32 24.42 5.439 30.98.221 12.21-.663 25.07-.851 37.86 3.125-.58 6.247-1.19 9.364-1.83 7.507-1.56 14.963-3.79 22.123-6.53 1.076-.41 2.507-2.25 3.194-1.32 8.595 11.57 7.127 31.31 11.137 44.71 4.043 13.51 8.65 23.1 12.056 31.04 7.454-4.95 15.124-9.57 22.895-14.06 27.097-15.65 43.303-33.04 60.919-.93 4.228 7.7 8.236 15.69 12.065 23.61 5.003 10.34 9.771 20.88 15.507 30.85 2.794-.73 5.602-1.41 8.439-2.01 17.89-3.8 25.817-11.28 29.605 9.07.562 3.02 1.013 6.07 1.577 9.09.445 2.38 6.831 17.83 4.193 20.15-3.471 3.06-8.133 4.62-12.995 5.64l.016.02c8.897 7.38 23.024 14.19 33.721 19.25 1.331.63 11.877 3.76 12.076 4.92.495 2.88-1.233 6.33-.01 9.09 1.362 3.06 2.983 5.02 4.133 6.68 3.14 2.01 6.29 4 9.452 5.98 5.741.19 11.46-.57 16.817-2.76 4.867-1.99 8.702-5.12 12.626-8.53.292-.25 3.205-2.98 4.299-2.45 11.102 5.36 17.564 17.78 28.707 23.9 8.811 4.85 18.328 4.54 27.144 7.91 5.246 2 9.006 6.64 14.703 8.44 3.048.95 6.761.89 10.008 1.57.676-1.46 1.356-2.8 1.975-3.96 7.141-13.33 17.891-23.9 28.978-33.94.239-.22.48-.43.722-.64-10.961-21.51-27.636-41.19-38.485-61.3-17.703-32.82-21.295-72.3-13.699-108.7 5.424-25.99 21.678-49.04 35.134-71.46 5.633-9.38 11.548-18.61 17.057-28.06 5.306-9.11 5.953-22.83 16.959-14.24 1.496 1.17 2.788 2.57 3.985 4.04 1.792 2.2 3.339 4.57 4.747 7.02 2.384 4.17 4.418 8.54 6.307 12.95 3.281 7.65 6.692 15.26 9.644 23.05 4.787 12.63 7.697 26.13 9.578 39.5 2.256 16.02 4.039 32.26-.067 48.11-6.714 25.92-21.985 47.55-24.101 74.86-1.046 13.51-.161 26.92 1.327 40.29 2.482-2.8 5.181-5.42 8.191-7.75 8.622-6.69 18.887-10.8 26.371-19.02 12.866-14.14 19.741-31.31 26.843-48.8 1.471-3.62 2.936-7.27 4.421-10.92-1.087-4.23-1.207-10.26-1.645-12.49-3.832-19.54 5.698-38.27 12.63-56.3a106.8 106.8 0 0 0 1.432-3.94c1.461-5.75 2.991-11.49 4.558-17.24 2.527-12.85 3.417-25.44 5.883-39.22 2.86-15.97 6.998-31.85 9.522-47.832 1.216-7.697.055-15.466 1.667-23.233 1.733-8.356 5.729-16.036 7.314-24.463 3.654-19.425 2.794-40.212 10.725-58.448.328-3.033.654-6.067.98-9.1a11.02 11.02 0 0 1-4.746-3.334c-2.646-3.166-1.443-7.968-.733-11.594 1.856-9.485 6.054-18.728 9.574-27.66.19-.483.369-.965.537-1.444.696-6.81 1.38-13.622 2.049-20.434-.547-7.645-1.755-15.297-.615-23.727.709-5.254 2.377-10.268 4.254-15.225 1.237-14.047 2.384-28.1 3.413-42.161a35.309 35.309 0 0 1-.53-1.626c-2.267-7.598-3.244-15.705-3.358-23.617-.107-7.348 1.061-14.629 3.664-21.506.869-2.297 1.953-4.587 3.065-6.892.322-20.123-.111-40.497.411-60.709-1.927-10.23-3.547-20.491-3.263-30.827.266-9.715 3.474-18.615 5.676-27.981 2.475-10.529 2.54-21.481 5.217-31.963 1.872-7.332 5.261-14.043 7.334-21.269 3.943-13.746 5.07-27.919 9.926-41.613 4.159-11.725 11.308-21.674 16.688-32.781 2.02-4.176 3.02-8.589 4.28-12.977-5.29.174-10.56.551-15.815 1.219-5.701 3.597-11.308 7.339-16.92 10.952-51.966 33.449-108.806 56.025-166.853 76.784-30.091 10.762-102.17 21.471-137.118 23.686.37 4.374.002 9.015-4.276 8.336-5.296-.84-9.362-3.804-12.532-7.974-10.714-.242-21.627-1.096-32.605-2.469-.359 4.196-1.372 8.813-4.306 9.032-5.088.381-8.383-4.535-10.592-11.201-12.88-2.133-25.764-4.919-38.436-8.211-.889 25.359 5.734 51.428 7.677 76.099 2.645 33.582-3.871 64.938-11.742 97.234-4.319 17.725-3.04 36.018-1.086 53.968.635 5.832 1.103 11.749 1.016 17.617-.044 2.978-.237 5.996-.786 8.93-.054.287.025.966-.238.841-13.919-6.639-14.808-47.197-13.915-59.665 2.545-35.546 18.344-69.487 16.035-105.555-2.018-31.519-21.521-63.771-17.587-95.316a508.73 508.73 0 0 1-28.68-9.756c-14.692-5.491 1.591-13.254-12.831-19.376-18.426-7.823-37.047-14.575-55.967-20.668ZM2722.26 1319.55c8.91.21 17.81.95 26.64.58 12.44-.52 24.04-5.85 36.22-7.77 18.16-2.87 36.1-.37 54.16-.56 2.87-.03 5.69-.29 8.48-.67.75-4.13 1.33-8.31 1.77-12.55.35-3.4-.4-11.32 1.64-14.2 2.1-2.95 17.92-3.43 21.66-4.26 7.53-1.67 14.96-3.94 22.23-6.47 2.51-.88 5.77-3.48 8.54-3.24 5.64.5 11.36 10.21 14.7 13.67 2.69 2.8 5.35 5.28 8.06 7.54 2.21-9.06 4.98-17.98 7.21-27.04.86-3.47 1.59-11.97 4.7-14.74 6.33-5.66 18.06-7.7 26-9.91 1.61-.45 3.29-.94 4.93-1.34 2.61-.64 12.93-4.03 16.52-2.3 8.33 4.01 12.73 13.46 19.85 19.09 5.45 4.31 11.6 8.22 17.92 11.9 8.92-6.44 18.37-14.01 28.19-22.49v-.34c0-8.56 1.7-17.33.92-25.86-.61-6.82-10.47-5.52-14.06-11.11-3.51-5.45 1.06-12.5 2.7-17.7 1.16-3.67 1.99-7.41 2.86-11.15.96-4.11 1.42-14.81 5.84-17.31 1.38-.78 6.29 1.61 7.67 1.89 10.99 2.24 12.79 2.56 24.79 6.09.65-3.2 6.27-7.35 8.28-9.09 9.02-7.81 19.75-14.07 27.82-22.92 8.64-9.49 9.95-21.11 11.3-33.61.48-4.48-.18-13.75 3.01-17.64 2.49-3.03 11.2-4.6 14.6-5.65 7.39-2.26 14.6-4.82 21.63-7.99-.18-13.84-4.01-27.7-8.32-40.76-1.84-5.56-3.91-11.07-5.87-16.59-.08-.23-2.04-4.34-1.88-4.97.79-3.29 6.73-4.13 9.46-5.26 9.18-3.78 17.8-8.198 25.65-14.342 6.78-5.31 12.46-12.144 18.56-18.213 1.16-1.15 5.49-6.97 7.15-7.097 1.96-.15 4.41 2.192 5.72 3.38.39.35.77.705 1.15 1.062 6.16-12.765 9.56-26.815 11.05-40.909.62-5.864 1.02-11.752 1.23-17.644 0-.048-.07-5.03.22-5.212 3.63-2.323 11.73-.328 15.87-1.021 1.21-.202 2.41-.461 3.6-.768-5.67-9.46-9.38-20.102-10.51-29.875-1.46-12.587 1.5-25.318 4.51-37.458 6.35-25.604 17.89-50.992 17.82-77.712-.07-27.441-12.82-52.998-12.86-80.192-.04-26.957 11.37-52.068 11.77-78.763.18-12.453-4.26-24.57-4.53-37.094-.35-15.717 2.68-31.679 1.05-47.359-1.82-17.585-7.41-34.766-6.81-52.682.78-23.361 11.64-45.972 15.38-68.934 2.81-17.254 2.19-35.577-3.83-52.162-2.4-6.578-6.72-12.331-9.95-18.524-4.35 2.608-8.14 6.119-13.01 8.264-2.88 1.27-6.68.597-9.7 1.244-6.34 1.359-12.46 3.481-18.83 4.736-8.88 1.751-12.31-2.604-20.87-3.258-9.72-.741-19.51 3.806-29.15 4.68-2.8.253-5.59-2.363-9.1-2.038-8.55.791-16.18 5.47-24.54 7.007-1.56.287-3.49-1.161-4.99-1.354-4.6-.592-8.9-.691-13.55-.523-13.1.473-25.93 2.853-39.08 1.229-3.84-.476-8.96-.876-12.14-3.484-7.37-6.051-8.34-15.396-18.78-18.519-11.35-3.396-22.45-.266-33.84-1.497-2.73-.296-5.21-2.474-7.83-3.232-6.32-1.824-12.79-2.267-19.34-2.313-7.35-.052-16.47 3.396-23.76 1.928-4.65-.938-8.9-7.158-12.96-9.549-5.87-3.457-12.83-4.164-19.52-4.239-10.04-.112-20.02 1.449-30.05 1.621-4.58.078-10.66-1.361-15.12-.843-7.2.835-14.25 2.603-21.4 3.735-4.23.668-8.49 1.454-12.75 1.928-18.32 2.042-19.1 2.881-33.94-7.357-.69-.476-1.38-.957-2.06-1.441-2.92-.165-5.84-.356-8.75-.576-3.33-.251-6.79-1.106-10.4-2.31-7.7 9.912-33.4 1.14-50.19-9.281-2.84.309-5.68.603-8.5.891-17.31 1.771-34.57-2.973-51.73-7.044-32.34 10.972-65.71 16.533-100.75 11.374-5.04-.741-11.6-1.506-15.95-4.543-2.88-2.004-5.37-4.422-7.87-6.72-2.51.063-5.02.092-7.53.08-13.93-.066-30.45-1.397-48.12-3.16-30.89 4.083-62.62 8.745-93.41 4.161-8.07-1.203-20.15-2.463-27.1-7.282-2.55-1.767-4.36-3.729-5.98-5.623-6.51.374-12.61 1.031-18.2 2.037-23.02 4.145-45.69 9.599-68.43 14.715-1.31-3.8-2.67-7.436-4.15-10.884-3.43.88-6.86 1.83-10.28 2.857-25.71 7.727-46.36 22.951-74.12 20.557-20.27-1.748-39.07-9.458-57.44-18.425-3.79 1.193-7.54 2.49-11.23 3.916-5.24 19.743-25.04 41.203-42.81 42.519-16.44 1.218-30.62-3.976-46.21-4.645-23.48-1.007-46.97 3.513-70.59.669-8.31-1-17.04-5.72-25.21-6.176-13.93-.778-27.7 6.082-41.8 5.804-13.56-.267-26.02-7.724-35.28-7.828-12.64-.142-25.5 5.266-38.25 5.67-9.59.304-17.33-4.157-26.25-4.907-12.83-1.077-26.33 2.076-39.35 1.454-13.14-.628-26.08-5.159-38.95-5.608-14.95-.521-32.88 5.562-48.26 6.657-43.67 3.109-73.47-18.324-105.8-6.239-6.46 21.131-8.65 37.644-12.51 60.571-1.47 8.705-4.72 17.333-5.25 26.166-.8 13.289-.27 26.826-.48 40.152-.21 12.668-3.28 25.252-3.64 37.97-.98 34.891 4.63 71.013-4.37 105.037-4.2 15.832-2.47 34.782-2.69 50.977-.01 1.009.01 2.236.01 3.594 2.32 17.574 5.19 34.894 8.6 51.756 6.77 33.487 18.35 65.133 23.05 99.119 14.38 103.883 18.93 209.675 23.18 315.062 5.6 6.38 10.36 13.4 11.53 21.3 1.22 8.25-1.64 16.51-2.89 24.58-1.05 6.69-.33 13.85-.33 20.59.01 18.62-.6 37.39-.2 55.95.16 7.77 1.71 15.47 1.66 23.23-.04 8.6-1.61 16.84-1.01 25.52.23 3.37.66 6.68 1.15 9.97 9.24-10.4 20.85-18.52 28.43-30.65 4.46-7.14 7.81-14.84 10.35-22.86 3.16-9.96 4.86-20.34 7.87-30.34 3.57-11.86 8.4-23.28 11.92-35.14 1.63-5.5 3.61-10.66 6.02-15.87.77-1.68 1.51-4.68 3.44-5.37 2.75-.99 5.54 1.08 7.39 2.92 4.53 4.53 7.26 11.1 9.37 17.05 6.18 17.44 12.37 36.23 13.71 54.72.56 7.64 1.12 15.68-1.63 22.99-1.92 5.1-5.12 11.43-9.77 14.63-5.02 3.45-11.19 4.56-17.39 5.08 2.17 4.49 3.56 9.41 4.17 14.54 2.31 19.3-15.14 32.92-12.4 52.28 1.4 9.89 7.04 18.67 15.05 24.55 4.88 3.59 11.77 5.2 14.59 11.04 4.52 9.34 3.2 19.97.54 30.54 2.08.78 4.18 1.54 6.32 2.27 3.44-.43 6.87-.76 10.33-.43 49.17 4.71 98.81 9.84 148.13 10.26 20.59.18 39.57 8.81 59.47 10.54 11.07-.6 22.14-1.18 33.24-1.58 18.46-1.6 36.58-3.2 55.29-1.77 10.46.8 21.18 4.19 31.45 4.87 15.2 1 28.31-.93 43.48 1.71 8.04 1.4 15.55 5.31 23.18 6.84 4.36.87 9.95-1.35 14.1-.03 2.77.89 4.96 2.42 7.4 3.58 16.56-1.31 36.67-3.88 59.28-7.38-9.58-3.43-14.42-9.48-11.43-19.06-.45-3.78.08-8.12.16-11.73.03-1.51-.18-4.11.68-5.46.13-.2.1.48.16.72.01.04.25.98.31 1.21.3 1.08.69 2.05 1.18 3.06.8 1.63 1.86 3.17 2.99 4.64.78-.57 1.55-1.13 2.31-1.71-.52-2.87-.17-6.2-.16-8.58 0-1.09-.34-3.03.44-3.88.01-.02.67 1.16.69 1.2.46.88.93 1.72 1.53 2.51.97 1.28 1.95 2.46 3 3.58.87-1.11 1.65-2.28 2.39-3.49-2.22-5.05-4.25-10.12-4.88-15.75-.23-2.13-.13-4.32-.13-6.46V1361c0-.35-.25-1.3-.04-1.03 1.55 1.93 2.58 4.27 3.9 6.35 1.3 2.04 2.75 4.08 4.38 5.97-.05-.11-.1-.23-.14-.35-.78-1.92-3.62-5.68.35-5.51.49.02.98.07 1.47.11 1.04.08 2.06.25 3.09.4.47.08.94.14 1.41.21-.26-.72-.52-1.44-.78-2.15-.42-1.14-.86-2.25-1.28-3.38-.47-1.26-.93-2.55-1.2-3.87-.02-.09-.33-1.13-.21-1.28.68-.84 3.11.84 3.65 1.18 1.29.82 2.56 1.66 3.85 2.43l-.06-.78-.42-4.97c-.01-.14-.22-1.2-.07-1.35 1.55-1.47 4.62.3 6.2.94l1.05.42c-.14-.38-.28-.75-.43-1.13-.44-1.13-.91-2.24-1.34-3.38-.41-1.1-1.86-4.07.36-3.7.32.05 1.13.29 1.43.41 1.18.45 1.14.46 2.06.85 1.14.49 2.28 1 3.43 1.49 1.62-1.82 3.29-3.61 4.88-5.45-1.49-1.33-2.95-2.69-4.25-4.21-.02-.02-1.54-1.92-1.45-2.03.85-1.21 4.02-1.34 5.32-1.54 1.59-.24 3.18-.38 4.78-.54.21-.02.42-.05.64-.07 1.14-3.31 1.74-6.89 2.1-10.09.17-1.57.66-3.5-.01-4.98 4.93-15.38 4.6-31.87-5.93-44.99-1.24-1.55-2.95-2.8-5.03-3.82-.03.01-.05.03-.08.05-.68-1.64-4.34-3.39-5.46-3.62-1.32-.27-2.65-.49-4-.68-.68.75-1.35 1.52-2.01 2.3-.91 1.08-3.36 5.03-5.17 4.92-.35-.02-.16-.69-.23-1.03-.15-.73-.16-.7-.26-1.63a93.47 93.47 0 0 1-.48-5.31c-3.88-.23-7.77-.31-11.54-.45a54.9 54.9 0 0 1-2.2-.11c-.42.46-.84.93-1.24 1.41-1.1 1.32-2.05 2.65-3.07 4.03-.51.7-.98 1.43-1.52 2.11-2.66 3.37-1.68-2.29-1.65-3.69.03-.94.1-1.89.23-2.82.08-.55.17-1.1.28-1.64-.75 1.34-1.43 2.72-2.09 4.11-.25.52-.48 1.06-.74 1.58-.23.46-.47.9-.72 1.34-.8 1.41-1.39.5-1.64-1.09-.29-1.8-.7-3.57-1.03-5.36-.1-.52-.19-1.03-.28-1.54l-3.04-.42c-.94.84-1.88 1.69-2.81 2.55-1.25 1.17-3.26 3.53-4.99 3.96-.48.12-.08-.99-.12-1.48-.08-.9-.13-1.79-.17-2.7-.04-1.2-.1-2.41-.14-3.61-2.03-.34-4.05-.71-6.07-1.1a57.44 57.44 0 0 0-7.63 7.72c-2.08 2.54-3.31 6.01-5.59 8.31-.26.27-.19-.72-.28-1.09-.13-.53-.25-1.07-.38-1.6-.4-1.66-.72-3.31-.99-5a97.34 97.34 0 0 1-.84-6.34c-.85 1.58-1.9 3.04-3.15 3.22-.15.02-1.24-2.97-1.32-3.16-.83-2.02-1.6-4.06-2.36-6.1-.53 2.98-1.01 5.98-1.51 8.98-.36 2.21-.61 4.44-1.01 6.64-.13.74-.23 2.26-.8 2.8-.19.18-.21-.47-.31-.71-.2-.51-.4-1.02-.59-1.53-.55-1.49-1.09-2.98-1.56-4.5-1.43-4.58-2-9.28-2.09-14.02-.21.92-.42 1.82-.64 2.71-.16.66-.58 2.16-.78 2.81-.3.93-.56 1.61-1 2.48-.18.36-.37.71-.59 1.05-1.43 2.21-1.57-.34-2.12-1.76-.64-1.67-1.27-3.32-1.77-5.05-.1-.36-.19-.71-.28-1.06-.14.63-.31 1.25-.53 1.85-.08.2-.11-.43-.16-.64-.09-.4-.2-.81-.29-1.22-.28-1.27-.64-2.52-.92-3.79-.49-2.2-.94-4.43-1.46-6.63-1.24-.92-2.47-1.87-3.68-2.83-.1.3-.21.6-.32.9-.35 1.01-.69 2.03-1.05 3.03-.16.45-.3.91-.48 1.35-.09.21-.17.43-.27.63-1.38 2.86-2.21-1.03-2.58-2.44-.73-2.87-.66-5.59-.61-8.43-5.6-5.23-8.98-10.7-8.24-17.28 1.41-12.36 17.91-36.51 35.27-43.06 18.83-7.11 49.64 1.15 77.71.41 20.8-.54 39.67-10.94 60.8-7.83 18.05 2.66 32.35 14.15 50.55 16.72 21.36 3.02 45.35 1.77 64.73-8.53 38.2-20.3 48.13-66.74 65.44-102.7 21.99-45.68 54.64-93.416 97.7-121.729 26.65-17.527 54.36-13.959 82.72-25.187 12.77-5.055 23.49-14.056 35.24-20.964 28.84-16.948 60.51-8.736 90.38-23.57 43.12-21.422 101.36-39.001 136.31-72.99-2.13 34.656-28.7 47.176-49.84 74.569-22.53 29.2-45.65 45.155-78.02 62.837-18.14 9.905-52.9 48.194-66.27 58.754-16.16 12.77-7.46 33.06-7.12 49.83.35 16.86 11.55 34.51 9.18 51.36-1.86 13.3-10.99 29.14-7.82 42.74 2.02 8.65 14.88 20.73 16.82 30.45 1.86 9.27-8.95 19.01-5.15 27.89 15.25 35.58 12.44 72.09 14.49 110.01Zm-484.12 94.78c9.79-1.77 19.84-3.63 30.09-5.58 5.19-3.54 10.53-6.76 16.45-8.64 26.58-8.46 55.63-12.01 82.83-16.93 10.78-1.94 19.8-7.76 30.18-10.62 2.65-.73 6.23.81 9.2.24 6.06-1.17 13.87-6.72 19.83-6.54 6.58.19 14.76-.21 21.4-1.21 15.58-2.34 31.21-4.78 46.2-9.82 4.37-1.47 15.57-7.31 18.64-5.6 1.28.72 2.31 1.62 3.12 2.67 3.05-.78 6.3-1.3 9.95-2.66 5.02-1.86 9.96-6.8 15.13-7.77 21.56-4.06 45.43.01 66.73-7.13 13.29-4.46 27.52-10.92 41.5-12.05 1.58-.13 3.13-.17 4.68-.15 8.39-14.02 13.94-32.61 15.3-44.28 3.13-26.8-14.76-61.4-26.86-84.21-2.58-4.87-10.87-24.3-16.94-24.4-.23-.01-1.34 2.89-1.48 3.19-4.04 8.86-7.91 17.64-12.83 26.05-11.7 20-23.98 47.43-40.87 66.56-1.19 8.18-1.8 16.14-5.52 23.7-4.39 8.91-13.19 13.23-18.59 21.17-2.01 2.96-8.32 6.64-9.81 10.07-.19.45-.39.89-.59 1.32-.12.24-.23.47-.35.7-1.16 2.29-1.11 5.1-3.2 6.64-.57.42.9-4.99-1.64-4.15-1.12.37-1.71-.33-3.08-.61-.26-.05-1.18-3.4-6.35 1.44-.05.06.28-1.94.3-2 .56-2.41 1.87-3.98 3.47-5.76 7.48-8.32 7.69-11.38 12.89-21.33 2.38-4.57 2.54-9.96-2.02-12.59-15.3.43-28.51-7.14-42.22 1.84-12.93 8.46-17.62 24.59-31.59 33.14-20.7 12.67-45.57 17.37-67.32 26.2-13.76 5.58-36.82-3.47-51.45 3.74-11.64 5.73-14.16 16.14-24.19 22.05-13.9 8.2-25.52 7.25-40.18 13.48-15.17 6.45-27.36 19.97-40.81 29.83ZM1220.82 274.79c-5.42 1.144-10.77 2.168-15.98 2.9-12.19 1.712-24.43 2.475-36.68 2.937-2.34 6.898-2.48 12.647-4.06 21.569-1.14 6.413-5.49 11.813-6.65 18.282-1.62 9.039-.2 17.75-1.2 25.732-.97 7.728-2.05 18.319-3.91 25.982-2.02 8.364-5.03 16.13-5.83 24.788-.76 8.266-.01 16.604-.71 24.83-.67 7.971-2.84 15.792-3.85 23.725-.99 7.692-.14 15.377-.85 23.048-1.27 13.826-3.4 27.643-4.59 41.519-.58 6.671.47 13.534-.45 20.174-2.92 21.187-10.08 41.897-14.64 62.766-2.73 12.516-4.05 25.27-6.71 37.751-1.19 5.616-3.59 10.917-4.79 16.546-.9 4.282-.49 8.718-1.59 12.999-4.7 18.257-16.35 33.353-21.44 51.569-4.72 16.906-11.41 33.261-16.52 50.051-2.28 7.483-.31 15.582-3.86 22.693-1.72 3.441-3.46 6.87-5.19 10.308 6.12 9.994 11.84 20.238 13.56 31.761 2.23 14.845 2.73 30.419 3.25 45.398.22 6.189 2.39 13.327 1.13 19.389-1.33 6.445-5.7 12.939-8.11 19.063-4.43 11.299-8.89 22.931-12.23 34.749.03.06.06.12.08.18 1.92 4.543.92 10.237.73 15.012-.37 9.407-.45 18.719-1.37 28.094-1.64 16.655-7.18 32.055-9.42 48.465-1.53 11.18.07 23.71-2.42 34.62-2.46 10.74-8.12 20.56-10.12 31.4-2.36 12.78 1.13 25.03 1.42 37.73.57 24.81-3.33 49.73-4.07 74.52-.32 10.64 4.84 20.79 4.57 31.4-.26 9.95-3.37 19.46-3.94 29.37-1.03 17.84-3.17 37.83-2.98 55.6.1 10.31 1.36 20.32 2.16 30.46 11.85-4.58 24.03-8.37 35.92-12.89 1.44-.55 11.34-5.53 12.42-4.76 9.78 7.03 13.03 24.53 17.17 35.1 3.21 8.21 6.31 16.78 10.61 24.49.18.33 5.56 7.17 5.59 9.37.07 4.53-3.87 8.7-8.06 12.05 1.14.44 2.31.8 3.55 1.02 12.13 2.16 26.11.05 38.46-.99 9.13-.77 15.59-7.21 23.99-8.81 2.93-.56 6.67.84 9.65.93 7.52.23 15.2.23 22.6-1.33 3.83-.81 7.95-2.57 12.16-4.17-.66-4.42-1.24-8.93-1.71-13.48-3.77-4.82-8.25-9.35-9.84-15.16-1.14-4.15.54-8.71 2.26-12.45 1.77-3.85 4.09-7.36 6.51-10.82.72-12.1 2.56-24.03 5.94-35.3-.52-3.72-1.07-7.44-1.3-11.2-.15-2.51-.95-7 .34-9.36 1.88-3.43 5.78-5.2 9.21-6.75 1.83-.82 3.7-1.55 5.58-2.24a89.374 89.374 0 0 1 19.07-20.25c2.61-2.02 5.33-3.85 8.13-5.45.94-2.14 1.89-4.26 3.07-6.29.97-1.65 2.12-3.17 3.35-4.63 1.06-1.26 2.65-3.38 4.42-4.26-.83-2.74-1.68-5.47-2.56-8.19-6.82-21.03-13.88-41.93-20.2-63.11-1.13-3.79-6.98-14.81-5.58-18.24 1.05-2.55 3.36-4.02 5.58-5.55 11.7-8.11 14.67-6.01 22.12 6.9 8.1 14.04 13.04 30.72 17.25 46.92 5.12-5.52 9.89-11.32 13.94-17.73 1.56-2.47 2.99-5.03 4.31-7.63.93-1.85 1.08-7.03 2.61-5.63 18.38 16.85-2.32 41.39-13.86 59.26 1.67 7.46 3.12 14.93 4.42 22.41 3.19.98 6.33 2.38 9.39 4.23 6.71-1.86 14.36-4.11 18.76 2.94.68 1.08 1.15 2.3 1.4 3.55.33 1.66.24 3.33-.08 4.98-.55 2.87-1.87 5.45-2.91 8.14 1.97 4.36 3.4 9.01 4.5 13.68.09.36 2.69 9.36 1.75 10.11-4.2 3.3-12.2-5.37-14.33-7.69l-.11-.11c-1.39.47-2.86.78-4.32.94-3.65.41-6.95-2.52-8.68-5.51-.17-.31-.34-.61-.49-.93 2.61 22.71 4.21 45.57 5.76 68.68.36 5.47.75 10.89 1.12 16.28 5.24-.45 10.66.43 15.73 1.25 9.85 1.59 21.15 3.65 31.22 3.18 5.44-.25 10.91-1.68 15.72-4.25 2.59-1.39 4.13-3.67 7.05-4.35 10.46-2.43 22.16 2.04 33.7-1.23 4.22-1.2 7.67-3.53 10.88-6.42.6-.54 2.14-3.13 2.95-3.19 1.65-.11 3.73 1.31 5.48 2.58 1.92-6.63 3.29-13.58 3.65-20.26.4-7.54-.73-15.36 1.45-22.7 4.55-15.3 15.19-28.07 16.77-44.46 1.4-14.57-4.12-29.32-2.22-43.72 1.52-11.47 9.13-19.28 11.6-28.76 1.83-7-2.88-13.26-1.28-19.72 3.26-13.18 9.75-27.04 11.42-40.58 1.19-9.67-1.02-19.23-1.43-28.86-.77-18-.78-36.9.55-54.81.81-10.94-.25-24.36-3.27-35.15-1.48-5.3-4.6-10.61-5.11-16.14-.59-6.4.65-13.06.77-19.478.16-8.076-1.64-17.39.49-25.317.19-.691.38-1.375.59-2.053-.17-.22-.35-.445-.53-.674-10.65-13.685-1.58-31.997-1.3-46.688.04-1.928.05-3.849.05-5.763-3.61-46.91-9.3-93.732-9.99-140.797-.05-3.049-.07-6.101-.08-9.156a18.768 18.768 0 0 1-2.73-7.287c-2.16-13.767 2.02-27.603 3.47-41.452.1-4.282.2-8.566.29-12.85-.08-1.027-.2-2.054-.34-3.082-2.6-18.124-12.78-33.559-15.96-51.467-3.81-21.454 3.74-42.721 1.96-64.075-.71-8.529-4.93-16.723-6.07-25.288-1.44-10.804-.89-23.98 1.51-36.34-.28-1.339-.55-2.678-.83-4.016-10.42-17.046-21.69-33.607-34.47-48.706-7.5-3.635-18.71-10.336-23.96-14.121-5.2-3.744-3.62-10.116-5.12-15.3a550.92 550.92 0 0 0-8.24-7.195c-4.5-1.435-9.93-2.288-13.12-4.291-6.66-4.194-10.44-11.618-15.76-17.094-3.6-3.705-10.91-5.775-15.17-9.022-5.57-4.241-7.61-9.531-9.97-14.955-11.76-10.525-22.92-21.549-32.72-33.584-1.8-.427-3.42-.854-4.52-1.384-1.69-.805-4.99-3.154-6.22-4.217-4.14-3.574-2.05-7.12-1.04-10.449-1.59-2.411-3.13-4.85-4.64-7.309-3.54-.756-8.18-.722-10.06-1.354-10.71-3.614-19.25-22.327-21.64-31.137-1.3-4.819-5.59-8.326-7.5-12.933-1.14-2.772-.78-7.12-1.37-10.221-.07-.34-.16-.904-.25-1.614-.67-.06-1.34-.123-2.01-.191Zm189.83 147.845c.87-7.561 2.21-15.003 3.72-22.878 3.57-18.689-5.02-37.823-4.94-56.423.02-5.112 3.19-9.442 5.04-13.962 1.47-3.609.95-7.642 2.06-11.392.68-2.282 1.82-4.473 3.17-6.552-42.64-22.396-91.35-31.385-139.34-34.646 7.08 8.032 14.11 16.113 21.25 24.097 20.07 22.446 39.87 45.119 60.03 67.48 16.31 18.09 32.6 36.244 49.01 54.276Zm1834.78 590.805c8.48-13.952 15.9-27.314 21.98-39.753-13.35 2.005-27.09 3.642-37.18 4.748.46.352.93.694 1.41 1.025 2.73 1.872 7.54 3.04 9.77 5.557 1.99 2.258 2.6 6.047 3 8.895.91 6.438 1.04 12.988 1.02 19.528Zm-455.28 822.19c-13.98-2.03-25.69-5.21-31.98-11.44-11.19-11.09-41.16-36.09-37.39-53.45 2.01-9.21 12.45-16.36 9.34-27.14-.3-1.03-41.89-76-48.05-78.75-18.77-8.4-43.1-5.16-63.12-9.32-30.96-6.44-58.55-18.8-91-23.06-14.75-1.94-31.68 1.33-46.5.84-19.87-.67-39.15-7.12-58.9-7.43-46.21-.74-92.64-1.74-138.78-1.8-16.04-.02-31.32 4.07-47.66 2.79-56.48-4.43-117.38-6.23-172.94-17.02-4.22.19-8.44.32-12.67.37-1.31-1.35-2.58-2.71-3.83-4.08-31.38-8.22-61.67-22.15-94.1-25.52-145.02-15.05-291.57-15.02-436.85-22.45-69.39-3.55-138.28-29.15-208.4-28.73-40.31.24-73.77 15.54-112.07 21.6-17.61 2.79-35.47.27-53.01 4.14-16.49 3.64-29.54 14.48-46.85 16.85-53.35 7.3-80.03-5.82-121.213 7.11-5.957 16.39-11.148 33.39-19.731 50.68-31.357 63.17-96.368 125.24-85.668 197.38 22.6 17.06 47.933 38.7 66.523 54.73 2.323.74 4.738 1.5 7.25 2.27 43.888 13.42 87.519 28.23 131.869 40.06 109.34 29.17 220.06 58.18 331.76 76.77 100.63 16.74 205.39 27.46 307.23 31.63 77.52 3.18 155.71.58 233.3.56 177.56-.03 349.64-21.28 523.4-55.95 130.6-26.07 167.03-24.57 267.98-97.77 19.24-13.96 36.86-27.79 52.06-43.87ZM1024.57 396.145c9.82-34.593 19.16-69.361 28.28-104.173-27.74 5.188-55.507 10.591-83.449 11.456-47.754 1.477-91.858-11.384-137.243-18.667-37.319 7.714-74.794 14.146-112.663 17.029-13.951 6.575-27.537 13.169-40.34 17.369-45.381 14.886-96.615 13.844-147.681 4.83-18.921 41.044-42.168 80.674-63.827 120.315 9.162 4.578 18.515 8.802 27.724 13.011 35.249 16.107 41.02 27.445 77.125 34.129a64.098 64.098 0 0 1 4.842-.713 34.853 34.853 0 0 1 3.333-2.123c.415-.996.851-1.989 1.31-2.98 7.774-16.772 16.965-15.127 21.702-.173 6.926.567 13.862 1.903 20.072 2.853 1.689.259 3.375.506 5.058.747 1.215-5.351 3.268-9.526 6.683-11.028 7.608-3.347 10.213 7.884 11.297 13.602 8.503 1.325 16.947 2.947 25.344 5.523.87.267 1.741.533 2.611.794.792-4.73 2.449-9.069 5.557-12.496 9.774-10.78 17.585-.618 22.139 10.289 34.535-3.981 99.165-11.975 133.732-23.885 23.475-8.088 47.49-16.389 70.067-26.75 32.306-14.826 62.571-33.889 97.097-43.426 7.05-1.948 14.15-3.71 21.23-5.533Zm2067.91 810.265c5.79-5.85 11.63-11.9 17.48-18.12-5.13-4.34-10.58-8.13-16.57-11.77-.14-.09-.27-.17-.4-.25-.04 6.07-.15 17.55-.51 30.14ZM814.186 1333.36a48.165 48.165 0 0 1-3.837 3.86c-5.05 4.51-10.581 8.26-16.478 11.36 3.513 1.52 7.196 2.64 10.76 3.39 2.642.55 5.086.87 7.39 1.02 1.469-6.46 2.326-13.06 2.165-19.63Z" style="fill:#8c8c8c"/><path d="M2790.15 1835.63c-13.98-2.03-25.69-5.21-31.98-11.44-11.19-11.09-41.16-36.09-37.39-53.45 2.01-9.21 12.45-16.36 9.34-27.14-.3-1.03-41.89-76-48.05-78.75-18.77-8.4-43.1-5.16-63.12-9.32-30.96-6.44-58.55-18.8-91-23.06-14.75-1.94-31.68 1.33-46.5.84-19.87-.67-39.15-7.12-58.9-7.43-46.21-.74-92.64-1.74-138.78-1.8-16.04-.02-31.32 4.07-47.66 2.79-56.48-4.43-117.38-6.23-172.94-17.02-4.22.19-8.44.32-12.67.37-1.31-1.35-2.58-2.71-3.83-4.08-31.38-8.22-61.67-22.15-94.1-25.52-145.02-15.05-291.57-15.02-436.85-22.45-69.39-3.55-138.28-29.15-208.4-28.73-40.31.24-73.77 15.54-112.07 21.6-17.61 2.79-35.47.27-53.01 4.14-16.49 3.64-29.54 14.48-46.85 16.85-53.35 7.3-80.03-5.82-121.213 7.11-5.957 16.39-11.148 33.39-19.731 50.68-31.357 63.17-96.368 125.24-85.668 197.38 22.6 17.06 47.933 38.7 66.523 54.73 2.323.74 4.738 1.5 7.25 2.27 43.888 13.42 87.519 28.23 131.869 40.06 109.34 29.17 220.06 58.18 331.76 76.77 100.63 16.74 205.39 27.46 307.23 31.63 77.52 3.18 155.71.58 233.3.56 177.56-.03 349.64-21.28 523.4-55.95 130.6-26.07 167.03-24.57 267.98-97.77 19.24-13.96 36.86-27.79 52.06-43.87Z" style="fill:#8c8c8c;fill-opacity:.77"/></svg>